<svg xmlns="http://www.w3.org/2000/svg" viewBox="0 0 1405.64 801.7"><defs><style>.cls-1,.cls-2,.cls-3,.cls-4,.cls-5{fill:none;stroke:#d9d9d9;stroke-miterlimit:10;}.cls-1{stroke-width:2px;}.cls-2,.cls-3,.cls-4{stroke-width:0.75px;}.cls-2{stroke-dasharray:10 10 2 10;}.cls-4{stroke-dasharray:5 5;}.cls-5{stroke-width:0.5px;stroke-dasharray:6 6;}.cls-6{fill:#3c3c3c;}</style></defs><g id="Calque_2" data-name="Calque 2"><g id="Mapping_2"><path class="cls-1" d="M1091.83,1a52.56,52.56,0,0,1-2,8.5c-12.1,32.49-46.19-5.4-65.87,10.1a42.49,42.49,0,0,1-25,7.48c-36.66-1.75-72.06.68-89.54,38.05-4,16.16-24.26,31.5-10,47,23.38,19.47,34.84,47.09,39.66,76.59,3.49,21.71,23.79,33.76,33.9,52.06,5.78,9.54,13.61,16.17,24.9,19.28,10.64,2.94,20.71,7.87,31.1,11.75,7.19,2.46,16.34,2.53,21,9.53,7.45,12.6-13.57,20.61-24,20.16-30.83-1-56.32,4.5-80.59,23.87-26.83,4.09,14.41-56.57-54.94-27.62C862,296.44,846.59,257.06,854,232.9c4.85-8.28,16.35-5.36,23.86-9.6,12.8-5.28,7.47-22-5-23.06-18.31.23-30.49,18.24-50.07,12.31-47.35-5.68-92.42-24.3-140.57-23.43-47.08.69-57.56,19.34-90.94,46.36-30.14,19.19-7.76,43.64,3.56,66.36,7.43,19-17.68,53.83,13.83,58.68,67.9,8.79,31.22-37.8,72-49.21,20.29-4.1,38.12,6.22,56.59,12C759.69,326.43,766.8,362,791.78,350c12.49-7.2,27.63-7.67,38.5,2.54,39.37,35.29,38.67-37.15,80.08-20.05,12.85,4.52,15.17,6.53,16.41,20,.19,23.41,24.15,38.41,22,61.53-3.06,27.33-24.12,50.82-49.9,59.52-36.37,13.41-61.58-20.33-89.59-36.87-34.1-20.34-52.58,36.28-69,58-5.94,28.26-21.21,43.84-48.52,53.54-61.67,7-17.6,29.47-47,51.62-27.17,8.53-45.24,29.56-66,47.58-11.12,9.86-31.36,8.94-35.87,25-.82,19.84-12.92,40.82-34.21,44.57-27.39,2.09-58.15,8.55-68.28,38.4-4.67,12.42-12.47,26.46-4,39.24a47.56,47.56,0,0,1,4.92,6"/><path class="cls-1" d="M1295.07,1a53.22,53.22,0,0,0-29.34,22.18c-11.37,12.74-30.38,6.23-45.2,11.68-24.58,6.74-53.72-8.26-56.46-34"/><path class="cls-1" d="M1405.19,195.46c-10.14,5.07-21.67,5.88-28.94-2.73-8.44-17-9.25-47.11,7.48-59.42,18.66-7.38,5.87-25.47,4.44-40.14,1.15-23.65-13.05-42.9-23-63.07-6.66-14.94-19.3-24.73-33.68-29.14"/><path class="cls-2" d="M845.91,1a53.5,53.5,0,0,1,15.94,12.6c26.19,27.57,13.9,86.63-27,90.65-53.66,14.29-109.46,14.56-164.13,18-38.14,6.79-68.75-18.7-109.09-2-76.14,23.23-31.14,29.52-38.89,81.19-2.39,7-7.56,11.61-12.75,15.82-24.41,24.49,11.27,44.75-27.38,75.76-14,16.81-9.65,40.81-9.81,61,.43,19.24,23.07,26,39.32,25.56,29-2.18,46.79,23.15,71,34.12,24,10.29,50.29,12.29,76.1,11.94,37.83-.69,45.07,49.29,11.52,64.05-14.29,7.21-29.49,13.62-45.55,14.95-20.48-.63-42.55-1.3-55,18.07-8.53,10.48-20.29.72-29.51-4-30.07-12.89-60.68-24.64-90.6-38-27.43-7.39,2.3,44.59-14.48,60.49-16.77,19.15,5.89,43.13,25.05,49.94,16.21,4.09,37.14,4,41.83,23.7,6.77,17.86,3.08,40.26-18.35,45-22.21,2-44.71,1.55-67,3-96.55-3.41-68.28-41.3-83.51-114.63,7.27-36.53,57.25.75,60.74-76.13,9-33.28,106.43-110,7.26-87-27.67,7.49-56,.65-84.05,1.35-32.29-.76-74.78-6.66-83.85-43.5-16.22-33.66-.64-107.21-41.8-119.34-15.26-2.55-29.4,9.32-43.94,12.9-23,3.37-65.55,28.85-84.14,16C52.48,240.86,33.12,229,37,210.74,65.82,101.2-27.3,134.67,77.83,70.23c64-43.53,54.06,27.14,151.13-12,4.74-4.69,1.44-12.87,1.73-19.14-1.1-11.74,1.24-24.26,2.81-36,.11-.7.19-1.39.25-2.08"/><path class="cls-2" d="M1405.22,402.67c-7-9.14-24.72-7.85-30-26.19-12.58-35.38-42.09-47.07-75.1-58-22.7-7.78-49.27,3.41-69.5-13.13-28.8-20.78-64.24,15-106.57,3.93-53.81-11-21.58-36.2-81.52-2.76-38.41,6.32-72.88,4-98.45,39.52-16.91,21.33,12.11,41.46,12,63.43,3.31,47.78-12.09,47.64-51.13,66.1-38.24,15.85-67.65-16.36-101.54-28.17-19.46-6.61-31.68,18.33-40.35,31.76-11.81,15-3.79,41.39-21.21,51-15.51,6.17-29.53,15.34-44.57,22.46-9,5.65-21.57,6.18-27.9,15.12-5.62,11.87,4.65,28.22-11.58,35C630,612.71,604,624.12,586,648.66c-11.45,12.74-31,18.15-32.35,37.67-4.92,22.32-25.28,40.32-48.06,41.57-29.71.54-63.79,19.81-63.13,53,2.84,7.79,5.74,14.19,8.24,20.07"/><path class="cls-2" d="M1380.91,801c-31.24-14.54-65-24.61-99.79-22-15.42-.4-29.42-4.44-41-15.07-6.38-6-17.87-23.2-3-26,74.72-7,21.83-30.63,44.64-58.93,34.39-19.45,55-17.48,56.43-65.71-.73-31.72-35.05-11.11-53.53-13.59-22.69-1.83-42.92-13.8-64.57-19.89-47-11.9-11-45.12-32-75.64-15.09-32.76-49.62-53.61-85.58-45.54-21.48.76-43.61-3.09-63.6,6.87-17.48,7.49-34.32,4.91-50.53-4.78-19.07-15.4,28.33-31.11,40-24.84,27,8.85,41.76-34.19,69.13-8.3,24.9,29.2,42.69,4.45,72,13.24,25.18,7.41,43-12.3,65.08-19.32,19.34-5.29,39.26-2.76,59.06-2.86,24.72,1.27,47.09-11.54,71.55-12,16.82-1.24,16.17,20.29,25.82,29.65,7.6,8.44,11.85,9,14.22,5.78"/><path class="cls-3" d="M867.2,1a63.08,63.08,0,0,1,11,19.19c6.35,16.22,17.25,33.45,13.74,51.52,1.87,37.26-34,36.9-61.13,44.53-52.26,17.71-110.26,3.88-162.56,19.17-39.56,10.26-77.29-28.51-118.15.84-28.76,20.48,8.5,67-24.44,95.68-16.77,15.47-4.89,44.34-24,58.54-19.12,12.44-19.77,36.11-15.12,56.54,5.27,24.22,32.59,15.6,49.59,23.54,20,10.09,38.09,23.26,57.13,34.9,41.18,33,110.17-27.85,113.4,34.16,2.45,18.83,3.95,41.89-16.38,51.09-23.3,11.73-47.55,24.49-74.07,26.08-35.79-1.73-26.83,54.06-74,26.83-20.89-12-50.61-40.28-74.17-20-24.42,25.27-18.08,51.61,19.59,57.07,26,6.64,28.39,37.39,31,59.61,4.06,17-10.2,30.76-23.67,38.35-6.43,3.88-14,2.48-20.87.13-31.77-11.21-60.08,19.94-92.06,6-18-12.33-45.06-22.59-47.6-47-1-26.45-13-49.6-20-74.58-11.34-23.35-38.52-8.55-50,7.07-13.79,16.18,7.73,33.25,16.35,46.54,55.15,79-12.86,84,5.61,109.55,42.72,30,29.05,35.32,53.17,65.91a25.43,25.43,0,0,1,7.32,8.74"/><path class="cls-1" d="M5.22,632.43c18.19-4.61,38.38-8.79,48,8.88,4.45,14.61,22.69,10.06,19.08-5-8.12-30,34.59-24.66,52.07-34.41,31.08-6.25,65.69,5.49,89.5-23.19,27.06-19.25,7.9-36.44-17.49-36.89a300.24,300.24,0,0,0-42.52,1c-22.39.29-41.41-14.59-64-13.13-20.1.62-41.05.65-57.51-12.55C19.57,504.79-5.86,497.67,2.74,475.6c5.73-19.33,19.13-35,33-49.11C53.83,412.93,79.21,421.1,98.28,408c11.25-6.52-6.87-21.25-7.2-30.93-.69-5.35-4.88-16,1.22-18.44,52.49-2.92,21,39.89,36.49,51,14.42,9.53,26.63-7.48,41.56-5,22.29,1.66,44,0,66.05-4,6-.42,9.4,4.13,12.38,8.06,16.92,20.72,43.45,29.22,62.74,47.38,14.44,16.29-5.38,55.3,32.91,55.46,35.36-7.51,28.12-51.83,46.05-75.41,29.88-38.8-7.52-26-33.49-30.68a503.21,503.21,0,0,0-78.54-11c-16-1.92-35.33,3.52-41.18-16.29-18-37-19.8-78.9-34.84-116.7-16.65-30.11-57-4.72-82.06.21-28.89,10.89-45.67,45-43.11,74.9,3.14,19-23.11,10.94-44.9,40.64-7.9,9.87-17.25,4.79-27-.85"/><path class="cls-4" d="M1142.74,801c17.69-19.33,38.54-36.9,44.43-63.1,7-19.69-15.53-66.8-33.16-77.09-15.87-11.61-31-23.91-42.11-40.51-2.14-3.21-5.33-6.89-9.85-5.42-9.18,5.51-5.8,19.68-8.08,28.88-3,21.94-15,72.07-45.41,50.93-27-17.66-6.39-51.5-19.51-74.53-9.48-14.14-9.64-38.07-31.63-37.44-27.29-4.18-45.5,24.28-72.54,19.92-29.33-.46-45.11-30.45-73.08-33.8-20,.08-39.76,2.73-60,2-18.71,6.28-10.16,36.31-30.47,43-4.19,2.28-8.8,4.43-11.62,8.84-12.57,17.64,3.44,63.9,29,44.47,20.86-16.57,41.67-43.9,72.09-33.38,8.92,3.07,13.8,12.14,18,20,13.55,18.94,42.39.71,57,29,35.64,57.29,121.35,2.87,140.19,57.5,11.61,25.32,3.39,44.24-11.49,60.64"/><path class="cls-1" d="M463.28.87a167.65,167.65,0,0,0-6.57,27.76C455,53.81,473,77.47,465,103.18c-4.78,39.4,21.32,13.38,6.5,79.09C468,242.72,411.28,291.72,351.48,291.21c-37.09-5.09-90-14-59.91-62.32,21.57-29.25,64.11,18.56,90-11,25.59-19.44,66.48-71.44,29-96.67-29.84-15.36-63.29-22.14-92-39.61-10.33-10.47-63.94-8.91-57-24.92,12.69-23.34-1.26-40-4.43-56"/><path class="cls-3" d="M1405.22,530.79c-7.86-5.91-14.94-13.81-24.94-16.37-12.32-3.46-14.2-14.24-5.65-25.85,21.67-23.11,10.17-44.48-6.4-66.58-12.55-14.75-34.25-4.54-50.1-2-32.67,7.22-70.57-7.52-99.61,14.49a113.26,113.26,0,0,1-42.45,19.21c-6.73,1.55-7.63,3.77-4.45,9.86,9.93,19.75,23.91,37.55,30,59.09,4.59,17-6,43.45,18,45.91,24.53,4.83,43.29,25.63,69,25.07,19.13.12,35.3-13.22,54.55-12,7.48.46,14.86,3.42,11,12.64-8,18.53-11.83,38.14-16.89,57.6-13.32,41-63,7.82-47.07,68.54.08,19.91-23,18.21-35.09,27.06-14.9,15.46,18.26,26,30.51,21.58,24.12-5.66,47.09,9.52,71.09,6.06,4.38-1.82,4.71-1.91,3.5-6.66-3.67-21.42-34.64-65.72,3.46-70.46,15.78,3.08,29.65-.69,41.53-8.69"/><path class="cls-3" d="M1045.2,801c15.71-16.31,24.17-36.63,9.68-58.57-27.37-34.21-79-14.29-115.56-31.41-30.62-15-38.18-28.75-76-24.16-9.08.25-17.81-1.15-25.46-6.13-23.77-10.44-50.4,6.24-75.11,7.1-12.4.79-17.16-5.54-19.91-15.56-3.93-20-18-46.55,2.86-61.58,20.87-9.87,24.75-32.14,21.91-53-5.12-19.26-34.35-17-48.92-9.59-63.86,28-2.59,51.3-74.57,67.41-12.87,2.84-24.46,7.7-34.47,16.25-15.55,13.29-57.46,57-17.52,64.05,17.34-.26,35.85,1.87,49,14.08,40.45,50.59,66.36,23,81.5,63.56,2.62,9.21,6,18.36,9.24,27.56"/><path class="cls-3" d="M1148,221.81c22.63-.23,43.08-11.17,65.52-12.68,41.28-5.24,108.49,17.73,118.29-39.94,4.53-37.85-26.49-75.49-58.34-92.8-39-17.36-85.34-10.45-122.49-33.74-20.4-12.22-36.72,11.83-58,10.62-15,.75-29.55,4.42-44.09,8.17-24.13,6.33-50.05-3.19-75-.25-36.62.51-27.37,39.27-23.06,63,2.7,20.25,5.91,40.53,12,60.08,30.13,64.53,75.08,24.17,124.12,27.16,20.38,2.71,39.8,10.68,60.56,10.36"/><path class="cls-3" d="M475.82,1a86.68,86.68,0,0,0-4.31,54.63c9.68,81.12,50.11,64.55,112.15,49.67,26.16-7.74,51.11,8,77,6.72,36.51-3.17,72.78.56,109.09-5.87,25.68-6.25,75.52-3.63,87.2-30.45C878.8,35,853.6,13.1,820.64,1"/><path class="cls-3" d="M713,1a226.55,226.55,0,0,1-50.34,0"/><path class="cls-3" d="M481.85,1c-3.07,6.28-5.34,14.29-6.34,25.08-.92,94.47,36.11,93.78,114.64,73.13,13.89-2.81,27.71-.8,41,3.16,14.09,4.21,28.37,4.67,42.57,3.52,34.54,1.56,68,.7,102.09-5.63,24.41-6,64-1.7,76.53-27.13C861.89,54.79,864.89,29,843.36,18A224,224,0,0,0,805.22,1"/><path class="cls-3" d="M429.83,801c-6-7.83-10-15.67-3.71-29,10.38-17.88,9-46.63,30.38-55.24,38.89-8.89,10.61-44.07-15.25-27.58-22.55,13.4-56.13,12.92-76.71-3.37-11.59-12.58-34.62-17.19-35-37-2.06-17.09,0-36.08-11.21-50.47-10.74-10.22-10.74-40.87-30.88-32.08-11.09,4.14-24.26,18.49-14.94,29.93,12.6,16.41,21.53,34.89,31,53.1,14.14,18.88,4.44,38.3-6.06,56.09-10.65,28,31.1,37.37,35.93,62.61,3.78,11.66,14.42,17.55,22.07,26.52a27,27,0,0,1,1.83,6.53"/><path class="cls-3" d="M1405.22,310.35c-4.86-.64-9.77-1.08-14.5-2-24.29-7.23-7.26-49.89-47.15-71.86-31.25-14.41-67.77,18.41-99.4,5.71-36.62-17.32-71.5,11.6-108.65,13.2-11.06,2.45-22.06,15.2-21.29,26,3.22,21.28,34.65,18.33,50.8,17.44,22.78,2.15,58.51-38.83,74.12-14.45,4,12.2,17,19.94,29.47,19.86,28.1-.39,50.83,17.32,77.57,22.6,22.42,3.33,26.5,29.46,47.46,34.87a22.12,22.12,0,0,0,11.18-1.2"/><path class="cls-3" d="M273,1c.14,15.57,10.25,31.06,16,45.08C308.44,69.33,413.17,126,441,107.19c30.5-19.28,2.83-50.54,1.51-76.09A162.93,162.93,0,0,1,451.11,1"/><path class="cls-4" d="M333.47,801.45c-18.64-21-18-57-51.08-63.94-20.77-5.62-31.44,23.87-52.5,22.22-22.45-.87-42.3,12.55-64.54,11.14-16.47-2.28-32.2-10.88-49-5.42-11.42,4.11-30-9.88-16.92-19.92,14.16-11.4,21.56-31.19,42.41-30.91,36.08-1.08,72.07-3.12,108.09-.78,34.33,1.44,57.26-37.38,42-67.05C283.85,622,263.45,605.48,249,584.66c-17.64-23.84-47.12,18.42-70.17,17.93-30.51,2.52-78-2.37-86.46,36.71-2.67,26.23-33.81,41.83-53.13,20-8.35-12.9-20.57-18.27-34-18.81"/><path class="cls-3" d="M280.44,1c-1,12.83,4.12,28.37,17,43.12C328.93,69.91,362.75,93.45,403,103.27c22.23,8.54,55-4.39,46.14-33.15-7.37-19.05-21.67-37.49-9.38-57.43Q442.67,6.9,445.32,1"/><path class="cls-3" d="M359.17,1a44.87,44.87,0,0,0,14.34,5.43c15,2.64,23.85.14,28.66-5.43"/><path class="cls-3" d="M435.75,1c-9.32,16.79-15.61,32.65-2.8,51.22,22.92,25.2,6.37,55.18-26.89,47.76C384.69,93.8,360.53,87.81,344.11,72c-10.4-11.34-22.7-20.17-35.15-28.93-13.35-8.7-22.27-27-21.22-42.08"/><path class="cls-3" d="M410.13,801c-1.47-.71-3-1.42-4.58-2.12-5.55-3.56-5.68-5.84-1-10.44,18.12-17.73,45.21-69.08,9.48-80.5-53.65-3.28-36.66-7.37-78-28.21-15.59-5.94-24.38,12.94-29.44,24.64-5.92,14.63,6.58,25.4,16.43,34.48,23,24,13.71,30.79,48,49.06,4.12,4.25,4.86,7.6,1.42,12.49"/><path class="cls-3" d="M81.5,1c2.23,18.91,10.84,40.89-6.85,51.92-21.16,15.36-44,28.22-69.43,34.32"/><path class="cls-3" d="M873.59.84c5.28,10.44,12.09,20.28,16.26,31.26,3.56,8,12.94,18.86,22,11.45,10.09-5.32,12.33-22,25.58-21.57A262.43,262.43,0,0,0,997,18.21c7.46-1.68,16.93-9,22-17.19"/><path class="cls-3" d="M1356.59,801c-5.62-1.72-11-3.31-15.46-5-28.19-9.13-59.33-3.62-87.47-13.3-17.17-1.41-41.51-37.11-53-20.75-9.43,21.64-24.19,29.63-35.31,39"/><path class="cls-3" d="M727.93,801c-6.77-23.62-19.29-45.11-40.7-49.17-24.71-4.31-37.38-27.1-57-40-12.57-8.25-34.37-5.66-31.75,13.58,8.38,22.77,13,46.49,4.13,70a9.41,9.41,0,0,1-3.28,5.59"/><path class="cls-3" d="M311.27,800.43q0-1.18,0-2.52c6.64-26.83-21.83-70-50.35-43-4.29,4.15-8.76,8.11-14.54,10-9.32,4.33-19.09-.61-29,1.12-21.52,2.11-40.91,15.31-63.08,11.13-18.17-4.72-30.33,8.22-38,23.32"/><path class="cls-3" d="M5.22,616.05c12.27-8.39,20.89-17.46,43.05-14.8,8.17-1.49,15-6,21.37-10.71C85,579.11,103.27,592,119.27,583.6c27.33-7.57,55,25.56,79.05-8.43,7.83-11.85,3.07-19.66-9.92-21.71-22.22-6.73-47,17.56-65.56,1.2-20.1-25.2-52.32-8.75-78.15-18.83C24.82,525.18,15.73,519,5.22,524"/><path class="cls-3" d="M520.59,347c16.09-5.58,48.11,40.26,53,10a66.67,66.67,0,0,1,1.83-31.1c13.17-30-28.81-33-24.75-60.51,1.75-46.64-34.46-3.12-13.64,24.06,7.89,29.4-19.71,10.51-31,19.94-15,12.22-6,40.49,14.05,37.59"/><path class="cls-3" d="M1284.62,545.67c15.79-5.35,15.33-29.34,30.43-37.68,21.8-24.39,62-75.16-1.94-66.64-21.08,2.19-53.14-13-67,9.22-4,9.41,9.31,17.56,15.45,24.08,26.13,29.41-42.15,45.45,22.57,71.52"/><path class="cls-4" d="M721.3,801c-2.43-6.82-5.21-13.53-7.95-20.14-6.06-12.22-16.65-18-28.66-21.91-20.77-5.57-35.05-21.33-53.41-31.33-22.78-10.47-11.94,40-15.75,52.3.09,10.07,3.13,16.2,7.52,21.08"/><path class="cls-3" d="M1376.53,1c7.69,5.6,13.46,12.76,15.69,21.57,1.77,14.08,5.24,22.55,13,27.12"/><path class="cls-3" d="M881.34,464.58c35.8-.89,35.19-49.57,9.52-64.08-10.52-10.9-25-14.05-39.54-15-53.87-10.85-56.67,10.27-17.1,42.15,16,12.45,22.77,37.59,46.62,37.42"/><path class="cls-3" d="M1356.67,295.39c-.29-21.28-17.59-39.74-37-47.06-22.26-9.43-72.84,21.39-41.51,41,21.48,5.4,73.63,49,78.53,6.55"/><path class="cls-3" d="M56.24,801c-4.91-5.6-7.3-13.19-5.3-25,2.56-16.64,26.63-25.2,12.75-42-10.93-23.5-37.24-26.26-58.47-17.11"/><path class="cls-3" d="M75.83,1c.63,3.59,1.38,7.6,2.25,12.09,7,29.95-23,42-44.86,53-8.83,6-18.3,6-28,5"/><path class="cls-3" d="M412,223.31c14.15,15.05,36.93-17.12,31.52-32.53-8.81-17-31.19,22.33-31.52,32"/><path class="cls-3" d="M919.37,245.34c3,14.1,27.41,13.87,30.21,0-1.39-21.88-28.85-23.9-30.21-.55"/><path class="cls-3" d="M878.84,153.74c-1,7.23,23.93,21,27,12.51-.21-13-20.66-30.84-27.52-13"/><path class="cls-3" d="M581.63,190.78c-6.39,1.13-11.35,11.35-5.44,15.42,10.21,5.45,18.78-14.35,5.94-15.42"/><path class="cls-3" d="M506.58,399.51c-42.43,0-43.7,56.66-15.94,77,38.78,28.44,69.4,3.79,108.52,8,39.28,12.91,107.56-27,37-43-102.72.8-68.2-40.15-129.09-42"/><path class="cls-3" d="M1338.16,419.53c-38.51,14.71-85.66-7.09-119,20.65-26.12,20.07-43.39,23.88-20.47,58.35,13.44,14.76,8.48,50.51,27.88,54,11.63,1.68,19.46,8.57,26.53,17.12,38,42.79,59.62-2.89,98-4.72,25.21-1.51,64.14-19.9,22.53-37.41-7.6-2.13-14.36-5.27-16.72-14.37-4.06-16.51,11.28-27.09,18.07-40.16,10.43-21.46-10.66-58.27-36.4-53.49"/><path class="cls-3" d="M176.35,424.54c-15.76,6.29-30.23,17.41-48,11.54-19.44-4.43-39.74-2.26-59.53-2.38C12.32,433,.67,501.78,56.26,518.19c25.71,5.21,52.6-.61,77.52,9.59,33.93,9.25,70.32-2.06,103.57,11.52,21.35,8,38.36-10.29,58.59-13.62,19.13-6.47,3.58-32.7,3.64-47.11C296.29,464.49,288,454.86,276,447.48c-13.6-8.34-28.3-12-44.07-13.05-19.25,1.19-36.12-10.53-55.05-9.89"/><path class="cls-3" d="M1331.15,425.54c-33.91,12.43-77.18-9.24-105.51,18.07-39,38.84-20.34,35.24-2.67,76.07,7.75,20.76,31.48,27.86,42.23,47,20.35,30.53,55.35,2.22,61-24.93,15.37-19.17,17.75-44.71,34.94-62.6,21.08-20.32-1.18-60.12-29.52-53.56"/><path class="cls-3" d="M835.81,393.5c-25.89,12.76,15.46,34.32,19.91,49.61,19,37.81,65.63,5.13,37.63-25.59-14.87-15.32-35.23-26-57-24"/><path class="cls-3" d="M1329.15,431.55c-26.07,7.63-53.24-2.72-79.57,4.94-9,2.15-20.76,12.31-19.59,24.6,1,11,12.86,12.81,18.21,21,8,10.71-3,18-6.57,27.61-6.8,16.25,9.4,26.83,19.44,36.56,8.9,7.35,14.74,20.8,27,22.49,22.31-.75,16.43-33.86,29.6-46,16.47-14.23,22.92-35.74,38.11-51,13-18.9-5.21-45.18-26.18-40.16"/><path class="cls-3" d="M178.35,434.55c-35.3,18.32-74.23,2.11-112.08,6.06-52.52.53-51.35,66-2.48,73.94,9.55,1.79,19.33,1.29,29,1,22.81-1.13,43.47,9.95,66.05,10.17,27-.35,54,1.15,80.59,6.73,14.75,3,28.55-5.88,41.57-11.67,32.22-17.34,7-68.32-22.6-74.2-26.08-5.49-53.3-7.49-79.55-12.06"/><path class="cls-3" d="M876.84,434.55c-2.36,2.8-2.36,2.8,1,6,2.28-2.71,2.28-2.71-.5-6"/><path class="cls-3" d="M505.58,392.5c-10.61,3.42-25.57-2.58-34,7.55-22,20-12.34,49,2.78,70.18,16.27,18.21,40.58,25.16,63.73,29.34,23.36,4.35,44.09-12.84,67.55-7.05,24.65,3,73.58-3.81,69.86-36.91-9.71-27.08-49.5-18.27-72.38-24-38.43,1.21-58.25-43.86-97.06-39.14"/><path class="cls-3" d="M180.36,443.56c-36.83,15.44-75.21.48-113.58,4.1C43,446.5,21.28,472.91,40.4,494c14.75,19.65,41.87,13.93,63.39,15.75,40.43,9.84,81.42,10.09,122.62,14.77,25.86,4.36,71.27-6.57,59.43-41.89-5-18.15-18.66-27-36-31-22.83-3.44-46-6.33-69-8.1"/><path class="cls-3" d="M1277.12,445.56c-37.44,5.19,10.83,29.9,10,49.06,3.81,25.2,82.24-45.92-9.47-49.06"/><path class="cls-3" d="M179.35,452.57c-13.6,2.85-27,7.72-41,7.05C112.74,458.3,33.66,437.78,44.41,485c11.73,21.23,38.9,13.17,58.88,16.74,46.57,7.85,93.55,17.9,141.1,15.7,45.92-2,45.55-48.45,4-58.8-22.44-4.79-45.65-6.18-68.52-6.08"/><path class="cls-3" d="M620.66,380.49c-32.31,13.84,26.19,36.94,25,8.51-2.85-10.71-16.12-8.24-24.49-8.51"/><path class="cls-1" d="M799.79,462.58c-33.9,7.74-33.92,47.88-29.19,75.6,3.44,18.49,41.06,22.21,57.21,22.57C866,555.43,897,583.68,934.88,581.68c19.52.59,36.58-11,56-11,34-3.34,65.16,13.83,98.6,12.4,57.52-7.28,22.71,38.56,82,76.77,16.35,13.48,18.5,39.3,40.1,46.89,18.63,1.4,32.13,25.71,50.92,16.08,19.66-29.62-34.49-32.91,46.62-67.43,28.91-16.14,27.6-58.65-13-49.52-34.86-.28-69.85-13.43-100.63-29-16.4-8.58-7.19-27.52-5.55-42.14,1.29-29-21.68-57.59-49.94-63.53-31.53-2.85-64.91-10.05-95.64.25a71.17,71.17,0,0,1-39.51,2.48c-23.63-5.43-47.77-14.78-71.54-4.38-68.31,32.8-74.93-2.22-133-6.89"/><path class="cls-3" d="M1073,471.59a181.56,181.56,0,0,0-31,6.49c-23.54,6-47.61-1.16-71-4.53-28.78-5.56-54.11,10.57-82.06,13.09-27.4,4.06-50.26-14.21-77.06-14.16-43.67.22-42.4,70.89-5,80.22,17.43,6.09,35.67,2.48,53.61,5.71,24.18,7.06,47.32,16,73,15.34,31.25-1.14,61.31-12.92,93.07-7,22.78,1.16,44.69,10.43,67.62,7.23a205.05,205.05,0,0,1,44,3.74c18.85,6.52-17.57,34,33.06,71.53,21.06,18.25,29.06,55.87,64.05,47.87,5.33-.7,8.44-3.47,10.9-7.32,8.34-13,20.1-21.78,33.48-29.18,12.41-7.37,29.73-12.72,36.43-26.41,3.7-10.59.49-18.72-12.31-19.22-30.52-1.29-59.13-12-88.56-19.23-13.62-8-44.15-12.25-39.56-33.07,17.17-31.16,6-71.14-29.52-82.47-23.52-6.39-48.47-5.15-72.51-8.62"/><path class="cls-3" d="M1064,478.6c-35.13,13.3-70.69,2.2-106.57.93-24.07-1.19-46.22,9.5-70,11.31-31.71,7.28-81.19-33.6-97.48,9.31-8.51,39,23.73,54,57.42,51.63,23.11,1.12,43.85,13,67,14.15,33,4.66,64.73-7.55,97.58-5.15,45,2.21,90.3,11.53,135.12,2.06,49.91-3.29,32.52-71.88-6.52-77.22-25.1-3.77-50.57-7.74-76-7"/><path class="cls-3" d="M948.89,484.6c-24,3.93-48.29,11.19-73,11.06-20.44,1.22-39.22-9.43-59.54-8-30.79,4.83-20.47,53.35,7,55.94,32.19,1.57,62,13.68,94,16.43,40.86,2.15,81.09-7.36,122.1-3.19,32.25.28,140.53,18.6,132-35.14-9.55-43-101.81-39.92-135.45-31.9-29,2.75-57.55-5.72-86.58-5.18"/><path class="cls-3" d="M617.66,373.48c-53.39,10,12.58,52.91,35.57,26.09,24.65-25.82-17-27.58-35.07-26.09"/><path class="cls-3" d="M358.48,540.67c-25.22,9.15-6.52,42-11.08,61.56-9.88,66,70.62,46.24,111.16,50.32,30,5.5,53.35-22,26.46-44.73-12.86-7.14-29,3.41-40.89-7.2-12.06-16.13-26-30.45-44.62-38.93-14.44-5.72-23.7-23.26-40.53-21"/><path class="cls-3" d="M890.85,364.47c-40.45,32.38-55.13-3.8-90.05,8.54-15.12,12.1-47.19-5.86-49.13,15.47,0,9.54-4.66,23.08,3.65,29.95,20.34.49,34.09-19.34,56.86.25,14.87,11,28.77,23.17,40.15,37.89,16.5,19.13,51.15,16.48,61.56-7.49,22.48-56.76.84-34.48-15.11-76.08-1-3.91-2.7-7.66-7.43-8.53"/><path class="cls-3" d="M1194.06,328.43c-36.87,14.35-76.75,9.73-114.55,1.83-28.78-.13-74.14,4-94.2,26.13-16.25,46.89,29.85,60.67,66.18,41.19,17.94-8.44,38.3-7.31,57-1.86,19,2.64,37.76,3.63,55.59,11.31,25.54,11.17,48.43-7.24,73.1-11.3,30.15-6.16,65.74,8.14,92.51-10.26,24.48-30.61-33.32-45.66-56-41.2-28.15,3.43-51.77-16-79-15.84"/><path class="cls-3" d="M1387.19,323.43c-15.42,1.37-8,17,2,21.54,19.7,5.16,18.07-24.83-1.49-21.54"/><path class="cls-3" d="M1034,801c1.15-1,2.29-2.09,3.4-3.17,20.53-15.33,20.32-48.87-2.86-60.05-33-15.65-71.41-7-105.64-18.9-55.5-33.64-74.63,2-130.07-15.56-16.26-6.13-32.84-1.69-49.54-1.48-10.51-.06-16.25-5.48-16.49-16,.06-22-7.78-42.58-11-64.08-2-15.73,16.88-19.52,26-28.42,13.63-13.46-3-38.6-21.61-33.64"/><path class="cls-3" d="M725.73,559.69c-34.09,10.32-1.64,39.3-23,51.59-31.09,18.13-78.62,10.09-98,45.06-4.48,8.42-1.75,17,6.32,20.68,26.46,8.59,45.05,29,66,46a41.1,41.1,0,0,0,21.66,7.58c33.36,4.09,33.39,41,42.82,70"/><path class="cls-3" d="M1195.06,321.42c-23.56,7.72-48.22,12.25-73,8.76-22.4-.16-44.15-12.89-66.52-5.57-28.55,8.37-70.35,3.86-82.74,37.31-3.71,13.81,5,25.94,10,38.15,16.07,24.16,53.23,10.69,75.18,2,25.22-10.19,50.29,4.45,76,4.71,16.13.57,31,9.14,47,10.77,24.27.94,44-17.61,68.55-16,27.91-1.38,58.28,5.37,83.56-9.48,13.57-7.89,14.45-22.09,5.41-33.48-17.7-21.83-47.53-23.37-73.46-22-25,2.1-45.22-15.78-69.55-15.11"/><path class="cls-3" d="M1199.06,315.42c-25.29,7.43-50.55,13.3-77.07,9.37-22.87-1.27-44.4-13.69-67-4.93-31.89,8.59-78.75,4.9-90.88,43.17-1.64,15,9.7,29.3,13.85,43.48,3.57,8.71,10.39,12.12,19.5,12.06,24.62,1.21,46.89-3.66,69.07-14,20.75-6.1,39.18,7,59.52,8,16,.4,31.31,4.71,46.48,9.1,28.87,7.58,52.23-18.33,81.12-16,29.28-.37,60.49,5.42,86.58-11.67,32.5-25.57-14.18-59.69-41.53-61.76-16.14-3.78-32.32,1.28-48.56-2.33-17.89-1.59-32.53-14.46-50.54-14.53"/><path class="cls-3" d="M836.81,572.7c-25.14,8.7-51.68-5.05-54.08,30.53-4.61,25.89-47.46,11.95-26.58,51.63,6.66,10.49,15.31,7.51,21.51-.16,9-9.62,6.1-28.32,23.09-29.23,67.82-5.61,47.49-1.29,98.66,24.15,25.66,6.07,31.62,32.47,49.46,47.74,23.52,14.81,55.36,16.88,81.11,7,10.64-8.07-6.51-29.12-7-40.63-9.95-21-6.38-76.28-38.64-72.29-27.91,6.92-53.85,38-83.49,17.68-21.12-14.35-32.7-42.95-63.59-36.47"/><path class="cls-3" d="M1070,310.41c-26.51,9.23-55,9.48-81.52,18.1-18.35,7.21-40.86,29.83-29.23,50.31,11.58,14.7,6.71,51.17,32.22,46.9,21.09-4.59,44.57,2.12,63.5-10.73a43.53,43.53,0,0,1,30.51-6.23c14.28,1.76,26.89,12.48,41.56,11.66,14.13-.6,27.71,2.32,41,6.28,29.44,10.86,52-16.61,80.61-16.13,32.32-1.41,108.23,8.86,109.45-37.56-11.1-41.37-62.1-49.69-98.94-47.57-22,1.53-38.7-17.3-60.55-15.05-55,18.34-75.6,7.7-128.09,0"/><path class="cls-3" d="M375.49,576.71c-12.82,6.21-14.79,23.75-16,36.54.26,26.12,30.19,27.66,47.5,19.42,26.8-18.76-5.11-59.86-31-56"/><path class="cls-3" d="M264.41,298.4c-21.9,15.08-4.16,52,18,58,22.75,10.58,47.62,3.31,71.53,5.27,25.72,2.12,53.14,1.32,72.94-17.38,14.44-10.69,14.9-38.6-5.87-41-25-2.82-48.63,9.56-73.59,8.83-28.46,1.92-54.07-15.6-82.54-13.73"/><path class="cls-3" d="M379.49,591.72c-26.81,18,1.3,52.31,22,27.5,6.4-11.74-6.64-31.45-21.46-27.5"/><path class="cls-3" d="M251.4,283.38c-9.79,8.41-5.47,23.65-5.89,35,.16,34.54,34.56,51.81,65.94,51,36.47-3.31,74.59,8.05,108.56-10,22.53-7.38,35.85-28.94,30.64-52.56-2.76-18.2-24.11-11.7-37.12-12.35-74.3,21.56-93,4.8-161.62-11.15"/><path class="cls-3" d="M1173,594.73c-23.45,8.2-7.52,34.19,5,45,14.89,14,19.48,44.84,43.48,45,19.83-3.83,33.55-21.71,51-31,41.64-26.77-1.75-33.59-27-41.22-17.13-4.2-36,.08-50.54-11.39-6.6-4.31-13.51-7.14-21.54-6.46"/><path class="cls-3" d="M226.39,595.73c-29.44,12.6-59.93,14.46-91.11,18.87-25.68,6.88-29.09,33.55-33.81,55.74-9.2,43.07,56.68,34.06,83.38,35.31,25.09-1.27,50.83,1.06,75.06-6.82,55.67-19.41,10.68-101-33-103.1"/><path class="cls-3" d="M221.38,602.74c-23.13,8-47.18,11.51-71.53,13.09-38.43-.41-59.58,70.26-14.49,81.91,32.85,6,146.15,15,145.15-34.43-.46-29.41-27.5-63.91-58.63-60.57"/><path class="cls-3" d="M980.91,602.74c-17.92,4.87-32,16.82-47.47,26.12-12.13,6.66-9.42,19.45-1.53,28.42,12.35,17.86,18,42.73,42.55,46.37,15.24,4.16,51.78,6,47.43-18.31-1.86-17.88-20-26.22-23.86-42.06,2-14.4,4.05-40.58-16.62-40.54"/><path class="cls-3" d="M223.39,607.74c-30.07,12.46-71.19,3-95.66,22.94-17.1,18.79-14.72,56.66,13.11,63.11,31.22,6.62,123.73,12.72,134-26,5.25-28.22-21.94-61.2-50.95-60"/><path class="cls-3" d="M217.38,614.75c-22.9,6.32-46.95,6.32-70,11.09-31,8-32.19,56.13,0,63.93,30.46,4.86,112.77,11.9,121.64-26.95,2.8-27.38-24-52.72-51.11-48.07"/><path class="cls-3" d="M214.38,621.76C188,631.67,136,617.4,132.05,656.28c-.71,45.66,83.62,32.63,111.32,23.48,39.75-16.47,6-66.07-28.49-58"/><path class="cls-3" d="M1028.69,801c30.22-24.61,31.78-71.32-54.27-70.3-17-1.5-34.13-2.33-50.57-7.78-19.34-8.78-38.7-18.3-60-10.56-45.1,14-83.3-15.64-130.11.44-18.65-.07-4-29.05-7.07-40.5-3-17.3-4.09-52.81-28.44-49.56"/><path class="cls-3" d="M697.71,622.76c-19.65,7.81-89.09,13.86-78.53,44,12.53,10.79,26.92,19.5,39,31.05,38.09,40.34,55.42,9.26,66.53,27C735.18,749.16,736.19,777.55,748,801"/><path class="cls-3" d="M1306.14,270.37c-11.63,6.34,12.32,21.33,18.94,24.19,21.56-.49-8.88-25.43-18.44-24.19"/><path class="cls-4" d="M167.85,265.86c-26.79.79-52.67,11.32-60.43,38.59-5.74,11.94-5.47,27.3,7.9,33.47,10.78,4.37,21.22,10.82,24.38,22.59,9.73,29.51,50.42,37,74.22,20,11.26-9.71,3.41-26.89,1.42-39.09-9-26.75-10.58-74.19-47-75.59"/><path class="cls-3" d="M204.37,631.77c-19,6-58.5-1.69-61,25.52,2.65,32.27,79,25,98.05,11.53,9.22-6.16,8.54-20.6,2.64-27.17-9.95-12.69-25.08-9.55-39.17-9.88"/><path class="cls-3" d="M1191.06,258.35c-12.44,2.66-25.46,4.37-36.45,11.15-14.76,13,23.59,17.16,32.85,5.73,5.4-3.44,15.44-14.83,4.1-16.88"/><path class="cls-3" d="M1302.13,255.35c-24,5.37-28.51,26.12-3.5,35,13.66,9.38,48.76,32.12,48.15,0-5.57-18.68-24.19-36.43-44.15-35"/><path class="cls-3" d="M329.46,251.35c-26.67,19.29,51,34.47,56.19,7.72-2.45-3.44-8-5.69-11.66-4.71-14.83,3.39-29.28-3.77-44-3"/><path class="cls-3" d="M1209.07,243.34c-22.94,6.06-45.66,12.78-68.55,19-44,30.89,37.41,38.35,55.14,18.18,14.49-10.57,58.39-35.31,13.91-37.18"/><path class="cls-3" d="M1309.14,240.33c-15.86,4.09-32.42,7.4-46.42,16.21-17.61,11.71-6.14,42.09,14.44,41.64,13.52,2.55,25.83,7.72,38,13.7,41.83,16.81,60.91,15.18,47.85-34.95-7.72-21.33-29.74-39.85-53.37-36.6"/><path class="cls-3" d="M1017.74,801a66.29,66.29,0,0,0,17.78-16c27.81-65.89-83.86-40.46-117.15-57.12-30.92-17.59-49.82-5.36-81-3.13-22.67-1.14-44.72-8.06-67.05-9.88"/><path class="cls-3" d="M769.76,714.86c-14.74,1.4-34.29,7.31-30.3,26.57,3.66,20.42,4.54,42.18,16.24,60.07"/><path class="cls-5" d="M679.7,224.32c-41.32,3.82-79.49,43.62-20,59.06,30.78,4.13,62.12.4,92.07,10.48,36.35,13.06,65.16,22.45,61-30-3.72-37.71-52.88-33.89-81-35.68-17.11-2-34.18-5-51.54-3.86"/><path class="cls-3" d="M682.7,217.31c-43.55,1.06-111.21,44.84-40,71.08,30.8,5.92,62.43.68,93.11,8.74,25.83,2.08,74.86,36.61,84.88-3.74.65-23.38,4.73-50.87-23.37-61.1-36.26-12.63-76-14-114.1-15"/><path class="cls-3" d="M687.71,211.3c-53.62-2.85-131.76,48.91-53,86.11,31.17,3.3,62.82-5.76,93.61,4.79,34.14,3.58,60.86,27.32,96,14.16,22.29-5.47,4.22-30.22,5.34-45.47-.37-19.17-10.23-38.37-29.83-43.62A323,323,0,0,0,687.71,211.3Z"/><path class="cls-3" d="M683.71,204.29C650.09,207,623,215.79,600,242.18c-22,27.29,12.86,50.15,26.24,71.19,9.9,8.86,22.7-8.62,34-8.8a108.31,108.31,0,0,1,42-2.26c15.91,2.36,31.35,6.73,47,10.18,17.61,3.88,31.91,20.57,51,15.74a84.44,84.44,0,0,1,38,3.21C855,338.07,864,315.64,854.75,304c-10.34-14-17.41-29.84-19.81-47.12-5.85-39.19-52.52-38-82.66-46.68-22.28-6.15-45.15-6.23-68.07-5.86"/><path class="cls-3" d="M682.7,197.29c-19.81,4.44-43.79,2.7-59.39,18.19-18.81,15.9-52.13,34.47-32.74,62.44,8.48,14.56,22.35,30.84,14.61,48.52-13.75,25.75,21.44,36.08,38,19,9.7-20.66,9.82-36.36,36.52-39.14,28.79-1.3,66.37,8,89.41,25.34,17,15.8,38.43-3.74,57.18,6.89,25,18.43,31,14.15,45.56-11.6,13-19.3-8.31-26.48-16-40.55-13.82-17.6-9.11-42.86-25.92-58.69-16.79-12.07-38.22-13.1-57.63-18.54-29.29-7.38-58.64-13.64-89.1-11.85"/><path class="cls-3" d="M765.76,723.87c-25.41,5.53-14.91,38.59-10.93,56.54,2.9,15.66,18.54,22.76,33.42,19.37,24.07-2.66,46.56-12.92,70.11-17.6,39.87-2.42,83.18,1.26,120.56,15.73,54,11.74,80.29-56.28,10-56.08-30-1-60.36-2.42-88.64-13.76-10.82-4.32-22.34-3.34-33.44.32-33.3,12.24-66.71-7.51-100.58-4.52"/><path class="cls-3" d="M580.63,174.26c-17.5,5.08-26,47.27-1.54,43.94,23.93-5.27,29.62-39.29,2-43.94"/><path class="cls-3" d="M446.54,158.24c-23.57,25-38.12,59-65.05,81.08-18.36,13.92-38.2-.24-58-.07-42.89,16.66,7.12,44.29,32,42,36.39,2.1,51.91-31.28,78-49.47C451.42,220.45,464,172.49,447,158.24"/><path class="cls-3" d="M577.63,147.23c-15.14.89-21,54.89-19.85,67.56,5.6,25.63,40.35,3.7,47.77-11,11.15-12.7-10.62-59.59-27.42-56.51"/><path class="cls-3" d="M723.73,145.23c-47.46,9.09,11.08,33.07,30.51,23,42.32-19.31-11.89-24.34-30-23"/><path class="cls-3" d="M755.76,137.22c-20,3.66-42.54-3.12-62.08,5.94-22,11.39,3.15,29.66,17.6,31.89,22.77,1.65,52.81,19.28,71.88,1.12,27.67-34.55,9.18-41.59-26.9-38.95"/><path class="cls-3" d="M575.63,137.22c-19.75,3.29-22,22.45-21.08,39-1.44,11.34-3.4,22.59-3.77,34.05,1.09,7.66-5.69,30.59,7.33,28,15.64-3.16,29.18-10.43,41.62-20.4,34.91-25.79,25.2-86.09-23.6-80.69"/><path class="cls-3" d="M866.83,130.21c-14.72,1.81-11.66,18.18-12,29,0,7.67,1.31,9.71,8.51,12,23.76,3.93,63.19,29.05,47.55,56.61-5.45,15.71-23.48,16-32.1,28-6.42,8.49,4.63,23.34,16.05,19,15.84-9.51,33.32-6.31,50.52-8.54,28-9,9.38-40.39-8.58-50.33-8.23-5.5-11.57-12.52-11-22.18,2.13-33.75-21.69-69.26-58.48-63.57"/><path class="cls-3" d="M867.83,116.2c-8.84,0-119.92,17.93-135.07,16.3-21.19,1.1-43.16-1.22-61.71,11.51-19.89,11.66-43.69-3-62.86-9.9-20.7-7.47-52-6.23-61.15,17.1-.38,22.24,1.13,44.53-3.57,66.57-10.29,25.52-25,25.65-24.39,59.59-10.66,29.16-38.92,21.38-26.55,65.59,3.5,15.74,21.59,15.36,35.06,17.07,15.37,3.94,27.16,15.64,42,21,57.26,46.61,72.84,28.63,102.5,24.2,23.7-3.54,38.24,9.76,41.38,17.87,3,7.7,4.41,23.55,9.26,42,16.14,28.7,51.43-68.44,84.94-38.87,24.8,11.62,37.92,41.84,66.18,46.19,22.09,3.77,43.62-9.44,52.55-29.82,6.71-14.52,20.83-30.67,9.43-46.55-9.68-12.61-17.61-25.69-22.92-40.6-16.4-26.68-33.26-2.87-47.11,11-23.27,17.05-43.16-21-66-7.49-13.9,9-35.07,7.15-43.81-7.63-16.06-25.4-80.29-58.34-90.29-14.38-.66,21.5-13.69,31.27-34.5,29.7-17.12.9-44.23,5.72-47.73-16.64-2.27-9.81.82-18.67,3.36-27.53,10.19-27.9-29.25-43.51-20.08-70.59,1.66-5.83,6.7-9.17,11.4-12.55a212.4,212.4,0,0,0,51.46-46.63c15.62-10.12,40.59-19.28,59.14-14,32.74,6.8,65.6,13.69,98.54,19.61,36.23,11.83,98.28-41.5,112.56,15.51,1.72,14.44-12.26,19.64-23,24.5-30.38,12.11-1.54,64.44,26.53,45.08,14.41-7.17,30.43-5.25,45.51-1.42,36.47,2.52,21-48.79,1.89-62-32.71-31.38-7.59-98.06-82.43-103.77Z"/><path class="cls-3" d="M119.31,106.18C95.52,108.5,91,129.19,90,149.68c-8.48,39.9,34.34,50.18,63.39,35.09,59.19-32.45,131.17-14.69,194.13-9.5,34.2-2.13,18.14-38.17-7-38.83a101.24,101.24,0,0,1-33-11.26c-27.39-10.61-57.56-13.41-86.58-17-13.07-1-25.91,1-38.49,4.11-21.42,5.21-41.24-6.83-62.58-6.13"/><path class="cls-3" d="M110.31,94.17c-36.66,6-30.76,50.25-30.94,78.09.07,14.16,9.54,24.77,24.44,28,37.91,15,68.27-22,105.56-14.44,47,16,65.38-26.71,118.63,1.38,34.81,20.17,85.11-21,46.52-53-18.89-13.53-42.82-15.81-63.08-27-29.72-8.19-61.81-3.45-92.11-10.73-21.38-4.63-43.31,4.12-65,1.61-14.49-2.21-28.77-5.15-43.54-3.91"/><path class="cls-3" d="M107.3,84.16C83,88.23,64.38,110.34,70,135.76c1.72,28.41-9.43,70.09,30.25,75.71,54.88,15.6,79.72-38.8,123.14-3.7,6.87,4.94,17.29,15,25.55,7.6,27.94-43.84,60-22.37,99-12.18,67.12-5.72,69.87-76.6,2.06-89.23-20.66-6-38.84-19.57-61.09-20-11.88-.83-23.76.25-35.53-.9-29.8-4.71-58.77-8.29-89.08-3.86-19.06.59-37.29-7.11-56.53-5"/><path class="cls-3" d="M112.31,75.15c-19.46,1.91-35.83,12.4-48.54,27-17.56,17.67,3.74,43-2.77,64.55-8,85.93,77.11,55.89,125.86,37.58,22-1.82,39.29,17.4,48.62,35.49,7.11,38.92-11.57,94.6,26.53,122.5,23.36,15.41,52.05,12.18,78.43,12.36,18.91,1,37.88,3.39,56.54-1.3,97.19-21.5,39-44.14,76.92-97.17,4.48-3.23,11.18-14.05,4.54-18.15-10.54-5.6-24.73,27.4-51.41,27.36-60.68,16.39-93.41,22.72-153.16-4.92-14.42-6.69-22.85-23.62-15.48-38.15,7.43-16.65,9.85-42.58,32.53-44.15,48.26,1.83,69.2,36.86,110.53-17.45,26.81-41.85-21.14-66.29-56-74.62C326.06,99.47,308.75,86.7,287.43,87c-31.54,2.52-61.67-8-93.06-6.79-27.86,7-54.07-2.44-81.56-5"/><path class="cls-3" d="M110.31,66.14C85,69.9,65.85,87.5,46.67,103.07,26,120.58,59,141.49,52.09,163.23c-4.66,27.35-2.78,79.87,35.74,77.35,25.78-5.49,52.82-7.25,76.54-19.73,23.41-17,53.8-2.06,60.23,24.93,8.3,48.76-2.47,125.7,64.33,132.73,40.31,2,82.16,8.29,121.6-2.48,53.25-14.06,52.64,6,56.23-58.6-2.22-31.64,47.28-46.63,19.79-78.59-16.85-25.61-41,40-71.47,41.74-24.48,8.54-49.63,18.19-76.13,13.9-23.55-6-74.74-10.69-67.51-44.63,5.76-15,6.93-41,27.49-41.6,25.95-1.69,52.76,23.59,76.5,5,24.76-15,49.07-43.18,39.12-74-18-32.31-63.42-30.63-92.07-49.59a95.14,95.14,0,0,0-44.06-10.57c-27.83,1.54-54.67-9.68-82.57-5-12.09,1.58-24.28,3-36.5,2C142.64,75,127.83,64.4,110.81,66.14"/><path class="cls-3" d="M1136,61.13c-18.19,6-37.1,6.72-56,8.13-17.34,2.18-33.17,11.22-51,9.93-21.48.87-57.59-6.55-60.08,24.49-.34,25.59.31,52.07,10.32,76,22.94,42.39,76,9,112.8,15.74,65.07,17.26,57.33,9.52,119.6,0,32.13-5.16,95.06,15.49,100.64-31.16.9-40.9-35.7-75-73.64-83-33.88-6.68-68-15.94-102.06-20.08"/><path class="cls-3" d="M1136,49.12c-13.21,3.52-25.47,10.83-39.53,10.94-20.62-.81-39.38,8-59.53,10.19-25.18,2.89-72.94-13.68-80.12,20.91.32,29.62,3.16,59.49,11.18,88.07,21.41,59,79.42,19.49,122.44,25.38,32.24,7.06,64.33,16.22,96.61,2.75,32.65-8,66.78-4,100-5.11,64.12-10.53,31.11-90-7.46-113.15-23.51-16.21-52.77-18.28-80.09-23-22.09-1.67-41.29-15.8-63-17"/><path class="cls-3" d="M1131,29.1c-14.33,5.2-24.5,19.48-41,18.85-22.77.84-43.59,11.8-66.57,9.53-45.88-6-99.74-12.57-82.27,53.16,6,27,9.66,54.93,19,81.06,41.77,72.4,86.14,12.63,142.92,29.07,45.35,16.14,75.71-4,118.57-7.51,34.94-3,76.75,13.59,104-16,37.34-43.44-8.2-111.12-53.54-128.5-24.33-9.16-50.74-9-76-13.83-24.17-2-41-23.63-64.58-25.83"/><path class="cls-3" d="M1304.14,18.09c-16.28,5-15.44,32.08,1,36.61,33.2,4.19,31.24-41.15-.48-36.61"/><path class="cls-3" d="M1124,16.08c-30.35,32.73-32.6,23-73.51,32.22-37.27,13-94.09-23.39-116.55,20.87-7.44,18.33-3,37.89,3.1,55.49,10.7,28.48,9.33,63.15,30.46,86.53,43.56,53.54,80.76,2.48,131.48,15.63,39.2,13.2,77.37-.12,115.54-8.79,40-3.46,87.47,15.35,118.61-19.26,28.5-28.38,7.07-64.9-4.45-95.6-4-14.91-19.8-20.2-28.44-31.62-5.37-6.59-12.62-8.21-20.14-9.34-30.44-7.7-62.09-7.33-92.5-14.29-23.84-5.17-38.18-30.36-63.1-31.84"/><path class="cls-3" d="M850.82,407.52c-9.28,7.17,7.88,17.9,8.79,26.62,23.8,52.93,65.46-14.83-8.29-26.62"/><path class="cls-3" d="M165.44,1c-2,18.74,13.11,47,28.35,28,5.19-6.72,6.14-18.54,3.09-28"/><path class="cls-4" d="M1099.72,1c-3.7,12.49-4.22,27.32-20.75,29.05-25.29.35-49.83,5.4-75.07,5.32-34.17-5.37-79.57-1-86.94,40.29-2.85,12.64-9.6,28.16-1.06,40,14,18.65,21.07,40.3,25.78,62.64,9.56,38.82,42.05,74.87,83.27,77.95,17.49,2.28,31.09-13.18,48.52-11.85,29.5,9,36.71.55,65-1.16,31.76,1.46,59.45-19.95,91-16.77,17.86,2.2,35.32,7,53.58,4.07,51.42-9.16,87.78-21.65,78.93-81.81.64-15.83-19.55-34.13-3.88-47.53,30.47-17.31,11.73-43.56-2-65.6-15-37.07-69.44-45.19-83.08-3-9.41,17.58-43.23,5.57-61,9.44-33.58,3.06-47-23.16-64.7-41.07"/><path class="cls-5" d="M295.66,1a30.33,30.33,0,0,0,6.39,24c9.62,16,32.15,18,40.76,35.21,14.28,22.91,78.8,54.7,94.17,20.9,2.86-13.84-10.29-24.3-17-35-9.25-9.75-8.23-28.55-25.45-28.15C375.62,19.3,362.31,10.21,349,1"/><path class="cls-3" d="M502.05,1a43.16,43.16,0,0,0-11.59,25.11c-4.57,26.4,2.35,62.94,33.14,68.09,25.83,5.07,50.25-7.25,75.56-9.87,22.17-2.84,42.91,9.11,65,7.85,42.68,2.58,84.42.7,126.62-6.8,9.37-1.54,18.7-3.24,28-5.21,23.27-2.91,36.59-39.1,14-51.51-23-14.44-52.56-26-79.46-17.32C705.77,27,653.84,16.34,607.49,1"/><path class="cls-3" d="M154.9.71a23.9,23.9,0,0,0,.6,4.84c3.2,14.5,3.89,36.56,21.85,40.09,24,2,33.25-24.11,28.12-44.54"/><path class="cls-3" d="M146.39,1c1.27,19.56,3.07,49.27,27,52C204,57.91,217.26,26.44,212.22,1"/><path class="cls-3" d="M137.57,1c-2.22,25.42,6.93,58.34,36.78,58.09C208.09,63.27,223,29.36,218.63,1"/><path class="cls-3" d="M490.25,1a42.74,42.74,0,0,0-6.59,17.6c-6.16,31.3.2,80.18,38.93,84.57,30.77,4.23,59.22-14.14,90.06-10.91,68.36,15.34,138.43,8,206.66-5,24-1.57,35.3-24.42,33.83-46.22-5.68-22-32.4-27.3-50.84-35C774.62-4.8,747,3.33,719.27,8.32c-28.95,3.37-58.21.4-86.19-7.36"/><path class="cls-3" d="M127.43,1c-5.16,28.71-4.32,50.75,33.9,62.68,21.91,3.82,58.95-1.21,61-28.59A122.76,122.76,0,0,0,224.29,1"/><line class="cls-3" x1="633.67" y1="747.27" x2="633.67" y2="757.27"/><line class="cls-3" x1="638.67" y1="752.27" x2="628.67" y2="752.27"/><line class="cls-3" x1="390.65" y1="31.71" x2="390.65" y2="41.71"/><line class="cls-3" x1="395.65" y1="36.71" x2="385.65" y2="36.71"/><line class="cls-3" x1="169.48" y1="288.29" x2="169.48" y2="298.29"/><line class="cls-3" x1="174.48" y1="293.29" x2="164.48" y2="293.29"/><rect class="cls-6" x="328.78" y="12.24" width="10" height="10"/></g></g></svg>