<svg xmlns="http://www.w3.org/2000/svg" viewBox="0 0 193.23 193.23"><defs><style>.cls-1{fill:#f2f2f2;}.cls-2{fill:#dcdcc4;}.cls-3,.cls-4{fill:none;stroke:#dcdcc4;stroke-miterlimit:10;}.cls-4{stroke-width:3px;}.cls-5{fill:#141414;}</style></defs><g id="Calque_2" data-name="Calque 2"><g id="Soleil"><polygon class="cls-1" points="71.07 96.73 51.5 141.74 96.62 122.05 141.74 141.74 121.94 96.51 141.74 51.5 96.51 71.07 51.5 51.5 71.07 96.73"/><polygon class="cls-2" points="73.45 119.98 96.62 178.8 119.78 119.78 178.8 96.62 119.58 73.45 96.62 14.44 73.25 73.45 14.44 96.62 73.45 119.98"/><circle class="cls-3" cx="96.62" cy="96.62" r="88.61"/><circle class="cls-4" cx="96.62" cy="96.62" r="95.12"/><line class="cls-3" x1="96.62" y1="185.23" x2="96.62" y2="191.73"/><line class="cls-3" x1="96.62" y1="1.5" x2="96.62" y2="8"/><line class="cls-3" x1="185.23" y1="96.62" x2="191.73" y2="96.62"/><line class="cls-3" x1="1.5" y1="96.62" x2="8" y2="96.62"/><line class="cls-3" x1="146.55" y1="46.68" x2="163.87" y2="29.36"/><line class="cls-3" x1="29.36" y1="163.88" x2="46.68" y2="146.56"/><line class="cls-3" x1="46.68" y1="46.68" x2="29.36" y2="29.36"/><line class="cls-3" x1="163.87" y1="163.88" x2="146.55" y2="146.56"/><polygon class="cls-5" points="84.92 108.42 96.62 138.11 108.31 108.31 138.11 96.62 108.21 84.92 96.62 55.12 84.82 84.92 55.12 96.62 84.92 108.42"/><path class="cls-3" d="M148,48.17A70.62,70.62,0,1,1,96.62,26,70.37,70.37,0,0,1,148,48.17"/></g></g></svg>