<svg xmlns="http://www.w3.org/2000/svg" viewBox="0 0 418.92 418.92"><defs><style>.cls-1{fill:#ca9733;}.cls-2{opacity:0.1;}.cls-3,.cls-4{fill:none;stroke:#431;stroke-miterlimit:10;}.cls-4{stroke-dasharray:5 5;}</style></defs><g id="Sentences"><rect class="cls-1" width="418.92" height="418.92"/><g class="cls-2"><path class="cls-3" d="M399.5-19.5a194.59,194.59,0,0,0-30.07,7c-75.85,16-40,97.32-20.88,147.73,14.31,43.37,29.66,86.6,50.69,127,54.7,78.45,104.17,70.13,157.61,48.43"/><path class="cls-3" d="M-24.39,332.92c44.94-13.54,101.77,28.2,147.14,38.8,32.12,9.65,66.73,4.36,98.4,16a159.24,159.24,0,0,1,49.44,29.42c10,8.59,27.66,21.84,46.75,26.92s60.23,12.11,80.49,16,53.26,30,72.25,30.4,39.62-4,39.62-4"/><path class="cls-3" d="M-29.44,370.54c37.29-39.41,104,13.88,147.26,22.42,92.08,19,85.63,3.48,166.64,63.35,20.8,12.86,50.74,14,77.44,21.83,18,5.25,42.9,19.92,59.51,33s50.24,31.62,57,29"/><path class="cls-3" d="M521.83-3.49a115,115,0,0,1-30.37,8.24C447.2,15.36,369,13.73,377.17,82.89c10.26,56.33,23,114.2,54,162.62,37,47.12,83.55,37.73,131.29,20.48"/><path class="cls-3" d="M-26.23,346.59c11.25-5.33,25.34-7,42.61-3.67,47,15.89,92.31,39.88,142.28,45.42,52.51-2.75,92.11,27.72,133.09,55.19,22.86,12.69,53.12,16.63,81.21,21.4,8.53,1.45,19.73,3.61,28.5,8.41s40.61,28.05,56.72,28.48,41.95-5.14,41.95-5.14"/><path class="cls-3" d="M290.42,604.63c-25.7-10.64-54.05-19.14-72.15-35.58C149.52,495.42,153,511.84,66,476.39,25,460.11-30.9,395.56-74.75,427.51"/><path class="cls-3" d="M303.71,593.66c-26.44-10.62-55.78-19.2-75.95-35.85-35.29-34.47-68.67-71.66-120.8-78.52C58.84,464.74,18.67,432.9-24.66,408.7c-16.37-6.43-30.53-7.34-42.56-4.16"/><path class="cls-3" d="M464.68-10.76c-52.76,6.31-117.78,9.35-117.85,71,13.38,64.91,32.07,129.34,61,188.84,41.6,72.12,95.21,62,151.2,41.09"/><path class="cls-3" d="M-23.07,323.1c47.88-13,91.84,25.73,136.94,38.28,61.68,17.56,115.27,3.92,169.43,51.7,33.53,26,97.29,31.61,130.49,40.37,18,4.76,43.27,20.56,58.41,24.8S509,475,509,475"/><path class="cls-3" d="M365.27-27.41c-52.75,15.34-83.4,50.23-42.72,136.83,24.16,56.87,43.62,116.68,74.15,170.29,61.31,73.93,108.74,68.94,157.74,49"/><path class="cls-3" d="M-21.8,313.61c51.65-9.36,99.13,30.81,148.17,44.47,58,7.44,118.68,8,165.91,48.21,34.05,24.84,85.75,21,118.77,29.68,26.38,6.91,58,27.28,78.15,30.12a62.55,62.55,0,0,0,17.49-.18"/><path class="cls-3" d="M341.76-38.68c-24.24,9.41-43.26,26.71-51.91,60-7.6,43.26,9.94,84.42,30.24,120.57,34.44,58.21,46.47,134.89,100.37,177.66,52.46,46.19,92.5,43.82,131.36,28.74"/><path class="cls-4" d="M326.15-61.75c-39.92,18-70.17,50.16-68.79,104.19-.5,28.93-7.87,65.75,14.95,88.25,37.16,35.25,61,79.95,80.4,127.08,34.23,76.28,109.26,139,190.14,138.37"/></g></g></svg>