<svg xmlns="http://www.w3.org/2000/svg" viewBox="0 0 418.92 418.92"><defs><style>.cls-1{fill:#4d4f34;}.cls-2{opacity:0.15;}.cls-3{fill:#e6ea9a;}</style></defs><g id="Sentences"><rect class="cls-1" width="418.92" height="418.92"/><g class="cls-2"><path class="cls-3" d="M339.71,39.66c.12.76.25,1.52.38,2.28l.15-.73C340.06,40.7,339.89,40.18,339.71,39.66Z"/><polygon class="cls-3" points="411.58 232.99 413.48 224.77 414.84 226.84 417.32 226.81 411.58 232.99 411.58 232.99"/><polygon class="cls-3" points="364.44 302.87 375.96 302.11 373.78 304.71 374.81 307.94 364.44 302.87 364.44 302.87"/><polygon class="cls-3" points="397.54 305.07 408.54 301.61 407.04 304.65 408.8 307.55 397.54 305.07 397.54 305.07"/><polygon class="cls-3" points="341.36 311.28 351.32 305.46 350.53 308.76 352.89 311.2 341.36 311.28 341.36 311.28"/><polygon class="cls-3" points="386.68 296.77 396.64 290.95 395.86 294.25 398.21 296.69 386.68 296.77 386.68 296.77"/><polygon class="cls-3" points="326.36 308.12 330.89 301.01 331.48 303.42 333.83 304.21 326.36 308.12 326.36 308.12"/><polygon class="cls-3" points="412.47 292.78 417 285.67 417.59 288.08 419.94 288.87 412.47 292.78 412.47 292.78"/><polygon class="cls-3" points="378.91 275.9 389.51 271.33 388.33 274.51 390.37 277.22 378.91 275.9 378.91 275.9"/><polygon class="cls-3" points="410.83 266.92 420.05 259.98 419.66 263.35 422.28 265.49 410.83 266.92 410.83 266.92"/><polygon class="cls-3" points="359.96 291.54 367.41 282.73 367.77 286.1 370.81 287.61 359.96 291.54 359.96 291.54"/><polygon class="cls-3" points="397.83 262.72 405.28 253.91 405.64 257.28 408.68 258.79 397.83 262.72 397.83 262.72"/><polygon class="cls-3" points="344.76 293.57 346.66 285.36 348.02 287.43 350.5 287.39 344.76 293.57 344.76 293.57"/><polygon class="cls-3" points="328.42 274.67 339.02 270.1 337.84 273.28 339.88 275.99 328.42 274.67 328.42 274.67"/><polygon class="cls-3" points="360.35 265.69 369.57 258.75 369.17 262.12 371.8 264.26 360.35 265.69 360.35 265.69"/><polygon class="cls-3" points="309.47 290.31 316.92 281.5 317.28 284.87 320.32 286.38 309.47 290.31 309.47 290.31"/><polygon class="cls-3" points="347.34 261.49 354.79 252.68 355.15 256.05 358.19 257.56 347.34 261.49 347.34 261.49"/><polygon class="cls-3" points="295.52 303.73 299.31 296.2 300.14 298.53 302.56 299.09 295.52 303.73 295.52 303.73"/><polygon class="cls-3" points="244.65 369.84 256.16 369.07 253.99 371.68 255.01 374.91 244.65 369.84 244.65 369.84"/><polygon class="cls-3" points="281.17 347.77 290.99 341.72 290.28 345.04 292.7 347.42 281.17 347.77 281.17 347.77"/><polygon class="cls-3" points="221.56 378.25 231.52 372.43 230.74 375.73 233.09 378.17 221.56 378.25 221.56 378.25"/><polygon class="cls-3" points="266.88 363.74 276.85 357.92 276.06 361.22 278.42 363.66 266.88 363.74 266.88 363.74"/><polygon class="cls-3" points="206.56 375.09 211.09 367.98 211.68 370.39 214.03 371.18 206.56 375.09 206.56 375.09"/><polygon class="cls-3" points="297.27 342.78 305.45 340.74 304.22 342.89 305.38 345.08 297.27 342.78 297.27 342.78"/><polygon class="cls-3" points="259.12 342.86 269.71 338.3 268.53 341.48 270.58 344.18 259.12 342.86 259.12 342.86"/><polygon class="cls-3" points="291.04 333.88 300.26 326.95 299.86 330.31 302.49 332.46 291.04 333.88 291.04 333.88"/><polygon class="cls-3" points="240.16 358.5 247.61 349.69 247.97 353.07 251.01 354.58 240.16 358.5 240.16 358.5"/><polygon class="cls-3" points="278.04 329.69 285.48 320.88 285.84 324.25 288.88 325.76 278.04 329.69 278.04 329.69"/><polygon class="cls-3" points="224.97 360.54 226.86 352.32 228.23 354.4 230.71 354.36 224.97 360.54 224.97 360.54"/><polygon class="cls-3" points="309.56 328.09 317.52 325.3 316.5 327.56 317.85 329.63 309.56 328.09 309.56 328.09"/><polygon class="cls-3" points="299.43 315.83 305.27 309.74 305.38 312.22 307.53 313.46 299.43 315.83 299.43 315.83"/><polygon class="cls-3" points="208.63 341.63 219.22 337.07 218.04 340.25 220.09 342.95 208.63 341.63 208.63 341.63"/><polygon class="cls-3" points="240.55 332.65 249.77 325.72 249.37 329.09 252 331.23 240.55 332.65 240.55 332.65"/><polygon class="cls-3" points="189.68 357.28 197.12 348.47 197.48 351.84 200.52 353.35 189.68 357.28 189.68 357.28"/><polygon class="cls-3" points="227.55 328.46 234.99 319.65 235.36 323.02 238.39 324.53 227.55 328.46 227.55 328.46"/><polygon class="cls-3" points="174.48 359.31 176.38 351.1 177.74 353.17 180.22 353.13 174.48 359.31 174.48 359.31"/><polygon class="cls-3" points="250.52 316.08 252.42 307.87 253.78 309.94 256.26 309.9 250.52 316.08 250.52 316.08"/><polygon class="cls-3" points="149.57 423.1 159.54 417.28 158.75 420.58 161.11 423.02 149.57 423.1 149.57 423.1"/><polygon class="cls-3" points="175.36 419.11 179.9 412 180.49 414.4 182.83 415.2 175.36 419.11 175.36 419.11"/><polygon class="cls-3" points="141.81 402.22 152.4 397.66 151.22 400.84 153.27 403.54 141.81 402.22 141.81 402.22"/><polygon class="cls-3" points="173.73 393.24 182.95 386.31 182.55 389.68 185.18 391.82 173.73 393.24 173.73 393.24"/><polygon class="cls-3" points="122.86 417.87 130.3 409.06 130.66 412.43 133.7 413.94 122.86 417.87 122.86 417.87"/><polygon class="cls-3" points="160.73 389.05 168.17 380.24 168.54 383.61 171.57 385.12 160.73 389.05 160.73 389.05"/><polygon class="cls-3" points="107.66 419.9 109.56 411.69 110.92 413.76 113.4 413.72 107.66 419.9 107.66 419.9"/><polygon class="cls-3" points="200.96 382.91 209.2 384.71 207.14 386.1 207.21 388.58 200.96 382.91 200.96 382.91"/><polygon class="cls-3" points="183.7 376.67 185.6 368.46 186.96 370.53 189.44 370.49 183.7 376.67 183.7 376.67"/><polygon class="cls-3" points="4.59 386.47 15.19 381.9 14.01 385.08 16.05 387.79 4.59 386.47 4.59 386.47"/><polygon class="cls-3" points="36.52 377.49 45.74 370.55 45.34 373.92 47.97 376.07 36.52 377.49 36.52 377.49"/><polygon class="cls-3" points="23.51 373.29 30.96 364.48 31.32 367.86 34.36 369.36 23.51 373.29 23.51 373.29"/><polygon class="cls-3" points="63.75 367.16 71.98 368.96 69.93 370.34 69.99 372.82 63.75 367.16 63.75 367.16"/><polygon class="cls-3" points="46.49 360.92 48.38 352.7 49.74 354.77 52.22 354.74 46.49 360.92 46.49 360.92"/><polygon class="cls-3" points="91.32 400.99 101.91 396.43 100.73 399.61 102.78 402.31 91.32 400.99 91.32 400.99"/><polygon class="cls-3" points="123.24 392.01 132.46 385.08 132.06 388.45 134.69 390.59 123.24 392.01 123.24 392.01"/><polygon class="cls-3" points="72.37 416.64 79.81 407.83 80.18 411.2 83.21 412.71 72.37 416.64 72.37 416.64"/><polygon class="cls-3" points="110.24 387.82 117.69 379.01 118.05 382.38 121.08 383.89 110.24 387.82 110.24 387.82"/><polygon class="cls-3" points="-2.82 372.82 6.07 365.47 5.83 368.85 8.55 370.87 -2.82 372.82 -2.82 372.82"/><polygon class="cls-3" points="25.29 355.24 32.19 345.99 32.76 349.33 35.88 350.66 25.29 355.24 25.29 355.24"/><polygon class="cls-3" points="11.63 354.87 16.31 344.32 17.6 347.45 20.94 348.05 11.63 354.87 11.63 354.87"/><polygon class="cls-3" points="30.21 336.53 29.72 328.12 31.61 329.72 33.98 328.99 30.21 336.53 30.21 336.53"/><polygon class="cls-3" points="9.94 419.45 21.31 417.54 19.41 420.34 20.76 423.46 9.94 419.45 9.94 419.45"/><polygon class="cls-3" points="0.32 409.75 10.98 405.35 9.75 408.51 11.76 411.25 0.32 409.75 0.32 409.75"/><polygon class="cls-3" points="26.41 409.32 31.87 402.9 32.13 405.37 34.35 406.47 26.41 409.32 26.41 409.32"/><polygon class="cls-3" points="405.38 276.73 413.38 274.07 412.32 276.32 413.64 278.41 405.38 276.73 405.38 276.73"/><polygon class="cls-3" points="364.45 344.01 372.51 335.76 372.63 339.14 375.55 340.87 364.45 344.01 364.45 344.01"/><polygon class="cls-3" points="392.17 338 403.18 334.55 401.68 337.59 403.44 340.49 392.17 338 392.17 338"/><polygon class="cls-3" points="374.81 316.63 384.82 310.89 384.01 314.18 386.35 316.64 374.81 316.63 374.81 316.63"/><polygon class="cls-3" points="381.32 329.71 391.28 323.89 390.49 327.19 392.85 329.63 381.32 329.71 381.32 329.71"/><polygon class="cls-3" points="354.86 319.13 362.86 316.47 361.8 318.71 363.12 320.81 354.86 319.13 354.86 319.13"/><polygon class="cls-3" points="406.04 322.67 414.33 321.09 412.98 323.17 414.01 325.43 406.04 322.67 406.04 322.67"/><polygon class="cls-3" points="416.61 305.94 428.14 305.67 425.85 308.18 426.74 311.45 416.61 305.94 416.61 305.94"/><polygon class="cls-3" points="306.32 360.38 316.92 355.82 315.74 359 317.78 361.7 306.32 360.38 306.32 360.38"/><polygon class="cls-3" points="336.18 356.48 346.6 351.51 345.54 354.74 347.69 357.36 336.18 356.48 336.18 356.48"/><polygon class="cls-3" points="286.22 357.05 297.75 356.73 295.48 359.25 296.38 362.52 286.22 357.05 286.22 357.05"/><polygon class="cls-3" points="321.28 345.76 332.66 343.87 330.75 346.67 332.08 349.79 321.28 345.76 321.28 345.76"/><polygon class="cls-3" points="331.18 325.07 339.33 322.91 338.14 325.08 339.33 327.25 331.18 325.07 331.18 325.07"/><polygon class="cls-3" points="343.46 335.26 349.87 329.79 349.73 332.26 351.75 333.71 343.46 335.26 343.46 335.26"/></g></g></svg>