<svg xmlns="http://www.w3.org/2000/svg" viewBox="0 0 418.92 418.92"><defs><style>.cls-1{fill:#4d4f34;}.cls-2{opacity:0.1;}.cls-3{fill:#e6ea9a;}</style></defs><g id="Sentences"><rect class="cls-1" width="418.92" height="418.92"/><g class="cls-2"><path class="cls-3" d="M28.66,59.94c.55-.28,1.09-.57,1.64-.87l-.59.08Z"/><polygon class="cls-3" points="235.91 1.73 229.35 0.1 231.03 -0.96 231.04 -2.95 235.91 1.73 235.91 1.73"/><polygon class="cls-3" points="209.98 8.68 203.81 1.8 206.53 1.88 208.06 -0.36 209.98 8.68 209.98 8.68"/><polygon class="cls-3" points="226.68 19.09 218.09 15.68 220.56 14.54 220.93 11.85 226.68 19.09 226.68 19.09"/><polygon class="cls-3" points="240.42 26.27 233.74 25.3 235.3 24.08 235.1 22.1 240.42 26.27 240.42 26.27"/><polygon class="cls-3" points="303.57 48.06 300.06 39.51 302.59 40.5 304.78 38.9 303.57 48.06 303.57 48.06"/><polygon class="cls-3" points="277.52 25.95 270.42 20.03 273.12 19.73 274.31 17.28 277.52 25.95 277.52 25.95"/><polygon class="cls-3" points="315.83 63.45 308.88 57.37 311.59 57.12 312.84 54.71 315.83 63.45 315.83 63.45"/><polygon class="cls-3" points="293.28 32.73 286.32 26.64 289.03 26.4 290.28 23.99 293.28 32.73 293.28 32.73"/><polygon class="cls-3" points="317.26 75.64 310.7 74.01 312.38 72.95 312.39 70.97 317.26 75.64 317.26 75.64"/><polygon class="cls-3" points="269.62 14.99 265.99 9.3 267.94 9.69 269.31 8.25 269.62 14.99 269.62 14.99"/><polygon class="cls-3" points="279.4 43.94 273.24 37.06 275.96 37.15 277.49 34.9 279.4 43.94 279.4 43.94"/><polygon class="cls-3" points="264.46 21.99 256.84 16.75 259.5 16.2 260.46 13.66 264.46 21.99 264.46 21.99"/><polygon class="cls-3" points="296.11 54.35 287.52 50.94 289.99 49.8 290.36 47.12 296.11 54.35 296.11 54.35"/><polygon class="cls-3" points="264.58 32.93 256 29.52 258.47 28.39 258.84 25.7 264.58 32.93 264.58 32.93"/><polygon class="cls-3" points="301.52 65.37 294.8 66.02 296.03 64.46 295.37 62.59 301.52 65.37 301.52 65.37"/><polygon class="cls-3" points="255.34 9.4 251.2 4.07 253.17 4.27 254.41 2.71 255.34 9.4 255.34 9.4"/><polygon class="cls-3" points="248.61 20.21 242.5 17.33 244.36 16.62 244.75 14.67 248.61 20.21 248.61 20.21"/><polygon class="cls-3" points="291.33 82.59 285.16 75.71 287.88 75.79 289.41 73.55 291.33 82.59 291.33 82.59"/><polygon class="cls-3" points="276.38 60.64 268.77 55.4 271.42 54.85 272.38 52.31 276.38 60.64 276.38 60.64"/><polygon class="cls-3" points="308.03 93 299.44 89.59 301.91 88.45 302.28 85.76 308.03 93 308.03 93"/><polygon class="cls-3" points="276.5 71.58 267.92 68.17 270.39 67.03 270.76 64.34 276.5 71.58 276.5 71.58"/><polygon class="cls-3" points="313.44 104.02 306.72 104.67 307.95 103.11 307.29 101.23 313.44 104.02 313.44 104.02"/><polygon class="cls-3" points="261.26 57.29 254.54 57.94 255.76 56.38 255.1 54.5 261.26 57.29 261.26 57.29"/><polygon class="cls-3" points="378.51 122.02 375 113.47 377.53 114.46 379.72 112.86 378.51 122.02 378.51 122.02"/><polygon class="cls-3" points="390.77 137.41 383.82 131.32 386.53 131.08 387.78 128.67 390.77 137.41 390.77 137.41"/><polygon class="cls-3" points="368.22 106.69 361.26 100.6 363.97 100.36 365.22 97.95 368.22 106.69 368.22 106.69"/><polygon class="cls-3" points="392.2 149.6 385.64 147.97 387.32 146.91 387.33 144.92 392.2 149.6 392.2 149.6"/><polygon class="cls-3" points="358.62 88.12 352.07 86.49 353.75 85.43 353.75 83.44 358.62 88.12 358.62 88.12"/><polygon class="cls-3" points="354.34 117.9 348.18 111.02 350.9 111.1 352.43 108.86 354.34 117.9 354.34 117.9"/><polygon class="cls-3" points="339.4 95.95 331.78 90.71 334.44 90.16 335.4 87.62 339.4 95.95 339.4 95.95"/><polygon class="cls-3" points="371.05 128.31 362.46 124.9 364.93 123.76 365.3 121.07 371.05 128.31 371.05 128.31"/><polygon class="cls-3" points="339.52 106.89 330.94 103.48 333.41 102.34 333.78 99.65 339.52 106.89 339.52 106.89"/><polygon class="cls-3" points="376.46 139.33 369.74 139.98 370.97 138.42 370.31 136.54 376.46 139.33 376.46 139.33"/><polygon class="cls-3" points="324.62 77.9 323.89 71.19 325.47 72.4 327.33 71.72 324.62 77.9 324.62 77.9"/><polygon class="cls-3" points="324.28 92.6 317.56 93.25 318.78 91.69 318.12 89.81 324.28 92.6 324.28 92.6"/><polygon class="cls-3" points="377.32 226.1 371.15 219.21 373.87 219.3 375.4 217.06 377.32 226.1 377.32 226.1"/><polygon class="cls-3" points="362.37 204.15 354.76 198.91 357.42 198.35 358.38 195.81 362.37 204.15 362.37 204.15"/><polygon class="cls-3" points="394.02 236.5 385.44 233.09 387.9 231.96 388.28 229.27 394.02 236.5 394.02 236.5"/><polygon class="cls-3" points="362.5 215.09 353.91 211.67 356.38 210.54 356.75 207.85 362.5 215.09 362.5 215.09"/><polygon class="cls-3" points="399.44 247.52 392.71 248.18 393.94 246.61 393.28 244.74 399.44 247.52 399.44 247.52"/><polygon class="cls-3" points="347.6 186.1 346.86 179.39 348.44 180.59 350.31 179.91 347.6 186.1 347.6 186.1"/><polygon class="cls-3" points="347.25 200.79 340.53 201.45 341.76 199.88 341.1 198.01 347.25 200.79 347.25 200.79"/><polygon class="cls-3" points="366.27 156.55 360.1 149.67 362.82 149.75 364.35 147.51 366.27 156.55 366.27 156.55"/><polygon class="cls-3" points="351.32 134.6 343.71 129.36 346.36 128.81 347.32 126.27 351.32 134.6 351.32 134.6"/><polygon class="cls-3" points="382.97 166.96 374.38 163.54 376.85 162.41 377.22 159.72 382.97 166.96 382.97 166.96"/><polygon class="cls-3" points="351.44 145.54 342.86 142.13 345.33 140.99 345.7 138.3 351.44 145.54 351.44 145.54"/><polygon class="cls-3" points="368.85 235.2 361 230.33 363.63 229.65 364.47 227.06 368.85 235.2 368.85 235.2"/><polygon class="cls-3" points="348.33 218.33 339.56 215.45 341.95 214.17 342.16 211.46 348.33 218.33 348.33 218.33"/><polygon class="cls-3" points="387.8 240.5 378.6 239.63 380.65 237.85 380.25 235.17 387.8 240.5 387.8 240.5"/><polygon class="cls-3" points="351.53 228.8 342.33 227.94 344.38 226.16 343.98 223.47 351.53 228.8 351.53 228.8"/><polygon class="cls-3" points="332.88 219.36 326.61 221.88 327.35 220.03 326.19 218.42 332.88 219.36 332.88 219.36"/><polygon class="cls-3" points="411.37 200.21 409.06 191.26 411.43 192.59 413.82 191.3 411.37 200.21 411.37 200.21"/><polygon class="cls-3" points="408.19 173.84 403.83 165.69 406.45 166.42 408.47 164.6 408.19 173.84 408.19 173.84"/><polygon class="cls-3" points="421.41 217.13 415.36 210.15 418.07 210.28 419.64 208.06 421.41 217.13 421.41 217.13"/><polygon class="cls-3" points="403.27 183.61 397.21 176.63 399.93 176.76 401.49 174.55 403.27 183.61 403.27 183.61"/><polygon class="cls-3" points="421.16 229.4 414.89 226.89 416.69 226.07 416.97 224.1 421.16 229.4 421.16 229.4"/><polygon class="cls-3" points="403.36 151.02 405.8 144.72 406.64 146.52 408.61 146.77 403.36 151.02 403.36 151.02"/><polygon class="cls-3" points="396.3 163.91 390.03 161.4 391.84 160.58 392.12 158.61 396.3 163.91 396.3 163.91"/><polygon class="cls-3" points="404.18 240.01 401.88 231.06 404.25 232.39 406.64 231.1 404.18 240.01 404.18 240.01"/><polygon class="cls-3" points="401 213.64 396.65 205.49 399.27 206.22 401.29 204.41 401 213.64 401 213.64"/><polygon class="cls-3" points="414.23 256.93 408.17 249.95 410.89 250.08 412.45 247.86 414.23 256.93 414.23 256.93"/><polygon class="cls-3" points="396.08 223.41 390.03 216.44 392.74 216.57 394.31 214.35 396.08 223.41 396.08 223.41"/><polygon class="cls-3" points="413.97 269.2 407.7 266.69 409.51 265.87 409.79 263.9 413.97 269.2 413.97 269.2"/><polygon class="cls-3" points="389.12 203.71 382.85 201.2 384.65 200.38 384.93 198.41 389.12 203.71 389.12 203.71"/><polygon class="cls-3" points="397.5 334.26 393.05 326.17 395.67 326.86 397.67 325.02 397.5 334.26 397.5 334.26"/><polygon class="cls-3" points="410.23 348.9 404.65 341.54 407.35 341.84 409.06 339.73 410.23 348.9 410.23 348.9"/><polygon class="cls-3" points="416.33 344.73 418.46 335.74 419.94 338.02 422.66 338 416.33 344.73 416.33 344.73"/><polygon class="cls-3" points="385.54 320.2 377.95 314.94 380.61 314.39 381.58 311.85 385.54 320.2 385.54 320.2"/><polygon class="cls-3" points="410.44 362.05 410.28 355.3 411.75 356.63 413.67 356.11 410.44 362.05 410.44 362.05"/><polygon class="cls-3" points="405.93 330.94 404.59 324.32 406.27 325.38 408.06 324.53 405.93 330.94 405.93 330.94"/><polygon class="cls-3" points="402.15 318.43 397.27 313.77 399.25 313.68 400.24 311.96 402.15 318.43 402.15 318.43"/><polygon class="cls-3" points="373.91 302.83 367.21 301.96 368.76 300.71 368.54 298.74 373.91 302.83 373.91 302.83"/><polygon class="cls-3" points="417 410.31 426.01 408.23 424.62 410.56 425.85 412.99 417 410.31 417 410.31"/><polygon class="cls-3" points="399.83 419.92 406.96 414.05 406.76 416.75 408.94 418.38 399.83 419.92 399.83 419.92"/><polygon class="cls-3" points="387.57 419.35 390.24 413.15 391.02 414.98 392.97 415.3 387.57 419.35 387.57 419.35"/><polygon class="cls-3" points="377.4 402.11 386.4 400.03 385.01 402.37 386.24 404.79 377.4 402.11 377.4 402.11"/><polygon class="cls-3" points="403.84 399.61 412.1 395.46 411.3 398.06 413.06 400.12 403.84 399.61 403.84 399.61"/><polygon class="cls-3" points="360.23 411.73 367.36 405.85 367.16 408.56 369.33 410.18 360.23 411.73 360.23 411.73"/><polygon class="cls-3" points="406.42 381.8 407 372.58 408.85 374.58 411.52 374.1 406.42 381.8 406.42 381.8"/><polygon class="cls-3" points="392.31 392.95 400.5 388.67 399.75 391.28 401.55 393.32 392.31 392.95 392.31 392.95"/><polygon class="cls-3" points="347.96 411.16 350.63 404.95 351.41 406.78 353.37 407.11 347.96 411.16 347.96 411.16"/><polygon class="cls-3" points="414.07 387.98 416.74 381.77 417.51 383.6 419.47 383.93 414.07 387.98 414.07 387.98"/><polygon class="cls-3" points="293.26 424.42 300.39 418.55 300.19 421.26 302.37 422.88 293.26 424.42 293.26 424.42"/><polygon class="cls-3" points="280.69 3.64 274.52 -3.24 277.24 -3.16 278.77 -5.4 280.69 3.64 280.69 3.64"/><polygon class="cls-3" points="283.28 19.75 280.1 11.07 282.59 12.16 284.84 10.64 283.28 19.75 283.28 19.75"/></g></g></svg>