<svg xmlns="http://www.w3.org/2000/svg" xmlns:xlink="http://www.w3.org/1999/xlink" viewBox="0 0 418.92 418.92"><defs><style>.cls-1{fill:none;}.cls-2{fill:#283f47;}.cls-3{opacity:0.1;}.cls-4{clip-path:url(#clip-path);}.cls-5{fill:#77bad2;}.cls-6{clip-path:url(#clip-path-2);}</style><clipPath id="clip-path"><path class="cls-1" d="M187.86,308c-4.15,6.06-6.42,13.5-6.76,22.1-.4,10.24,1.93,22.25,7.13,36.72l.35,1a15.34,15.34,0,0,0,.66,1.57l.47.95c.69,1.42,1.17,2.49,1.51,3.3-2.19.91-7.06,1.14-16.75.89-7.3-.19-15.57-.4-24,.91l-.17,0-.41.07-.16,0c-14.25,2.66-26.94,10.71-36.7,23.27a85.87,85.87,0,0,0-16.36,38.78,87.15,87.15,0,0,0,2.39,38.05,79.63,79.63,0,0,0,15.26,28.58h0a77,77,0,0,0,6.37,6.78l1,1.16h0a15.76,15.76,0,0,0,3.75,3.27l2.67,1.65c13.66,8.49,25.4,21.47,36,34.24,3.7,4.44,7.34,9,11.2,13.74l0,0c3.78,4.69,7.69,9.53,11.68,14.33,10.5,12.59,19.05,21.72,27.75,29.61,18.42,16.71,37.39,27.45,58,32.82,5.86,1.75,11.34,3.57,16.64,5.33,19.6,6.53,38.12,12.69,56.13,6.73a43.27,43.27,0,0,0,14.53-8.16,52.83,52.83,0,0,0,11-13.24c5-8.39,9.05-19.52,12.33-34l.27-1.16a12,12,0,0,0,.27-1.91l.08-1.22c0-.57.38-2.82,3.15-7.77,2.27-4.07,5.42-8.61,8.47-13,5.91-8.53,12-17.35,15.8-27.66,6-16.43,4.44-33.1-4.58-48.21a2.39,2.39,0,0,1-.13-.21l-.33-.53a2.39,2.39,0,0,0-.13-.21c-3.17-4.95-4.83-10.73-3.27-24.27a1.5,1.5,0,0,0,0-.22l.06-.54c0-.07,0-.14,0-.21,1.25-15.56.26-29.21-3-41.75a88.8,88.8,0,0,0-17.72-34.75c-.35-.41-.7-.83-1.06-1.24-14.74-17.05-33.68-26.06-50.39-34-14.72-7-27.44-13.05-36.54-23.11l-.06-.06-.14-.16-.07-.06a171.92,171.92,0,0,0-40-31.58c-27.66-15.43-45.12-12.28-54.91-6.93A33,33,0,0,0,187.86,308ZM346,487.45a90.66,90.66,0,0,0,11,32.11c-1.79,4.22-5.79,10-9.65,15.56A182.44,182.44,0,0,0,335,554.78a70.34,70.34,0,0,0-8,24.78c-2.68,11.32-5.08,16-6.25,17.83a44.8,44.8,0,0,1-5.79-1.26c-4.26-1.15-9.45-2.88-14.94-4.71-5.66-1.88-12.08-4-19.14-6.1l-.25-.08-.62-.17-.24-.06c-10.48-2.68-20.16-8.27-30.46-17.62-6.17-5.6-12.58-12.49-20.79-22.34-3.63-4.35-7.23-8.81-11-13.54l0,0,0,0c-3.84-4.77-7.82-9.7-11.88-14.57-13-15.59-29-33.29-49.54-46.81l-.33-.38c-2.91-3.49-3.07-10.32-2.32-15.11,1.88-12,9.24-20,13.77-21.06a97.64,97.64,0,0,1,13.81-.23c8.57.22,18.29.48,28.13-1.67a54.16,54.16,0,0,0,18.15-7.45,49.12,49.12,0,0,0,13.68-13.47l.05-.07.09-.14,0-.05a48.41,48.41,0,0,0,6.89-16,52.18,52.18,0,0,0,.85-18.05,66.59,66.59,0,0,0-2.36-11.1,93.36,93.36,0,0,1,8.59,8,135,135,0,0,0,29.54,24.16A291.24,291.24,0,0,0,313,412.4c12.18,5.79,22.7,10.8,27.79,16.68l.17.21c6.57,7.88,5.45,23.42,5,28.84A116.21,116.21,0,0,0,346,487.45Z"/></clipPath><clipPath id="clip-path-2"><path class="cls-1" d="M-210-28.35c9.38,19.63,25,36.77,46.49,51,30.29,20,66.72,30.91,102,41.46,25.36,7.6,54.09,16.21,66.75,25.53,1.27.93,2.58,1.83,3.92,2.66,32.52,20.31,64.89,34.2,96.21,41.29a228.87,228.87,0,0,0,50.44,5.75,209.55,209.55,0,0,0,44.78-4.8c52.27-11.44,98.71-42.41,142-94.68C377.89-2.92,406-52.92,433.09-101.28c19.09-34,37.13-66.15,54.52-89.43l18.52-24.8L477.57-231.6,430-258.4,401.4-274.49l-18.53,24.8c-21.53,28.83-41.19,63.85-62,100.92-24.13,43-49.08,87.46-77.19,122.26C217.79,5.55,193,24.36,170,29.39a66.46,66.46,0,0,1-14.4,1.53c-20.12,0-44.32-8.61-71.93-25.61C70-4.44,53.16-13,32.43-21,14.86-27.7-3.29-33.14-20.85-38.4-45.58-45.81-73.61-54.2-88-63.69c-2.52-1.66-5.73-4.09-6.74-6.23-.88-1.85-1-5.13-.36-9.48l4.3-29.32-33.78-3.74-56.28-6.22-33.78-3.73-4.3,29.32C-222.34-69.69-219.34-47.91-210-28.35Z"/></clipPath></defs><g id="Sentences"><rect class="cls-2" width="418.92" height="418.92"/><g class="cls-3"><g class="cls-4"><ellipse class="cls-5" cx="213.07" cy="418.03" rx="1.39" ry="1.61" transform="translate(-218.26 233.37) rotate(-39.82)"/><ellipse class="cls-5" cx="219.38" cy="412.77" rx="1.39" ry="1.61" transform="translate(-213.43 236.19) rotate(-39.82)"/><ellipse class="cls-5" cx="225.69" cy="407.51" rx="1.39" ry="1.61" transform="translate(-208.6 239.01) rotate(-39.82)"/><ellipse class="cls-5" cx="232" cy="402.25" rx="1.39" ry="1.61" transform="translate(-203.77 241.83) rotate(-39.82)"/><ellipse class="cls-5" cx="238.31" cy="396.99" rx="1.39" ry="1.61" transform="translate(-198.94 244.65) rotate(-39.82)"/><ellipse class="cls-5" cx="244.62" cy="391.73" rx="1.39" ry="1.61" transform="translate(-194.11 247.47) rotate(-39.82)"/><ellipse class="cls-5" cx="232.85" cy="416.1" rx="1.39" ry="1.61" transform="translate(-212.44 245.59) rotate(-39.82)"/><ellipse class="cls-5" cx="239.16" cy="410.84" rx="1.39" ry="1.61" transform="translate(-207.61 248.41) rotate(-39.82)"/><ellipse class="cls-5" cx="245.47" cy="405.58" rx="1.39" ry="1.61" transform="translate(-202.78 251.23) rotate(-39.82)"/><ellipse class="cls-5" cx="251.78" cy="400.32" rx="1.39" ry="1.61" transform="translate(-197.94 254.05) rotate(-39.82)"/><ellipse class="cls-5" cx="246.32" cy="419.43" rx="1.39" ry="1.61" transform="translate(-211.45 254.98) rotate(-39.82)"/><ellipse class="cls-5" cx="252.63" cy="414.17" rx="1.39" ry="1.61" transform="translate(-206.62 257.8) rotate(-39.82)"/><ellipse class="cls-5" cx="258.94" cy="408.91" rx="1.39" ry="1.61" transform="translate(-201.78 260.62) rotate(-39.82)"/><ellipse class="cls-5" cx="266.1" cy="417.5" rx="1.39" ry="1.61" transform="translate(-205.62 267.2) rotate(-39.82)"/><ellipse class="cls-5" cx="76.55" cy="356.89" rx="1.39" ry="1.61" transform="translate(-210.77 131.77) rotate(-39.82)"/><ellipse class="cls-5" cx="82.86" cy="351.63" rx="1.39" ry="1.61" transform="translate(-205.94 134.59) rotate(-39.82)"/><ellipse class="cls-5" cx="89.17" cy="346.37" rx="1.39" ry="1.61" transform="translate(-201.11 137.41) rotate(-39.82)"/><ellipse class="cls-5" cx="95.48" cy="341.11" rx="1.39" ry="1.61" transform="translate(-196.28 140.23) rotate(-39.82)"/><ellipse class="cls-5" cx="101.79" cy="335.85" rx="1.39" ry="1.61" transform="translate(-191.45 143.05) rotate(-39.82)"/><ellipse class="cls-5" cx="108.1" cy="330.59" rx="1.39" ry="1.61" transform="translate(-186.61 145.87) rotate(-39.82)"/><ellipse class="cls-5" cx="114.41" cy="325.33" rx="1.39" ry="1.61" transform="translate(-181.78 148.69) rotate(-39.82)"/><ellipse class="cls-5" cx="120.72" cy="320.07" rx="1.39" ry="1.61" transform="translate(-176.95 151.52) rotate(-39.82)"/><ellipse class="cls-5" cx="127.03" cy="314.81" rx="1.39" ry="1.61" transform="translate(-172.12 154.34) rotate(-39.82)"/><ellipse class="cls-5" cx="133.34" cy="309.55" rx="1.39" ry="1.61" transform="translate(-167.29 157.16) rotate(-39.82)"/><ellipse class="cls-5" cx="139.65" cy="304.29" rx="1.39" ry="1.61" transform="translate(-162.46 159.98) rotate(-39.82)"/><ellipse class="cls-5" cx="145.96" cy="299.03" rx="1.39" ry="1.61" transform="translate(-157.63 162.8) rotate(-39.82)"/><ellipse class="cls-5" cx="152.27" cy="293.77" rx="1.39" ry="1.61" transform="translate(-152.8 165.62) rotate(-39.82)"/><ellipse class="cls-5" cx="158.58" cy="288.51" rx="1.39" ry="1.61" transform="translate(-147.96 168.44) rotate(-39.82)"/><ellipse class="cls-5" cx="90.02" cy="360.22" rx="1.39" ry="1.61" transform="translate(-209.78 141.17) rotate(-39.82)"/><ellipse class="cls-5" cx="96.33" cy="354.96" rx="1.39" ry="1.61" transform="translate(-204.95 143.99) rotate(-39.82)"/><ellipse class="cls-5" cx="102.64" cy="349.7" rx="1.39" ry="1.61" transform="translate(-200.12 146.81) rotate(-39.82)"/><ellipse class="cls-5" cx="108.95" cy="344.44" rx="1.39" ry="1.61" transform="translate(-195.28 149.63) rotate(-39.82)"/><ellipse class="cls-5" cx="115.26" cy="339.18" rx="1.39" ry="1.61" transform="translate(-190.45 152.45) rotate(-39.82)"/><ellipse class="cls-5" cx="121.57" cy="333.92" rx="1.39" ry="1.61" transform="translate(-185.62 155.27) rotate(-39.82)"/><ellipse class="cls-5" cx="127.88" cy="328.66" rx="1.39" ry="1.61" transform="translate(-180.79 158.09) rotate(-39.82)"/><ellipse class="cls-5" cx="134.19" cy="323.4" rx="1.39" ry="1.61" transform="translate(-175.96 160.91) rotate(-39.82)"/><ellipse class="cls-5" cx="140.5" cy="318.14" rx="1.39" ry="1.61" transform="translate(-171.13 163.73) rotate(-39.82)"/><ellipse class="cls-5" cx="146.81" cy="312.88" rx="1.39" ry="1.61" transform="translate(-166.3 166.55) rotate(-39.82)"/><ellipse class="cls-5" cx="153.11" cy="307.62" rx="1.39" ry="1.61" transform="translate(-161.47 169.37) rotate(-39.82)"/><ellipse class="cls-5" cx="159.42" cy="302.36" rx="1.39" ry="1.61" transform="translate(-156.63 172.19) rotate(-39.82)"/><ellipse class="cls-5" cx="165.73" cy="297.1" rx="1.39" ry="1.61" transform="translate(-151.8 175.01) rotate(-39.82)"/><ellipse class="cls-5" cx="97.18" cy="368.81" rx="1.39" ry="1.61" transform="translate(-213.62 147.74) rotate(-39.82)"/><ellipse class="cls-5" cx="103.49" cy="363.55" rx="1.39" ry="1.61" transform="translate(-208.79 150.56) rotate(-39.82)"/><ellipse class="cls-5" cx="109.8" cy="358.29" rx="1.39" ry="1.61" transform="translate(-203.95 153.38) rotate(-39.82)"/><ellipse class="cls-5" cx="116.11" cy="353.03" rx="1.39" ry="1.61" transform="translate(-199.12 156.21) rotate(-39.82)"/><ellipse class="cls-5" cx="122.42" cy="347.77" rx="1.39" ry="1.61" transform="translate(-194.29 159.03) rotate(-39.82)"/><ellipse class="cls-5" cx="128.73" cy="342.51" rx="1.39" ry="1.61" transform="translate(-189.46 161.85) rotate(-39.82)"/><ellipse class="cls-5" cx="135.04" cy="337.25" rx="1.39" ry="1.61" transform="translate(-184.63 164.67) rotate(-39.82)"/><ellipse class="cls-5" cx="141.34" cy="331.99" rx="1.39" ry="1.61" transform="translate(-179.8 167.49) rotate(-39.82)"/><ellipse class="cls-5" cx="147.65" cy="326.73" rx="1.39" ry="1.61" transform="translate(-174.97 170.31) rotate(-39.82)"/><ellipse class="cls-5" cx="153.96" cy="321.47" rx="1.39" ry="1.61" transform="translate(-170.14 173.13) rotate(-39.82)"/><ellipse class="cls-5" cx="160.27" cy="316.21" rx="1.39" ry="1.61" transform="translate(-165.3 175.95) rotate(-39.82)"/><ellipse class="cls-5" cx="166.58" cy="310.95" rx="1.39" ry="1.61" transform="translate(-160.47 178.77) rotate(-39.82)"/><ellipse class="cls-5" cx="172.89" cy="305.69" rx="1.39" ry="1.61" transform="translate(-155.64 181.59) rotate(-39.82)"/><ellipse class="cls-5" cx="104.34" cy="377.39" rx="1.39" ry="1.61" transform="translate(-217.46 154.32) rotate(-39.82)"/><ellipse class="cls-5" cx="110.65" cy="372.13" rx="1.39" ry="1.61" transform="translate(-212.63 157.14) rotate(-39.82)"/><ellipse class="cls-5" cx="116.96" cy="366.87" rx="1.39" ry="1.61" transform="translate(-207.79 159.96) rotate(-39.82)"/><ellipse class="cls-5" cx="123.27" cy="361.61" rx="1.39" ry="1.61" transform="translate(-202.96 162.78) rotate(-39.82)"/><ellipse class="cls-5" cx="129.57" cy="356.35" rx="1.39" ry="1.61" transform="translate(-198.13 165.6) rotate(-39.82)"/><ellipse class="cls-5" cx="135.88" cy="351.09" rx="1.39" ry="1.61" transform="translate(-193.3 168.42) rotate(-39.82)"/><ellipse class="cls-5" cx="142.19" cy="345.83" rx="1.39" ry="1.61" transform="translate(-188.47 171.24) rotate(-39.82)"/><ellipse class="cls-5" cx="148.5" cy="340.57" rx="1.39" ry="1.61" transform="translate(-183.64 174.06) rotate(-39.82)"/><ellipse class="cls-5" cx="154.81" cy="335.31" rx="1.39" ry="1.61" transform="translate(-178.81 176.88) rotate(-39.82)"/><ellipse class="cls-5" cx="161.12" cy="330.05" rx="1.39" ry="1.61" transform="translate(-173.98 179.7) rotate(-39.82)"/><ellipse class="cls-5" cx="167.43" cy="324.79" rx="1.39" ry="1.61" transform="translate(-169.14 182.53) rotate(-39.82)"/><ellipse class="cls-5" cx="173.74" cy="319.53" rx="1.39" ry="1.61" transform="translate(-164.31 185.35) rotate(-39.82)"/><ellipse class="cls-5" cx="180.05" cy="314.27" rx="1.39" ry="1.61" transform="translate(-159.48 188.17) rotate(-39.82)"/><ellipse class="cls-5" cx="111.5" cy="385.98" rx="1.39" ry="1.61" transform="translate(-221.3 160.9) rotate(-39.82)"/><ellipse class="cls-5" cx="117.8" cy="380.72" rx="1.39" ry="1.61" transform="translate(-216.46 163.72) rotate(-39.82)"/><ellipse class="cls-5" cx="124.11" cy="375.46" rx="1.39" ry="1.61" transform="translate(-211.63 166.54) rotate(-39.82)"/><ellipse class="cls-5" cx="130.42" cy="370.2" rx="1.39" ry="1.61" transform="translate(-206.8 169.36) rotate(-39.82)"/><ellipse class="cls-5" cx="136.73" cy="364.94" rx="1.39" ry="1.61" transform="translate(-201.97 172.18) rotate(-39.82)"/><ellipse class="cls-5" cx="143.04" cy="359.68" rx="1.39" ry="1.61" transform="translate(-197.14 175) rotate(-39.82)"/><ellipse class="cls-5" cx="149.35" cy="354.42" rx="1.39" ry="1.61" transform="translate(-192.31 177.82) rotate(-39.82)"/><ellipse class="cls-5" cx="155.66" cy="349.16" rx="1.39" ry="1.61" transform="translate(-187.48 180.64) rotate(-39.82)"/><ellipse class="cls-5" cx="161.97" cy="343.9" rx="1.39" ry="1.61" transform="translate(-182.65 183.46) rotate(-39.82)"/><ellipse class="cls-5" cx="168.28" cy="338.64" rx="1.39" ry="1.61" transform="translate(-177.81 186.28) rotate(-39.82)"/><ellipse class="cls-5" cx="174.59" cy="333.38" rx="1.39" ry="1.61" transform="translate(-172.98 189.1) rotate(-39.82)"/><ellipse class="cls-5" cx="180.9" cy="328.12" rx="1.39" ry="1.61" transform="translate(-168.15 191.92) rotate(-39.82)"/><ellipse class="cls-5" cx="187.21" cy="322.86" rx="1.39" ry="1.61" transform="translate(-163.32 194.74) rotate(-39.82)"/><ellipse class="cls-5" cx="118.65" cy="394.57" rx="1.39" ry="1.61" transform="translate(-225.13 167.47) rotate(-39.82)"/><ellipse class="cls-5" cx="124.96" cy="389.31" rx="1.39" ry="1.61" transform="translate(-220.3 170.29) rotate(-39.82)"/><ellipse class="cls-5" cx="131.27" cy="384.05" rx="1.39" ry="1.61" transform="translate(-215.47 173.11) rotate(-39.82)"/><ellipse class="cls-5" cx="137.58" cy="378.79" rx="1.39" ry="1.61" transform="translate(-210.64 175.93) rotate(-39.82)"/><ellipse class="cls-5" cx="143.89" cy="373.53" rx="1.39" ry="1.61" transform="translate(-205.81 178.75) rotate(-39.82)"/><ellipse class="cls-5" cx="150.2" cy="368.27" rx="1.39" ry="1.61" transform="translate(-200.98 181.57) rotate(-39.82)"/><ellipse class="cls-5" cx="156.51" cy="363.01" rx="1.39" ry="1.61" transform="translate(-196.15 184.4) rotate(-39.82)"/><ellipse class="cls-5" cx="162.82" cy="357.75" rx="1.39" ry="1.61" transform="translate(-191.32 187.22) rotate(-39.82)"/><ellipse class="cls-5" cx="169.13" cy="352.49" rx="1.39" ry="1.61" transform="matrix(0.77, -0.64, 0.64, 0.77, -186.48, 190.04)"/><ellipse class="cls-5" cx="175.44" cy="347.23" rx="1.39" ry="1.61" transform="translate(-181.65 192.86) rotate(-39.82)"/><ellipse class="cls-5" cx="181.75" cy="341.97" rx="1.39" ry="1.61" transform="translate(-176.82 195.68) rotate(-39.82)"/><ellipse class="cls-5" cx="188.06" cy="336.71" rx="1.39" ry="1.61" transform="translate(-171.99 198.5) rotate(-39.82)"/><ellipse class="cls-5" cx="194.37" cy="331.45" rx="1.39" ry="1.61" transform="translate(-167.16 201.32) rotate(-39.82)"/><ellipse class="cls-5" cx="125.81" cy="403.16" rx="1.39" ry="1.61" transform="translate(-228.97 174.05) rotate(-39.82)"/><ellipse class="cls-5" cx="132.12" cy="397.9" rx="1.39" ry="1.61" transform="translate(-224.14 176.87) rotate(-39.82)"/><ellipse class="cls-5" cx="138.43" cy="392.64" rx="1.39" ry="1.61" transform="translate(-219.31 179.69) rotate(-39.82)"/><ellipse class="cls-5" cx="144.74" cy="387.38" rx="1.39" ry="1.61" transform="translate(-214.48 182.51) rotate(-39.82)"/><ellipse class="cls-5" cx="151.05" cy="382.12" rx="1.39" ry="1.61" transform="translate(-209.65 185.33) rotate(-39.82)"/><ellipse class="cls-5" cx="157.36" cy="376.86" rx="1.39" ry="1.61" transform="translate(-204.82 188.15) rotate(-39.82)"/><ellipse class="cls-5" cx="163.67" cy="371.6" rx="1.39" ry="1.61" transform="translate(-199.99 190.97) rotate(-39.82)"/><ellipse class="cls-5" cx="169.98" cy="366.34" rx="1.39" ry="1.61" transform="translate(-195.16 193.79) rotate(-39.82)"/><ellipse class="cls-5" cx="176.29" cy="361.08" rx="1.39" ry="1.61" transform="translate(-190.32 196.61) rotate(-39.82)"/><ellipse class="cls-5" cx="182.6" cy="355.82" rx="1.39" ry="1.61" transform="translate(-185.49 199.43) rotate(-39.82)"/><ellipse class="cls-5" cx="188.91" cy="350.56" rx="1.39" ry="1.61" transform="translate(-180.66 202.25) rotate(-39.82)"/><ellipse class="cls-5" cx="195.22" cy="345.3" rx="1.39" ry="1.61" transform="matrix(0.77, -0.64, 0.64, 0.77, -175.83, 205.07)"/><ellipse class="cls-5" cx="201.53" cy="340.04" rx="1.39" ry="1.61" transform="translate(-171 207.89) rotate(-39.82)"/><ellipse class="cls-5" cx="132.97" cy="411.75" rx="1.39" ry="1.61" transform="translate(-232.81 180.62) rotate(-39.82)"/><ellipse class="cls-5" cx="139.28" cy="406.49" rx="1.39" ry="1.61" transform="translate(-227.98 183.44) rotate(-39.82)"/><ellipse class="cls-5" cx="145.59" cy="401.23" rx="1.39" ry="1.61" transform="translate(-223.15 186.26) rotate(-39.82)"/><ellipse class="cls-5" cx="151.9" cy="395.97" rx="1.39" ry="1.61" transform="translate(-218.32 189.09) rotate(-39.82)"/><ellipse class="cls-5" cx="158.21" cy="390.71" rx="1.39" ry="1.61" transform="translate(-213.49 191.91) rotate(-39.82)"/><ellipse class="cls-5" cx="164.52" cy="385.45" rx="1.39" ry="1.61" transform="translate(-208.66 194.73) rotate(-39.82)"/><ellipse class="cls-5" cx="170.83" cy="380.19" rx="1.39" ry="1.61" transform="translate(-203.83 197.55) rotate(-39.82)"/><ellipse class="cls-5" cx="177.14" cy="374.93" rx="1.39" ry="1.61" transform="translate(-198.99 200.37) rotate(-39.82)"/><ellipse class="cls-5" cx="183.45" cy="369.67" rx="1.39" ry="1.61" transform="matrix(0.77, -0.64, 0.64, 0.77, -194.16, 203.19)"/><ellipse class="cls-5" cx="189.76" cy="364.41" rx="1.39" ry="1.61" transform="translate(-189.33 206.01) rotate(-39.82)"/><ellipse class="cls-5" cx="196.07" cy="359.15" rx="1.39" ry="1.61" transform="translate(-184.5 208.83) rotate(-39.82)"/><ellipse class="cls-5" cx="202.38" cy="353.89" rx="1.39" ry="1.61" transform="translate(-179.67 211.65) rotate(-39.82)"/><ellipse class="cls-5" cx="208.69" cy="348.63" rx="1.39" ry="1.61" transform="translate(-174.84 214.47) rotate(-39.82)"/><ellipse class="cls-5" cx="140.13" cy="420.34" rx="1.39" ry="1.61" transform="matrix(0.77, -0.64, 0.64, 0.77, -236.65, 187.2)"/><ellipse class="cls-5" cx="146.44" cy="415.08" rx="1.39" ry="1.61" transform="translate(-231.82 190.02) rotate(-39.82)"/><ellipse class="cls-5" cx="152.75" cy="409.82" rx="1.39" ry="1.61" transform="translate(-226.99 192.84) rotate(-39.82)"/><ellipse class="cls-5" cx="159.06" cy="404.56" rx="1.39" ry="1.61" transform="translate(-222.16 195.66) rotate(-39.82)"/><ellipse class="cls-5" cx="165.37" cy="399.3" rx="1.39" ry="1.61" transform="translate(-217.33 198.48) rotate(-39.82)"/><ellipse class="cls-5" cx="171.68" cy="394.04" rx="1.39" ry="1.61" transform="translate(-212.5 201.3) rotate(-39.82)"/><ellipse class="cls-5" cx="177.99" cy="388.78" rx="1.39" ry="1.61" transform="translate(-207.66 204.12) rotate(-39.82)"/><ellipse class="cls-5" cx="184.3" cy="383.52" rx="1.39" ry="1.61" transform="translate(-202.83 206.94) rotate(-39.82)"/><ellipse class="cls-5" cx="190.61" cy="378.26" rx="1.39" ry="1.61" transform="translate(-198 209.76) rotate(-39.82)"/><ellipse class="cls-5" cx="196.92" cy="373" rx="1.39" ry="1.61" transform="translate(-193.17 212.58) rotate(-39.82)"/><ellipse class="cls-5" cx="203.23" cy="367.74" rx="1.39" ry="1.61" transform="translate(-188.34 215.41) rotate(-39.82)"/><ellipse class="cls-5" cx="209.54" cy="362.48" rx="1.39" ry="1.61" transform="translate(-183.51 218.23) rotate(-39.82)"/><ellipse class="cls-5" cx="215.85" cy="357.22" rx="1.39" ry="1.61" transform="translate(-178.68 221.05) rotate(-39.82)"/><ellipse class="cls-5" cx="159.91" cy="418.41" rx="1.39" ry="1.61" transform="translate(-230.83 199.42) rotate(-39.82)"/><ellipse class="cls-5" cx="166.22" cy="413.15" rx="1.39" ry="1.61" transform="translate(-226 202.24) rotate(-39.82)"/><ellipse class="cls-5" cx="172.53" cy="407.88" rx="1.39" ry="1.61" transform="translate(-221.17 205.06) rotate(-39.82)"/><ellipse class="cls-5" cx="178.84" cy="402.62" rx="1.39" ry="1.61" transform="translate(-216.34 207.88) rotate(-39.82)"/><ellipse class="cls-5" cx="185.15" cy="397.36" rx="1.39" ry="1.61" transform="translate(-211.5 210.7) rotate(-39.82)"/><ellipse class="cls-5" cx="191.46" cy="392.1" rx="1.39" ry="1.61" transform="translate(-206.67 213.52) rotate(-39.82)"/><ellipse class="cls-5" cx="197.77" cy="386.84" rx="1.39" ry="1.61" transform="translate(-201.84 216.34) rotate(-39.82)"/><ellipse class="cls-5" cx="204.08" cy="381.58" rx="1.39" ry="1.61" transform="translate(-197.01 219.16) rotate(-39.82)"/><ellipse class="cls-5" cx="210.39" cy="376.32" rx="1.39" ry="1.61" transform="translate(-192.18 221.98) rotate(-39.82)"/><ellipse class="cls-5" cx="216.7" cy="371.06" rx="1.39" ry="1.61" transform="translate(-187.35 224.8) rotate(-39.82)"/><ellipse class="cls-5" cx="223.01" cy="365.8" rx="1.39" ry="1.61" transform="translate(-182.52 227.62) rotate(-39.82)"/><ellipse class="cls-5" cx="179.69" cy="416.47" rx="1.39" ry="1.61" transform="translate(-225.01 211.63) rotate(-39.82)"/><ellipse class="cls-5" cx="186" cy="411.21" rx="1.39" ry="1.61" transform="translate(-220.17 214.45) rotate(-39.82)"/><ellipse class="cls-5" cx="192.31" cy="405.95" rx="1.39" ry="1.61" transform="translate(-215.34 217.27) rotate(-39.82)"/><ellipse class="cls-5" cx="198.62" cy="400.69" rx="1.39" ry="1.61" transform="translate(-210.51 220.1) rotate(-39.82)"/><ellipse class="cls-5" cx="204.93" cy="395.43" rx="1.39" ry="1.61" transform="matrix(0.77, -0.64, 0.64, 0.77, -205.68, 222.92)"/><ellipse class="cls-5" cx="211.24" cy="390.17" rx="1.39" ry="1.61" transform="translate(-200.85 225.74) rotate(-39.82)"/><ellipse class="cls-5" cx="217.55" cy="384.91" rx="1.39" ry="1.61" transform="translate(-196.02 228.56) rotate(-39.82)"/><ellipse class="cls-5" cx="223.86" cy="379.65" rx="1.39" ry="1.61" transform="translate(-191.19 231.38) rotate(-39.82)"/><ellipse class="cls-5" cx="230.17" cy="374.39" rx="1.39" ry="1.61" transform="translate(-186.36 234.2) rotate(-39.82)"/><ellipse class="cls-5" cx="83.71" cy="365.48" rx="1.39" ry="1.61" transform="translate(-214.61 138.35) rotate(-39.82)"/><ellipse class="cls-5" cx="90.87" cy="374.07" rx="1.39" ry="1.61" transform="translate(-218.45 144.92) rotate(-39.82)"/><ellipse class="cls-5" cx="98.03" cy="382.65" rx="1.39" ry="1.61" transform="translate(-222.29 151.5) rotate(-39.82)"/><ellipse class="cls-5" cx="105.19" cy="391.24" rx="1.39" ry="1.61" transform="translate(-226.13 158.08) rotate(-39.82)"/><ellipse class="cls-5" cx="112.34" cy="399.83" rx="1.39" ry="1.61" transform="translate(-229.97 164.65) rotate(-39.82)"/><ellipse class="cls-5" cx="119.5" cy="408.42" rx="1.39" ry="1.61" transform="translate(-233.8 171.23) rotate(-39.82)"/><ellipse class="cls-5" cx="126.66" cy="417.01" rx="1.39" ry="1.61" transform="translate(-237.64 177.8) rotate(-39.82)"/><ellipse class="cls-5" cx="193.16" cy="419.8" rx="1.39" ry="1.61" transform="translate(-224.01 221.03) rotate(-39.82)"/><ellipse class="cls-5" cx="199.47" cy="414.54" rx="1.39" ry="1.61" transform="translate(-219.18 223.85) rotate(-39.82)"/><ellipse class="cls-5" cx="205.78" cy="409.28" rx="1.39" ry="1.61" transform="translate(-214.35 226.67) rotate(-39.82)"/><ellipse class="cls-5" cx="212.09" cy="404.02" rx="1.39" ry="1.61" transform="matrix(0.77, -0.64, 0.64, 0.77, -209.52, 229.49)"/><ellipse class="cls-5" cx="218.4" cy="398.76" rx="1.39" ry="1.61" transform="translate(-204.69 232.31) rotate(-39.82)"/><ellipse class="cls-5" cx="224.71" cy="393.5" rx="1.39" ry="1.61" transform="translate(-199.86 235.13) rotate(-39.82)"/><ellipse class="cls-5" cx="231.02" cy="388.24" rx="1.39" ry="1.61" transform="translate(-195.03 237.95) rotate(-39.82)"/><ellipse class="cls-5" cx="237.33" cy="382.98" rx="1.39" ry="1.61" transform="translate(-190.19 240.77) rotate(-39.82)"/><ellipse class="cls-5" cx="251.59" cy="385.93" rx="1.39" ry="1.61" transform="translate(-188.77 250.58) rotate(-39.82)"/><ellipse class="cls-5" cx="257.9" cy="380.67" rx="1.39" ry="1.61" transform="translate(-183.94 253.41) rotate(-39.82)"/><ellipse class="cls-5" cx="264.21" cy="375.41" rx="1.39" ry="1.61" transform="translate(-179.11 256.23) rotate(-39.82)"/><ellipse class="cls-5" cx="270.52" cy="370.15" rx="1.39" ry="1.61" transform="translate(-174.28 259.05) rotate(-39.82)"/><ellipse class="cls-5" cx="276.83" cy="364.89" rx="1.39" ry="1.61" transform="translate(-169.45 261.87) rotate(-39.82)"/><ellipse class="cls-5" cx="283.14" cy="359.63" rx="1.39" ry="1.61" transform="translate(-164.62 264.69) rotate(-39.82)"/><ellipse class="cls-5" cx="289.45" cy="354.37" rx="1.39" ry="1.61" transform="translate(-159.79 267.51) rotate(-39.82)"/><ellipse class="cls-5" cx="295.76" cy="349.11" rx="1.39" ry="1.61" transform="translate(-154.96 270.33) rotate(-39.82)"/><ellipse class="cls-5" cx="302.06" cy="343.85" rx="1.39" ry="1.61" transform="translate(-150.13 273.15) rotate(-39.82)"/><ellipse class="cls-5" cx="308.37" cy="338.59" rx="1.39" ry="1.61" transform="translate(-145.29 275.97) rotate(-39.82)"/><ellipse class="cls-5" cx="314.68" cy="333.33" rx="1.39" ry="1.61" transform="translate(-140.46 278.79) rotate(-39.82)"/><ellipse class="cls-5" cx="320.99" cy="328.07" rx="1.39" ry="1.61" transform="translate(-135.63 281.61) rotate(-39.82)"/><ellipse class="cls-5" cx="327.3" cy="322.81" rx="1.39" ry="1.61" transform="translate(-130.8 284.43) rotate(-39.82)"/><ellipse class="cls-5" cx="333.61" cy="317.55" rx="1.39" ry="1.61" transform="translate(-125.97 287.25) rotate(-39.82)"/><ellipse class="cls-5" cx="265.06" cy="389.26" rx="1.39" ry="1.61" transform="translate(-187.78 259.98) rotate(-39.82)"/><ellipse class="cls-5" cx="271.37" cy="384" rx="1.39" ry="1.61" transform="translate(-182.95 262.8) rotate(-39.82)"/><ellipse class="cls-5" cx="277.68" cy="378.74" rx="1.39" ry="1.61" transform="translate(-178.12 265.62) rotate(-39.82)"/><ellipse class="cls-5" cx="283.99" cy="373.48" rx="1.39" ry="1.61" transform="translate(-173.29 268.44) rotate(-39.82)"/><ellipse class="cls-5" cx="290.29" cy="368.22" rx="1.39" ry="1.61" transform="translate(-168.46 271.26) rotate(-39.82)"/><ellipse class="cls-5" cx="296.6" cy="362.96" rx="1.39" ry="1.61" transform="translate(-163.63 274.08) rotate(-39.82)"/><ellipse class="cls-5" cx="302.91" cy="357.7" rx="1.39" ry="1.61" transform="translate(-158.8 276.9) rotate(-39.82)"/><ellipse class="cls-5" cx="309.22" cy="352.44" rx="1.39" ry="1.61" transform="translate(-153.96 279.73) rotate(-39.82)"/><ellipse class="cls-5" cx="315.53" cy="347.18" rx="1.39" ry="1.61" transform="translate(-149.13 282.55) rotate(-39.82)"/><ellipse class="cls-5" cx="321.84" cy="341.92" rx="1.39" ry="1.61" transform="translate(-144.3 285.37) rotate(-39.82)"/><ellipse class="cls-5" cx="328.15" cy="336.66" rx="1.39" ry="1.61" transform="translate(-139.47 288.19) rotate(-39.82)"/><ellipse class="cls-5" cx="334.46" cy="331.4" rx="1.39" ry="1.61" transform="translate(-134.64 291.01) rotate(-39.82)"/><ellipse class="cls-5" cx="340.77" cy="326.14" rx="1.39" ry="1.61" transform="translate(-129.81 293.83) rotate(-39.82)"/><ellipse class="cls-5" cx="272.22" cy="397.84" rx="1.39" ry="1.61" transform="translate(-191.62 266.56) rotate(-39.82)"/><ellipse class="cls-5" cx="278.52" cy="392.58" rx="1.39" ry="1.61" transform="translate(-186.79 269.38) rotate(-39.82)"/><ellipse class="cls-5" cx="284.83" cy="387.32" rx="1.39" ry="1.61" transform="translate(-181.96 272.2) rotate(-39.82)"/><ellipse class="cls-5" cx="291.14" cy="382.06" rx="1.39" ry="1.61" transform="translate(-177.13 275.02) rotate(-39.82)"/><ellipse class="cls-5" cx="297.45" cy="376.8" rx="1.39" ry="1.61" transform="translate(-172.3 277.84) rotate(-39.82)"/><ellipse class="cls-5" cx="303.76" cy="371.54" rx="1.39" ry="1.61" transform="translate(-167.47 280.66) rotate(-39.82)"/><ellipse class="cls-5" cx="310.07" cy="366.28" rx="1.39" ry="1.61" transform="translate(-162.63 283.48) rotate(-39.82)"/><ellipse class="cls-5" cx="316.38" cy="361.02" rx="1.39" ry="1.61" transform="translate(-157.8 286.3) rotate(-39.82)"/><ellipse class="cls-5" cx="322.69" cy="355.76" rx="1.39" ry="1.61" transform="matrix(0.77, -0.64, 0.64, 0.77, -152.97, 289.12)"/><ellipse class="cls-5" cx="329" cy="350.5" rx="1.39" ry="1.61" transform="translate(-148.14 291.94) rotate(-39.82)"/><ellipse class="cls-5" cx="335.31" cy="345.24" rx="1.39" ry="1.61" transform="translate(-143.31 294.76) rotate(-39.82)"/><ellipse class="cls-5" cx="341.62" cy="339.98" rx="1.39" ry="1.61" transform="translate(-138.48 297.58) rotate(-39.82)"/><ellipse class="cls-5" cx="347.93" cy="334.72" rx="1.39" ry="1.61" transform="translate(-133.65 300.4) rotate(-39.82)"/><ellipse class="cls-5" cx="279.37" cy="406.43" rx="1.39" ry="1.61" transform="translate(-195.46 273.13) rotate(-39.82)"/><ellipse class="cls-5" cx="285.68" cy="401.17" rx="1.39" ry="1.61" transform="translate(-190.63 275.95) rotate(-39.82)"/><ellipse class="cls-5" cx="291.99" cy="395.91" rx="1.39" ry="1.61" transform="translate(-185.8 278.77) rotate(-39.82)"/><ellipse class="cls-5" cx="298.3" cy="390.65" rx="1.39" ry="1.61" transform="translate(-180.97 281.6) rotate(-39.82)"/><ellipse class="cls-5" cx="304.61" cy="385.39" rx="1.39" ry="1.61" transform="translate(-176.14 284.42) rotate(-39.82)"/><ellipse class="cls-5" cx="310.92" cy="380.13" rx="1.39" ry="1.61" transform="translate(-171.3 287.24) rotate(-39.82)"/><ellipse class="cls-5" cx="317.23" cy="374.87" rx="1.39" ry="1.61" transform="translate(-166.47 290.06) rotate(-39.82)"/><ellipse class="cls-5" cx="323.54" cy="369.61" rx="1.39" ry="1.61" transform="translate(-161.64 292.88) rotate(-39.82)"/><ellipse class="cls-5" cx="329.85" cy="364.35" rx="1.39" ry="1.61" transform="translate(-156.81 295.7) rotate(-39.82)"/><ellipse class="cls-5" cx="336.16" cy="359.09" rx="1.39" ry="1.61" transform="matrix(0.77, -0.64, 0.64, 0.77, -151.98, 298.52)"/><ellipse class="cls-5" cx="342.47" cy="353.83" rx="1.39" ry="1.61" transform="translate(-147.15 301.34) rotate(-39.82)"/><ellipse class="cls-5" cx="348.78" cy="348.57" rx="1.39" ry="1.61" transform="translate(-142.32 304.16) rotate(-39.82)"/><ellipse class="cls-5" cx="355.09" cy="343.31" rx="1.39" ry="1.61" transform="translate(-137.49 306.98) rotate(-39.82)"/><ellipse class="cls-5" cx="286.53" cy="415.02" rx="1.39" ry="1.61" transform="translate(-199.3 279.71) rotate(-39.82)"/><ellipse class="cls-5" cx="292.84" cy="409.76" rx="1.39" ry="1.61" transform="translate(-194.47 282.53) rotate(-39.82)"/><ellipse class="cls-5" cx="299.15" cy="404.5" rx="1.39" ry="1.61" transform="translate(-189.64 285.35) rotate(-39.82)"/><ellipse class="cls-5" cx="305.46" cy="399.24" rx="1.39" ry="1.61" transform="translate(-184.81 288.17) rotate(-39.82)"/><ellipse class="cls-5" cx="311.77" cy="393.98" rx="1.39" ry="1.61" transform="translate(-179.98 290.99) rotate(-39.82)"/><ellipse class="cls-5" cx="318.08" cy="388.72" rx="1.39" ry="1.61" transform="translate(-175.14 293.81) rotate(-39.82)"/><ellipse class="cls-5" cx="324.39" cy="383.46" rx="1.39" ry="1.61" transform="translate(-170.31 296.63) rotate(-39.82)"/><ellipse class="cls-5" cx="330.7" cy="378.2" rx="1.39" ry="1.61" transform="translate(-165.48 299.45) rotate(-39.82)"/><ellipse class="cls-5" cx="337.01" cy="372.94" rx="1.39" ry="1.61" transform="translate(-160.65 302.27) rotate(-39.82)"/><ellipse class="cls-5" cx="343.32" cy="367.68" rx="1.39" ry="1.61" transform="translate(-155.82 305.09) rotate(-39.82)"/><ellipse class="cls-5" cx="349.63" cy="362.42" rx="1.39" ry="1.61" transform="translate(-150.99 307.91) rotate(-39.82)"/><ellipse class="cls-5" cx="355.94" cy="357.16" rx="1.39" ry="1.61" transform="translate(-146.16 310.74) rotate(-39.82)"/><ellipse class="cls-5" cx="362.25" cy="351.9" rx="1.39" ry="1.61" transform="translate(-141.33 313.56) rotate(-39.82)"/><ellipse class="cls-5" cx="300" cy="418.35" rx="1.39" ry="1.61" transform="translate(-198.31 289.11) rotate(-39.82)"/><ellipse class="cls-5" cx="306.31" cy="413.09" rx="1.39" ry="1.61" transform="translate(-193.48 291.93) rotate(-39.82)"/><ellipse class="cls-5" cx="312.62" cy="407.83" rx="1.39" ry="1.61" transform="translate(-188.65 294.75) rotate(-39.82)"/><ellipse class="cls-5" cx="318.93" cy="402.57" rx="1.39" ry="1.61" transform="matrix(0.77, -0.64, 0.64, 0.77, -183.81, 297.57)"/><ellipse class="cls-5" cx="325.24" cy="397.31" rx="1.39" ry="1.61" transform="translate(-178.98 300.39) rotate(-39.82)"/><ellipse class="cls-5" cx="331.55" cy="392.05" rx="1.39" ry="1.61" transform="translate(-174.15 303.21) rotate(-39.82)"/><ellipse class="cls-5" cx="337.86" cy="386.79" rx="1.39" ry="1.61" transform="translate(-169.32 306.03) rotate(-39.82)"/><ellipse class="cls-5" cx="344.17" cy="381.53" rx="1.39" ry="1.61" transform="translate(-164.49 308.85) rotate(-39.82)"/><ellipse class="cls-5" cx="350.48" cy="376.27" rx="1.39" ry="1.61" transform="translate(-159.66 311.67) rotate(-39.82)"/><ellipse class="cls-5" cx="356.79" cy="371.01" rx="1.39" ry="1.61" transform="translate(-154.83 314.49) rotate(-39.82)"/><ellipse class="cls-5" cx="363.1" cy="365.75" rx="1.39" ry="1.61" transform="translate(-150 317.31) rotate(-39.82)"/><ellipse class="cls-5" cx="369.41" cy="360.49" rx="1.39" ry="1.61" transform="translate(-145.16 320.13) rotate(-39.82)"/><ellipse class="cls-5" cx="319.78" cy="416.42" rx="1.39" ry="1.61" transform="translate(-192.48 301.32) rotate(-39.82)"/><ellipse class="cls-5" cx="326.09" cy="411.16" rx="1.39" ry="1.61" transform="translate(-187.65 304.14) rotate(-39.82)"/><ellipse class="cls-5" cx="332.4" cy="405.9" rx="1.39" ry="1.61" transform="translate(-182.82 306.96) rotate(-39.82)"/><ellipse class="cls-5" cx="338.71" cy="400.64" rx="1.39" ry="1.61" transform="translate(-177.99 309.78) rotate(-39.82)"/><ellipse class="cls-5" cx="345.02" cy="395.38" rx="1.39" ry="1.61" transform="translate(-173.16 312.61) rotate(-39.82)"/><ellipse class="cls-5" cx="351.33" cy="390.12" rx="1.39" ry="1.61" transform="translate(-168.33 315.43) rotate(-39.82)"/><ellipse class="cls-5" cx="357.64" cy="384.86" rx="1.39" ry="1.61" transform="translate(-163.5 318.25) rotate(-39.82)"/><ellipse class="cls-5" cx="363.95" cy="379.6" rx="1.39" ry="1.61" transform="translate(-158.67 321.07) rotate(-39.82)"/><ellipse class="cls-5" cx="370.26" cy="374.34" rx="1.39" ry="1.61" transform="translate(-153.84 323.89) rotate(-39.82)"/><ellipse class="cls-5" cx="376.57" cy="369.08" rx="1.39" ry="1.61" transform="translate(-149 326.71) rotate(-39.82)"/><ellipse class="cls-5" cx="333.25" cy="419.75" rx="1.39" ry="1.61" transform="translate(-191.49 310.72) rotate(-39.82)"/><ellipse class="cls-5" cx="339.56" cy="414.49" rx="1.39" ry="1.61" transform="translate(-186.66 313.54) rotate(-39.82)"/><ellipse class="cls-5" cx="345.87" cy="409.23" rx="1.39" ry="1.61" transform="translate(-181.83 316.36) rotate(-39.82)"/><ellipse class="cls-5" cx="352.18" cy="403.97" rx="1.39" ry="1.61" transform="translate(-177 319.18) rotate(-39.82)"/><ellipse class="cls-5" cx="358.49" cy="398.71" rx="1.39" ry="1.61" transform="translate(-172.17 322) rotate(-39.82)"/><ellipse class="cls-5" cx="364.8" cy="393.45" rx="1.39" ry="1.61" transform="translate(-167.34 324.82) rotate(-39.82)"/><ellipse class="cls-5" cx="371.11" cy="388.19" rx="1.39" ry="1.61" transform="translate(-162.51 327.64) rotate(-39.82)"/><ellipse class="cls-5" cx="377.42" cy="382.93" rx="1.39" ry="1.61" transform="translate(-157.67 330.46) rotate(-39.82)"/><ellipse class="cls-5" cx="383.73" cy="377.67" rx="1.39" ry="1.61" transform="translate(-152.84 333.28) rotate(-39.82)"/><ellipse class="cls-5" cx="353.03" cy="417.82" rx="1.39" ry="1.61" transform="translate(-185.67 322.94) rotate(-39.82)"/><ellipse class="cls-5" cx="359.34" cy="412.56" rx="1.39" ry="1.61" transform="translate(-180.84 325.76) rotate(-39.82)"/><ellipse class="cls-5" cx="365.65" cy="407.3" rx="1.39" ry="1.61" transform="translate(-176.01 328.58) rotate(-39.82)"/><ellipse class="cls-5" cx="371.96" cy="402.04" rx="1.39" ry="1.61" transform="translate(-171.18 331.4) rotate(-39.82)"/><ellipse class="cls-5" cx="378.27" cy="396.78" rx="1.39" ry="1.61" transform="translate(-166.34 334.22) rotate(-39.82)"/><ellipse class="cls-5" cx="384.58" cy="391.52" rx="1.39" ry="1.61" transform="translate(-161.51 337.04) rotate(-39.82)"/><ellipse class="cls-5" cx="390.89" cy="386.26" rx="1.39" ry="1.61" transform="translate(-156.68 339.86) rotate(-39.82)"/><ellipse class="cls-5" cx="372.81" cy="415.88" rx="1.39" ry="1.61" transform="translate(-179.85 335.15) rotate(-39.82)"/><ellipse class="cls-5" cx="379.12" cy="410.62" rx="1.39" ry="1.61" transform="translate(-175.01 337.97) rotate(-39.82)"/><ellipse class="cls-5" cx="385.43" cy="405.36" rx="1.39" ry="1.61" transform="translate(-170.18 340.79) rotate(-39.82)"/><ellipse class="cls-5" cx="391.74" cy="400.1" rx="1.39" ry="1.61" transform="translate(-165.35 343.62) rotate(-39.82)"/><ellipse class="cls-5" cx="398.05" cy="394.84" rx="1.39" ry="1.61" transform="translate(-160.52 346.44) rotate(-39.82)"/><ellipse class="cls-5" cx="386.28" cy="419.21" rx="1.39" ry="1.61" transform="translate(-178.85 344.55) rotate(-39.82)"/><ellipse class="cls-5" cx="392.59" cy="413.95" rx="1.39" ry="1.61" transform="translate(-174.02 347.37) rotate(-39.82)"/><ellipse class="cls-5" cx="398.9" cy="408.69" rx="1.39" ry="1.61" transform="translate(-169.19 350.19) rotate(-39.82)"/><ellipse class="cls-5" cx="405.21" cy="403.43" rx="1.39" ry="1.61" transform="translate(-164.36 353.01) rotate(-39.82)"/><ellipse class="cls-5" cx="258.75" cy="394.52" rx="1.39" ry="1.61" transform="translate(-192.61 257.16) rotate(-39.82)"/><ellipse class="cls-5" cx="265.91" cy="403.1" rx="1.39" ry="1.61" transform="translate(-196.45 263.74) rotate(-39.82)"/><ellipse class="cls-5" cx="273.06" cy="411.69" rx="1.39" ry="1.61" transform="translate(-200.29 270.31) rotate(-39.82)"/><ellipse class="cls-5" cx="280.22" cy="420.28" rx="1.39" ry="1.61" transform="translate(-204.13 276.89) rotate(-39.82)"/><ellipse class="cls-5" cx="406.06" cy="417.28" rx="1.39" ry="1.61" transform="translate(-173.03 356.77) rotate(-39.82)"/><ellipse class="cls-5" cx="412.37" cy="412.02" rx="1.39" ry="1.61" transform="translate(-168.2 359.59) rotate(-39.82)"/><ellipse class="cls-5" cx="165.54" cy="282.7" rx="1.39" ry="1.61" transform="translate(-142.63 171.55) rotate(-39.82)"/><ellipse class="cls-5" cx="171.85" cy="277.44" rx="1.39" ry="1.61" transform="translate(-137.8 174.37) rotate(-39.82)"/><ellipse class="cls-5" cx="178.16" cy="272.18" rx="1.39" ry="1.61" transform="translate(-132.97 177.19) rotate(-39.82)"/><ellipse class="cls-5" cx="184.47" cy="266.92" rx="1.39" ry="1.61" transform="translate(-128.14 180.01) rotate(-39.82)"/><ellipse class="cls-5" cx="190.78" cy="261.66" rx="1.39" ry="1.61" transform="translate(-123.31 182.83) rotate(-39.82)"/><ellipse class="cls-5" cx="197.09" cy="256.4" rx="1.39" ry="1.61" transform="matrix(0.77, -0.64, 0.64, 0.77, -118.48, 185.65)"/><ellipse class="cls-5" cx="203.4" cy="251.14" rx="1.39" ry="1.61" transform="translate(-113.65 188.47) rotate(-39.82)"/><ellipse class="cls-5" cx="209.71" cy="245.88" rx="1.39" ry="1.61" transform="translate(-108.81 191.29) rotate(-39.82)"/><ellipse class="cls-5" cx="216.02" cy="240.62" rx="1.39" ry="1.61" transform="translate(-103.98 194.12) rotate(-39.82)"/><ellipse class="cls-5" cx="222.33" cy="235.36" rx="1.39" ry="1.61" transform="translate(-99.15 196.94) rotate(-39.82)"/><ellipse class="cls-5" cx="228.64" cy="230.1" rx="1.39" ry="1.61" transform="translate(-94.32 199.76) rotate(-39.82)"/><ellipse class="cls-5" cx="234.95" cy="224.84" rx="1.39" ry="1.61" transform="translate(-89.49 202.58) rotate(-39.82)"/><ellipse class="cls-5" cx="241.26" cy="219.58" rx="1.39" ry="1.61" transform="translate(-84.66 205.4) rotate(-39.82)"/><ellipse class="cls-5" cx="247.57" cy="214.32" rx="1.39" ry="1.61" transform="translate(-79.83 208.22) rotate(-39.82)"/><ellipse class="cls-5" cx="179.01" cy="286.03" rx="1.39" ry="1.61" transform="translate(-141.64 180.95) rotate(-39.82)"/><ellipse class="cls-5" cx="185.32" cy="280.77" rx="1.39" ry="1.61" transform="translate(-136.81 183.77) rotate(-39.82)"/><ellipse class="cls-5" cx="191.63" cy="275.51" rx="1.39" ry="1.61" transform="translate(-131.98 186.59) rotate(-39.82)"/><ellipse class="cls-5" cx="197.94" cy="270.25" rx="1.39" ry="1.61" transform="translate(-127.15 189.41) rotate(-39.82)"/><ellipse class="cls-5" cx="204.25" cy="264.99" rx="1.39" ry="1.61" transform="translate(-122.32 192.23) rotate(-39.82)"/><ellipse class="cls-5" cx="210.56" cy="259.73" rx="1.39" ry="1.61" transform="translate(-117.49 195.05) rotate(-39.82)"/><ellipse class="cls-5" cx="216.87" cy="254.47" rx="1.39" ry="1.61" transform="translate(-112.65 197.87) rotate(-39.82)"/><ellipse class="cls-5" cx="223.18" cy="249.21" rx="1.39" ry="1.61" transform="translate(-107.82 200.69) rotate(-39.82)"/><ellipse class="cls-5" cx="229.49" cy="243.95" rx="1.39" ry="1.61" transform="translate(-102.99 203.51) rotate(-39.82)"/><ellipse class="cls-5" cx="235.8" cy="238.69" rx="1.39" ry="1.61" transform="translate(-98.16 206.33) rotate(-39.82)"/><ellipse class="cls-5" cx="242.11" cy="233.43" rx="1.39" ry="1.61" transform="translate(-93.33 209.15) rotate(-39.82)"/><ellipse class="cls-5" cx="248.42" cy="228.17" rx="1.39" ry="1.61" transform="translate(-88.5 211.97) rotate(-39.82)"/><ellipse class="cls-5" cx="254.73" cy="222.91" rx="1.39" ry="1.61" transform="translate(-83.67 214.79) rotate(-39.82)"/><ellipse class="cls-5" cx="186.17" cy="294.62" rx="1.39" ry="1.61" transform="translate(-145.48 187.52) rotate(-39.82)"/><ellipse class="cls-5" cx="192.48" cy="289.36" rx="1.39" ry="1.61" transform="translate(-140.65 190.34) rotate(-39.82)"/><ellipse class="cls-5" cx="198.79" cy="284.1" rx="1.39" ry="1.61" transform="translate(-135.82 193.16) rotate(-39.82)"/><ellipse class="cls-5" cx="205.1" cy="278.84" rx="1.39" ry="1.61" transform="translate(-130.99 195.99) rotate(-39.82)"/><ellipse class="cls-5" cx="211.41" cy="273.58" rx="1.39" ry="1.61" transform="translate(-126.16 198.81) rotate(-39.82)"/><ellipse class="cls-5" cx="217.72" cy="268.32" rx="1.39" ry="1.61" transform="translate(-121.32 201.63) rotate(-39.82)"/><ellipse class="cls-5" cx="224.03" cy="263.06" rx="1.39" ry="1.61" transform="translate(-116.49 204.45) rotate(-39.82)"/><ellipse class="cls-5" cx="230.34" cy="257.8" rx="1.39" ry="1.61" transform="translate(-111.66 207.27) rotate(-39.82)"/><ellipse class="cls-5" cx="236.65" cy="252.54" rx="1.39" ry="1.61" transform="translate(-106.83 210.09) rotate(-39.82)"/><ellipse class="cls-5" cx="242.96" cy="247.28" rx="1.39" ry="1.61" transform="translate(-102 212.91) rotate(-39.82)"/><ellipse class="cls-5" cx="249.27" cy="242.02" rx="1.39" ry="1.61" transform="translate(-97.17 215.73) rotate(-39.82)"/><ellipse class="cls-5" cx="255.57" cy="236.76" rx="1.39" ry="1.61" transform="translate(-92.34 218.55) rotate(-39.82)"/><ellipse class="cls-5" cx="261.88" cy="231.5" rx="1.39" ry="1.61" transform="translate(-87.51 221.37) rotate(-39.82)"/><ellipse class="cls-5" cx="193.33" cy="303.21" rx="1.39" ry="1.61" transform="translate(-149.32 194.1) rotate(-39.82)"/><ellipse class="cls-5" cx="199.64" cy="297.95" rx="1.39" ry="1.61" transform="translate(-144.49 196.92) rotate(-39.82)"/><ellipse class="cls-5" cx="205.95" cy="292.69" rx="1.39" ry="1.61" transform="translate(-139.66 199.74) rotate(-39.82)"/><ellipse class="cls-5" cx="212.26" cy="287.43" rx="1.39" ry="1.61" transform="translate(-134.83 202.56) rotate(-39.82)"/><ellipse class="cls-5" cx="218.57" cy="282.17" rx="1.39" ry="1.61" transform="translate(-129.99 205.38) rotate(-39.82)"/><ellipse class="cls-5" cx="224.88" cy="276.91" rx="1.39" ry="1.61" transform="translate(-125.16 208.2) rotate(-39.82)"/><ellipse class="cls-5" cx="231.19" cy="271.65" rx="1.39" ry="1.61" transform="translate(-120.33 211.02) rotate(-39.82)"/><ellipse class="cls-5" cx="237.5" cy="266.39" rx="1.39" ry="1.61" transform="translate(-115.5 213.84) rotate(-39.82)"/><ellipse class="cls-5" cx="243.8" cy="261.13" rx="1.39" ry="1.61" transform="translate(-110.67 216.66) rotate(-39.82)"/><ellipse class="cls-5" cx="250.11" cy="255.87" rx="1.39" ry="1.61" transform="translate(-105.84 219.48) rotate(-39.82)"/><ellipse class="cls-5" cx="256.42" cy="250.61" rx="1.39" ry="1.61" transform="translate(-101.01 222.31) rotate(-39.82)"/><ellipse class="cls-5" cx="262.73" cy="245.35" rx="1.39" ry="1.61" transform="translate(-96.18 225.13) rotate(-39.82)"/><ellipse class="cls-5" cx="269.04" cy="240.09" rx="1.39" ry="1.61" transform="translate(-91.34 227.95) rotate(-39.82)"/><ellipse class="cls-5" cx="200.49" cy="311.8" rx="1.39" ry="1.61" transform="translate(-153.16 200.68) rotate(-39.82)"/><ellipse class="cls-5" cx="206.8" cy="306.54" rx="1.39" ry="1.61" transform="translate(-148.33 203.5) rotate(-39.82)"/><ellipse class="cls-5" cx="213.11" cy="301.28" rx="1.39" ry="1.61" transform="translate(-143.5 206.32) rotate(-39.82)"/><ellipse class="cls-5" cx="219.42" cy="296.02" rx="1.39" ry="1.61" transform="translate(-138.66 209.14) rotate(-39.82)"/><ellipse class="cls-5" cx="225.73" cy="290.76" rx="1.39" ry="1.61" transform="translate(-133.83 211.96) rotate(-39.82)"/><ellipse class="cls-5" cx="232.03" cy="285.5" rx="1.39" ry="1.61" transform="translate(-129 214.78) rotate(-39.82)"/><ellipse class="cls-5" cx="238.34" cy="280.24" rx="1.39" ry="1.61" transform="translate(-124.17 217.6) rotate(-39.82)"/><ellipse class="cls-5" cx="244.65" cy="274.98" rx="1.39" ry="1.61" transform="translate(-119.34 220.42) rotate(-39.82)"/><ellipse class="cls-5" cx="250.96" cy="269.72" rx="1.39" ry="1.61" transform="translate(-114.51 223.24) rotate(-39.82)"/><ellipse class="cls-5" cx="257.27" cy="264.46" rx="1.39" ry="1.61" transform="translate(-109.68 226.06) rotate(-39.82)"/><ellipse class="cls-5" cx="263.58" cy="259.2" rx="1.39" ry="1.61" transform="translate(-104.85 228.88) rotate(-39.82)"/><ellipse class="cls-5" cx="269.89" cy="253.94" rx="1.39" ry="1.61" transform="translate(-100.02 231.7) rotate(-39.82)"/><ellipse class="cls-5" cx="276.2" cy="248.68" rx="1.39" ry="1.61" transform="translate(-95.18 234.52) rotate(-39.82)"/><ellipse class="cls-5" cx="207.65" cy="320.39" rx="1.39" ry="1.61" transform="translate(-157 207.25) rotate(-39.82)"/><ellipse class="cls-5" cx="213.96" cy="315.13" rx="1.39" ry="1.61" transform="translate(-152.17 210.07) rotate(-39.82)"/><ellipse class="cls-5" cx="220.26" cy="309.87" rx="1.39" ry="1.61" transform="translate(-147.34 212.89) rotate(-39.82)"/><ellipse class="cls-5" cx="226.57" cy="304.61" rx="1.39" ry="1.61" transform="translate(-142.5 215.71) rotate(-39.82)"/><ellipse class="cls-5" cx="232.88" cy="299.35" rx="1.39" ry="1.61" transform="translate(-137.67 218.53) rotate(-39.82)"/><ellipse class="cls-5" cx="239.19" cy="294.09" rx="1.39" ry="1.61" transform="translate(-132.84 221.35) rotate(-39.82)"/><ellipse class="cls-5" cx="245.5" cy="288.83" rx="1.39" ry="1.61" transform="matrix(0.77, -0.64, 0.64, 0.77, -128.01, 224.17)"/><ellipse class="cls-5" cx="251.81" cy="283.57" rx="1.39" ry="1.61" transform="translate(-123.18 227) rotate(-39.82)"/><ellipse class="cls-5" cx="258.12" cy="278.31" rx="1.39" ry="1.61" transform="translate(-118.35 229.82) rotate(-39.82)"/><ellipse class="cls-5" cx="264.43" cy="273.05" rx="1.39" ry="1.61" transform="translate(-113.52 232.64) rotate(-39.82)"/><ellipse class="cls-5" cx="270.74" cy="267.79" rx="1.39" ry="1.61" transform="translate(-108.69 235.46) rotate(-39.82)"/><ellipse class="cls-5" cx="277.05" cy="262.53" rx="1.39" ry="1.61" transform="translate(-103.85 238.28) rotate(-39.82)"/><ellipse class="cls-5" cx="283.36" cy="257.27" rx="1.39" ry="1.61" transform="translate(-99.02 241.1) rotate(-39.82)"/><ellipse class="cls-5" cx="214.8" cy="328.98" rx="1.39" ry="1.61" transform="translate(-160.84 213.83) rotate(-39.82)"/><ellipse class="cls-5" cx="221.11" cy="323.72" rx="1.39" ry="1.61" transform="translate(-156.01 216.65) rotate(-39.82)"/><ellipse class="cls-5" cx="227.42" cy="318.46" rx="1.39" ry="1.61" transform="translate(-151.17 219.47) rotate(-39.82)"/><ellipse class="cls-5" cx="233.73" cy="313.2" rx="1.39" ry="1.61" transform="translate(-146.34 222.29) rotate(-39.82)"/><ellipse class="cls-5" cx="240.04" cy="307.94" rx="1.39" ry="1.61" transform="translate(-141.51 225.11) rotate(-39.82)"/><ellipse class="cls-5" cx="246.35" cy="302.68" rx="1.39" ry="1.61" transform="translate(-136.68 227.93) rotate(-39.82)"/><ellipse class="cls-5" cx="252.66" cy="297.42" rx="1.39" ry="1.61" transform="translate(-131.85 230.75) rotate(-39.82)"/><ellipse class="cls-5" cx="258.97" cy="292.16" rx="1.39" ry="1.61" transform="translate(-127.02 233.57) rotate(-39.82)"/><ellipse class="cls-5" cx="265.28" cy="286.9" rx="1.39" ry="1.61" transform="translate(-122.19 236.39) rotate(-39.82)"/><ellipse class="cls-5" cx="271.59" cy="281.64" rx="1.39" ry="1.61" transform="translate(-117.36 239.21) rotate(-39.82)"/><ellipse class="cls-5" cx="277.9" cy="276.38" rx="1.39" ry="1.61" transform="translate(-112.52 242.03) rotate(-39.82)"/><ellipse class="cls-5" cx="284.21" cy="271.12" rx="1.39" ry="1.61" transform="translate(-107.69 244.85) rotate(-39.82)"/><ellipse class="cls-5" cx="290.52" cy="265.86" rx="1.39" ry="1.61" transform="translate(-102.86 247.67) rotate(-39.82)"/><ellipse class="cls-5" cx="221.96" cy="337.56" rx="1.39" ry="1.61" transform="matrix(0.77, -0.64, 0.64, 0.77, -164.68, 220.4)"/><ellipse class="cls-5" cx="228.27" cy="332.3" rx="1.39" ry="1.61" transform="translate(-159.84 223.22) rotate(-39.82)"/><ellipse class="cls-5" cx="234.58" cy="327.04" rx="1.39" ry="1.61" transform="translate(-155.01 226.04) rotate(-39.82)"/><ellipse class="cls-5" cx="240.89" cy="321.78" rx="1.39" ry="1.61" transform="translate(-150.18 228.86) rotate(-39.82)"/><ellipse class="cls-5" cx="247.2" cy="316.52" rx="1.39" ry="1.61" transform="translate(-145.35 231.69) rotate(-39.82)"/><ellipse class="cls-5" cx="253.51" cy="311.26" rx="1.39" ry="1.61" transform="translate(-140.52 234.51) rotate(-39.82)"/><ellipse class="cls-5" cx="259.82" cy="306" rx="1.39" ry="1.61" transform="translate(-135.69 237.33) rotate(-39.82)"/><ellipse class="cls-5" cx="266.13" cy="300.74" rx="1.39" ry="1.61" transform="translate(-130.86 240.15) rotate(-39.82)"/><ellipse class="cls-5" cx="272.44" cy="295.48" rx="1.39" ry="1.61" transform="translate(-126.03 242.97) rotate(-39.82)"/><ellipse class="cls-5" cx="278.75" cy="290.22" rx="1.39" ry="1.61" transform="translate(-121.2 245.79) rotate(-39.82)"/><ellipse class="cls-5" cx="285.06" cy="284.96" rx="1.39" ry="1.61" transform="translate(-116.36 248.61) rotate(-39.82)"/><ellipse class="cls-5" cx="291.37" cy="279.7" rx="1.39" ry="1.61" transform="translate(-111.53 251.43) rotate(-39.82)"/><ellipse class="cls-5" cx="297.68" cy="274.44" rx="1.39" ry="1.61" transform="translate(-106.7 254.25) rotate(-39.82)"/><ellipse class="cls-5" cx="229.12" cy="346.15" rx="1.39" ry="1.61" transform="translate(-168.52 226.98) rotate(-39.82)"/><ellipse class="cls-5" cx="235.43" cy="340.89" rx="1.39" ry="1.61" transform="translate(-163.68 229.8) rotate(-39.82)"/><ellipse class="cls-5" cx="241.74" cy="335.63" rx="1.39" ry="1.61" transform="translate(-158.85 232.62) rotate(-39.82)"/><ellipse class="cls-5" cx="248.05" cy="330.37" rx="1.39" ry="1.61" transform="translate(-154.02 235.44) rotate(-39.82)"/><ellipse class="cls-5" cx="254.36" cy="325.11" rx="1.39" ry="1.61" transform="translate(-149.19 238.26) rotate(-39.82)"/><ellipse class="cls-5" cx="260.67" cy="319.85" rx="1.39" ry="1.61" transform="translate(-144.36 241.08) rotate(-39.82)"/><ellipse class="cls-5" cx="266.98" cy="314.59" rx="1.39" ry="1.61" transform="translate(-139.53 243.9) rotate(-39.82)"/><ellipse class="cls-5" cx="273.29" cy="309.33" rx="1.39" ry="1.61" transform="translate(-134.7 246.72) rotate(-39.82)"/><ellipse class="cls-5" cx="279.6" cy="304.07" rx="1.39" ry="1.61" transform="translate(-129.87 249.54) rotate(-39.82)"/><ellipse class="cls-5" cx="285.91" cy="298.81" rx="1.39" ry="1.61" transform="translate(-125.03 252.36) rotate(-39.82)"/><ellipse class="cls-5" cx="292.22" cy="293.55" rx="1.39" ry="1.61" transform="translate(-120.2 255.18) rotate(-39.82)"/><ellipse class="cls-5" cx="298.53" cy="288.29" rx="1.39" ry="1.61" transform="translate(-115.37 258.01) rotate(-39.82)"/><ellipse class="cls-5" cx="304.84" cy="283.03" rx="1.39" ry="1.61" transform="translate(-110.54 260.83) rotate(-39.82)"/><ellipse class="cls-5" cx="236.28" cy="354.74" rx="1.39" ry="1.61" transform="translate(-172.35 233.55) rotate(-39.82)"/><ellipse class="cls-5" cx="242.59" cy="349.48" rx="1.39" ry="1.61" transform="translate(-167.52 236.38) rotate(-39.82)"/><ellipse class="cls-5" cx="248.9" cy="344.22" rx="1.39" ry="1.61" transform="translate(-162.69 239.2) rotate(-39.82)"/><ellipse class="cls-5" cx="255.21" cy="338.96" rx="1.39" ry="1.61" transform="translate(-157.86 242.02) rotate(-39.82)"/><ellipse class="cls-5" cx="261.52" cy="333.7" rx="1.39" ry="1.61" transform="translate(-153.03 244.84) rotate(-39.82)"/><ellipse class="cls-5" cx="267.83" cy="328.44" rx="1.39" ry="1.61" transform="translate(-148.2 247.66) rotate(-39.82)"/><ellipse class="cls-5" cx="274.14" cy="323.18" rx="1.39" ry="1.61" transform="translate(-143.37 250.48) rotate(-39.82)"/><ellipse class="cls-5" cx="280.45" cy="317.92" rx="1.39" ry="1.61" transform="translate(-138.54 253.3) rotate(-39.82)"/><ellipse class="cls-5" cx="286.76" cy="312.66" rx="1.39" ry="1.61" transform="translate(-133.7 256.12) rotate(-39.82)"/><ellipse class="cls-5" cx="293.07" cy="307.4" rx="1.39" ry="1.61" transform="translate(-128.87 258.94) rotate(-39.82)"/><ellipse class="cls-5" cx="299.38" cy="302.14" rx="1.39" ry="1.61" transform="translate(-124.04 261.76) rotate(-39.82)"/><ellipse class="cls-5" cx="305.69" cy="296.88" rx="1.39" ry="1.61" transform="translate(-119.21 264.58) rotate(-39.82)"/><ellipse class="cls-5" cx="312" cy="291.62" rx="1.39" ry="1.61" transform="translate(-114.38 267.4) rotate(-39.82)"/><ellipse class="cls-5" cx="243.44" cy="363.33" rx="1.39" ry="1.61" transform="translate(-176.19 240.13) rotate(-39.82)"/><ellipse class="cls-5" cx="249.75" cy="358.07" rx="1.39" ry="1.61" transform="translate(-171.36 242.95) rotate(-39.82)"/><ellipse class="cls-5" cx="256.06" cy="352.81" rx="1.39" ry="1.61" transform="translate(-166.53 245.77) rotate(-39.82)"/><ellipse class="cls-5" cx="262.37" cy="347.55" rx="1.39" ry="1.61" transform="translate(-161.7 248.59) rotate(-39.82)"/><ellipse class="cls-5" cx="268.68" cy="342.29" rx="1.39" ry="1.61" transform="translate(-156.87 251.41) rotate(-39.82)"/><ellipse class="cls-5" cx="274.99" cy="337.03" rx="1.39" ry="1.61" transform="translate(-152.04 254.23) rotate(-39.82)"/><ellipse class="cls-5" cx="281.3" cy="331.77" rx="1.39" ry="1.61" transform="translate(-147.21 257.05) rotate(-39.82)"/><ellipse class="cls-5" cx="287.61" cy="326.51" rx="1.39" ry="1.61" transform="translate(-142.38 259.87) rotate(-39.82)"/><ellipse class="cls-5" cx="293.92" cy="321.25" rx="1.39" ry="1.61" transform="translate(-137.54 262.7) rotate(-39.82)"/><ellipse class="cls-5" cx="300.23" cy="315.99" rx="1.39" ry="1.61" transform="translate(-132.71 265.52) rotate(-39.82)"/><ellipse class="cls-5" cx="306.54" cy="310.73" rx="1.39" ry="1.61" transform="translate(-127.88 268.34) rotate(-39.82)"/><ellipse class="cls-5" cx="312.85" cy="305.47" rx="1.39" ry="1.61" transform="translate(-123.05 271.16) rotate(-39.82)"/><ellipse class="cls-5" cx="319.16" cy="300.21" rx="1.39" ry="1.61" transform="translate(-118.22 273.98) rotate(-39.82)"/><ellipse class="cls-5" cx="250.6" cy="371.92" rx="1.39" ry="1.61" transform="translate(-180.03 246.71) rotate(-39.82)"/><ellipse class="cls-5" cx="172.7" cy="291.29" rx="1.39" ry="1.61" transform="translate(-146.47 178.13) rotate(-39.82)"/><ellipse class="cls-5" cx="179.86" cy="299.88" rx="1.39" ry="1.61" transform="matrix(0.77, -0.64, 0.64, 0.77, -150.31, 184.7)"/><ellipse class="cls-5" cx="187.02" cy="308.47" rx="1.39" ry="1.61" transform="translate(-154.15 191.28) rotate(-39.82)"/><ellipse class="cls-5" cx="194.18" cy="317.06" rx="1.39" ry="1.61" transform="translate(-157.99 197.85) rotate(-39.82)"/><ellipse class="cls-5" cx="201.34" cy="325.65" rx="1.39" ry="1.61" transform="translate(-161.83 204.43) rotate(-39.82)"/><ellipse class="cls-5" cx="208.49" cy="334.24" rx="1.39" ry="1.61" transform="translate(-165.67 211.01) rotate(-39.82)"/><ellipse class="cls-5" cx="215.65" cy="342.82" rx="1.39" ry="1.61" transform="translate(-169.51 217.58) rotate(-39.82)"/><ellipse class="cls-5" cx="222.81" cy="351.41" rx="1.39" ry="1.61" transform="translate(-173.35 224.16) rotate(-39.82)"/><ellipse class="cls-5" cx="229.97" cy="360" rx="1.39" ry="1.61" transform="translate(-177.19 230.73) rotate(-39.82)"/><ellipse class="cls-5" cx="237.13" cy="368.59" rx="1.39" ry="1.61" transform="translate(-181.02 237.31) rotate(-39.82)"/><ellipse class="cls-5" cx="244.29" cy="377.18" rx="1.39" ry="1.61" transform="translate(-184.86 243.89) rotate(-39.82)"/><ellipse class="cls-5" cx="256.91" cy="366.66" rx="1.39" ry="1.61" transform="translate(-175.2 249.53) rotate(-39.82)"/><ellipse class="cls-5" cx="263.22" cy="361.4" rx="1.39" ry="1.61" transform="translate(-170.37 252.35) rotate(-39.82)"/><ellipse class="cls-5" cx="269.53" cy="356.14" rx="1.39" ry="1.61" transform="translate(-165.54 255.17) rotate(-39.82)"/><ellipse class="cls-5" cx="275.84" cy="350.88" rx="1.39" ry="1.61" transform="translate(-160.71 257.99) rotate(-39.82)"/><ellipse class="cls-5" cx="282.15" cy="345.62" rx="1.39" ry="1.61" transform="translate(-155.88 260.81) rotate(-39.82)"/><ellipse class="cls-5" cx="288.46" cy="340.36" rx="1.39" ry="1.61" transform="translate(-151.05 263.63) rotate(-39.82)"/><ellipse class="cls-5" cx="294.77" cy="335.1" rx="1.39" ry="1.61" transform="translate(-146.21 266.45) rotate(-39.82)"/><ellipse class="cls-5" cx="301.08" cy="329.84" rx="1.39" ry="1.61" transform="translate(-141.38 269.27) rotate(-39.82)"/><ellipse class="cls-5" cx="307.39" cy="324.58" rx="1.39" ry="1.61" transform="translate(-136.55 272.09) rotate(-39.82)"/><ellipse class="cls-5" cx="313.7" cy="319.32" rx="1.39" ry="1.61" transform="translate(-131.72 274.91) rotate(-39.82)"/><ellipse class="cls-5" cx="320.01" cy="314.06" rx="1.39" ry="1.61" transform="translate(-126.89 277.73) rotate(-39.82)"/><ellipse class="cls-5" cx="326.32" cy="308.8" rx="1.39" ry="1.61" transform="translate(-122.06 280.55) rotate(-39.82)"/></g></g><g class="cls-3"><g class="cls-6"><ellipse class="cls-5" cx="142.63" cy="188.61" rx="2.64" ry="2.3"/><ellipse class="cls-5" cx="142.63" cy="175.08" rx="2.64" ry="2.3"/><ellipse class="cls-5" cx="142.63" cy="161.56" rx="2.64" ry="2.3"/><ellipse class="cls-5" cx="142.63" cy="148.03" rx="2.64" ry="2.3"/><ellipse class="cls-5" cx="142.63" cy="134.51" rx="2.64" ry="2.3"/><ellipse class="cls-5" cx="142.63" cy="120.98" rx="2.64" ry="2.3"/><ellipse class="cls-5" cx="142.63" cy="107.46" rx="2.64" ry="2.3"/><ellipse class="cls-5" cx="142.63" cy="93.93" rx="2.64" ry="2.3"/><ellipse class="cls-5" cx="142.63" cy="80.41" rx="2.64" ry="2.3"/><ellipse class="cls-5" cx="142.63" cy="66.88" rx="2.64" ry="2.3"/><ellipse class="cls-5" cx="142.63" cy="53.36" rx="2.64" ry="2.3"/><ellipse class="cls-5" cx="142.63" cy="39.83" rx="2.64" ry="2.3"/><ellipse class="cls-5" cx="142.63" cy="26.31" rx="2.64" ry="2.3"/><ellipse class="cls-5" cx="142.63" cy="12.78" rx="2.64" ry="2.3"/><ellipse class="cls-5" cx="161.04" cy="175.08" rx="2.64" ry="2.3"/><ellipse class="cls-5" cx="161.04" cy="161.56" rx="2.64" ry="2.3"/><ellipse class="cls-5" cx="161.04" cy="148.03" rx="2.64" ry="2.3"/><ellipse class="cls-5" cx="161.04" cy="134.51" rx="2.64" ry="2.3"/><ellipse class="cls-5" cx="161.04" cy="120.98" rx="2.64" ry="2.3"/><ellipse class="cls-5" cx="161.04" cy="107.46" rx="2.64" ry="2.3"/><ellipse class="cls-5" cx="161.04" cy="93.93" rx="2.64" ry="2.3"/><ellipse class="cls-5" cx="161.04" cy="80.41" rx="2.64" ry="2.3"/><ellipse class="cls-5" cx="161.04" cy="66.88" rx="2.64" ry="2.3"/><ellipse class="cls-5" cx="161.04" cy="53.36" rx="2.64" ry="2.3"/><ellipse class="cls-5" cx="161.04" cy="39.83" rx="2.64" ry="2.3"/><ellipse class="cls-5" cx="161.04" cy="26.31" rx="2.64" ry="2.3"/><ellipse class="cls-5" cx="161.04" cy="12.78" rx="2.64" ry="2.3"/><ellipse class="cls-5" cx="179.45" cy="175.08" rx="2.64" ry="2.3"/><ellipse class="cls-5" cx="179.45" cy="161.56" rx="2.64" ry="2.3"/><ellipse class="cls-5" cx="179.45" cy="148.03" rx="2.64" ry="2.3"/><ellipse class="cls-5" cx="179.45" cy="134.51" rx="2.64" ry="2.3"/><ellipse class="cls-5" cx="179.45" cy="120.98" rx="2.64" ry="2.3"/><ellipse class="cls-5" cx="179.45" cy="107.46" rx="2.64" ry="2.3"/><ellipse class="cls-5" cx="179.45" cy="93.93" rx="2.64" ry="2.3"/><ellipse class="cls-5" cx="179.45" cy="80.41" rx="2.64" ry="2.3"/><ellipse class="cls-5" cx="179.45" cy="66.88" rx="2.64" ry="2.3"/><ellipse class="cls-5" cx="179.45" cy="53.36" rx="2.64" ry="2.3"/><ellipse class="cls-5" cx="179.45" cy="39.83" rx="2.64" ry="2.3"/><ellipse class="cls-5" cx="179.45" cy="26.31" rx="2.64" ry="2.3"/><ellipse class="cls-5" cx="179.45" cy="12.78" rx="2.64" ry="2.3"/><ellipse class="cls-5" cx="197.86" cy="175.08" rx="2.64" ry="2.3"/><ellipse class="cls-5" cx="197.86" cy="161.56" rx="2.64" ry="2.3"/><ellipse class="cls-5" cx="197.86" cy="148.03" rx="2.64" ry="2.3"/><ellipse class="cls-5" cx="197.86" cy="134.51" rx="2.64" ry="2.3"/><ellipse class="cls-5" cx="197.86" cy="120.98" rx="2.64" ry="2.3"/><ellipse class="cls-5" cx="197.86" cy="107.46" rx="2.64" ry="2.3"/><ellipse class="cls-5" cx="197.86" cy="93.93" rx="2.64" ry="2.3"/><ellipse class="cls-5" cx="197.86" cy="80.41" rx="2.64" ry="2.3"/><ellipse class="cls-5" cx="197.86" cy="66.88" rx="2.64" ry="2.3"/><ellipse class="cls-5" cx="197.86" cy="53.36" rx="2.64" ry="2.3"/><ellipse class="cls-5" cx="197.86" cy="39.83" rx="2.64" ry="2.3"/><ellipse class="cls-5" cx="197.86" cy="26.31" rx="2.64" ry="2.3"/><ellipse class="cls-5" cx="197.86" cy="12.78" rx="2.64" ry="2.3"/><ellipse class="cls-5" cx="216.27" cy="175.08" rx="2.64" ry="2.3"/><ellipse class="cls-5" cx="216.27" cy="161.56" rx="2.64" ry="2.3"/><ellipse class="cls-5" cx="216.27" cy="148.03" rx="2.64" ry="2.3"/><ellipse class="cls-5" cx="216.27" cy="134.51" rx="2.64" ry="2.3"/><ellipse class="cls-5" cx="216.27" cy="120.98" rx="2.64" ry="2.3"/><ellipse class="cls-5" cx="216.27" cy="107.46" rx="2.64" ry="2.3"/><ellipse class="cls-5" cx="216.27" cy="93.93" rx="2.64" ry="2.3"/><ellipse class="cls-5" cx="216.27" cy="80.41" rx="2.64" ry="2.3"/><ellipse class="cls-5" cx="216.27" cy="66.88" rx="2.64" ry="2.3"/><ellipse class="cls-5" cx="216.27" cy="53.36" rx="2.64" ry="2.3"/><ellipse class="cls-5" cx="216.27" cy="39.83" rx="2.64" ry="2.3"/><ellipse class="cls-5" cx="216.27" cy="26.31" rx="2.64" ry="2.3"/><ellipse class="cls-5" cx="216.27" cy="12.78" rx="2.64" ry="2.3"/><ellipse class="cls-5" cx="234.68" cy="175.08" rx="2.64" ry="2.3"/><ellipse class="cls-5" cx="234.68" cy="161.56" rx="2.64" ry="2.3"/><ellipse class="cls-5" cx="234.68" cy="148.03" rx="2.64" ry="2.3"/><ellipse class="cls-5" cx="234.68" cy="134.51" rx="2.64" ry="2.3"/><ellipse class="cls-5" cx="234.68" cy="120.98" rx="2.64" ry="2.3"/><ellipse class="cls-5" cx="234.68" cy="107.46" rx="2.64" ry="2.3"/><ellipse class="cls-5" cx="234.68" cy="93.93" rx="2.64" ry="2.3"/><ellipse class="cls-5" cx="234.68" cy="80.41" rx="2.64" ry="2.3"/><ellipse class="cls-5" cx="234.68" cy="66.88" rx="2.64" ry="2.3"/><ellipse class="cls-5" cx="234.68" cy="53.36" rx="2.64" ry="2.3"/><ellipse class="cls-5" cx="234.68" cy="39.83" rx="2.64" ry="2.3"/><ellipse class="cls-5" cx="234.68" cy="26.31" rx="2.64" ry="2.3"/><ellipse class="cls-5" cx="234.68" cy="12.78" rx="2.64" ry="2.3"/><ellipse class="cls-5" cx="253.09" cy="175.08" rx="2.64" ry="2.3"/><ellipse class="cls-5" cx="253.09" cy="161.56" rx="2.64" ry="2.3"/><ellipse class="cls-5" cx="253.09" cy="148.03" rx="2.64" ry="2.3"/><ellipse class="cls-5" cx="253.09" cy="134.51" rx="2.64" ry="2.3"/><ellipse class="cls-5" cx="253.09" cy="120.98" rx="2.64" ry="2.3"/><ellipse class="cls-5" cx="253.09" cy="107.46" rx="2.64" ry="2.3"/><ellipse class="cls-5" cx="253.09" cy="93.93" rx="2.64" ry="2.3"/><ellipse class="cls-5" cx="253.09" cy="80.41" rx="2.64" ry="2.3"/><ellipse class="cls-5" cx="253.09" cy="66.88" rx="2.64" ry="2.3"/><ellipse class="cls-5" cx="253.09" cy="53.36" rx="2.64" ry="2.3"/><ellipse class="cls-5" cx="253.09" cy="39.83" rx="2.64" ry="2.3"/><ellipse class="cls-5" cx="253.09" cy="26.31" rx="2.64" ry="2.3"/><ellipse class="cls-5" cx="253.09" cy="12.78" rx="2.64" ry="2.3"/><ellipse class="cls-5" cx="271.5" cy="175.08" rx="2.64" ry="2.3"/><ellipse class="cls-5" cx="271.5" cy="161.56" rx="2.64" ry="2.3"/><ellipse class="cls-5" cx="271.5" cy="148.03" rx="2.64" ry="2.3"/><ellipse class="cls-5" cx="271.5" cy="134.51" rx="2.64" ry="2.3"/><ellipse class="cls-5" cx="271.5" cy="120.98" rx="2.64" ry="2.3"/><ellipse class="cls-5" cx="271.5" cy="107.46" rx="2.64" ry="2.3"/><ellipse class="cls-5" cx="271.5" cy="93.93" rx="2.64" ry="2.3"/><ellipse class="cls-5" cx="271.5" cy="80.41" rx="2.64" ry="2.3"/><ellipse class="cls-5" cx="271.5" cy="66.88" rx="2.64" ry="2.3"/><ellipse class="cls-5" cx="271.5" cy="53.36" rx="2.64" ry="2.3"/><ellipse class="cls-5" cx="271.5" cy="39.83" rx="2.64" ry="2.3"/><ellipse class="cls-5" cx="271.5" cy="26.31" rx="2.64" ry="2.3"/><ellipse class="cls-5" cx="271.5" cy="12.78" rx="2.64" ry="2.3"/><ellipse class="cls-5" cx="289.91" cy="175.08" rx="2.64" ry="2.3"/><ellipse class="cls-5" cx="289.91" cy="161.56" rx="2.64" ry="2.3"/><ellipse class="cls-5" cx="289.91" cy="148.03" rx="2.64" ry="2.3"/><ellipse class="cls-5" cx="289.91" cy="134.51" rx="2.64" ry="2.3"/><ellipse class="cls-5" cx="289.91" cy="120.98" rx="2.64" ry="2.3"/><ellipse class="cls-5" cx="289.91" cy="107.46" rx="2.64" ry="2.3"/><ellipse class="cls-5" cx="289.91" cy="93.93" rx="2.64" ry="2.3"/><ellipse class="cls-5" cx="289.91" cy="80.41" rx="2.64" ry="2.3"/><ellipse class="cls-5" cx="289.91" cy="66.88" rx="2.64" ry="2.3"/><ellipse class="cls-5" cx="289.91" cy="53.36" rx="2.64" ry="2.3"/><ellipse class="cls-5" cx="289.91" cy="39.83" rx="2.64" ry="2.3"/><ellipse class="cls-5" cx="289.91" cy="26.31" rx="2.64" ry="2.3"/><ellipse class="cls-5" cx="289.91" cy="12.78" rx="2.64" ry="2.3"/><ellipse class="cls-5" cx="308.32" cy="175.08" rx="2.64" ry="2.3"/><ellipse class="cls-5" cx="308.32" cy="161.56" rx="2.64" ry="2.3"/><ellipse class="cls-5" cx="308.32" cy="148.03" rx="2.64" ry="2.3"/><ellipse class="cls-5" cx="308.32" cy="134.51" rx="2.64" ry="2.3"/><ellipse class="cls-5" cx="308.32" cy="120.98" rx="2.64" ry="2.3"/><ellipse class="cls-5" cx="308.32" cy="107.46" rx="2.64" ry="2.3"/><ellipse class="cls-5" cx="308.32" cy="93.93" rx="2.64" ry="2.3"/><ellipse class="cls-5" cx="308.32" cy="80.41" rx="2.64" ry="2.3"/><ellipse class="cls-5" cx="308.32" cy="66.88" rx="2.64" ry="2.3"/><ellipse class="cls-5" cx="308.32" cy="53.36" rx="2.64" ry="2.3"/><ellipse class="cls-5" cx="308.32" cy="39.83" rx="2.64" ry="2.3"/><ellipse class="cls-5" cx="308.32" cy="26.31" rx="2.64" ry="2.3"/><ellipse class="cls-5" cx="308.32" cy="12.78" rx="2.64" ry="2.3"/><ellipse class="cls-5" cx="326.73" cy="175.08" rx="2.64" ry="2.3"/><ellipse class="cls-5" cx="326.73" cy="161.56" rx="2.64" ry="2.3"/><ellipse class="cls-5" cx="326.73" cy="148.03" rx="2.64" ry="2.3"/><ellipse class="cls-5" cx="326.73" cy="134.51" rx="2.64" ry="2.3"/><ellipse class="cls-5" cx="326.73" cy="120.98" rx="2.64" ry="2.3"/><ellipse class="cls-5" cx="326.73" cy="107.46" rx="2.64" ry="2.3"/><ellipse class="cls-5" cx="326.73" cy="93.93" rx="2.64" ry="2.3"/><ellipse class="cls-5" cx="326.73" cy="80.41" rx="2.64" ry="2.3"/><ellipse class="cls-5" cx="326.73" cy="66.88" rx="2.64" ry="2.3"/><ellipse class="cls-5" cx="326.73" cy="53.36" rx="2.64" ry="2.3"/><ellipse class="cls-5" cx="326.73" cy="39.83" rx="2.64" ry="2.3"/><ellipse class="cls-5" cx="326.73" cy="26.31" rx="2.64" ry="2.3"/><ellipse class="cls-5" cx="326.73" cy="12.78" rx="2.64" ry="2.3"/><ellipse class="cls-5" cx="345.14" cy="175.08" rx="2.64" ry="2.3"/><ellipse class="cls-5" cx="161.04" cy="188.61" rx="2.64" ry="2.3"/><ellipse class="cls-5" cx="179.45" cy="188.61" rx="2.64" ry="2.3"/><ellipse class="cls-5" cx="197.86" cy="188.61" rx="2.64" ry="2.3"/><ellipse class="cls-5" cx="216.27" cy="188.61" rx="2.64" ry="2.3"/><ellipse class="cls-5" cx="234.68" cy="188.61" rx="2.64" ry="2.3"/><ellipse class="cls-5" cx="253.09" cy="188.61" rx="2.64" ry="2.3"/><ellipse class="cls-5" cx="271.5" cy="188.61" rx="2.64" ry="2.3"/><ellipse class="cls-5" cx="289.91" cy="188.61" rx="2.64" ry="2.3"/><ellipse class="cls-5" cx="308.32" cy="188.61" rx="2.64" ry="2.3"/><ellipse class="cls-5" cx="326.73" cy="188.61" rx="2.64" ry="2.3"/><ellipse class="cls-5" cx="345.14" cy="188.61" rx="2.64" ry="2.3"/><ellipse class="cls-5" cx="345.14" cy="161.56" rx="2.64" ry="2.3"/><ellipse class="cls-5" cx="345.14" cy="148.03" rx="2.64" ry="2.3"/><ellipse class="cls-5" cx="345.14" cy="134.51" rx="2.64" ry="2.3"/><ellipse class="cls-5" cx="345.14" cy="120.98" rx="2.64" ry="2.3"/><ellipse class="cls-5" cx="345.14" cy="107.46" rx="2.64" ry="2.3"/><ellipse class="cls-5" cx="345.14" cy="93.93" rx="2.64" ry="2.3"/><ellipse class="cls-5" cx="345.14" cy="80.41" rx="2.64" ry="2.3"/><ellipse class="cls-5" cx="345.14" cy="66.88" rx="2.64" ry="2.3"/><ellipse class="cls-5" cx="345.14" cy="53.36" rx="2.64" ry="2.3"/><ellipse class="cls-5" cx="345.14" cy="39.83" rx="2.64" ry="2.3"/><ellipse class="cls-5" cx="345.14" cy="26.31" rx="2.64" ry="2.3"/><ellipse class="cls-5" cx="345.14" cy="12.78" rx="2.64" ry="2.3"/><ellipse class="cls-5" cx="13.42" cy="175.08" rx="2.64" ry="2.3"/><ellipse class="cls-5" cx="13.42" cy="161.56" rx="2.64" ry="2.3"/><ellipse class="cls-5" cx="13.42" cy="148.03" rx="2.64" ry="2.3"/><ellipse class="cls-5" cx="13.42" cy="134.51" rx="2.64" ry="2.3"/><ellipse class="cls-5" cx="13.42" cy="120.98" rx="2.64" ry="2.3"/><ellipse class="cls-5" cx="13.42" cy="107.46" rx="2.64" ry="2.3"/><ellipse class="cls-5" cx="13.42" cy="93.93" rx="2.64" ry="2.3"/><ellipse class="cls-5" cx="13.42" cy="80.41" rx="2.64" ry="2.3"/><ellipse class="cls-5" cx="13.42" cy="66.88" rx="2.64" ry="2.3"/><ellipse class="cls-5" cx="13.42" cy="53.36" rx="2.64" ry="2.3"/><ellipse class="cls-5" cx="13.42" cy="39.83" rx="2.64" ry="2.3"/><ellipse class="cls-5" cx="13.42" cy="26.31" rx="2.64" ry="2.3"/><ellipse class="cls-5" cx="13.42" cy="12.78" rx="2.64" ry="2.3"/><ellipse class="cls-5" cx="31.83" cy="175.08" rx="2.64" ry="2.3"/><ellipse class="cls-5" cx="31.83" cy="161.56" rx="2.64" ry="2.3"/><ellipse class="cls-5" cx="31.83" cy="148.03" rx="2.64" ry="2.3"/><ellipse class="cls-5" cx="31.83" cy="134.51" rx="2.64" ry="2.3"/><ellipse class="cls-5" cx="31.83" cy="120.98" rx="2.64" ry="2.3"/><ellipse class="cls-5" cx="31.83" cy="107.46" rx="2.64" ry="2.3"/><ellipse class="cls-5" cx="31.83" cy="93.93" rx="2.64" ry="2.3"/><ellipse class="cls-5" cx="31.83" cy="80.41" rx="2.64" ry="2.3"/><ellipse class="cls-5" cx="31.83" cy="66.88" rx="2.64" ry="2.3"/><ellipse class="cls-5" cx="31.83" cy="53.36" rx="2.64" ry="2.3"/><ellipse class="cls-5" cx="31.83" cy="39.83" rx="2.64" ry="2.3"/><ellipse class="cls-5" cx="31.83" cy="26.31" rx="2.64" ry="2.3"/><ellipse class="cls-5" cx="31.83" cy="12.78" rx="2.64" ry="2.3"/><ellipse class="cls-5" cx="50.24" cy="175.08" rx="2.64" ry="2.3"/><ellipse class="cls-5" cx="50.24" cy="161.56" rx="2.64" ry="2.3"/><ellipse class="cls-5" cx="50.24" cy="148.03" rx="2.64" ry="2.3"/><ellipse class="cls-5" cx="50.24" cy="134.51" rx="2.64" ry="2.3"/><ellipse class="cls-5" cx="50.24" cy="120.98" rx="2.64" ry="2.3"/><ellipse class="cls-5" cx="50.24" cy="107.46" rx="2.64" ry="2.3"/><ellipse class="cls-5" cx="50.24" cy="93.93" rx="2.64" ry="2.3"/><ellipse class="cls-5" cx="50.24" cy="80.41" rx="2.64" ry="2.3"/><ellipse class="cls-5" cx="50.24" cy="66.88" rx="2.64" ry="2.3"/><ellipse class="cls-5" cx="50.24" cy="53.36" rx="2.64" ry="2.3"/><ellipse class="cls-5" cx="50.24" cy="39.83" rx="2.64" ry="2.3"/><ellipse class="cls-5" cx="50.24" cy="26.31" rx="2.64" ry="2.3"/><ellipse class="cls-5" cx="50.24" cy="12.78" rx="2.64" ry="2.3"/><ellipse class="cls-5" cx="68.65" cy="175.08" rx="2.64" ry="2.3"/><ellipse class="cls-5" cx="68.65" cy="161.56" rx="2.64" ry="2.3"/><ellipse class="cls-5" cx="68.65" cy="148.03" rx="2.64" ry="2.3"/><ellipse class="cls-5" cx="68.65" cy="134.51" rx="2.64" ry="2.3"/><ellipse class="cls-5" cx="68.65" cy="120.98" rx="2.64" ry="2.3"/><ellipse class="cls-5" cx="68.65" cy="107.46" rx="2.64" ry="2.3"/><ellipse class="cls-5" cx="68.65" cy="93.93" rx="2.64" ry="2.3"/><ellipse class="cls-5" cx="68.65" cy="80.41" rx="2.64" ry="2.3"/><ellipse class="cls-5" cx="68.65" cy="66.88" rx="2.64" ry="2.3"/><ellipse class="cls-5" cx="68.65" cy="53.36" rx="2.64" ry="2.3"/><ellipse class="cls-5" cx="68.65" cy="39.83" rx="2.64" ry="2.3"/><ellipse class="cls-5" cx="68.65" cy="26.31" rx="2.64" ry="2.3"/><ellipse class="cls-5" cx="68.65" cy="12.78" rx="2.64" ry="2.3"/><ellipse class="cls-5" cx="87.06" cy="175.08" rx="2.64" ry="2.3"/><ellipse class="cls-5" cx="87.06" cy="161.56" rx="2.64" ry="2.3"/><ellipse class="cls-5" cx="87.06" cy="148.03" rx="2.64" ry="2.3"/><ellipse class="cls-5" cx="87.06" cy="134.51" rx="2.64" ry="2.3"/><ellipse class="cls-5" cx="87.06" cy="120.98" rx="2.64" ry="2.3"/><ellipse class="cls-5" cx="87.06" cy="107.46" rx="2.64" ry="2.3"/><ellipse class="cls-5" cx="87.06" cy="93.93" rx="2.64" ry="2.3"/><ellipse class="cls-5" cx="87.06" cy="80.41" rx="2.64" ry="2.3"/><ellipse class="cls-5" cx="87.06" cy="66.88" rx="2.64" ry="2.3"/><ellipse class="cls-5" cx="87.06" cy="53.36" rx="2.64" ry="2.3"/><ellipse class="cls-5" cx="87.06" cy="39.83" rx="2.64" ry="2.3"/><ellipse class="cls-5" cx="87.06" cy="26.31" rx="2.64" ry="2.3"/><ellipse class="cls-5" cx="87.06" cy="12.78" rx="2.64" ry="2.3"/><ellipse class="cls-5" cx="105.47" cy="175.08" rx="2.64" ry="2.3"/><ellipse class="cls-5" cx="105.47" cy="161.56" rx="2.64" ry="2.3"/><ellipse class="cls-5" cx="105.47" cy="148.03" rx="2.64" ry="2.3"/><ellipse class="cls-5" cx="105.47" cy="134.51" rx="2.64" ry="2.3"/><ellipse class="cls-5" cx="105.47" cy="120.98" rx="2.64" ry="2.3"/><ellipse class="cls-5" cx="105.47" cy="107.46" rx="2.64" ry="2.3"/><ellipse class="cls-5" cx="105.47" cy="93.93" rx="2.64" ry="2.3"/><ellipse class="cls-5" cx="105.47" cy="80.41" rx="2.64" ry="2.3"/><ellipse class="cls-5" cx="105.47" cy="66.88" rx="2.64" ry="2.3"/><ellipse class="cls-5" cx="105.47" cy="53.36" rx="2.64" ry="2.3"/><ellipse class="cls-5" cx="105.47" cy="39.83" rx="2.64" ry="2.3"/><ellipse class="cls-5" cx="105.47" cy="26.31" rx="2.64" ry="2.3"/><ellipse class="cls-5" cx="105.47" cy="12.78" rx="2.64" ry="2.3"/><ellipse class="cls-5" cx="123.88" cy="175.08" rx="2.64" ry="2.3"/><ellipse class="cls-5" cx="13.42" cy="188.61" rx="2.64" ry="2.3"/><ellipse class="cls-5" cx="31.83" cy="188.61" rx="2.64" ry="2.3"/><ellipse class="cls-5" cx="50.24" cy="188.61" rx="2.64" ry="2.3"/><ellipse class="cls-5" cx="68.65" cy="188.61" rx="2.64" ry="2.3"/><ellipse class="cls-5" cx="87.06" cy="188.61" rx="2.64" ry="2.3"/><ellipse class="cls-5" cx="105.47" cy="188.61" rx="2.64" ry="2.3"/><ellipse class="cls-5" cx="123.88" cy="188.61" rx="2.64" ry="2.3"/><ellipse class="cls-5" cx="123.88" cy="161.56" rx="2.64" ry="2.3"/><ellipse class="cls-5" cx="123.88" cy="148.03" rx="2.64" ry="2.3"/><ellipse class="cls-5" cx="123.88" cy="134.51" rx="2.64" ry="2.3"/><ellipse class="cls-5" cx="123.88" cy="120.98" rx="2.64" ry="2.3"/><ellipse class="cls-5" cx="123.88" cy="107.46" rx="2.64" ry="2.3"/><ellipse class="cls-5" cx="123.88" cy="93.93" rx="2.64" ry="2.3"/><ellipse class="cls-5" cx="123.88" cy="80.41" rx="2.64" ry="2.3"/><ellipse class="cls-5" cx="123.88" cy="66.88" rx="2.64" ry="2.3"/><ellipse class="cls-5" cx="123.88" cy="53.36" rx="2.64" ry="2.3"/><ellipse class="cls-5" cx="123.88" cy="39.83" rx="2.64" ry="2.3"/><ellipse class="cls-5" cx="123.88" cy="26.31" rx="2.64" ry="2.3"/><ellipse class="cls-5" cx="123.88" cy="12.78" rx="2.64" ry="2.3"/><ellipse class="cls-5" cx="142.63" cy="-2.14" rx="2.64" ry="2.3"/><ellipse class="cls-5" cx="161.04" cy="-2.14" rx="2.64" ry="2.3"/><ellipse class="cls-5" cx="179.45" cy="-2.14" rx="2.64" ry="2.3"/><ellipse class="cls-5" cx="197.86" cy="-2.14" rx="2.64" ry="2.3"/><ellipse class="cls-5" cx="216.27" cy="-2.14" rx="2.64" ry="2.3"/><ellipse class="cls-5" cx="234.68" cy="-2.14" rx="2.64" ry="2.3"/><ellipse class="cls-5" cx="253.09" cy="-2.14" rx="2.64" ry="2.3"/><ellipse class="cls-5" cx="271.5" cy="-2.14" rx="2.64" ry="2.3"/><ellipse class="cls-5" cx="289.91" cy="-2.14" rx="2.64" ry="2.3"/><ellipse class="cls-5" cx="308.32" cy="-2.14" rx="2.64" ry="2.3"/><ellipse class="cls-5" cx="326.73" cy="-2.14" rx="2.64" ry="2.3"/><ellipse class="cls-5" cx="345.14" cy="-2.14" rx="2.64" ry="2.3"/><ellipse class="cls-5" cx="361.09" cy="188.61" rx="2.64" ry="2.3"/><ellipse class="cls-5" cx="361.09" cy="175.08" rx="2.64" ry="2.3"/><ellipse class="cls-5" cx="361.09" cy="161.56" rx="2.64" ry="2.3"/><ellipse class="cls-5" cx="361.09" cy="148.03" rx="2.64" ry="2.3"/><ellipse class="cls-5" cx="361.09" cy="134.51" rx="2.64" ry="2.3"/><ellipse class="cls-5" cx="361.09" cy="120.98" rx="2.64" ry="2.3"/><ellipse class="cls-5" cx="361.09" cy="107.46" rx="2.64" ry="2.3"/><ellipse class="cls-5" cx="361.09" cy="93.93" rx="2.64" ry="2.3"/><ellipse class="cls-5" cx="361.09" cy="80.41" rx="2.64" ry="2.3"/><ellipse class="cls-5" cx="361.09" cy="66.88" rx="2.64" ry="2.3"/><ellipse class="cls-5" cx="361.09" cy="53.36" rx="2.64" ry="2.3"/><ellipse class="cls-5" cx="361.09" cy="39.83" rx="2.64" ry="2.3"/><ellipse class="cls-5" cx="361.09" cy="26.31" rx="2.64" ry="2.3"/><ellipse class="cls-5" cx="361.09" cy="12.78" rx="2.64" ry="2.3"/><ellipse class="cls-5" cx="379.5" cy="175.08" rx="2.64" ry="2.3"/><ellipse class="cls-5" cx="379.5" cy="161.56" rx="2.64" ry="2.3"/><ellipse class="cls-5" cx="379.5" cy="148.03" rx="2.64" ry="2.3"/><ellipse class="cls-5" cx="379.5" cy="134.51" rx="2.64" ry="2.3"/><ellipse class="cls-5" cx="379.5" cy="120.98" rx="2.64" ry="2.3"/><ellipse class="cls-5" cx="379.5" cy="107.46" rx="2.64" ry="2.3"/><ellipse class="cls-5" cx="379.5" cy="93.93" rx="2.64" ry="2.3"/><ellipse class="cls-5" cx="379.5" cy="80.41" rx="2.64" ry="2.3"/><ellipse class="cls-5" cx="379.5" cy="66.88" rx="2.64" ry="2.3"/><ellipse class="cls-5" cx="379.5" cy="53.36" rx="2.64" ry="2.3"/><ellipse class="cls-5" cx="379.5" cy="39.83" rx="2.64" ry="2.3"/><ellipse class="cls-5" cx="379.5" cy="26.31" rx="2.64" ry="2.3"/><ellipse class="cls-5" cx="379.5" cy="12.78" rx="2.64" ry="2.3"/><ellipse class="cls-5" cx="397.91" cy="175.08" rx="2.64" ry="2.3"/><ellipse class="cls-5" cx="397.91" cy="161.56" rx="2.64" ry="2.3"/><ellipse class="cls-5" cx="397.91" cy="148.03" rx="2.64" ry="2.3"/><ellipse class="cls-5" cx="397.91" cy="134.51" rx="2.64" ry="2.3"/><ellipse class="cls-5" cx="397.91" cy="120.98" rx="2.64" ry="2.3"/><ellipse class="cls-5" cx="397.91" cy="107.46" rx="2.64" ry="2.3"/><ellipse class="cls-5" cx="397.91" cy="93.93" rx="2.64" ry="2.3"/><ellipse class="cls-5" cx="397.91" cy="80.41" rx="2.64" ry="2.3"/><ellipse class="cls-5" cx="397.91" cy="66.88" rx="2.64" ry="2.3"/><ellipse class="cls-5" cx="397.91" cy="53.36" rx="2.64" ry="2.3"/><ellipse class="cls-5" cx="397.91" cy="39.83" rx="2.64" ry="2.3"/><ellipse class="cls-5" cx="397.91" cy="26.31" rx="2.64" ry="2.3"/><ellipse class="cls-5" cx="397.91" cy="12.78" rx="2.64" ry="2.3"/><ellipse class="cls-5" cx="416.32" cy="175.08" rx="2.64" ry="2.3"/><ellipse class="cls-5" cx="416.32" cy="161.56" rx="2.64" ry="2.3"/><ellipse class="cls-5" cx="416.32" cy="148.03" rx="2.64" ry="2.3"/><ellipse class="cls-5" cx="416.32" cy="134.51" rx="2.64" ry="2.3"/><ellipse class="cls-5" cx="416.32" cy="120.98" rx="2.64" ry="2.3"/><ellipse class="cls-5" cx="416.32" cy="107.46" rx="2.64" ry="2.3"/><ellipse class="cls-5" cx="416.32" cy="93.93" rx="2.64" ry="2.3"/><ellipse class="cls-5" cx="416.32" cy="80.41" rx="2.64" ry="2.3"/><ellipse class="cls-5" cx="416.32" cy="66.88" rx="2.64" ry="2.3"/><ellipse class="cls-5" cx="416.32" cy="53.36" rx="2.64" ry="2.3"/><ellipse class="cls-5" cx="416.32" cy="39.83" rx="2.64" ry="2.3"/><ellipse class="cls-5" cx="416.32" cy="26.31" rx="2.64" ry="2.3"/><ellipse class="cls-5" cx="416.32" cy="12.78" rx="2.64" ry="2.3"/><ellipse class="cls-5" cx="379.5" cy="188.61" rx="2.64" ry="2.3"/><ellipse class="cls-5" cx="397.91" cy="188.61" rx="2.64" ry="2.3"/><ellipse class="cls-5" cx="416.32" cy="188.61" rx="2.64" ry="2.3"/><ellipse class="cls-5" cx="361.09" cy="-2.14" rx="2.64" ry="2.3"/><ellipse class="cls-5" cx="379.5" cy="-2.14" rx="2.64" ry="2.3"/><ellipse class="cls-5" cx="397.91" cy="-2.14" rx="2.64" ry="2.3"/><ellipse class="cls-5" cx="416.32" cy="-2.14" rx="2.64" ry="2.3"/><ellipse class="cls-5" cx="13.42" cy="-2.14" rx="2.64" ry="2.3"/><ellipse class="cls-5" cx="31.83" cy="-2.14" rx="2.64" ry="2.3"/><ellipse class="cls-5" cx="50.24" cy="-2.14" rx="2.64" ry="2.3"/><ellipse class="cls-5" cx="68.65" cy="-2.14" rx="2.64" ry="2.3"/><ellipse class="cls-5" cx="87.06" cy="-2.14" rx="2.64" ry="2.3"/><ellipse class="cls-5" cx="105.47" cy="-2.14" rx="2.64" ry="2.3"/><ellipse class="cls-5" cx="123.88" cy="-2.14" rx="2.64" ry="2.3"/></g></g></g></svg>