<svg xmlns="http://www.w3.org/2000/svg" viewBox="0 0 418.92 418.92"><defs><style>.cls-1{fill:#76b181;}.cls-2{opacity:0.1;}.cls-3{fill:none;stroke:#273c2c;stroke-miterlimit:10;}</style></defs><g id="Sentences"><rect class="cls-1" width="418.92" height="418.92"/><g class="cls-2"><line class="cls-3" x1="154" y1="-4.59" x2="154" y2="1.29"/><line class="cls-3" x1="164.77" y1="-4.59" x2="164.77" y2="1.29"/><line class="cls-3" x1="175.54" y1="-4.59" x2="175.54" y2="1.29"/><line class="cls-3" x1="186.31" y1="-4.59" x2="186.31" y2="1.29"/><line class="cls-3" x1="197.08" y1="-4.59" x2="197.08" y2="1.29"/><line class="cls-3" x1="207.86" y1="-4.59" x2="207.86" y2="1.29"/><line class="cls-3" x1="218.63" y1="-4.59" x2="218.63" y2="1.29"/><line class="cls-3" x1="229.4" y1="-4.59" x2="229.4" y2="1.29"/><line class="cls-3" x1="240.17" y1="-4.59" x2="240.17" y2="1.29"/><line class="cls-3" x1="250.94" y1="-4.59" x2="250.94" y2="1.29"/><line class="cls-3" x1="261.71" y1="-4.59" x2="261.71" y2="1.29"/><line class="cls-3" x1="272.49" y1="-4.59" x2="272.49" y2="1.29"/><line class="cls-3" x1="283.26" y1="-4.59" x2="283.26" y2="1.29"/><line class="cls-3" x1="294.03" y1="-4.59" x2="294.03" y2="1.29"/><line class="cls-3" x1="304.8" y1="-4.59" x2="304.8" y2="1.29"/><line class="cls-3" x1="315.57" y1="-4.59" x2="315.57" y2="1.29"/><line class="cls-3" x1="326.34" y1="-4.59" x2="326.34" y2="1.29"/><line class="cls-3" x1="337.12" y1="-4.59" x2="337.12" y2="1.29"/><line class="cls-3" x1="347.89" y1="-4.59" x2="347.89" y2="1.29"/><line class="cls-3" x1="358.66" y1="-4.59" x2="358.66" y2="1.29"/><line class="cls-3" x1="369.43" y1="-4.59" x2="369.43" y2="1.29"/><line class="cls-3" x1="380.2" y1="-4.59" x2="380.2" y2="1.29"/><line class="cls-3" x1="390.97" y1="-4.59" x2="390.97" y2="1.29"/><line class="cls-3" x1="401.74" y1="-4.59" x2="401.74" y2="1.29"/><line class="cls-3" x1="412.52" y1="-4.59" x2="412.52" y2="1.29"/><line class="cls-3" x1="154" y1="6.32" x2="154" y2="12.21"/><line class="cls-3" x1="156.94" y1="9.27" x2="151.06" y2="9.27"/><line class="cls-3" x1="164.77" y1="6.32" x2="164.77" y2="12.21"/><line class="cls-3" x1="167.71" y1="9.27" x2="161.83" y2="9.27"/><line class="cls-3" x1="175.54" y1="6.32" x2="175.54" y2="12.21"/><line class="cls-3" x1="178.48" y1="9.27" x2="172.6" y2="9.27"/><line class="cls-3" x1="186.31" y1="6.32" x2="186.31" y2="12.21"/><line class="cls-3" x1="189.25" y1="9.27" x2="183.37" y2="9.27"/><line class="cls-3" x1="197.08" y1="6.32" x2="197.08" y2="12.21"/><line class="cls-3" x1="200.03" y1="9.27" x2="194.14" y2="9.27"/><line class="cls-3" x1="207.86" y1="6.32" x2="207.86" y2="12.21"/><line class="cls-3" x1="210.8" y1="9.27" x2="204.91" y2="9.27"/><line class="cls-3" x1="218.63" y1="6.32" x2="218.63" y2="12.21"/><line class="cls-3" x1="221.57" y1="9.27" x2="215.69" y2="9.27"/><line class="cls-3" x1="229.4" y1="6.32" x2="229.4" y2="12.21"/><line class="cls-3" x1="232.34" y1="9.27" x2="226.46" y2="9.27"/><line class="cls-3" x1="240.17" y1="6.32" x2="240.17" y2="12.21"/><line class="cls-3" x1="243.11" y1="9.27" x2="237.23" y2="9.27"/><line class="cls-3" x1="250.94" y1="6.32" x2="250.94" y2="12.21"/><line class="cls-3" x1="253.88" y1="9.27" x2="248" y2="9.27"/><line class="cls-3" x1="261.71" y1="6.32" x2="261.71" y2="12.21"/><line class="cls-3" x1="264.66" y1="9.27" x2="258.77" y2="9.27"/><line class="cls-3" x1="272.49" y1="6.32" x2="272.49" y2="12.21"/><line class="cls-3" x1="275.43" y1="9.27" x2="269.54" y2="9.27"/><line class="cls-3" x1="283.26" y1="6.32" x2="283.26" y2="12.21"/><line class="cls-3" x1="286.2" y1="9.27" x2="280.32" y2="9.27"/><line class="cls-3" x1="294.03" y1="6.32" x2="294.03" y2="12.21"/><line class="cls-3" x1="296.97" y1="9.27" x2="291.09" y2="9.27"/><line class="cls-3" x1="304.8" y1="6.32" x2="304.8" y2="12.21"/><line class="cls-3" x1="307.74" y1="9.27" x2="301.86" y2="9.27"/><line class="cls-3" x1="315.57" y1="6.32" x2="315.57" y2="12.21"/><line class="cls-3" x1="318.51" y1="9.27" x2="312.63" y2="9.27"/><line class="cls-3" x1="326.34" y1="6.32" x2="326.34" y2="12.21"/><line class="cls-3" x1="329.28" y1="9.27" x2="323.4" y2="9.27"/><line class="cls-3" x1="337.12" y1="6.32" x2="337.12" y2="12.21"/><line class="cls-3" x1="340.06" y1="9.27" x2="334.17" y2="9.27"/><line class="cls-3" x1="347.89" y1="6.32" x2="347.89" y2="12.21"/><line class="cls-3" x1="350.83" y1="9.27" x2="344.95" y2="9.27"/><line class="cls-3" x1="358.66" y1="6.32" x2="358.66" y2="12.21"/><line class="cls-3" x1="361.6" y1="9.27" x2="355.72" y2="9.27"/><line class="cls-3" x1="369.43" y1="6.32" x2="369.43" y2="12.21"/><line class="cls-3" x1="372.37" y1="9.27" x2="366.49" y2="9.27"/><line class="cls-3" x1="380.2" y1="6.32" x2="380.2" y2="12.21"/><line class="cls-3" x1="383.14" y1="9.27" x2="377.26" y2="9.27"/><line class="cls-3" x1="390.97" y1="6.32" x2="390.97" y2="12.21"/><line class="cls-3" x1="393.91" y1="9.27" x2="388.03" y2="9.27"/><line class="cls-3" x1="401.74" y1="6.32" x2="401.74" y2="12.21"/><line class="cls-3" x1="404.69" y1="9.27" x2="398.8" y2="9.27"/><line class="cls-3" x1="412.52" y1="6.32" x2="412.52" y2="12.21"/><line class="cls-3" x1="415.46" y1="9.27" x2="409.58" y2="9.27"/><line class="cls-3" x1="154" y1="17.24" x2="154" y2="23.12"/><line class="cls-3" x1="156.94" y1="20.18" x2="151.06" y2="20.18"/><line class="cls-3" x1="164.77" y1="17.24" x2="164.77" y2="23.12"/><line class="cls-3" x1="167.71" y1="20.18" x2="161.83" y2="20.18"/><line class="cls-3" x1="175.54" y1="17.24" x2="175.54" y2="23.12"/><line class="cls-3" x1="178.48" y1="20.18" x2="172.6" y2="20.18"/><line class="cls-3" x1="186.31" y1="17.24" x2="186.31" y2="23.12"/><line class="cls-3" x1="189.25" y1="20.18" x2="183.37" y2="20.18"/><line class="cls-3" x1="197.08" y1="17.24" x2="197.08" y2="23.12"/><line class="cls-3" x1="200.03" y1="20.18" x2="194.14" y2="20.18"/><line class="cls-3" x1="207.86" y1="17.24" x2="207.86" y2="23.12"/><line class="cls-3" x1="210.8" y1="20.18" x2="204.91" y2="20.18"/><line class="cls-3" x1="218.63" y1="17.24" x2="218.63" y2="23.12"/><line class="cls-3" x1="221.57" y1="20.18" x2="215.69" y2="20.18"/><line class="cls-3" x1="229.4" y1="17.24" x2="229.4" y2="23.12"/><line class="cls-3" x1="232.34" y1="20.18" x2="226.46" y2="20.18"/><line class="cls-3" x1="240.17" y1="17.24" x2="240.17" y2="23.12"/><line class="cls-3" x1="243.11" y1="20.18" x2="237.23" y2="20.18"/><line class="cls-3" x1="250.94" y1="17.24" x2="250.94" y2="23.12"/><line class="cls-3" x1="253.88" y1="20.18" x2="248" y2="20.18"/><line class="cls-3" x1="261.71" y1="17.24" x2="261.71" y2="23.12"/><line class="cls-3" x1="264.66" y1="20.18" x2="258.77" y2="20.18"/><line class="cls-3" x1="272.49" y1="17.24" x2="272.49" y2="23.12"/><line class="cls-3" x1="275.43" y1="20.18" x2="269.54" y2="20.18"/><line class="cls-3" x1="283.26" y1="17.24" x2="283.26" y2="23.12"/><line class="cls-3" x1="286.2" y1="20.18" x2="280.32" y2="20.18"/><line class="cls-3" x1="294.03" y1="17.24" x2="294.03" y2="23.12"/><line class="cls-3" x1="296.97" y1="20.18" x2="291.09" y2="20.18"/><line class="cls-3" x1="304.8" y1="17.24" x2="304.8" y2="23.12"/><line class="cls-3" x1="307.74" y1="20.18" x2="301.86" y2="20.18"/><line class="cls-3" x1="315.57" y1="17.24" x2="315.57" y2="23.12"/><line class="cls-3" x1="318.51" y1="20.18" x2="312.63" y2="20.18"/><line class="cls-3" x1="326.34" y1="17.24" x2="326.34" y2="23.12"/><line class="cls-3" x1="329.28" y1="20.18" x2="323.4" y2="20.18"/><line class="cls-3" x1="337.12" y1="17.24" x2="337.12" y2="23.12"/><line class="cls-3" x1="340.06" y1="20.18" x2="334.17" y2="20.18"/><line class="cls-3" x1="347.89" y1="17.24" x2="347.89" y2="23.12"/><line class="cls-3" x1="350.83" y1="20.18" x2="344.95" y2="20.18"/><line class="cls-3" x1="358.66" y1="17.24" x2="358.66" y2="23.12"/><line class="cls-3" x1="361.6" y1="20.18" x2="355.72" y2="20.18"/><line class="cls-3" x1="369.43" y1="17.24" x2="369.43" y2="23.12"/><line class="cls-3" x1="372.37" y1="20.18" x2="366.49" y2="20.18"/><line class="cls-3" x1="380.2" y1="17.24" x2="380.2" y2="23.12"/><line class="cls-3" x1="383.14" y1="20.18" x2="377.26" y2="20.18"/><line class="cls-3" x1="390.97" y1="17.24" x2="390.97" y2="23.12"/><line class="cls-3" x1="393.91" y1="20.18" x2="388.03" y2="20.18"/><line class="cls-3" x1="401.74" y1="17.24" x2="401.74" y2="23.12"/><line class="cls-3" x1="404.69" y1="20.18" x2="398.8" y2="20.18"/><line class="cls-3" x1="412.52" y1="17.24" x2="412.52" y2="23.12"/><line class="cls-3" x1="415.46" y1="20.18" x2="409.58" y2="20.18"/><line class="cls-3" x1="175.54" y1="27.77" x2="175.54" y2="33.65"/><line class="cls-3" x1="178.48" y1="30.71" x2="172.6" y2="30.71"/><line class="cls-3" x1="186.31" y1="27.77" x2="186.31" y2="33.65"/><line class="cls-3" x1="189.25" y1="30.71" x2="183.37" y2="30.71"/><line class="cls-3" x1="197.08" y1="27.77" x2="197.08" y2="33.65"/><line class="cls-3" x1="200.03" y1="30.71" x2="194.14" y2="30.71"/><line class="cls-3" x1="207.86" y1="27.77" x2="207.86" y2="33.65"/><line class="cls-3" x1="210.8" y1="30.71" x2="204.91" y2="30.71"/><line class="cls-3" x1="218.63" y1="27.77" x2="218.63" y2="33.65"/><line class="cls-3" x1="221.57" y1="30.71" x2="215.69" y2="30.71"/><line class="cls-3" x1="229.4" y1="27.77" x2="229.4" y2="33.65"/><line class="cls-3" x1="232.34" y1="30.71" x2="226.46" y2="30.71"/><line class="cls-3" x1="240.17" y1="27.77" x2="240.17" y2="33.65"/><line class="cls-3" x1="243.11" y1="30.71" x2="237.23" y2="30.71"/><line class="cls-3" x1="250.94" y1="27.77" x2="250.94" y2="33.65"/><line class="cls-3" x1="253.88" y1="30.71" x2="248" y2="30.71"/><line class="cls-3" x1="261.71" y1="27.77" x2="261.71" y2="33.65"/><line class="cls-3" x1="264.66" y1="30.71" x2="258.77" y2="30.71"/><line class="cls-3" x1="272.49" y1="27.77" x2="272.49" y2="33.65"/><line class="cls-3" x1="275.43" y1="30.71" x2="269.54" y2="30.71"/><line class="cls-3" x1="283.26" y1="27.77" x2="283.26" y2="33.65"/><line class="cls-3" x1="286.2" y1="30.71" x2="280.32" y2="30.71"/><line class="cls-3" x1="294.03" y1="27.77" x2="294.03" y2="33.65"/><line class="cls-3" x1="296.97" y1="30.71" x2="291.09" y2="30.71"/><line class="cls-3" x1="304.8" y1="27.77" x2="304.8" y2="33.65"/><line class="cls-3" x1="307.74" y1="30.71" x2="301.86" y2="30.71"/><line class="cls-3" x1="315.57" y1="27.77" x2="315.57" y2="33.65"/><line class="cls-3" x1="318.51" y1="30.71" x2="312.63" y2="30.71"/><line class="cls-3" x1="326.34" y1="27.77" x2="326.34" y2="33.65"/><line class="cls-3" x1="329.28" y1="30.71" x2="323.4" y2="30.71"/><line class="cls-3" x1="337.12" y1="27.77" x2="337.12" y2="33.65"/><line class="cls-3" x1="340.06" y1="30.71" x2="334.17" y2="30.71"/><line class="cls-3" x1="347.89" y1="27.77" x2="347.89" y2="33.65"/><line class="cls-3" x1="350.83" y1="30.71" x2="344.95" y2="30.71"/><line class="cls-3" x1="358.66" y1="27.77" x2="358.66" y2="33.65"/><line class="cls-3" x1="361.6" y1="30.71" x2="355.72" y2="30.71"/><line class="cls-3" x1="369.43" y1="27.77" x2="369.43" y2="33.65"/><line class="cls-3" x1="372.37" y1="30.71" x2="366.49" y2="30.71"/><line class="cls-3" x1="380.2" y1="27.77" x2="380.2" y2="33.65"/><line class="cls-3" x1="383.14" y1="30.71" x2="377.26" y2="30.71"/><line class="cls-3" x1="390.97" y1="27.77" x2="390.97" y2="33.65"/><line class="cls-3" x1="393.91" y1="30.71" x2="388.03" y2="30.71"/><line class="cls-3" x1="401.74" y1="27.77" x2="401.74" y2="33.65"/><line class="cls-3" x1="404.69" y1="30.71" x2="398.8" y2="30.71"/><line class="cls-3" x1="412.52" y1="27.77" x2="412.52" y2="33.65"/><line class="cls-3" x1="415.46" y1="30.71" x2="409.58" y2="30.71"/><line class="cls-3" x1="186.31" y1="38.69" x2="186.31" y2="44.57"/><line class="cls-3" x1="189.25" y1="41.63" x2="183.37" y2="41.63"/><line class="cls-3" x1="197.08" y1="38.69" x2="197.08" y2="44.57"/><line class="cls-3" x1="200.03" y1="41.63" x2="194.14" y2="41.63"/><line class="cls-3" x1="207.86" y1="38.69" x2="207.86" y2="44.57"/><line class="cls-3" x1="210.8" y1="41.63" x2="204.91" y2="41.63"/><line class="cls-3" x1="218.63" y1="38.69" x2="218.63" y2="44.57"/><line class="cls-3" x1="221.57" y1="41.63" x2="215.69" y2="41.63"/><line class="cls-3" x1="229.4" y1="38.69" x2="229.4" y2="44.57"/><line class="cls-3" x1="232.34" y1="41.63" x2="226.46" y2="41.63"/><line class="cls-3" x1="240.17" y1="38.69" x2="240.17" y2="44.57"/><line class="cls-3" x1="243.11" y1="41.63" x2="237.23" y2="41.63"/><line class="cls-3" x1="250.94" y1="38.69" x2="250.94" y2="44.57"/><line class="cls-3" x1="253.88" y1="41.63" x2="248" y2="41.63"/><line class="cls-3" x1="261.71" y1="38.69" x2="261.71" y2="44.57"/><line class="cls-3" x1="264.66" y1="41.63" x2="258.77" y2="41.63"/><line class="cls-3" x1="272.49" y1="38.69" x2="272.49" y2="44.57"/><line class="cls-3" x1="275.43" y1="41.63" x2="269.54" y2="41.63"/><line class="cls-3" x1="283.26" y1="38.69" x2="283.26" y2="44.57"/><line class="cls-3" x1="286.2" y1="41.63" x2="280.32" y2="41.63"/><line class="cls-3" x1="294.03" y1="38.69" x2="294.03" y2="44.57"/><line class="cls-3" x1="296.97" y1="41.63" x2="291.09" y2="41.63"/><line class="cls-3" x1="304.8" y1="38.69" x2="304.8" y2="44.57"/><line class="cls-3" x1="307.74" y1="41.63" x2="301.86" y2="41.63"/><line class="cls-3" x1="315.57" y1="38.69" x2="315.57" y2="44.57"/><line class="cls-3" x1="318.51" y1="41.63" x2="312.63" y2="41.63"/><line class="cls-3" x1="326.34" y1="38.69" x2="326.34" y2="44.57"/><line class="cls-3" x1="329.28" y1="41.63" x2="323.4" y2="41.63"/><line class="cls-3" x1="337.12" y1="38.69" x2="337.12" y2="44.57"/><line class="cls-3" x1="340.06" y1="41.63" x2="334.17" y2="41.63"/><line class="cls-3" x1="347.89" y1="38.69" x2="347.89" y2="44.57"/><line class="cls-3" x1="350.83" y1="41.63" x2="344.95" y2="41.63"/><line class="cls-3" x1="358.66" y1="38.69" x2="358.66" y2="44.57"/><line class="cls-3" x1="361.6" y1="41.63" x2="355.72" y2="41.63"/><line class="cls-3" x1="369.43" y1="38.69" x2="369.43" y2="44.57"/><line class="cls-3" x1="372.37" y1="41.63" x2="366.49" y2="41.63"/><line class="cls-3" x1="380.2" y1="38.69" x2="380.2" y2="44.57"/><line class="cls-3" x1="383.14" y1="41.63" x2="377.26" y2="41.63"/><line class="cls-3" x1="390.97" y1="38.69" x2="390.97" y2="44.57"/><line class="cls-3" x1="393.91" y1="41.63" x2="388.03" y2="41.63"/><line class="cls-3" x1="401.74" y1="38.69" x2="401.74" y2="44.57"/><line class="cls-3" x1="404.69" y1="41.63" x2="398.8" y2="41.63"/><line class="cls-3" x1="412.52" y1="38.69" x2="412.52" y2="44.57"/><line class="cls-3" x1="415.46" y1="41.63" x2="409.58" y2="41.63"/><line class="cls-3" x1="186.31" y1="49.6" x2="186.31" y2="55.49"/><line class="cls-3" x1="189.25" y1="52.54" x2="183.37" y2="52.54"/><line class="cls-3" x1="197.08" y1="49.6" x2="197.08" y2="55.49"/><line class="cls-3" x1="200.03" y1="52.54" x2="194.14" y2="52.54"/><line class="cls-3" x1="207.86" y1="49.6" x2="207.86" y2="55.49"/><line class="cls-3" x1="210.8" y1="52.54" x2="204.91" y2="52.54"/><line class="cls-3" x1="218.63" y1="49.6" x2="218.63" y2="55.49"/><line class="cls-3" x1="221.57" y1="52.54" x2="215.69" y2="52.54"/><line class="cls-3" x1="229.4" y1="49.6" x2="229.4" y2="55.49"/><line class="cls-3" x1="232.34" y1="52.54" x2="226.46" y2="52.54"/><line class="cls-3" x1="240.17" y1="49.6" x2="240.17" y2="55.49"/><line class="cls-3" x1="243.11" y1="52.54" x2="237.23" y2="52.54"/><line class="cls-3" x1="250.94" y1="49.6" x2="250.94" y2="55.49"/><line class="cls-3" x1="253.88" y1="52.54" x2="248" y2="52.54"/><line class="cls-3" x1="261.71" y1="49.6" x2="261.71" y2="55.49"/><line class="cls-3" x1="264.66" y1="52.54" x2="258.77" y2="52.54"/><line class="cls-3" x1="272.49" y1="49.6" x2="272.49" y2="55.49"/><line class="cls-3" x1="275.43" y1="52.54" x2="269.54" y2="52.54"/><line class="cls-3" x1="283.26" y1="49.6" x2="283.26" y2="55.49"/><line class="cls-3" x1="286.2" y1="52.54" x2="280.32" y2="52.54"/><line class="cls-3" x1="294.03" y1="49.6" x2="294.03" y2="55.49"/><line class="cls-3" x1="296.97" y1="52.54" x2="291.09" y2="52.54"/><line class="cls-3" x1="304.8" y1="49.6" x2="304.8" y2="55.49"/><line class="cls-3" x1="307.74" y1="52.54" x2="301.86" y2="52.54"/><line class="cls-3" x1="315.57" y1="49.6" x2="315.57" y2="55.49"/><line class="cls-3" x1="318.51" y1="52.54" x2="312.63" y2="52.54"/><line class="cls-3" x1="326.34" y1="49.6" x2="326.34" y2="55.49"/><line class="cls-3" x1="329.28" y1="52.54" x2="323.4" y2="52.54"/><line class="cls-3" x1="337.12" y1="49.6" x2="337.12" y2="55.49"/><line class="cls-3" x1="340.06" y1="52.54" x2="334.17" y2="52.54"/><line class="cls-3" x1="347.89" y1="49.6" x2="347.89" y2="55.49"/><line class="cls-3" x1="350.83" y1="52.54" x2="344.95" y2="52.54"/><line class="cls-3" x1="358.66" y1="49.6" x2="358.66" y2="55.49"/><line class="cls-3" x1="361.6" y1="52.54" x2="355.72" y2="52.54"/><line class="cls-3" x1="369.43" y1="49.6" x2="369.43" y2="55.49"/><line class="cls-3" x1="372.37" y1="52.54" x2="366.49" y2="52.54"/><line class="cls-3" x1="380.2" y1="49.6" x2="380.2" y2="55.49"/><line class="cls-3" x1="383.14" y1="52.54" x2="377.26" y2="52.54"/><line class="cls-3" x1="390.97" y1="49.6" x2="390.97" y2="55.49"/><line class="cls-3" x1="393.91" y1="52.54" x2="388.03" y2="52.54"/><line class="cls-3" x1="401.74" y1="49.6" x2="401.74" y2="55.49"/><line class="cls-3" x1="404.69" y1="52.54" x2="398.8" y2="52.54"/><line class="cls-3" x1="412.52" y1="49.6" x2="412.52" y2="55.49"/><line class="cls-3" x1="415.46" y1="52.54" x2="409.58" y2="52.54"/><line class="cls-3" x1="207.86" y1="60.86" x2="207.86" y2="66.75"/><line class="cls-3" x1="210.8" y1="63.8" x2="204.91" y2="63.8"/><line class="cls-3" x1="218.63" y1="60.86" x2="218.63" y2="66.75"/><line class="cls-3" x1="221.57" y1="63.8" x2="215.69" y2="63.8"/><line class="cls-3" x1="229.4" y1="60.86" x2="229.4" y2="66.75"/><line class="cls-3" x1="232.34" y1="63.8" x2="226.46" y2="63.8"/><line class="cls-3" x1="240.17" y1="60.86" x2="240.17" y2="66.75"/><line class="cls-3" x1="243.11" y1="63.8" x2="237.23" y2="63.8"/><line class="cls-3" x1="250.94" y1="60.86" x2="250.94" y2="66.75"/><line class="cls-3" x1="253.88" y1="63.8" x2="248" y2="63.8"/><line class="cls-3" x1="261.71" y1="60.86" x2="261.71" y2="66.75"/><line class="cls-3" x1="264.66" y1="63.8" x2="258.77" y2="63.8"/><line class="cls-3" x1="272.49" y1="60.86" x2="272.49" y2="66.75"/><line class="cls-3" x1="275.43" y1="63.8" x2="269.54" y2="63.8"/><line class="cls-3" x1="283.26" y1="60.86" x2="283.26" y2="66.75"/><line class="cls-3" x1="286.2" y1="63.8" x2="280.32" y2="63.8"/><line class="cls-3" x1="294.03" y1="60.86" x2="294.03" y2="66.75"/><line class="cls-3" x1="296.97" y1="63.8" x2="291.09" y2="63.8"/><line class="cls-3" x1="304.8" y1="60.86" x2="304.8" y2="66.75"/><line class="cls-3" x1="307.74" y1="63.8" x2="301.86" y2="63.8"/><line class="cls-3" x1="315.57" y1="60.86" x2="315.57" y2="66.75"/><line class="cls-3" x1="318.51" y1="63.8" x2="312.63" y2="63.8"/><line class="cls-3" x1="326.34" y1="60.86" x2="326.34" y2="66.75"/><line class="cls-3" x1="329.28" y1="63.8" x2="323.4" y2="63.8"/><line class="cls-3" x1="337.12" y1="60.86" x2="337.12" y2="66.75"/><line class="cls-3" x1="340.06" y1="63.8" x2="334.17" y2="63.8"/><line class="cls-3" x1="347.89" y1="60.86" x2="347.89" y2="66.75"/><line class="cls-3" x1="350.83" y1="63.8" x2="344.95" y2="63.8"/><line class="cls-3" x1="358.66" y1="60.86" x2="358.66" y2="66.75"/><line class="cls-3" x1="361.6" y1="63.8" x2="355.72" y2="63.8"/><line class="cls-3" x1="369.43" y1="60.86" x2="369.43" y2="66.75"/><line class="cls-3" x1="372.37" y1="63.8" x2="366.49" y2="63.8"/><line class="cls-3" x1="380.2" y1="60.86" x2="380.2" y2="66.75"/><line class="cls-3" x1="383.14" y1="63.8" x2="377.26" y2="63.8"/><line class="cls-3" x1="390.97" y1="60.86" x2="390.97" y2="66.75"/><line class="cls-3" x1="393.91" y1="63.8" x2="388.03" y2="63.8"/><line class="cls-3" x1="401.74" y1="60.86" x2="401.74" y2="66.75"/><line class="cls-3" x1="404.69" y1="63.8" x2="398.8" y2="63.8"/><line class="cls-3" x1="412.52" y1="60.86" x2="412.52" y2="66.75"/><line class="cls-3" x1="415.46" y1="63.8" x2="409.58" y2="63.8"/><line class="cls-3" x1="207.86" y1="71.39" x2="207.86" y2="77.27"/><line class="cls-3" x1="210.8" y1="74.33" x2="204.91" y2="74.33"/><line class="cls-3" x1="218.63" y1="71.39" x2="218.63" y2="77.27"/><line class="cls-3" x1="221.57" y1="74.33" x2="215.69" y2="74.33"/><line class="cls-3" x1="229.4" y1="71.39" x2="229.4" y2="77.27"/><line class="cls-3" x1="232.34" y1="74.33" x2="226.46" y2="74.33"/><line class="cls-3" x1="240.17" y1="71.39" x2="240.17" y2="77.27"/><line class="cls-3" x1="243.11" y1="74.33" x2="237.23" y2="74.33"/><line class="cls-3" x1="250.94" y1="71.39" x2="250.94" y2="77.27"/><line class="cls-3" x1="253.88" y1="74.33" x2="248" y2="74.33"/><line class="cls-3" x1="261.71" y1="71.39" x2="261.71" y2="77.27"/><line class="cls-3" x1="264.66" y1="74.33" x2="258.77" y2="74.33"/><line class="cls-3" x1="272.49" y1="71.39" x2="272.49" y2="77.27"/><line class="cls-3" x1="275.43" y1="74.33" x2="269.54" y2="74.33"/><line class="cls-3" x1="283.26" y1="71.39" x2="283.26" y2="77.27"/><line class="cls-3" x1="286.2" y1="74.33" x2="280.32" y2="74.33"/><line class="cls-3" x1="294.03" y1="71.39" x2="294.03" y2="77.27"/><line class="cls-3" x1="296.97" y1="74.33" x2="291.09" y2="74.33"/><line class="cls-3" x1="304.8" y1="71.39" x2="304.8" y2="77.27"/><line class="cls-3" x1="307.74" y1="74.33" x2="301.86" y2="74.33"/><line class="cls-3" x1="315.57" y1="71.39" x2="315.57" y2="77.27"/><line class="cls-3" x1="318.51" y1="74.33" x2="312.63" y2="74.33"/><line class="cls-3" x1="326.34" y1="71.39" x2="326.34" y2="77.27"/><line class="cls-3" x1="329.28" y1="74.33" x2="323.4" y2="74.33"/><line class="cls-3" x1="337.12" y1="71.39" x2="337.12" y2="77.27"/><line class="cls-3" x1="340.06" y1="74.33" x2="334.17" y2="74.33"/><line class="cls-3" x1="347.89" y1="71.39" x2="347.89" y2="77.27"/><line class="cls-3" x1="350.83" y1="74.33" x2="344.95" y2="74.33"/><line class="cls-3" x1="358.66" y1="71.39" x2="358.66" y2="77.27"/><line class="cls-3" x1="361.6" y1="74.33" x2="355.72" y2="74.33"/><line class="cls-3" x1="369.43" y1="71.39" x2="369.43" y2="77.27"/><line class="cls-3" x1="372.37" y1="74.33" x2="366.49" y2="74.33"/><line class="cls-3" x1="380.2" y1="71.39" x2="380.2" y2="77.27"/><line class="cls-3" x1="383.14" y1="74.33" x2="377.26" y2="74.33"/><line class="cls-3" x1="390.97" y1="71.39" x2="390.97" y2="77.27"/><line class="cls-3" x1="393.91" y1="74.33" x2="388.03" y2="74.33"/><line class="cls-3" x1="401.74" y1="71.39" x2="401.74" y2="77.27"/><line class="cls-3" x1="404.69" y1="74.33" x2="398.8" y2="74.33"/><line class="cls-3" x1="412.52" y1="71.39" x2="412.52" y2="77.27"/><line class="cls-3" x1="415.46" y1="74.33" x2="409.58" y2="74.33"/><line class="cls-3" x1="250.94" y1="82.31" x2="250.94" y2="88.19"/><line class="cls-3" x1="253.88" y1="85.25" x2="248" y2="85.25"/><line class="cls-3" x1="261.71" y1="82.31" x2="261.71" y2="88.19"/><line class="cls-3" x1="264.66" y1="85.25" x2="258.77" y2="85.25"/><line class="cls-3" x1="272.49" y1="82.31" x2="272.49" y2="88.19"/><line class="cls-3" x1="275.43" y1="85.25" x2="269.54" y2="85.25"/><line class="cls-3" x1="283.26" y1="82.31" x2="283.26" y2="88.19"/><line class="cls-3" x1="286.2" y1="85.25" x2="280.32" y2="85.25"/><line class="cls-3" x1="294.03" y1="82.31" x2="294.03" y2="88.19"/><line class="cls-3" x1="296.97" y1="85.25" x2="291.09" y2="85.25"/><line class="cls-3" x1="304.8" y1="82.31" x2="304.8" y2="88.19"/><line class="cls-3" x1="307.74" y1="85.25" x2="301.86" y2="85.25"/><line class="cls-3" x1="315.57" y1="82.31" x2="315.57" y2="88.19"/><line class="cls-3" x1="318.51" y1="85.25" x2="312.63" y2="85.25"/><line class="cls-3" x1="326.34" y1="82.31" x2="326.34" y2="88.19"/><line class="cls-3" x1="329.28" y1="85.25" x2="323.4" y2="85.25"/><line class="cls-3" x1="337.12" y1="82.31" x2="337.12" y2="88.19"/><line class="cls-3" x1="340.06" y1="85.25" x2="334.17" y2="85.25"/><line class="cls-3" x1="347.89" y1="82.31" x2="347.89" y2="88.19"/><line class="cls-3" x1="350.83" y1="85.25" x2="344.95" y2="85.25"/><line class="cls-3" x1="358.66" y1="82.31" x2="358.66" y2="88.19"/><line class="cls-3" x1="361.6" y1="85.25" x2="355.72" y2="85.25"/><line class="cls-3" x1="369.43" y1="82.31" x2="369.43" y2="88.19"/><line class="cls-3" x1="372.37" y1="85.25" x2="366.49" y2="85.25"/><line class="cls-3" x1="380.2" y1="82.31" x2="380.2" y2="88.19"/><line class="cls-3" x1="383.14" y1="85.25" x2="377.26" y2="85.25"/><line class="cls-3" x1="390.97" y1="82.31" x2="390.97" y2="88.19"/><line class="cls-3" x1="393.91" y1="85.25" x2="388.03" y2="85.25"/><line class="cls-3" x1="401.74" y1="82.31" x2="401.74" y2="88.19"/><line class="cls-3" x1="404.69" y1="85.25" x2="398.8" y2="85.25"/><line class="cls-3" x1="412.52" y1="82.31" x2="412.52" y2="88.19"/><line class="cls-3" x1="415.46" y1="85.25" x2="409.58" y2="85.25"/><line class="cls-3" x1="250.94" y1="93.22" x2="250.94" y2="99.11"/><line class="cls-3" x1="253.88" y1="96.17" x2="248" y2="96.17"/><line class="cls-3" x1="261.71" y1="93.22" x2="261.71" y2="99.11"/><line class="cls-3" x1="264.66" y1="96.17" x2="258.77" y2="96.17"/><line class="cls-3" x1="272.49" y1="93.22" x2="272.49" y2="99.11"/><line class="cls-3" x1="275.43" y1="96.17" x2="269.54" y2="96.17"/><line class="cls-3" x1="283.26" y1="93.22" x2="283.26" y2="99.11"/><line class="cls-3" x1="286.2" y1="96.17" x2="280.32" y2="96.17"/><line class="cls-3" x1="294.03" y1="93.22" x2="294.03" y2="99.11"/><line class="cls-3" x1="296.97" y1="96.17" x2="291.09" y2="96.17"/><line class="cls-3" x1="304.8" y1="93.22" x2="304.8" y2="99.11"/><line class="cls-3" x1="307.74" y1="96.17" x2="301.86" y2="96.17"/><line class="cls-3" x1="315.57" y1="93.22" x2="315.57" y2="99.11"/><line class="cls-3" x1="318.51" y1="96.17" x2="312.63" y2="96.17"/><line class="cls-3" x1="326.34" y1="93.22" x2="326.34" y2="99.11"/><line class="cls-3" x1="329.28" y1="96.17" x2="323.4" y2="96.17"/><line class="cls-3" x1="337.12" y1="93.22" x2="337.12" y2="99.11"/><line class="cls-3" x1="340.06" y1="96.17" x2="334.17" y2="96.17"/><line class="cls-3" x1="347.89" y1="93.22" x2="347.89" y2="99.11"/><line class="cls-3" x1="350.83" y1="96.17" x2="344.95" y2="96.17"/><line class="cls-3" x1="390.97" y1="93.22" x2="390.97" y2="99.11"/><line class="cls-3" x1="393.91" y1="96.17" x2="388.03" y2="96.17"/><line class="cls-3" x1="401.74" y1="93.22" x2="401.74" y2="99.11"/><line class="cls-3" x1="404.69" y1="96.17" x2="398.8" y2="96.17"/><line class="cls-3" x1="412.52" y1="93.22" x2="412.52" y2="99.11"/><line class="cls-3" x1="415.46" y1="96.17" x2="409.58" y2="96.17"/><line class="cls-3" x1="390.97" y1="104.79" x2="390.97" y2="110.68"/><line class="cls-3" x1="393.91" y1="107.74" x2="388.03" y2="107.74"/><line class="cls-3" x1="401.74" y1="104.79" x2="401.74" y2="110.68"/><line class="cls-3" x1="404.69" y1="107.74" x2="398.8" y2="107.74"/><line class="cls-3" x1="412.52" y1="104.79" x2="412.52" y2="110.68"/><line class="cls-3" x1="415.46" y1="107.74" x2="409.58" y2="107.74"/><line class="cls-3" x1="2.01" y1="371.36" x2="-3.4" y2="371.36"/><line class="cls-3" x1="2.01" y1="381.04" x2="-3.4" y2="381.04"/><line class="cls-3" x1="9.21" y1="378.33" x2="9.21" y2="383.74"/><line class="cls-3" x1="11.91" y1="381.04" x2="6.5" y2="381.04"/><line class="cls-3" x1="2.01" y1="391.08" x2="-3.4" y2="391.08"/><line class="cls-3" x1="9.21" y1="388.37" x2="9.21" y2="393.78"/><line class="cls-3" x1="11.91" y1="391.08" x2="6.5" y2="391.08"/><line class="cls-3" x1="19.11" y1="388.37" x2="19.11" y2="393.78"/><line class="cls-3" x1="21.81" y1="391.08" x2="16.41" y2="391.08"/><line class="cls-3" x1="29.01" y1="388.37" x2="29.01" y2="393.78"/><line class="cls-3" x1="31.72" y1="391.08" x2="26.31" y2="391.08"/><line class="cls-3" x1="38.92" y1="388.37" x2="38.92" y2="393.78"/><line class="cls-3" x1="41.62" y1="391.08" x2="36.21" y2="391.08"/><line class="cls-3" x1="48.82" y1="388.37" x2="48.82" y2="393.78"/><line class="cls-3" x1="51.53" y1="391.08" x2="46.12" y2="391.08"/><line class="cls-3" x1="58.73" y1="388.37" x2="58.73" y2="393.78"/><line class="cls-3" x1="61.43" y1="391.08" x2="56.02" y2="391.08"/><line class="cls-3" x1="68.63" y1="388.37" x2="68.63" y2="393.78"/><line class="cls-3" x1="71.33" y1="391.08" x2="65.93" y2="391.08"/><line class="cls-3" x1="78.53" y1="388.37" x2="78.53" y2="393.78"/><line class="cls-3" x1="81.24" y1="391.08" x2="75.83" y2="391.08"/><line class="cls-3" x1="88.44" y1="388.37" x2="88.44" y2="393.78"/><line class="cls-3" x1="91.14" y1="391.08" x2="85.73" y2="391.08"/><line class="cls-3" x1="98.34" y1="388.37" x2="98.34" y2="393.78"/><line class="cls-3" x1="101.05" y1="391.08" x2="95.64" y2="391.08"/><line class="cls-3" x1="108.24" y1="388.37" x2="108.24" y2="393.78"/><line class="cls-3" x1="110.95" y1="391.08" x2="105.54" y2="391.08"/><line class="cls-3" x1="118.15" y1="388.37" x2="118.15" y2="393.78"/><line class="cls-3" x1="120.85" y1="391.08" x2="115.44" y2="391.08"/><line class="cls-3" x1="2.01" y1="401.11" x2="-3.4" y2="401.11"/><line class="cls-3" x1="9.21" y1="398.41" x2="9.21" y2="403.82"/><line class="cls-3" x1="11.91" y1="401.11" x2="6.5" y2="401.11"/><line class="cls-3" x1="19.11" y1="398.41" x2="19.11" y2="403.82"/><line class="cls-3" x1="21.81" y1="401.11" x2="16.41" y2="401.11"/><line class="cls-3" x1="29.01" y1="398.41" x2="29.01" y2="403.82"/><line class="cls-3" x1="31.72" y1="401.11" x2="26.31" y2="401.11"/><line class="cls-3" x1="38.92" y1="398.41" x2="38.92" y2="403.82"/><line class="cls-3" x1="41.62" y1="401.11" x2="36.21" y2="401.11"/><line class="cls-3" x1="48.82" y1="398.41" x2="48.82" y2="403.82"/><line class="cls-3" x1="51.53" y1="401.11" x2="46.12" y2="401.11"/><line class="cls-3" x1="58.73" y1="398.41" x2="58.73" y2="403.82"/><line class="cls-3" x1="61.43" y1="401.11" x2="56.02" y2="401.11"/><line class="cls-3" x1="68.63" y1="398.41" x2="68.63" y2="403.82"/><line class="cls-3" x1="71.33" y1="401.11" x2="65.93" y2="401.11"/><line class="cls-3" x1="78.53" y1="398.41" x2="78.53" y2="403.82"/><line class="cls-3" x1="81.24" y1="401.11" x2="75.83" y2="401.11"/><line class="cls-3" x1="88.44" y1="398.41" x2="88.44" y2="403.82"/><line class="cls-3" x1="91.14" y1="401.11" x2="85.73" y2="401.11"/><line class="cls-3" x1="98.34" y1="398.41" x2="98.34" y2="403.82"/><line class="cls-3" x1="101.05" y1="401.11" x2="95.64" y2="401.11"/><line class="cls-3" x1="108.24" y1="398.41" x2="108.24" y2="403.82"/><line class="cls-3" x1="110.95" y1="401.11" x2="105.54" y2="401.11"/><line class="cls-3" x1="118.15" y1="398.41" x2="118.15" y2="403.82"/><line class="cls-3" x1="120.85" y1="401.11" x2="115.44" y2="401.11"/><line class="cls-3" x1="128.05" y1="398.41" x2="128.05" y2="403.82"/><line class="cls-3" x1="130.76" y1="401.11" x2="125.35" y2="401.11"/><line class="cls-3" x1="137.96" y1="398.41" x2="137.96" y2="403.82"/><line class="cls-3" x1="140.66" y1="401.11" x2="135.25" y2="401.11"/><line class="cls-3" x1="147.86" y1="398.41" x2="147.86" y2="403.82"/><line class="cls-3" x1="150.56" y1="401.11" x2="145.16" y2="401.11"/><line class="cls-3" x1="157.76" y1="398.41" x2="157.76" y2="403.82"/><line class="cls-3" x1="160.47" y1="401.11" x2="155.06" y2="401.11"/><line class="cls-3" x1="167.67" y1="398.41" x2="167.67" y2="403.82"/><line class="cls-3" x1="170.37" y1="401.11" x2="164.96" y2="401.11"/><line class="cls-3" x1="2.01" y1="411.15" x2="-3.4" y2="411.15"/><line class="cls-3" x1="9.21" y1="408.45" x2="9.21" y2="413.86"/><line class="cls-3" x1="11.91" y1="411.15" x2="6.5" y2="411.15"/><line class="cls-3" x1="19.11" y1="408.45" x2="19.11" y2="413.86"/><line class="cls-3" x1="21.81" y1="411.15" x2="16.41" y2="411.15"/><line class="cls-3" x1="29.01" y1="408.45" x2="29.01" y2="413.86"/><line class="cls-3" x1="31.72" y1="411.15" x2="26.31" y2="411.15"/><line class="cls-3" x1="38.92" y1="408.45" x2="38.92" y2="413.86"/><line class="cls-3" x1="41.62" y1="411.15" x2="36.21" y2="411.15"/><line class="cls-3" x1="48.82" y1="408.45" x2="48.82" y2="413.86"/><line class="cls-3" x1="51.53" y1="411.15" x2="46.12" y2="411.15"/><line class="cls-3" x1="58.73" y1="408.45" x2="58.73" y2="413.86"/><line class="cls-3" x1="61.43" y1="411.15" x2="56.02" y2="411.15"/><line class="cls-3" x1="68.63" y1="408.45" x2="68.63" y2="413.86"/><line class="cls-3" x1="71.33" y1="411.15" x2="65.93" y2="411.15"/><line class="cls-3" x1="78.53" y1="408.45" x2="78.53" y2="413.86"/><line class="cls-3" x1="81.24" y1="411.15" x2="75.83" y2="411.15"/><line class="cls-3" x1="88.44" y1="408.45" x2="88.44" y2="413.86"/><line class="cls-3" x1="91.14" y1="411.15" x2="85.73" y2="411.15"/><line class="cls-3" x1="98.34" y1="408.45" x2="98.34" y2="413.86"/><line class="cls-3" x1="101.05" y1="411.15" x2="95.64" y2="411.15"/><line class="cls-3" x1="108.24" y1="408.45" x2="108.24" y2="413.86"/><line class="cls-3" x1="110.95" y1="411.15" x2="105.54" y2="411.15"/><line class="cls-3" x1="118.15" y1="408.45" x2="118.15" y2="413.86"/><line class="cls-3" x1="120.85" y1="411.15" x2="115.44" y2="411.15"/><line class="cls-3" x1="128.05" y1="408.45" x2="128.05" y2="413.86"/><line class="cls-3" x1="130.76" y1="411.15" x2="125.35" y2="411.15"/><line class="cls-3" x1="137.96" y1="408.45" x2="137.96" y2="413.86"/><line class="cls-3" x1="140.66" y1="411.15" x2="135.25" y2="411.15"/><line class="cls-3" x1="147.86" y1="408.45" x2="147.86" y2="413.86"/><line class="cls-3" x1="150.56" y1="411.15" x2="145.16" y2="411.15"/><line class="cls-3" x1="157.76" y1="408.45" x2="157.76" y2="413.86"/><line class="cls-3" x1="160.47" y1="411.15" x2="155.06" y2="411.15"/><line class="cls-3" x1="167.67" y1="408.45" x2="167.67" y2="413.86"/><line class="cls-3" x1="170.37" y1="411.15" x2="164.96" y2="411.15"/><line class="cls-3" x1="177.57" y1="408.45" x2="177.57" y2="413.86"/><line class="cls-3" x1="180.28" y1="411.15" x2="174.87" y2="411.15"/><line class="cls-3" x1="187.48" y1="408.45" x2="187.48" y2="413.86"/><line class="cls-3" x1="190.18" y1="411.15" x2="184.77" y2="411.15"/><line class="cls-3" x1="197.38" y1="408.45" x2="197.38" y2="413.86"/><line class="cls-3" x1="200.08" y1="411.15" x2="194.68" y2="411.15"/><line class="cls-3" x1="207.28" y1="408.45" x2="207.28" y2="413.86"/><line class="cls-3" x1="209.99" y1="411.15" x2="204.58" y2="411.15"/><line class="cls-3" x1="217.19" y1="408.45" x2="217.19" y2="413.86"/><line class="cls-3" x1="219.89" y1="411.15" x2="214.48" y2="411.15"/><line class="cls-3" x1="9.21" y1="418.8" x2="9.21" y2="424.21"/><line class="cls-3" x1="19.11" y1="418.8" x2="19.11" y2="424.21"/><line class="cls-3" x1="29.01" y1="418.8" x2="29.01" y2="424.21"/><line class="cls-3" x1="38.92" y1="418.8" x2="38.92" y2="424.21"/><line class="cls-3" x1="48.82" y1="418.8" x2="48.82" y2="424.21"/><line class="cls-3" x1="58.73" y1="418.8" x2="58.73" y2="424.21"/><line class="cls-3" x1="68.63" y1="418.8" x2="68.63" y2="424.21"/><line class="cls-3" x1="78.53" y1="418.8" x2="78.53" y2="424.21"/><line class="cls-3" x1="88.44" y1="418.8" x2="88.44" y2="424.21"/><line class="cls-3" x1="98.34" y1="418.8" x2="98.34" y2="424.21"/><line class="cls-3" x1="108.24" y1="418.8" x2="108.24" y2="424.21"/><line class="cls-3" x1="118.15" y1="418.8" x2="118.15" y2="424.21"/><line class="cls-3" x1="128.05" y1="418.8" x2="128.05" y2="424.21"/><line class="cls-3" x1="137.96" y1="418.8" x2="137.96" y2="424.21"/><line class="cls-3" x1="147.86" y1="418.8" x2="147.86" y2="424.21"/><line class="cls-3" x1="157.76" y1="418.8" x2="157.76" y2="424.21"/><line class="cls-3" x1="167.67" y1="418.8" x2="167.67" y2="424.21"/><line class="cls-3" x1="177.57" y1="418.8" x2="177.57" y2="424.21"/><line class="cls-3" x1="187.48" y1="418.8" x2="187.48" y2="424.21"/><line class="cls-3" x1="197.38" y1="418.8" x2="197.38" y2="424.21"/><line class="cls-3" x1="207.28" y1="418.8" x2="207.28" y2="424.21"/><line class="cls-3" x1="217.19" y1="418.8" x2="217.19" y2="424.21"/><line class="cls-3" x1="227.09" y1="418.8" x2="227.09" y2="424.21"/><line class="cls-3" x1="236.99" y1="418.8" x2="236.99" y2="424.21"/><line class="cls-3" x1="246.9" y1="418.8" x2="246.9" y2="424.21"/><line class="cls-3" x1="256.8" y1="418.8" x2="256.8" y2="424.21"/><line class="cls-3" x1="266.71" y1="418.8" x2="266.71" y2="424.21"/><line class="cls-3" x1="276.61" y1="418.8" x2="276.61" y2="424.21"/><line class="cls-3" x1="286.51" y1="418.8" x2="286.51" y2="424.21"/><line class="cls-3" x1="296.42" y1="418.8" x2="296.42" y2="424.21"/></g></g></svg>