<svg xmlns="http://www.w3.org/2000/svg" viewBox="0 0 418.92 418.92"><defs><style>.cls-1{fill:#ce632d;}.cls-2{opacity:0.15;}.cls-3{fill:#46210f;}</style></defs><g id="Sentences"><rect class="cls-1" width="418.92" height="418.92"/><g class="cls-2"><rect class="cls-3" x="-5.92" y="4.96" width="437.65" height="1.05"/><rect class="cls-3" x="-5.92" y="13.81" width="437.65" height="1.05"/><rect class="cls-3" x="-5.92" y="22.65" width="437.65" height="1.05"/><rect class="cls-3" x="-5.92" y="31.5" width="437.65" height="1.05"/><rect class="cls-3" x="-5.92" y="40.34" width="437.65" height="1.05"/><rect class="cls-3" x="-5.92" y="49.19" width="437.65" height="1.05"/><rect class="cls-3" x="-5.92" y="58.03" width="437.65" height="1.05"/><rect class="cls-3" x="-5.92" y="66.88" width="437.65" height="1.05"/><rect class="cls-3" x="-5.92" y="75.72" width="437.65" height="1.05"/><rect class="cls-3" x="-5.92" y="84.57" width="437.65" height="1.05"/><rect class="cls-3" x="-5.92" y="93.41" width="437.65" height="1.05"/><rect class="cls-3" x="-5.92" y="102.26" width="437.65" height="1.05"/><rect class="cls-3" x="-5.92" y="111.1" width="437.65" height="1.05"/><rect class="cls-3" x="-5.92" y="119.95" width="437.65" height="1.05"/><rect class="cls-3" x="-5.92" y="128.79" width="437.65" height="1.05"/><rect class="cls-3" x="-5.92" y="137.64" width="437.65" height="1.05"/><rect class="cls-3" x="-5.92" y="146.48" width="437.65" height="1.05"/><rect class="cls-3" x="-5.92" y="155.33" width="437.65" height="1.05"/><rect class="cls-3" x="-5.92" y="164.17" width="437.65" height="1.05"/><rect class="cls-3" x="-5.92" y="173.02" width="437.65" height="1.05"/><rect class="cls-3" x="-5.92" y="181.86" width="437.65" height="1.05"/><rect class="cls-3" x="-5.92" y="190.71" width="437.65" height="1.05"/><rect class="cls-3" x="-5.92" y="199.55" width="437.65" height="1.05"/><rect class="cls-3" x="-5.92" y="208.4" width="437.65" height="1.05"/><rect class="cls-3" x="-5.92" y="217.25" width="437.65" height="1.05"/><rect class="cls-3" x="-5.92" y="226.09" width="437.65" height="1.05"/><rect class="cls-3" x="-5.92" y="234.94" width="437.65" height="1.05"/><rect class="cls-3" x="-5.92" y="243.78" width="437.65" height="1.05"/><rect class="cls-3" x="-5.92" y="252.63" width="437.65" height="1.05"/><rect class="cls-3" x="-5.92" y="261.47" width="437.65" height="1.05"/><rect class="cls-3" x="-5.92" y="270.32" width="437.65" height="1.05"/></g><g class="cls-2"><rect class="cls-3" x="-5.92" y="279.16" width="437.65" height="1.05"/><rect class="cls-3" x="-5.92" y="288.01" width="437.65" height="1.05"/><rect class="cls-3" x="-5.92" y="296.85" width="437.65" height="1.05"/><rect class="cls-3" x="-5.92" y="305.7" width="437.65" height="1.05"/><rect class="cls-3" x="-5.92" y="314.54" width="437.65" height="1.05"/><rect class="cls-3" x="-5.92" y="323.39" width="437.65" height="1.05"/><rect class="cls-3" x="-5.92" y="332.23" width="437.65" height="1.05"/><rect class="cls-3" x="-5.92" y="341.08" width="437.65" height="1.05"/><rect class="cls-3" x="-5.92" y="349.92" width="437.65" height="1.05"/><rect class="cls-3" x="-5.92" y="358.77" width="437.65" height="1.05"/><rect class="cls-3" x="-5.92" y="367.61" width="437.65" height="1.05"/><rect class="cls-3" x="-5.92" y="376.46" width="437.65" height="1.05"/><rect class="cls-3" x="-5.92" y="385.3" width="437.65" height="1.05"/><rect class="cls-3" x="-5.92" y="394.15" width="437.65" height="1.05"/><rect class="cls-3" x="-5.92" y="402.99" width="437.65" height="1.05"/><rect class="cls-3" x="-5.92" y="411.84" width="437.65" height="1.05"/></g><path class="cls-1" d="M240.61,121.47C179.5,63.34,98.62,28.85,20.5,71.94c-39.39,13.62-73.12,48.24-57.27,91.79,14.11,33.78,22.8,71.39,3.52,104.54C-77.64,355.38-4.16,462.82,86.4,478.49c46.66,3.64,67.67-51.95,90.52-83.41,39.75-79.48,142.34-188,64.8-272.5"/><path class="cls-1" d="M370.71,158.71c26.21-.09,19.84-36.44,30.51-53,30.9-57.47-49.68-65.85-85.62-83-25.8-15-56.34,2.65-39.1,32.4C286,66,304.34,61.62,311.73,75.29c5.76,18.81,13.84,36.58,28.18,50.54,11.39,10,14.12,29.21,30.34,32.72"/></g></svg>