<svg xmlns="http://www.w3.org/2000/svg" viewBox="0 0 418.92 418.92"><defs><style>.cls-1{fill:#ce632d;}.cls-2{opacity:0.15;}.cls-3{fill:#46210f;}</style></defs><g id="Sentences"><rect class="cls-1" width="418.92" height="418.92"/><g class="cls-2"><rect class="cls-3" x="-5.92" y="2.75" width="437.65" height="1.05"/><rect class="cls-3" x="-5.92" y="11.59" width="437.65" height="1.05"/><rect class="cls-3" x="-5.92" y="20.44" width="437.65" height="1.05"/><rect class="cls-3" x="-5.92" y="29.28" width="437.65" height="1.05"/><rect class="cls-3" x="-5.92" y="38.13" width="437.65" height="1.05"/><rect class="cls-3" x="-5.92" y="46.97" width="437.65" height="1.05"/><rect class="cls-3" x="-5.92" y="55.82" width="437.65" height="1.05"/><rect class="cls-3" x="-5.92" y="64.66" width="437.65" height="1.05"/><rect class="cls-3" x="-5.92" y="73.51" width="437.65" height="1.05"/><rect class="cls-3" x="-5.92" y="82.35" width="437.65" height="1.05"/><rect class="cls-3" x="-5.92" y="91.2" width="437.65" height="1.05"/><rect class="cls-3" x="-5.92" y="100.04" width="437.65" height="1.05"/><rect class="cls-3" x="-5.92" y="108.89" width="437.65" height="1.05"/><rect class="cls-3" x="-5.92" y="117.74" width="437.65" height="1.05"/><rect class="cls-3" x="-5.92" y="126.58" width="437.65" height="1.05"/><rect class="cls-3" x="-5.92" y="135.43" width="437.65" height="1.05"/><rect class="cls-3" x="-5.92" y="144.27" width="437.65" height="1.05"/><rect class="cls-3" x="-5.92" y="153.12" width="437.65" height="1.05"/><rect class="cls-3" x="-5.92" y="161.96" width="437.65" height="1.05"/><rect class="cls-3" x="-5.92" y="170.81" width="437.65" height="1.05"/><rect class="cls-3" x="-5.92" y="179.65" width="437.65" height="1.05"/><rect class="cls-3" x="-5.92" y="188.5" width="437.65" height="1.05"/><rect class="cls-3" x="-5.92" y="197.34" width="437.65" height="1.05"/></g><g class="cls-2"><rect class="cls-3" x="-5.92" y="206.19" width="437.65" height="1.05"/><rect class="cls-3" x="-5.92" y="215.03" width="437.65" height="1.05"/><rect class="cls-3" x="-5.92" y="223.88" width="437.65" height="1.05"/><rect class="cls-3" x="-5.92" y="232.72" width="437.65" height="1.05"/><rect class="cls-3" x="-5.92" y="241.57" width="437.65" height="1.05"/><rect class="cls-3" x="-5.92" y="250.41" width="437.65" height="1.05"/><rect class="cls-3" x="-5.92" y="259.26" width="437.65" height="1.05"/><rect class="cls-3" x="-5.92" y="268.1" width="437.65" height="1.05"/><rect class="cls-3" x="-5.92" y="276.95" width="437.65" height="1.05"/><rect class="cls-3" x="-5.92" y="285.79" width="437.65" height="1.05"/><rect class="cls-3" x="-5.92" y="294.64" width="437.65" height="1.05"/><rect class="cls-3" x="-5.92" y="303.48" width="437.65" height="1.05"/><rect class="cls-3" x="-5.92" y="312.33" width="437.65" height="1.05"/><rect class="cls-3" x="-5.92" y="321.17" width="437.65" height="1.05"/><rect class="cls-3" x="-5.92" y="330.02" width="437.65" height="1.05"/><rect class="cls-3" x="-5.92" y="338.87" width="437.65" height="1.05"/><rect class="cls-3" x="-5.92" y="347.71" width="437.65" height="1.05"/><rect class="cls-3" x="-5.92" y="356.56" width="437.65" height="1.05"/><rect class="cls-3" x="-5.92" y="365.4" width="437.65" height="1.05"/><rect class="cls-3" x="-5.92" y="374.25" width="437.65" height="1.05"/><rect class="cls-3" x="-5.92" y="383.09" width="437.65" height="1.05"/><rect class="cls-3" x="-5.92" y="391.94" width="437.65" height="1.05"/><rect class="cls-3" x="-5.92" y="400.78" width="437.65" height="1.05"/><rect class="cls-3" x="-5.92" y="409.63" width="437.65" height="1.05"/><rect class="cls-3" x="-5.92" y="418.47" width="437.65" height="1.05"/></g><path class="cls-1" d="M149.82,107.09c-26,80.24-22.12,168.08,50.51,219.88,29.31,29.64,75.12,45.08,107.53,12,24.36-27.33,54.51-51.43,92.74-48.38,97.74,2.37,162.84-110.35,137.82-198.78-16.9-43.65-76.1-38.55-114.35-45.55C335.22,44.74,193-.83,150.34,105.61"/><path class="cls-1" d="M112.49,241.1c-17.79-19.24-40.26,10-59.64,13.35-63.24,16.1-14.91,81.12-3.23,119.19,6.42,29.13,40.06,39.71,50.31,6.89,1.56-14.29-14.07-24.87-9-39.56,10-17,17.59-34.94,18.17-54.94-.32-15.18,12-30.16,3.58-44.48"/></g></svg>