<svg xmlns="http://www.w3.org/2000/svg" viewBox="0 0 418.92 418.92"><defs><style>.cls-1{fill:#c89533;}.cls-2{opacity:0.15;}.cls-3,.cls-4{fill:none;stroke:#431;stroke-miterlimit:10;stroke-width:1.5px;}.cls-4{stroke-dasharray:5 5;}</style></defs><g id="Sentences"><rect class="cls-1" width="418.92" height="418.92"/><g class="cls-2"><path class="cls-3" d="M38-67.25a194.48,194.48,0,0,0-10.76,29c-28.62,72,59,87.14,111.56,99.07,44.05,12,88.56,23.16,133.89,28,95.61-2.2,116-48,127.49-104.55"/><path class="cls-3" d="M97.31,480.8c13.57-44.94,79.77-69.21,113.69-101.15,25.79-21.43,40.52-53.2,67.73-73.15a159,159,0,0,1,51.84-24.94c12.69-3.58,33.49-11,48.28-24.07s43.39-43.49,57.82-58.23,54.46-27.78,65.27-43.4,18.6-35.21,18.6-35.21"/><path class="cls-3" d="M125.87,505.81C113.65,453,194.93,426.82,226,395.5c66.73-66.24,50.25-69.43,144.93-103.83,22.21-10.22,39.73-34.53,61-52.46,14.31-12.07,40.31-24.73,60.39-31.35s54.12-24.38,55.64-31.48"/><path class="cls-3" d="M119-160.34a115.42,115.42,0,0,1-9.93,29.87C93.44-87.73,48.86-23.5,111,8c52.61,22.6,107.86,44,165.37,44.91C336.08,48.06,354,4.11,366-45.22"/><path class="cls-3" d="M107.69,489.89c1.78-12.32,8.16-25,20.49-37.53,39.24-30.39,84.28-54.87,116.51-93.45,26.75-45.28,74-61.42,119.58-80.38,23.22-12,43.22-35.07,62.73-55.84,5.93-6.31,13.92-14.44,22.77-19.1s45.82-18.32,55.08-31.51,18.92-37.8,18.92-37.8"/><path class="cls-3" d="M497.77,368.7c-23.07,15.54-45.83,34.46-69.54,40.46-99.36,16.57-83.73,22.72-161.42,75.68-36.22,25.14-120.9,36-118.52,90.22"/><path class="cls-3" d="M496,351.57c-23.47,16.15-46.84,35.86-71.86,43.47-48.24,10.34-97.68,17.59-132.22,57.24-38.73,32.05-87.48,47.92-131.59,70.65-14.41,10.08-23,21.37-27,33.16"/><path class="cls-3" d="M81.34-116.73C57.43-69.28,24-13.42,75.37,20.74c61.48,24.74,125.5,44.79,191.07,53.58C349.54,79.52,370.73,29.24,384.28-29"/><path class="cls-3" d="M89.86,474.27c15.68-47,72.21-62.3,107.61-92.94,48.73-41.69,67-93.88,136.75-112.6,40.22-13.54,80.14-63.59,105.79-86.41,13.95-12.41,41.05-24.68,52.95-35s17.62-32.51,17.62-32.51"/><path class="cls-3" d="M12.5-43.11C-3.88,9.33,8.24,54.16,102.89,68.15c60.75,11.3,121.35,28.15,182.9,32.36C381.29,90.29,403.35,48,413.83-3.84"/><path class="cls-3" d="M82.65,468c20.77-48.2,80.49-65.56,119-98.86,38.29-44.26,72.3-94.46,131.9-111.61,39.52-14.63,64.94-59.82,90.4-82.55,20.34-18.16,54.78-33.22,68.3-48.47a62.44,62.44,0,0,0,9.53-14.67"/><path class="cls-3" d="M-9.88-29.75c-5.57,25.41-1.67,50.81,21.25,76.41C43.21,76.9,87.21,85,128.55,88.11c67.54,3.49,138.09,35.86,203.53,14.6,67.49-18.18,87.65-52.85,96.58-93.57"/><path class="cls-4" d="M-37.74-29.49c-7.11,43.19,3,86.2,48.78,114.92,23.83,16.41,50.44,42.91,81.8,36.33,49.92-11.47,100.37-6.65,150.35,3.27,82.48,13.65,176.25-14.17,220.42-81.94"/></g></g></svg>