<svg xmlns="http://www.w3.org/2000/svg" xmlns:xlink="http://www.w3.org/1999/xlink" viewBox="0 0 418.92 418.92"><defs><style>.cls-1{fill:none;}.cls-2{fill:#283f47;}.cls-3{opacity:0.15;}.cls-4{clip-path:url(#clip-path);}.cls-5{fill:#77bad2;}.cls-6{clip-path:url(#clip-path-2);}</style><clipPath id="clip-path"><path class="cls-1" d="M-82.94-67.28c2.51,6.9,7.22,13.08,14,18.37,8.09,6.3,19.21,11.41,34,15.63l1,.29a15.16,15.16,0,0,0,1.65.37l1.05.18c1.55.26,2.71.5,3.56.7-.54,2.31-3.19,6.4-9,14.12-4.4,5.82-9.4,12.41-13.22,20l-.08.15-.18.38s-.05.09-.07.14c-6.15,13.13-7,28.14-2.49,43.38a85.69,85.69,0,0,0,22,35.91,87,87,0,0,0,32.3,20.25,79.69,79.69,0,0,0,32.11,4.26h0a77.46,77.46,0,0,0,9.23-1.22l1.51-.11h0a15.69,15.69,0,0,0,4.85-1.14l2.9-1.2C67,97,84.37,95.06,101,93.86c5.76-.42,11.55-.74,17.69-1.09h0c6-.34,12.22-.69,18.45-1.14,16.35-1.18,28.75-2.81,40.23-5.28,24.32-5.22,44.11-14.37,60.48-28,4.84-3.75,9.51-7.13,14-10.41C268.6,35.84,284.4,24.39,290.06,6.29a43.44,43.44,0,0,0,1.84-16.56,52.75,52.75,0,0,0-4.36-16.63c-3.89-9-10.59-18.73-20.46-29.86l-.79-.89A12.48,12.48,0,0,0,264.9-59l-.94-.78c-.44-.36-2.08-2-4.48-7.09-2-4.22-3.84-9.43-5.63-14.46-3.48-9.77-7.08-19.88-13.25-29-9.84-14.48-24.31-22.92-41.85-24.39l-.24,0-.62,0-.24,0c-5.88-.31-11.54-2.34-21.63-11.49l-.17-.15-.41-.36-.16-.14c-11.91-10.08-23.58-17.24-35.67-21.89A89,89,0,0,0,101-174.63l-1.62.13c-22.44,2-40.81,12.17-57,21.11-14.28,7.88-26.6,14.68-40.08,16.22H2.25l-.22,0H1.94A172.15,172.15,0,0,0-47-123c-28.66,13.47-36.3,29.49-37.65,40.56A33,33,0,0,0-82.94-67.28Zm238-23.85a90.72,90.72,0,0,0,32.49,9.8c2.39,3.93,4.74,10.52,7,16.92a182.35,182.35,0,0,0,8.75,21.51A70.19,70.19,0,0,0,218.85-22c7.63,8.78,10.07,13.49,10.84,15.48a44.73,44.73,0,0,1-4.4,4c-3.42,2.79-7.85,6-12.54,9.4s-10.31,7.47-16.12,12l-.2.16-.5.4-.2.16c-8.28,7-18.47,11.55-32.07,14.47-8.14,1.75-17.48,2.94-30.27,3.87-5.65.41-11.38.73-17.44,1.08h-.07c-6.12.34-12.45.7-18.77,1.16-20.25,1.47-44,4.16-66.91,13l-.51,0c-4.53.33-10.17-3.53-13.62-6.93C7.43,37.7,5.24,27.07,7,22.75a98,98,0,0,1,7.87-11.36c5.18-6.83,11-14.58,15-23.83a53.77,53.77,0,0,0,4.53-19.09,49,49,0,0,0-3-19l0-.08-.06-.16,0-.06a48.53,48.53,0,0,0-9-14.91A52.35,52.35,0,0,0,8.23-76.91,66.61,66.61,0,0,0-2.16-81.46,92.5,92.5,0,0,1,9.38-83.75a134.61,134.61,0,0,0,36.85-9.92A289.59,289.59,0,0,0,74.85-108c11.81-6.51,22-12.14,29.75-12.84l.27,0c10.23-.74,22.2,9.24,26.36,12.74A116.11,116.11,0,0,0,155.09-91.13Z"/></clipPath><clipPath id="clip-path-2"><path class="cls-1" d="M591.09,343.46c-9.4-19.7-25.1-36.9-46.65-51.13-30.39-20.06-66.94-31-102.3-41.6-25.44-7.63-54.27-16.27-67-25.62q-1.92-1.41-3.93-2.67c-32.64-20.38-65.12-34.32-96.55-41.43a229.74,229.74,0,0,0-50.61-5.77,210.31,210.31,0,0,0-44.93,4.82c-52.45,11.47-99.06,42.55-142.48,95C1.18,317.93-27,368.11-54.21,416.63c-19.16,34.14-37.25,66.38-54.7,89.74l-18.59,24.89,28.66,16.14,47.77,26.9,28.66,16.14,18.59-24.89c21.61-28.93,41.33-64.07,62.21-101.27,24.21-43.15,49.25-87.75,77.45-122.67,26-32.18,50.86-51.05,73.92-56.09A66.36,66.36,0,0,1,224.21,284c20.19,0,44.48,8.65,72.18,25.7,13.79,9.78,30.63,18.41,51.44,26.38,17.62,6.74,35.84,12.2,53.45,17.48,24.82,7.43,52.94,15.86,67.36,25.37,2.52,1.67,5.75,4.11,6.76,6.26.88,1.86,1,5.15.37,9.51l-4.32,29.42,33.89,3.75,56.48,6.24,33.89,3.75L600,408.42C603.47,384.93,600.46,363.08,591.09,343.46Z"/></clipPath></defs><g id="Sentences"><rect class="cls-2" width="418.92" height="418.92"/><g class="cls-3"><g class="cls-4"><ellipse class="cls-5" cx="141.75" cy="115.37" rx="1.61" ry="1.39" transform="translate(-7.97 10.56) rotate(-4.15)"/><ellipse class="cls-5" cx="141.16" cy="107.17" rx="1.61" ry="1.39" transform="translate(-7.38 10.49) rotate(-4.15)"/><ellipse class="cls-5" cx="140.57" cy="98.98" rx="1.61" ry="1.39" transform="translate(-6.79 10.43) rotate(-4.15)"/><ellipse class="cls-5" cx="139.97" cy="90.79" rx="1.61" ry="1.39" transform="translate(-6.2 10.36) rotate(-4.15)"/><ellipse class="cls-5" cx="139.38" cy="82.59" rx="1.61" ry="1.39" transform="translate(-5.61 10.3) rotate(-4.15)"/><ellipse class="cls-5" cx="138.78" cy="74.4" rx="1.61" ry="1.39" transform="translate(-5.02 10.24) rotate(-4.15)"/><ellipse class="cls-5" cx="138.19" cy="66.21" rx="1.61" ry="1.39" transform="translate(-4.43 10.17) rotate(-4.15)"/><ellipse class="cls-5" cx="137.59" cy="58.01" rx="1.61" ry="1.39" transform="matrix(1, -0.07, 0.07, 1, -3.84, 10.11)"/><ellipse class="cls-5" cx="137" cy="49.82" rx="1.61" ry="1.39" transform="translate(-3.25 10.04) rotate(-4.15)"/><ellipse class="cls-5" cx="136.41" cy="41.63" rx="1.61" ry="1.39" transform="translate(-2.65 9.98) rotate(-4.15)"/><ellipse class="cls-5" cx="135.81" cy="33.43" rx="1.61" ry="1.39" transform="translate(-2.06 9.91) rotate(-4.15)"/><ellipse class="cls-5" cx="135.22" cy="25.24" rx="1.61" ry="1.39" transform="translate(-1.47 9.85) rotate(-4.15)"/><ellipse class="cls-5" cx="134.62" cy="17.05" rx="1.61" ry="1.39" transform="translate(-0.88 9.78) rotate(-4.15)"/><ellipse class="cls-5" cx="134.03" cy="8.85" rx="1.61" ry="1.39" transform="translate(-0.29 9.72) rotate(-4.15)"/><ellipse class="cls-5" cx="152.31" cy="106.36" rx="1.61" ry="1.39" transform="translate(-7.3 11.3) rotate(-4.15)"/><ellipse class="cls-5" cx="151.72" cy="98.17" rx="1.61" ry="1.39" transform="translate(-6.7 11.23) rotate(-4.15)"/><ellipse class="cls-5" cx="151.12" cy="89.98" rx="1.61" ry="1.39" transform="translate(-6.11 11.17) rotate(-4.15)"/><ellipse class="cls-5" cx="150.53" cy="81.78" rx="1.61" ry="1.39" transform="translate(-5.52 11.1) rotate(-4.15)"/><ellipse class="cls-5" cx="149.94" cy="73.59" rx="1.61" ry="1.39" transform="translate(-4.93 11.04) rotate(-4.15)"/><ellipse class="cls-5" cx="149.34" cy="65.4" rx="1.61" ry="1.39" transform="translate(-4.34 10.98) rotate(-4.15)"/><ellipse class="cls-5" cx="148.75" cy="57.2" rx="1.61" ry="1.39" transform="translate(-3.75 10.91) rotate(-4.15)"/><ellipse class="cls-5" cx="148.15" cy="49.01" rx="1.61" ry="1.39" transform="translate(-3.16 10.85) rotate(-4.15)"/><ellipse class="cls-5" cx="147.56" cy="40.82" rx="1.61" ry="1.39" transform="translate(-2.57 10.78) rotate(-4.15)"/><ellipse class="cls-5" cx="146.96" cy="32.63" rx="1.61" ry="1.39" transform="translate(-1.98 10.72) rotate(-4.15)"/><ellipse class="cls-5" cx="146.37" cy="24.43" rx="1.61" ry="1.39" transform="translate(-1.38 10.65) rotate(-4.15)"/><ellipse class="cls-5" cx="145.78" cy="16.24" rx="1.61" ry="1.39" transform="translate(-0.79 10.59) rotate(-4.15)"/><ellipse class="cls-5" cx="145.18" cy="8.05" rx="1.61" ry="1.39" transform="translate(-0.2 10.52) rotate(-4.15)"/><ellipse class="cls-5" cx="163.46" cy="105.56" rx="1.61" ry="1.39" transform="translate(-7.21 12.1) rotate(-4.15)"/><ellipse class="cls-5" cx="162.87" cy="97.36" rx="1.61" ry="1.39" transform="translate(-6.62 12.04) rotate(-4.15)"/><ellipse class="cls-5" cx="162.28" cy="89.17" rx="1.61" ry="1.39" transform="translate(-6.03 11.97) rotate(-4.15)"/><ellipse class="cls-5" cx="161.68" cy="80.98" rx="1.61" ry="1.39" transform="translate(-5.43 11.91) rotate(-4.15)"/><ellipse class="cls-5" cx="161.09" cy="72.78" rx="1.61" ry="1.39" transform="translate(-4.84 11.84) rotate(-4.15)"/><ellipse class="cls-5" cx="160.49" cy="64.59" rx="1.61" ry="1.39" transform="translate(-4.25 11.78) rotate(-4.15)"/><ellipse class="cls-5" cx="159.9" cy="56.4" rx="1.61" ry="1.39" transform="translate(-3.66 11.72) rotate(-4.15)"/><ellipse class="cls-5" cx="159.3" cy="48.2" rx="1.61" ry="1.39" transform="translate(-3.07 11.65) rotate(-4.15)"/><ellipse class="cls-5" cx="158.71" cy="40.01" rx="1.61" ry="1.39" transform="translate(-2.48 11.59) rotate(-4.15)"/><ellipse class="cls-5" cx="158.12" cy="31.82" rx="1.61" ry="1.39" transform="translate(-1.89 11.52) rotate(-4.15)"/><ellipse class="cls-5" cx="157.52" cy="23.62" rx="1.61" ry="1.39" transform="translate(-1.3 11.46) rotate(-4.15)"/><ellipse class="cls-5" cx="156.93" cy="15.43" rx="1.61" ry="1.39" transform="translate(-0.71 11.39) rotate(-4.15)"/><ellipse class="cls-5" cx="156.33" cy="7.24" rx="1.61" ry="1.39" transform="translate(-0.11 11.33) rotate(-4.15)"/><ellipse class="cls-5" cx="174.62" cy="104.75" rx="1.61" ry="1.39" transform="translate(-7.12 12.91) rotate(-4.15)"/><ellipse class="cls-5" cx="174.02" cy="96.55" rx="1.61" ry="1.39" transform="translate(-6.53 12.84) rotate(-4.15)"/><ellipse class="cls-5" cx="173.43" cy="88.36" rx="1.61" ry="1.39" transform="translate(-5.94 12.78) rotate(-4.15)"/><ellipse class="cls-5" cx="172.83" cy="80.17" rx="1.61" ry="1.39" transform="translate(-5.35 12.71) rotate(-4.15)"/><ellipse class="cls-5" cx="172.24" cy="71.97" rx="1.61" ry="1.39" transform="translate(-4.76 12.65) rotate(-4.15)"/><ellipse class="cls-5" cx="171.65" cy="63.78" rx="1.61" ry="1.39" transform="translate(-4.16 12.59) rotate(-4.15)"/><ellipse class="cls-5" cx="171.05" cy="55.59" rx="1.61" ry="1.39" transform="matrix(1, -0.07, 0.07, 1, -3.57, 12.52)"/><ellipse class="cls-5" cx="170.46" cy="47.39" rx="1.61" ry="1.39" transform="translate(-2.98 12.46) rotate(-4.15)"/><ellipse class="cls-5" cx="169.86" cy="39.2" rx="1.61" ry="1.39" transform="translate(-2.39 12.39) rotate(-4.15)"/><ellipse class="cls-5" cx="169.27" cy="31.01" rx="1.61" ry="1.39" transform="translate(-1.8 12.33) rotate(-4.15)"/><ellipse class="cls-5" cx="168.67" cy="22.81" rx="1.61" ry="1.39" transform="translate(-1.21 12.26) rotate(-4.15)"/><ellipse class="cls-5" cx="168.08" cy="14.62" rx="1.61" ry="1.39" transform="translate(-0.62 12.2) rotate(-4.15)"/><ellipse class="cls-5" cx="167.49" cy="6.43" rx="1.61" ry="1.39" transform="translate(-0.03 12.13) rotate(-4.15)"/><ellipse class="cls-5" cx="185.77" cy="103.94" rx="1.61" ry="1.39" transform="matrix(1, -0.07, 0.07, 1, -7.03, 13.71)"/><ellipse class="cls-5" cx="185.17" cy="95.74" rx="1.61" ry="1.39" transform="translate(-6.44 13.65) rotate(-4.15)"/><ellipse class="cls-5" cx="184.58" cy="87.55" rx="1.61" ry="1.39" transform="translate(-5.85 13.58) rotate(-4.15)"/><ellipse class="cls-5" cx="183.99" cy="79.36" rx="1.61" ry="1.39" transform="matrix(1, -0.07, 0.07, 1, -5.26, 13.52)"/><ellipse class="cls-5" cx="183.39" cy="71.16" rx="1.61" ry="1.39" transform="translate(-4.67 13.45) rotate(-4.15)"/><ellipse class="cls-5" cx="182.8" cy="62.97" rx="1.61" ry="1.39" transform="translate(-4.08 13.39) rotate(-4.15)"/><ellipse class="cls-5" cx="182.2" cy="54.78" rx="1.61" ry="1.39" transform="translate(-3.49 13.33) rotate(-4.15)"/><ellipse class="cls-5" cx="181.61" cy="46.58" rx="1.61" ry="1.39" transform="translate(-2.89 13.26) rotate(-4.15)"/><ellipse class="cls-5" cx="181.01" cy="38.39" rx="1.61" ry="1.39" transform="translate(-2.3 13.2) rotate(-4.15)"/><ellipse class="cls-5" cx="180.42" cy="30.2" rx="1.61" ry="1.39" transform="translate(-1.71 13.13) rotate(-4.15)"/><ellipse class="cls-5" cx="179.83" cy="22.01" rx="1.61" ry="1.39" transform="translate(-1.12 13.07) rotate(-4.15)"/><ellipse class="cls-5" cx="179.23" cy="13.81" rx="1.61" ry="1.39" transform="translate(-0.53 13) rotate(-4.15)"/><ellipse class="cls-5" cx="178.64" cy="5.62" rx="1.61" ry="1.39" transform="translate(0.06 12.94) rotate(-4.15)"/><ellipse class="cls-5" cx="196.92" cy="103.13" rx="1.61" ry="1.39" transform="translate(-6.94 14.52) rotate(-4.15)"/><ellipse class="cls-5" cx="196.33" cy="94.94" rx="1.61" ry="1.39" transform="translate(-6.35 14.45) rotate(-4.15)"/><ellipse class="cls-5" cx="195.73" cy="86.74" rx="1.61" ry="1.39" transform="translate(-5.76 14.39) rotate(-4.15)"/><ellipse class="cls-5" cx="195.14" cy="78.55" rx="1.61" ry="1.39" transform="translate(-5.17 14.32) rotate(-4.15)"/><ellipse class="cls-5" cx="194.54" cy="70.36" rx="1.61" ry="1.39" transform="translate(-4.58 14.26) rotate(-4.15)"/><ellipse class="cls-5" cx="193.95" cy="62.16" rx="1.61" ry="1.39" transform="translate(-3.99 14.19) rotate(-4.15)"/><ellipse class="cls-5" cx="193.36" cy="53.97" rx="1.61" ry="1.39" transform="translate(-3.4 14.13) rotate(-4.15)"/><ellipse class="cls-5" cx="192.76" cy="45.78" rx="1.61" ry="1.39" transform="matrix(1, -0.07, 0.07, 1, -2.81, 14.07)"/><ellipse class="cls-5" cx="192.17" cy="37.58" rx="1.61" ry="1.39" transform="matrix(1, -0.07, 0.07, 1, -2.22, 14)"/><ellipse class="cls-5" cx="191.57" cy="29.39" rx="1.61" ry="1.39" transform="translate(-1.62 13.94) rotate(-4.15)"/><ellipse class="cls-5" cx="190.98" cy="21.2" rx="1.61" ry="1.39" transform="matrix(1, -0.07, 0.07, 1, -1.03, 13.87)"/><ellipse class="cls-5" cx="190.38" cy="13" rx="1.61" ry="1.39" transform="translate(-0.44 13.81) rotate(-4.15)"/><ellipse class="cls-5" cx="189.79" cy="4.81" rx="1.61" ry="1.39" transform="translate(0.15 13.74) rotate(-4.15)"/><ellipse class="cls-5" cx="208.07" cy="102.32" rx="1.61" ry="1.39" transform="translate(-6.86 15.32) rotate(-4.15)"/><ellipse class="cls-5" cx="207.48" cy="94.13" rx="1.61" ry="1.39" transform="translate(-6.27 15.26) rotate(-4.15)"/><ellipse class="cls-5" cx="206.88" cy="85.93" rx="1.61" ry="1.39" transform="translate(-5.67 15.19) rotate(-4.15)"/><ellipse class="cls-5" cx="206.29" cy="77.74" rx="1.61" ry="1.39" transform="translate(-5.08 15.13) rotate(-4.15)"/><ellipse class="cls-5" cx="205.7" cy="69.55" rx="1.61" ry="1.39" transform="translate(-4.49 15.06) rotate(-4.15)"/><ellipse class="cls-5" cx="205.1" cy="61.35" rx="1.61" ry="1.39" transform="translate(-3.9 15) rotate(-4.15)"/><ellipse class="cls-5" cx="204.51" cy="53.16" rx="1.61" ry="1.39" transform="translate(-3.31 14.93) rotate(-4.15)"/><ellipse class="cls-5" cx="203.91" cy="44.97" rx="1.61" ry="1.39" transform="translate(-2.72 14.87) rotate(-4.15)"/><ellipse class="cls-5" cx="203.32" cy="36.77" rx="1.61" ry="1.39" transform="translate(-2.13 14.81) rotate(-4.15)"/><ellipse class="cls-5" cx="202.72" cy="28.58" rx="1.61" ry="1.39" transform="translate(-1.54 14.74) rotate(-4.15)"/><ellipse class="cls-5" cx="202.13" cy="20.39" rx="1.61" ry="1.39" transform="translate(-0.95 14.68) rotate(-4.15)"/><ellipse class="cls-5" cx="201.54" cy="12.19" rx="1.61" ry="1.39" transform="matrix(1, -0.07, 0.07, 1, -0.35, 14.61)"/><ellipse class="cls-5" cx="200.94" cy="4" rx="1.61" ry="1.39" transform="translate(0.24 14.55) rotate(-4.15)"/><ellipse class="cls-5" cx="219.22" cy="101.51" rx="1.61" ry="1.39" transform="translate(-6.77 16.13) rotate(-4.15)"/><ellipse class="cls-5" cx="218.63" cy="93.32" rx="1.61" ry="1.39" transform="translate(-6.18 16.06) rotate(-4.15)"/><ellipse class="cls-5" cx="218.04" cy="85.12" rx="1.61" ry="1.39" transform="translate(-5.59 16) rotate(-4.15)"/><ellipse class="cls-5" cx="217.44" cy="76.93" rx="1.61" ry="1.39" transform="translate(-5 15.93) rotate(-4.15)"/><ellipse class="cls-5" cx="216.85" cy="68.74" rx="1.61" ry="1.39" transform="translate(-4.4 15.87) rotate(-4.15)"/><ellipse class="cls-5" cx="216.25" cy="60.54" rx="1.61" ry="1.39" transform="translate(-3.81 15.8) rotate(-4.15)"/><ellipse class="cls-5" cx="215.66" cy="52.35" rx="1.61" ry="1.39" transform="translate(-3.22 15.74) rotate(-4.15)"/><ellipse class="cls-5" cx="215.06" cy="44.16" rx="1.61" ry="1.39" transform="matrix(1, -0.07, 0.07, 1, -2.63, 15.67)"/><ellipse class="cls-5" cx="214.47" cy="35.96" rx="1.61" ry="1.39" transform="translate(-2.04 15.61) rotate(-4.15)"/><ellipse class="cls-5" cx="213.88" cy="27.77" rx="1.61" ry="1.39" transform="translate(-1.45 15.55) rotate(-4.15)"/><ellipse class="cls-5" cx="213.28" cy="19.58" rx="1.61" ry="1.39" transform="translate(-0.86 15.48) rotate(-4.15)"/><ellipse class="cls-5" cx="212.69" cy="11.39" rx="1.61" ry="1.39" transform="translate(-0.27 15.42) rotate(-4.15)"/><ellipse class="cls-5" cx="212.09" cy="3.19" rx="1.61" ry="1.39" transform="translate(0.32 15.35) rotate(-4.15)"/><ellipse class="cls-5" cx="230.38" cy="100.7" rx="1.61" ry="1.39" transform="translate(-6.68 16.93) rotate(-4.15)"/><ellipse class="cls-5" cx="229.78" cy="92.51" rx="1.61" ry="1.39" transform="translate(-6.09 16.87) rotate(-4.15)"/><ellipse class="cls-5" cx="229.19" cy="84.32" rx="1.61" ry="1.39" transform="translate(-5.5 16.8) rotate(-4.15)"/><ellipse class="cls-5" cx="228.59" cy="76.12" rx="1.61" ry="1.39" transform="translate(-4.91 16.74) rotate(-4.15)"/><ellipse class="cls-5" cx="228" cy="67.93" rx="1.61" ry="1.39" transform="translate(-4.32 16.67) rotate(-4.15)"/><ellipse class="cls-5" cx="227.41" cy="59.74" rx="1.61" ry="1.39" transform="translate(-3.73 16.61) rotate(-4.15)"/><ellipse class="cls-5" cx="226.81" cy="51.54" rx="1.61" ry="1.39" transform="translate(-3.13 16.54) rotate(-4.15)"/><ellipse class="cls-5" cx="226.22" cy="43.35" rx="1.61" ry="1.39" transform="translate(-2.54 16.48) rotate(-4.15)"/><ellipse class="cls-5" cx="225.62" cy="35.16" rx="1.61" ry="1.39" transform="translate(-1.95 16.42) rotate(-4.15)"/><ellipse class="cls-5" cx="225.03" cy="26.96" rx="1.61" ry="1.39" transform="translate(-1.36 16.35) rotate(-4.15)"/><ellipse class="cls-5" cx="224.43" cy="18.77" rx="1.61" ry="1.39" transform="translate(-0.77 16.29) rotate(-4.15)"/><ellipse class="cls-5" cx="223.84" cy="10.58" rx="1.61" ry="1.39" transform="translate(-0.18 16.22) rotate(-4.15)"/><ellipse class="cls-5" cx="223.25" cy="2.38" rx="1.61" ry="1.39" transform="translate(0.41 16.16) rotate(-4.15)"/><ellipse class="cls-5" cx="241.53" cy="99.89" rx="1.61" ry="1.39" transform="matrix(1, -0.07, 0.07, 1, -6.59, 17.74)"/><ellipse class="cls-5" cx="240.93" cy="91.7" rx="1.61" ry="1.39" transform="translate(-6 17.67) rotate(-4.15)"/><ellipse class="cls-5" cx="240.34" cy="83.51" rx="1.61" ry="1.39" transform="translate(-5.41 17.61) rotate(-4.15)"/><ellipse class="cls-5" cx="239.75" cy="75.31" rx="1.61" ry="1.39" transform="translate(-4.82 17.54) rotate(-4.15)"/><ellipse class="cls-5" cx="239.15" cy="67.12" rx="1.61" ry="1.39" transform="translate(-4.23 17.48) rotate(-4.15)"/><ellipse class="cls-5" cx="238.56" cy="58.93" rx="1.61" ry="1.39" transform="translate(-3.64 17.41) rotate(-4.15)"/><ellipse class="cls-5" cx="237.96" cy="50.73" rx="1.61" ry="1.39" transform="translate(-3.05 17.35) rotate(-4.15)"/><ellipse class="cls-5" cx="237.37" cy="42.54" rx="1.61" ry="1.39" transform="matrix(1, -0.07, 0.07, 1, -2.46, 17.28)"/><ellipse class="cls-5" cx="236.77" cy="34.35" rx="1.61" ry="1.39" transform="translate(-1.86 17.22) rotate(-4.15)"/><ellipse class="cls-5" cx="236.18" cy="26.15" rx="1.61" ry="1.39" transform="translate(-1.27 17.16) rotate(-4.15)"/><ellipse class="cls-5" cx="235.59" cy="17.96" rx="1.61" ry="1.39" transform="translate(-0.68 17.09) rotate(-4.15)"/><ellipse class="cls-5" cx="234.99" cy="9.77" rx="1.61" ry="1.39" transform="matrix(1, -0.07, 0.07, 1, -0.09, 17.03)"/><ellipse class="cls-5" cx="234.4" cy="1.57" rx="1.61" ry="1.39" transform="translate(0.5 16.96) rotate(-4.15)"/><ellipse class="cls-5" cx="252.68" cy="99.08" rx="1.61" ry="1.39" transform="translate(-6.51 18.54) rotate(-4.15)"/><ellipse class="cls-5" cx="252.09" cy="90.89" rx="1.61" ry="1.39" transform="matrix(1, -0.07, 0.07, 1, -5.92, 18.48)"/><ellipse class="cls-5" cx="251.49" cy="82.7" rx="1.61" ry="1.39" transform="matrix(1, -0.07, 0.07, 1, -5.32, 18.41)"/><ellipse class="cls-5" cx="250.9" cy="74.5" rx="1.61" ry="1.39" transform="translate(-4.73 18.35) rotate(-4.15)"/><ellipse class="cls-5" cx="250.3" cy="66.31" rx="1.61" ry="1.39" transform="translate(-4.14 18.28) rotate(-4.15)"/><ellipse class="cls-5" cx="249.71" cy="58.12" rx="1.61" ry="1.39" transform="translate(-3.55 18.22) rotate(-4.15)"/><ellipse class="cls-5" cx="249.12" cy="49.92" rx="1.61" ry="1.39" transform="translate(-2.96 18.15) rotate(-4.15)"/><ellipse class="cls-5" cx="248.52" cy="41.73" rx="1.61" ry="1.39" transform="translate(-2.37 18.09) rotate(-4.15)"/><ellipse class="cls-5" cx="247.93" cy="33.54" rx="1.61" ry="1.39" transform="translate(-1.78 18.02) rotate(-4.15)"/><ellipse class="cls-5" cx="247.33" cy="25.34" rx="1.61" ry="1.39" transform="translate(-1.19 17.96) rotate(-4.15)"/><ellipse class="cls-5" cx="246.74" cy="17.15" rx="1.61" ry="1.39" transform="matrix(1, -0.07, 0.07, 1, -0.59, 17.9)"/><ellipse class="cls-5" cx="246.14" cy="8.96" rx="1.61" ry="1.39" transform="translate(0 17.83) rotate(-4.15)"/><ellipse class="cls-5" cx="245.55" cy="0.77" rx="1.61" ry="1.39" transform="translate(0.59 17.77) rotate(-4.15)"/><ellipse class="cls-5" cx="263.83" cy="98.27" rx="1.61" ry="1.39" transform="translate(-6.42 19.35) rotate(-4.15)"/><ellipse class="cls-5" cx="152.91" cy="114.56" rx="1.61" ry="1.39" transform="translate(-7.89 11.36) rotate(-4.15)"/><ellipse class="cls-5" cx="164.06" cy="113.75" rx="1.61" ry="1.39" transform="translate(-7.8 12.17) rotate(-4.15)"/><ellipse class="cls-5" cx="175.21" cy="112.94" rx="1.61" ry="1.39" transform="translate(-7.71 12.97) rotate(-4.15)"/><ellipse class="cls-5" cx="186.36" cy="112.13" rx="1.61" ry="1.39" transform="translate(-7.62 13.78) rotate(-4.15)"/><ellipse class="cls-5" cx="197.52" cy="111.32" rx="1.61" ry="1.39" transform="translate(-7.54 14.58) rotate(-4.15)"/><ellipse class="cls-5" cx="208.67" cy="110.51" rx="1.61" ry="1.39" transform="translate(-7.45 15.39) rotate(-4.15)"/><ellipse class="cls-5" cx="219.82" cy="109.7" rx="1.61" ry="1.39" transform="translate(-7.36 16.19) rotate(-4.15)"/><ellipse class="cls-5" cx="230.97" cy="108.89" rx="1.61" ry="1.39" transform="translate(-7.27 17) rotate(-4.15)"/><ellipse class="cls-5" cx="242.12" cy="108.09" rx="1.61" ry="1.39" transform="translate(-7.19 17.8) rotate(-4.15)"/><ellipse class="cls-5" cx="253.28" cy="107.28" rx="1.61" ry="1.39" transform="translate(-7.1 18.6) rotate(-4.15)"/><ellipse class="cls-5" cx="264.43" cy="106.47" rx="1.61" ry="1.39" transform="translate(-7.01 19.41) rotate(-4.15)"/><ellipse class="cls-5" cx="263.24" cy="90.08" rx="1.61" ry="1.39" transform="translate(-5.83 19.28) rotate(-4.15)"/><ellipse class="cls-5" cx="262.64" cy="81.89" rx="1.61" ry="1.39" transform="translate(-5.24 19.22) rotate(-4.15)"/><ellipse class="cls-5" cx="262.05" cy="73.7" rx="1.61" ry="1.39" transform="translate(-4.64 19.15) rotate(-4.15)"/><ellipse class="cls-5" cx="261.46" cy="65.5" rx="1.61" ry="1.39" transform="translate(-4.05 19.09) rotate(-4.15)"/><ellipse class="cls-5" cx="260.86" cy="57.31" rx="1.61" ry="1.39" transform="translate(-3.46 19.02) rotate(-4.15)"/><ellipse class="cls-5" cx="260.27" cy="49.12" rx="1.61" ry="1.39" transform="translate(-2.87 18.96) rotate(-4.15)"/><ellipse class="cls-5" cx="259.67" cy="40.92" rx="1.61" ry="1.39" transform="matrix(1, -0.07, 0.07, 1, -2.28, 18.89)"/><ellipse class="cls-5" cx="259.08" cy="32.73" rx="1.61" ry="1.39" transform="translate(-1.69 18.83) rotate(-4.15)"/><ellipse class="cls-5" cx="258.48" cy="24.54" rx="1.61" ry="1.39" transform="translate(-1.1 18.76) rotate(-4.15)"/><ellipse class="cls-5" cx="257.89" cy="16.34" rx="1.61" ry="1.39" transform="translate(-0.51 18.7) rotate(-4.15)"/><ellipse class="cls-5" cx="257.3" cy="8.15" rx="1.61" ry="1.39" transform="translate(0.08 18.64) rotate(-4.15)"/><ellipse class="cls-5" cx="256.7" cy="-0.04" rx="1.61" ry="1.39" transform="translate(0.68 18.57) rotate(-4.15)"/><ellipse class="cls-5" cx="7.72" cy="125.09" rx="1.61" ry="1.39" transform="translate(-9.03 0.89) rotate(-4.15)"/><ellipse class="cls-5" cx="7.13" cy="116.9" rx="1.61" ry="1.39" transform="translate(-8.44 0.82) rotate(-4.15)"/><ellipse class="cls-5" cx="6.53" cy="108.7" rx="1.61" ry="1.39" transform="translate(-7.85 0.76) rotate(-4.15)"/><ellipse class="cls-5" cx="5.94" cy="100.51" rx="1.61" ry="1.39" transform="translate(-7.26 0.69) rotate(-4.15)"/><ellipse class="cls-5" cx="5.34" cy="92.32" rx="1.61" ry="1.39" transform="translate(-6.66 0.63) rotate(-4.15)"/><ellipse class="cls-5" cx="4.75" cy="84.12" rx="1.61" ry="1.39" transform="translate(-6.07 0.56) rotate(-4.15)"/><ellipse class="cls-5" cx="4.16" cy="75.93" rx="1.61" ry="1.39" transform="translate(-5.48 0.5) rotate(-4.15)"/><ellipse class="cls-5" cx="3.56" cy="67.74" rx="1.61" ry="1.39" transform="translate(-4.89 0.44) rotate(-4.15)"/><ellipse class="cls-5" cx="2.97" cy="59.54" rx="1.61" ry="1.39" transform="matrix(1, -0.07, 0.07, 1, -4.3, 0.37)"/><ellipse class="cls-5" cx="2.37" cy="51.35" rx="1.61" ry="1.39" transform="translate(-3.71 0.31) rotate(-4.15)"/><ellipse class="cls-5" cx="1.78" cy="43.16" rx="1.61" ry="1.39" transform="translate(-3.12 0.24) rotate(-4.15)"/><ellipse class="cls-5" cx="1.18" cy="34.96" rx="1.61" ry="1.39" transform="translate(-2.53 0.18) rotate(-4.15)"/><ellipse class="cls-5" cx="0.59" cy="26.77" rx="1.61" ry="1.39" transform="translate(-1.94 0.11) rotate(-4.15)"/><ellipse class="cls-5" cy="18.58" rx="1.61" ry="1.39" transform="matrix(1, -0.07, 0.07, 1, -1.34, 0.05)"/><ellipse class="cls-5" cx="18.28" cy="116.09" rx="1.61" ry="1.39" transform="translate(-8.35 1.63) rotate(-4.15)"/><ellipse class="cls-5" cx="17.69" cy="107.89" rx="1.61" ry="1.39" transform="translate(-7.76 1.56) rotate(-4.15)"/><ellipse class="cls-5" cx="17.09" cy="99.7" rx="1.61" ry="1.39" transform="translate(-7.17 1.5) rotate(-4.15)"/><ellipse class="cls-5" cx="16.5" cy="91.51" rx="1.61" ry="1.39" transform="translate(-6.58 1.43) rotate(-4.15)"/><ellipse class="cls-5" cx="15.9" cy="83.31" rx="1.61" ry="1.39" transform="translate(-5.99 1.37) rotate(-4.15)"/><ellipse class="cls-5" cx="15.31" cy="75.12" rx="1.61" ry="1.39" transform="matrix(1, -0.07, 0.07, 1, -5.39, 1.3)"/><ellipse class="cls-5" cx="14.71" cy="66.93" rx="1.61" ry="1.39" transform="translate(-4.8 1.24) rotate(-4.15)"/><ellipse class="cls-5" cx="14.12" cy="58.73" rx="1.61" ry="1.39" transform="translate(-4.21 1.18) rotate(-4.15)"/><ellipse class="cls-5" cx="13.53" cy="50.54" rx="1.61" ry="1.39" transform="translate(-3.62 1.11) rotate(-4.15)"/><ellipse class="cls-5" cx="12.93" cy="42.35" rx="1.61" ry="1.39" transform="translate(-3.03 1.05) rotate(-4.15)"/><ellipse class="cls-5" cx="12.34" cy="34.15" rx="1.61" ry="1.39" transform="translate(-2.44 0.98) rotate(-4.15)"/><ellipse class="cls-5" cx="11.74" cy="25.96" rx="1.61" ry="1.39" transform="translate(-1.85 0.92) rotate(-4.15)"/><ellipse class="cls-5" cx="11.15" cy="17.77" rx="1.61" ry="1.39" transform="translate(-1.26 0.85) rotate(-4.15)"/><ellipse class="cls-5" cx="29.43" cy="115.28" rx="1.61" ry="1.39" transform="translate(-8.26 2.43) rotate(-4.15)"/><ellipse class="cls-5" cx="28.84" cy="107.08" rx="1.61" ry="1.39" transform="translate(-7.67 2.37) rotate(-4.15)"/><ellipse class="cls-5" cx="28.24" cy="98.89" rx="1.61" ry="1.39" transform="translate(-7.08 2.3) rotate(-4.15)"/><ellipse class="cls-5" cx="27.65" cy="90.7" rx="1.61" ry="1.39" transform="translate(-6.49 2.24) rotate(-4.15)"/><ellipse class="cls-5" cx="27.05" cy="82.5" rx="1.61" ry="1.39" transform="translate(-5.9 2.17) rotate(-4.15)"/><ellipse class="cls-5" cx="26.46" cy="74.31" rx="1.61" ry="1.39" transform="translate(-5.31 2.11) rotate(-4.15)"/><ellipse class="cls-5" cx="25.87" cy="66.12" rx="1.61" ry="1.39" transform="translate(-4.72 2.04) rotate(-4.15)"/><ellipse class="cls-5" cx="25.27" cy="57.93" rx="1.61" ry="1.39" transform="matrix(1, -0.07, 0.07, 1, -4.12, 1.98)"/><ellipse class="cls-5" cx="24.68" cy="49.73" rx="1.61" ry="1.39" transform="translate(-3.53 1.92) rotate(-4.15)"/><ellipse class="cls-5" cx="24.08" cy="41.54" rx="1.61" ry="1.39" transform="translate(-2.94 1.85) rotate(-4.15)"/><ellipse class="cls-5" cx="23.49" cy="33.35" rx="1.61" ry="1.39" transform="translate(-2.35 1.79) rotate(-4.15)"/><ellipse class="cls-5" cx="22.89" cy="25.15" rx="1.61" ry="1.39" transform="translate(-1.76 1.72) rotate(-4.15)"/><ellipse class="cls-5" cx="22.3" cy="16.96" rx="1.61" ry="1.39" transform="translate(-1.17 1.66) rotate(-4.15)"/><ellipse class="cls-5" cx="40.58" cy="114.47" rx="1.61" ry="1.39" transform="translate(-8.18 3.24) rotate(-4.15)"/><ellipse class="cls-5" cx="39.99" cy="106.28" rx="1.61" ry="1.39" transform="translate(-7.58 3.17) rotate(-4.15)"/><ellipse class="cls-5" cx="39.4" cy="98.08" rx="1.61" ry="1.39" transform="translate(-6.99 3.11) rotate(-4.15)"/><ellipse class="cls-5" cx="38.8" cy="89.89" rx="1.61" ry="1.39" transform="matrix(1, -0.07, 0.07, 1, -6.4, 3.04)"/><ellipse class="cls-5" cx="38.21" cy="81.7" rx="1.61" ry="1.39" transform="matrix(1, -0.07, 0.07, 1, -5.81, 2.98)"/><ellipse class="cls-5" cx="37.61" cy="73.5" rx="1.61" ry="1.39" transform="translate(-5.22 2.91) rotate(-4.15)"/><ellipse class="cls-5" cx="37.02" cy="65.31" rx="1.61" ry="1.39" transform="translate(-4.63 2.85) rotate(-4.15)"/><ellipse class="cls-5" cx="36.42" cy="57.12" rx="1.61" ry="1.39" transform="translate(-4.04 2.78) rotate(-4.15)"/><ellipse class="cls-5" cx="35.83" cy="48.92" rx="1.61" ry="1.39" transform="translate(-3.45 2.72) rotate(-4.15)"/><ellipse class="cls-5" cx="35.24" cy="40.73" rx="1.61" ry="1.39" transform="translate(-2.85 2.66) rotate(-4.15)"/><ellipse class="cls-5" cx="34.64" cy="32.54" rx="1.61" ry="1.39" transform="translate(-2.26 2.59) rotate(-4.15)"/><ellipse class="cls-5" cx="34.05" cy="24.34" rx="1.61" ry="1.39" transform="translate(-1.67 2.53) rotate(-4.15)"/><ellipse class="cls-5" cx="33.45" cy="16.15" rx="1.61" ry="1.39" transform="translate(-1.08 2.46) rotate(-4.15)"/><ellipse class="cls-5" cx="51.74" cy="113.66" rx="1.61" ry="1.39" transform="translate(-8.09 4.04) rotate(-4.15)"/><ellipse class="cls-5" cx="51.14" cy="105.47" rx="1.61" ry="1.39" transform="translate(-7.5 3.98) rotate(-4.15)"/><ellipse class="cls-5" cx="50.55" cy="97.27" rx="1.61" ry="1.39" transform="translate(-6.9 3.91) rotate(-4.15)"/><ellipse class="cls-5" cx="49.95" cy="89.08" rx="1.61" ry="1.39" transform="translate(-6.31 3.85) rotate(-4.15)"/><ellipse class="cls-5" cx="49.36" cy="80.89" rx="1.61" ry="1.39" transform="translate(-5.72 3.78) rotate(-4.15)"/><ellipse class="cls-5" cx="48.76" cy="72.69" rx="1.61" ry="1.39" transform="translate(-5.13 3.72) rotate(-4.15)"/><ellipse class="cls-5" cx="48.17" cy="64.5" rx="1.61" ry="1.39" transform="translate(-4.54 3.65) rotate(-4.15)"/><ellipse class="cls-5" cx="47.58" cy="56.31" rx="1.61" ry="1.39" transform="translate(-3.95 3.59) rotate(-4.15)"/><ellipse class="cls-5" cx="46.98" cy="48.11" rx="1.61" ry="1.39" transform="translate(-3.36 3.53) rotate(-4.15)"/><ellipse class="cls-5" cx="46.39" cy="39.92" rx="1.61" ry="1.39" transform="matrix(1, -0.07, 0.07, 1, -2.77, 3.46)"/><ellipse class="cls-5" cx="45.79" cy="31.73" rx="1.61" ry="1.39" transform="translate(-2.18 3.4) rotate(-4.15)"/><ellipse class="cls-5" cx="45.2" cy="23.53" rx="1.61" ry="1.39" transform="translate(-1.58 3.33) rotate(-4.15)"/><ellipse class="cls-5" cx="44.6" cy="15.34" rx="1.61" ry="1.39" transform="translate(-0.99 3.27) rotate(-4.15)"/><ellipse class="cls-5" cx="62.89" cy="112.85" rx="1.61" ry="1.39" transform="matrix(1, -0.07, 0.07, 1, -8, 4.85)"/><ellipse class="cls-5" cx="62.29" cy="104.66" rx="1.61" ry="1.39" transform="translate(-7.41 4.78) rotate(-4.15)"/><ellipse class="cls-5" cx="61.7" cy="96.46" rx="1.61" ry="1.39" transform="translate(-6.82 4.72) rotate(-4.15)"/><ellipse class="cls-5" cx="61.11" cy="88.27" rx="1.61" ry="1.39" transform="translate(-6.23 4.65) rotate(-4.15)"/><ellipse class="cls-5" cx="60.51" cy="80.08" rx="1.61" ry="1.39" transform="translate(-5.63 4.59) rotate(-4.15)"/><ellipse class="cls-5" cx="59.92" cy="71.88" rx="1.61" ry="1.39" transform="translate(-5.04 4.52) rotate(-4.15)"/><ellipse class="cls-5" cx="59.32" cy="63.69" rx="1.61" ry="1.39" transform="translate(-4.45 4.46) rotate(-4.15)"/><ellipse class="cls-5" cx="58.73" cy="55.5" rx="1.61" ry="1.39" transform="translate(-3.86 4.39) rotate(-4.15)"/><ellipse class="cls-5" cx="58.13" cy="47.31" rx="1.61" ry="1.39" transform="translate(-3.27 4.33) rotate(-4.15)"/><ellipse class="cls-5" cx="57.54" cy="39.11" rx="1.61" ry="1.39" transform="translate(-2.68 4.27) rotate(-4.15)"/><ellipse class="cls-5" cx="56.94" cy="30.92" rx="1.61" ry="1.39" transform="translate(-2.09 4.2) rotate(-4.15)"/><ellipse class="cls-5" cx="56.35" cy="22.73" rx="1.61" ry="1.39" transform="translate(-1.5 4.14) rotate(-4.15)"/><ellipse class="cls-5" cx="55.76" cy="14.53" rx="1.61" ry="1.39" transform="translate(-0.91 4.07) rotate(-4.15)"/><ellipse class="cls-5" cx="74.04" cy="112.04" rx="1.61" ry="1.39" transform="translate(-7.91 5.65) rotate(-4.15)"/><ellipse class="cls-5" cx="73.45" cy="103.85" rx="1.61" ry="1.39" transform="translate(-7.32 5.59) rotate(-4.15)"/><ellipse class="cls-5" cx="72.85" cy="95.66" rx="1.61" ry="1.39" transform="translate(-6.73 5.52) rotate(-4.15)"/><ellipse class="cls-5" cx="72.26" cy="87.46" rx="1.61" ry="1.39" transform="translate(-6.14 5.46) rotate(-4.15)"/><ellipse class="cls-5" cx="71.66" cy="79.27" rx="1.61" ry="1.39" transform="translate(-5.55 5.39) rotate(-4.15)"/><ellipse class="cls-5" cx="71.07" cy="71.08" rx="1.61" ry="1.39" transform="translate(-4.96 5.33) rotate(-4.15)"/><ellipse class="cls-5" cx="70.47" cy="62.88" rx="1.61" ry="1.39" transform="translate(-4.36 5.26) rotate(-4.15)"/><ellipse class="cls-5" cx="69.88" cy="54.69" rx="1.61" ry="1.39" transform="translate(-3.77 5.2) rotate(-4.15)"/><ellipse class="cls-5" cx="69.29" cy="46.5" rx="1.61" ry="1.39" transform="translate(-3.18 5.13) rotate(-4.15)"/><ellipse class="cls-5" cx="68.69" cy="38.3" rx="1.61" ry="1.39" transform="translate(-2.59 5.07) rotate(-4.15)"/><ellipse class="cls-5" cx="68.1" cy="30.11" rx="1.61" ry="1.39" transform="translate(-2 5.01) rotate(-4.15)"/><ellipse class="cls-5" cx="67.5" cy="21.92" rx="1.61" ry="1.39" transform="translate(-1.41 4.94) rotate(-4.15)"/><ellipse class="cls-5" cx="66.91" cy="13.72" rx="1.61" ry="1.39" transform="translate(-0.82 4.88) rotate(-4.15)"/><ellipse class="cls-5" cx="85.19" cy="111.23" rx="1.61" ry="1.39" transform="translate(-7.82 6.45) rotate(-4.15)"/><ellipse class="cls-5" cx="84.6" cy="103.04" rx="1.61" ry="1.39" transform="translate(-7.23 6.39) rotate(-4.15)"/><ellipse class="cls-5" cx="84" cy="94.85" rx="1.61" ry="1.39" transform="translate(-6.64 6.33) rotate(-4.15)"/><ellipse class="cls-5" cx="83.41" cy="86.65" rx="1.61" ry="1.39" transform="matrix(1, -0.07, 0.07, 1, -6.05, 6.26)"/><ellipse class="cls-5" cx="82.81" cy="78.46" rx="1.61" ry="1.39" transform="translate(-5.46 6.2) rotate(-4.15)"/><ellipse class="cls-5" cx="82.22" cy="70.27" rx="1.61" ry="1.39" transform="matrix(1, -0.07, 0.07, 1, -4.87, 6.13)"/><ellipse class="cls-5" cx="81.63" cy="62.07" rx="1.61" ry="1.39" transform="translate(-4.28 6.07) rotate(-4.15)"/><ellipse class="cls-5" cx="81.03" cy="53.88" rx="1.61" ry="1.39" transform="translate(-3.69 6) rotate(-4.15)"/><ellipse class="cls-5" cx="80.44" cy="45.69" rx="1.61" ry="1.39" transform="translate(-3.09 5.94) rotate(-4.15)"/><ellipse class="cls-5" cx="79.84" cy="37.49" rx="1.61" ry="1.39" transform="translate(-2.5 5.87) rotate(-4.15)"/><ellipse class="cls-5" cx="79.25" cy="29.3" rx="1.61" ry="1.39" transform="translate(-1.91 5.81) rotate(-4.15)"/><ellipse class="cls-5" cx="78.65" cy="21.11" rx="1.61" ry="1.39" transform="translate(-1.32 5.75) rotate(-4.15)"/><ellipse class="cls-5" cx="78.06" cy="12.91" rx="1.61" ry="1.39" transform="translate(-0.73 5.68) rotate(-4.15)"/><ellipse class="cls-5" cx="96.34" cy="110.42" rx="1.61" ry="1.39" transform="translate(-7.74 7.26) rotate(-4.15)"/><ellipse class="cls-5" cx="95.75" cy="102.23" rx="1.61" ry="1.39" transform="translate(-7.15 7.2) rotate(-4.15)"/><ellipse class="cls-5" cx="95.16" cy="94.04" rx="1.61" ry="1.39" transform="translate(-6.55 7.13) rotate(-4.15)"/><ellipse class="cls-5" cx="94.56" cy="85.84" rx="1.61" ry="1.39" transform="matrix(1, -0.07, 0.07, 1, -5.96, 7.07)"/><ellipse class="cls-5" cx="93.97" cy="77.65" rx="1.61" ry="1.39" transform="matrix(1, -0.07, 0.07, 1, -5.37, 7)"/><ellipse class="cls-5" cx="93.37" cy="69.46" rx="1.61" ry="1.39" transform="translate(-4.78 6.94) rotate(-4.15)"/><ellipse class="cls-5" cx="92.78" cy="61.26" rx="1.61" ry="1.39" transform="translate(-4.19 6.87) rotate(-4.15)"/><ellipse class="cls-5" cx="92.18" cy="53.07" rx="1.61" ry="1.39" transform="translate(-3.6 6.81) rotate(-4.15)"/><ellipse class="cls-5" cx="91.59" cy="44.88" rx="1.61" ry="1.39" transform="translate(-3.01 6.74) rotate(-4.15)"/><ellipse class="cls-5" cx="91" cy="36.69" rx="1.61" ry="1.39" transform="translate(-2.42 6.68) rotate(-4.15)"/><ellipse class="cls-5" cx="90.4" cy="28.49" rx="1.61" ry="1.39" transform="translate(-1.82 6.61) rotate(-4.15)"/><ellipse class="cls-5" cx="89.81" cy="20.3" rx="1.61" ry="1.39" transform="translate(-1.23 6.55) rotate(-4.15)"/><ellipse class="cls-5" cx="89.21" cy="12.11" rx="1.61" ry="1.39" transform="translate(-0.64 6.49) rotate(-4.15)"/><ellipse class="cls-5" cx="107.5" cy="109.62" rx="1.61" ry="1.39" transform="matrix(1, -0.07, 0.07, 1, -7.65, 8.06)"/><ellipse class="cls-5" cx="106.9" cy="101.42" rx="1.61" ry="1.39" transform="translate(-7.06 8) rotate(-4.15)"/><ellipse class="cls-5" cx="106.31" cy="93.23" rx="1.61" ry="1.39" transform="translate(-6.47 7.94) rotate(-4.15)"/><ellipse class="cls-5" cx="105.71" cy="85.04" rx="1.61" ry="1.39" transform="translate(-5.88 7.87) rotate(-4.15)"/><ellipse class="cls-5" cx="105.12" cy="76.84" rx="1.61" ry="1.39" transform="translate(-5.28 7.81) rotate(-4.15)"/><ellipse class="cls-5" cx="104.52" cy="68.65" rx="1.61" ry="1.39" transform="translate(-4.69 7.74) rotate(-4.15)"/><ellipse class="cls-5" cx="103.93" cy="60.46" rx="1.61" ry="1.39" transform="translate(-4.1 7.68) rotate(-4.15)"/><ellipse class="cls-5" cx="103.34" cy="52.26" rx="1.61" ry="1.39" transform="matrix(1, -0.07, 0.07, 1, -3.51, 7.61)"/><ellipse class="cls-5" cx="102.74" cy="44.07" rx="1.61" ry="1.39" transform="translate(-2.92 7.55) rotate(-4.15)"/><ellipse class="cls-5" cx="102.15" cy="35.88" rx="1.61" ry="1.39" transform="matrix(1, -0.07, 0.07, 1, -2.33, 7.48)"/><ellipse class="cls-5" cx="101.55" cy="27.68" rx="1.61" ry="1.39" transform="translate(-1.74 7.42) rotate(-4.15)"/><ellipse class="cls-5" cx="100.96" cy="19.49" rx="1.61" ry="1.39" transform="matrix(1, -0.07, 0.07, 1, -1.15, 7.36)"/><ellipse class="cls-5" cx="100.36" cy="11.3" rx="1.61" ry="1.39" transform="translate(-0.55 7.29) rotate(-4.15)"/><ellipse class="cls-5" cx="118.65" cy="108.81" rx="1.61" ry="1.39" transform="translate(-7.56 8.87) rotate(-4.15)"/><ellipse class="cls-5" cx="118.05" cy="100.61" rx="1.61" ry="1.39" transform="translate(-6.97 8.8) rotate(-4.15)"/><ellipse class="cls-5" cx="117.46" cy="92.42" rx="1.61" ry="1.39" transform="translate(-6.38 8.74) rotate(-4.15)"/><ellipse class="cls-5" cx="116.87" cy="84.23" rx="1.61" ry="1.39" transform="translate(-5.79 8.68) rotate(-4.15)"/><ellipse class="cls-5" cx="116.27" cy="76.03" rx="1.61" ry="1.39" transform="translate(-5.2 8.61) rotate(-4.15)"/><ellipse class="cls-5" cx="115.68" cy="67.84" rx="1.61" ry="1.39" transform="translate(-4.6 8.55) rotate(-4.15)"/><ellipse class="cls-5" cx="115.08" cy="59.65" rx="1.61" ry="1.39" transform="translate(-4.01 8.48) rotate(-4.15)"/><ellipse class="cls-5" cx="114.49" cy="51.45" rx="1.61" ry="1.39" transform="translate(-3.42 8.42) rotate(-4.15)"/><ellipse class="cls-5" cx="113.89" cy="43.26" rx="1.61" ry="1.39" transform="translate(-2.83 8.35) rotate(-4.15)"/><ellipse class="cls-5" cx="113.3" cy="35.07" rx="1.61" ry="1.39" transform="translate(-2.24 8.29) rotate(-4.15)"/><ellipse class="cls-5" cx="112.71" cy="26.87" rx="1.61" ry="1.39" transform="translate(-1.65 8.22) rotate(-4.15)"/><ellipse class="cls-5" cx="112.11" cy="18.68" rx="1.61" ry="1.39" transform="translate(-1.06 8.16) rotate(-4.15)"/><ellipse class="cls-5" cx="111.52" cy="10.49" rx="1.61" ry="1.39" transform="translate(-0.47 8.1) rotate(-4.15)"/><ellipse class="cls-5" cx="129.8" cy="108" rx="1.61" ry="1.39" transform="translate(-7.47 9.67) rotate(-4.15)"/><ellipse class="cls-5" cx="18.87" cy="124.28" rx="1.61" ry="1.39" transform="translate(-8.94 1.69) rotate(-4.15)"/><ellipse class="cls-5" cx="30.03" cy="123.47" rx="1.61" ry="1.39" transform="translate(-8.85 2.5) rotate(-4.15)"/><ellipse class="cls-5" cx="41.18" cy="122.66" rx="1.61" ry="1.39" transform="translate(-8.77 3.3) rotate(-4.15)"/><ellipse class="cls-5" cx="52.33" cy="121.85" rx="1.61" ry="1.39" transform="translate(-8.68 4.11) rotate(-4.15)"/><ellipse class="cls-5" cx="63.48" cy="121.04" rx="1.61" ry="1.39" transform="matrix(1, -0.07, 0.07, 1, -8.59, 4.91)"/><ellipse class="cls-5" cx="74.63" cy="120.24" rx="1.61" ry="1.39" transform="matrix(1, -0.07, 0.07, 1, -8.5, 5.71)"/><ellipse class="cls-5" cx="85.79" cy="119.43" rx="1.61" ry="1.39" transform="translate(-8.42 6.52) rotate(-4.15)"/><ellipse class="cls-5" cx="96.94" cy="118.62" rx="1.61" ry="1.39" transform="translate(-8.33 7.32) rotate(-4.15)"/><ellipse class="cls-5" cx="108.09" cy="117.81" rx="1.61" ry="1.39" transform="translate(-8.24 8.13) rotate(-4.15)"/><ellipse class="cls-5" cx="119.24" cy="117" rx="1.61" ry="1.39" transform="translate(-8.15 8.93) rotate(-4.15)"/><ellipse class="cls-5" cx="130.39" cy="116.19" rx="1.61" ry="1.39" transform="translate(-8.06 9.74) rotate(-4.15)"/><ellipse class="cls-5" cx="129.21" cy="99.8" rx="1.61" ry="1.39" transform="translate(-6.88 9.61) rotate(-4.15)"/><ellipse class="cls-5" cx="128.61" cy="91.61" rx="1.61" ry="1.39" transform="matrix(1, -0.07, 0.07, 1, -6.29, 9.54)"/><ellipse class="cls-5" cx="128.02" cy="83.42" rx="1.61" ry="1.39" transform="translate(-5.7 9.48) rotate(-4.15)"/><ellipse class="cls-5" cx="127.42" cy="75.22" rx="1.61" ry="1.39" transform="translate(-5.11 9.42) rotate(-4.15)"/><ellipse class="cls-5" cx="126.83" cy="67.03" rx="1.61" ry="1.39" transform="translate(-4.52 9.35) rotate(-4.15)"/><ellipse class="cls-5" cx="126.23" cy="58.84" rx="1.61" ry="1.39" transform="translate(-3.93 9.29) rotate(-4.15)"/><ellipse class="cls-5" cx="125.64" cy="50.64" rx="1.61" ry="1.39" transform="translate(-3.33 9.22) rotate(-4.15)"/><ellipse class="cls-5" cx="125.05" cy="42.45" rx="1.61" ry="1.39" transform="translate(-2.74 9.16) rotate(-4.15)"/><ellipse class="cls-5" cx="124.45" cy="34.26" rx="1.61" ry="1.39" transform="translate(-2.15 9.09) rotate(-4.15)"/><ellipse class="cls-5" cx="123.86" cy="26.07" rx="1.61" ry="1.39" transform="translate(-1.56 9.03) rotate(-4.15)"/><ellipse class="cls-5" cx="123.26" cy="17.87" rx="1.61" ry="1.39" transform="translate(-0.97 8.96) rotate(-4.15)"/><ellipse class="cls-5" cx="122.67" cy="9.68" rx="1.61" ry="1.39" transform="matrix(1, -0.07, 0.07, 1, -0.38, 8.9)"/><ellipse class="cls-5" cx="133.37" cy="-0.19" rx="1.61" ry="1.39" transform="translate(0.36 9.65) rotate(-4.15)"/><ellipse class="cls-5" cx="144.53" cy="-1" rx="1.61" ry="1.39" transform="translate(0.45 10.45) rotate(-4.15)"/><ellipse class="cls-5" cx="-0.66" cy="9.54" rx="1.61" ry="1.39" transform="translate(-0.69 -0.02) rotate(-4.15)"/><ellipse class="cls-5" cx="-1.25" cy="1.34" rx="1.61" ry="1.39" transform="matrix(1, -0.07, 0.07, 1, -0.1, -0.09)"/><ellipse class="cls-5" cx="9.9" cy="0.53" rx="1.61" ry="1.39" transform="translate(-0.01 0.72) rotate(-4.15)"/><ellipse class="cls-5" cx="21.05" cy="-0.27" rx="1.61" ry="1.39" transform="translate(0.08 1.52) rotate(-4.15)"/><ellipse class="cls-5" cx="32.2" cy="-1.08" rx="1.61" ry="1.39" transform="translate(0.16 2.33) rotate(-4.15)"/><ellipse class="cls-5" cx="10.49" cy="8.73" rx="1.61" ry="1.39" transform="translate(-0.6 0.78) rotate(-4.15)"/><ellipse class="cls-5" cx="21.64" cy="7.92" rx="1.61" ry="1.39" transform="translate(-0.52 1.59) rotate(-4.15)"/><ellipse class="cls-5" cx="32.8" cy="7.11" rx="1.61" ry="1.39" transform="translate(-0.43 2.39) rotate(-4.15)"/><ellipse class="cls-5" cx="43.95" cy="6.3" rx="1.61" ry="1.39" transform="translate(-0.34 3.2) rotate(-4.15)"/><ellipse class="cls-5" cx="55.1" cy="5.49" rx="1.61" ry="1.39" transform="matrix(1, -0.07, 0.07, 1, -0.25, 4)"/><ellipse class="cls-5" cx="66.25" cy="4.68" rx="1.61" ry="1.39" transform="translate(-0.17 4.81) rotate(-4.15)"/><ellipse class="cls-5" cx="77.4" cy="3.87" rx="1.61" ry="1.39" transform="translate(-0.08 5.61) rotate(-4.15)"/><ellipse class="cls-5" cx="88.56" cy="3.06" rx="1.61" ry="1.39" transform="translate(0.01 6.41) rotate(-4.15)"/><ellipse class="cls-5" cx="99.71" cy="2.26" rx="1.61" ry="1.39" transform="translate(0.1 7.22) rotate(-4.15)"/><ellipse class="cls-5" cx="110.86" cy="1.45" rx="1.61" ry="1.39" transform="translate(0.19 8.02) rotate(-4.15)"/><ellipse class="cls-5" cx="122.01" cy="0.64" rx="1.61" ry="1.39" transform="translate(0.27 8.83) rotate(-4.15)"/></g></g><g class="cls-3"><g class="cls-6"><ellipse class="cls-5" cx="237.24" cy="125.75" rx="2.65" ry="2.3"/><ellipse class="cls-5" cx="237.24" cy="139.32" rx="2.65" ry="2.3"/><ellipse class="cls-5" cx="237.24" cy="152.89" rx="2.65" ry="2.3"/><ellipse class="cls-5" cx="237.24" cy="166.47" rx="2.65" ry="2.3"/><ellipse class="cls-5" cx="237.24" cy="180.04" rx="2.65" ry="2.3"/><ellipse class="cls-5" cx="237.24" cy="193.61" rx="2.65" ry="2.3"/><ellipse class="cls-5" cx="237.24" cy="207.18" rx="2.65" ry="2.3"/><ellipse class="cls-5" cx="237.24" cy="220.75" rx="2.65" ry="2.3"/><ellipse class="cls-5" cx="237.24" cy="234.32" rx="2.65" ry="2.3"/><ellipse class="cls-5" cx="237.24" cy="247.9" rx="2.65" ry="2.3"/><ellipse class="cls-5" cx="237.24" cy="261.47" rx="2.65" ry="2.3"/><ellipse class="cls-5" cx="237.24" cy="275.04" rx="2.65" ry="2.3"/><ellipse class="cls-5" cx="237.24" cy="288.61" rx="2.65" ry="2.3"/><ellipse class="cls-5" cx="237.24" cy="302.18" rx="2.65" ry="2.3"/><ellipse class="cls-5" cx="218.77" cy="139.32" rx="2.65" ry="2.3"/><ellipse class="cls-5" cx="218.77" cy="152.89" rx="2.65" ry="2.3"/><ellipse class="cls-5" cx="218.77" cy="166.47" rx="2.65" ry="2.3"/><ellipse class="cls-5" cx="218.77" cy="180.04" rx="2.65" ry="2.3"/><ellipse class="cls-5" cx="218.77" cy="193.61" rx="2.65" ry="2.3"/><ellipse class="cls-5" cx="218.77" cy="207.18" rx="2.65" ry="2.3"/><ellipse class="cls-5" cx="218.77" cy="220.75" rx="2.65" ry="2.3"/><ellipse class="cls-5" cx="218.77" cy="234.32" rx="2.65" ry="2.3"/><ellipse class="cls-5" cx="218.77" cy="247.9" rx="2.65" ry="2.3"/><ellipse class="cls-5" cx="218.77" cy="261.47" rx="2.65" ry="2.3"/><ellipse class="cls-5" cx="218.77" cy="275.04" rx="2.65" ry="2.3"/><ellipse class="cls-5" cx="218.77" cy="288.61" rx="2.65" ry="2.3"/><ellipse class="cls-5" cx="218.77" cy="302.18" rx="2.65" ry="2.3"/><ellipse class="cls-5" cx="200.3" cy="139.32" rx="2.65" ry="2.3"/><ellipse class="cls-5" cx="200.3" cy="152.89" rx="2.65" ry="2.3"/><ellipse class="cls-5" cx="200.3" cy="166.47" rx="2.65" ry="2.3"/><ellipse class="cls-5" cx="200.3" cy="180.04" rx="2.65" ry="2.3"/><ellipse class="cls-5" cx="200.3" cy="193.61" rx="2.65" ry="2.3"/><ellipse class="cls-5" cx="200.3" cy="207.18" rx="2.65" ry="2.3"/><ellipse class="cls-5" cx="200.3" cy="220.75" rx="2.65" ry="2.3"/><ellipse class="cls-5" cx="200.3" cy="234.32" rx="2.65" ry="2.3"/><ellipse class="cls-5" cx="200.3" cy="247.9" rx="2.65" ry="2.3"/><ellipse class="cls-5" cx="200.3" cy="261.47" rx="2.65" ry="2.3"/><ellipse class="cls-5" cx="200.3" cy="275.04" rx="2.65" ry="2.3"/><ellipse class="cls-5" cx="200.3" cy="288.61" rx="2.65" ry="2.3"/><ellipse class="cls-5" cx="200.3" cy="302.18" rx="2.65" ry="2.3"/><ellipse class="cls-5" cx="181.83" cy="139.32" rx="2.65" ry="2.3"/><ellipse class="cls-5" cx="181.83" cy="152.89" rx="2.65" ry="2.3"/><ellipse class="cls-5" cx="181.83" cy="166.47" rx="2.65" ry="2.3"/><ellipse class="cls-5" cx="181.83" cy="180.04" rx="2.65" ry="2.3"/><ellipse class="cls-5" cx="181.83" cy="193.61" rx="2.65" ry="2.3"/><ellipse class="cls-5" cx="181.83" cy="207.18" rx="2.65" ry="2.3"/><ellipse class="cls-5" cx="181.83" cy="220.75" rx="2.65" ry="2.3"/><ellipse class="cls-5" cx="181.83" cy="234.32" rx="2.65" ry="2.3"/><ellipse class="cls-5" cx="181.83" cy="247.9" rx="2.65" ry="2.3"/><ellipse class="cls-5" cx="181.83" cy="261.47" rx="2.65" ry="2.3"/><ellipse class="cls-5" cx="181.83" cy="275.04" rx="2.65" ry="2.3"/><ellipse class="cls-5" cx="181.83" cy="288.61" rx="2.65" ry="2.3"/><ellipse class="cls-5" cx="181.83" cy="302.18" rx="2.65" ry="2.3"/><ellipse class="cls-5" cx="163.35" cy="139.32" rx="2.65" ry="2.3"/><ellipse class="cls-5" cx="163.35" cy="152.89" rx="2.65" ry="2.3"/><ellipse class="cls-5" cx="163.35" cy="166.47" rx="2.65" ry="2.3"/><ellipse class="cls-5" cx="163.35" cy="180.04" rx="2.65" ry="2.3"/><ellipse class="cls-5" cx="163.35" cy="193.61" rx="2.65" ry="2.3"/><ellipse class="cls-5" cx="163.35" cy="207.18" rx="2.65" ry="2.3"/><ellipse class="cls-5" cx="163.35" cy="220.75" rx="2.65" ry="2.3"/><ellipse class="cls-5" cx="163.35" cy="234.32" rx="2.65" ry="2.3"/><ellipse class="cls-5" cx="163.35" cy="247.9" rx="2.65" ry="2.3"/><ellipse class="cls-5" cx="163.35" cy="261.47" rx="2.65" ry="2.3"/><ellipse class="cls-5" cx="163.35" cy="275.04" rx="2.65" ry="2.3"/><ellipse class="cls-5" cx="163.35" cy="288.61" rx="2.65" ry="2.3"/><ellipse class="cls-5" cx="163.35" cy="302.18" rx="2.65" ry="2.3"/><ellipse class="cls-5" cx="144.88" cy="139.32" rx="2.65" ry="2.3"/><ellipse class="cls-5" cx="144.88" cy="152.89" rx="2.65" ry="2.3"/><ellipse class="cls-5" cx="144.88" cy="166.47" rx="2.65" ry="2.3"/><ellipse class="cls-5" cx="144.88" cy="180.04" rx="2.65" ry="2.3"/><ellipse class="cls-5" cx="144.88" cy="193.61" rx="2.65" ry="2.3"/><ellipse class="cls-5" cx="144.88" cy="207.18" rx="2.65" ry="2.3"/><ellipse class="cls-5" cx="144.88" cy="220.75" rx="2.65" ry="2.3"/><ellipse class="cls-5" cx="144.88" cy="234.32" rx="2.65" ry="2.3"/><ellipse class="cls-5" cx="144.88" cy="247.9" rx="2.65" ry="2.3"/><ellipse class="cls-5" cx="144.88" cy="261.47" rx="2.65" ry="2.3"/><ellipse class="cls-5" cx="144.88" cy="275.04" rx="2.65" ry="2.3"/><ellipse class="cls-5" cx="144.88" cy="288.61" rx="2.65" ry="2.3"/><ellipse class="cls-5" cx="144.88" cy="302.18" rx="2.65" ry="2.3"/><ellipse class="cls-5" cx="126.41" cy="139.32" rx="2.65" ry="2.3"/><ellipse class="cls-5" cx="126.41" cy="152.89" rx="2.65" ry="2.3"/><ellipse class="cls-5" cx="126.41" cy="166.47" rx="2.65" ry="2.3"/><ellipse class="cls-5" cx="126.41" cy="180.04" rx="2.65" ry="2.3"/><ellipse class="cls-5" cx="126.41" cy="193.61" rx="2.65" ry="2.3"/><ellipse class="cls-5" cx="126.41" cy="207.18" rx="2.65" ry="2.3"/><ellipse class="cls-5" cx="126.41" cy="220.75" rx="2.65" ry="2.3"/><ellipse class="cls-5" cx="126.41" cy="234.32" rx="2.65" ry="2.3"/><ellipse class="cls-5" cx="126.41" cy="247.9" rx="2.65" ry="2.3"/><ellipse class="cls-5" cx="126.41" cy="261.47" rx="2.65" ry="2.3"/><ellipse class="cls-5" cx="126.41" cy="275.04" rx="2.65" ry="2.3"/><ellipse class="cls-5" cx="126.41" cy="288.61" rx="2.65" ry="2.3"/><ellipse class="cls-5" cx="126.41" cy="302.18" rx="2.65" ry="2.3"/><ellipse class="cls-5" cx="107.93" cy="139.32" rx="2.65" ry="2.3"/><ellipse class="cls-5" cx="107.93" cy="152.89" rx="2.65" ry="2.3"/><ellipse class="cls-5" cx="107.93" cy="166.47" rx="2.65" ry="2.3"/><ellipse class="cls-5" cx="107.93" cy="180.04" rx="2.65" ry="2.3"/><ellipse class="cls-5" cx="107.93" cy="193.61" rx="2.65" ry="2.3"/><ellipse class="cls-5" cx="107.93" cy="207.18" rx="2.65" ry="2.3"/><ellipse class="cls-5" cx="107.93" cy="220.75" rx="2.65" ry="2.3"/><ellipse class="cls-5" cx="107.93" cy="234.32" rx="2.65" ry="2.3"/><ellipse class="cls-5" cx="107.93" cy="247.9" rx="2.65" ry="2.3"/><ellipse class="cls-5" cx="107.93" cy="261.47" rx="2.65" ry="2.3"/><ellipse class="cls-5" cx="107.93" cy="275.04" rx="2.65" ry="2.3"/><ellipse class="cls-5" cx="107.93" cy="288.61" rx="2.65" ry="2.3"/><ellipse class="cls-5" cx="107.93" cy="302.18" rx="2.65" ry="2.3"/><ellipse class="cls-5" cx="89.46" cy="139.32" rx="2.65" ry="2.3"/><ellipse class="cls-5" cx="89.46" cy="152.89" rx="2.65" ry="2.3"/><ellipse class="cls-5" cx="89.46" cy="166.47" rx="2.65" ry="2.3"/><ellipse class="cls-5" cx="89.46" cy="180.04" rx="2.65" ry="2.3"/><ellipse class="cls-5" cx="89.46" cy="193.61" rx="2.65" ry="2.3"/><ellipse class="cls-5" cx="89.46" cy="207.18" rx="2.65" ry="2.3"/><ellipse class="cls-5" cx="89.46" cy="220.75" rx="2.65" ry="2.3"/><ellipse class="cls-5" cx="89.46" cy="234.32" rx="2.65" ry="2.3"/><ellipse class="cls-5" cx="89.46" cy="247.9" rx="2.65" ry="2.3"/><ellipse class="cls-5" cx="89.46" cy="261.47" rx="2.65" ry="2.3"/><ellipse class="cls-5" cx="89.46" cy="275.04" rx="2.65" ry="2.3"/><ellipse class="cls-5" cx="89.46" cy="288.61" rx="2.65" ry="2.3"/><ellipse class="cls-5" cx="89.46" cy="302.18" rx="2.65" ry="2.3"/><ellipse class="cls-5" cx="70.99" cy="139.32" rx="2.65" ry="2.3"/><ellipse class="cls-5" cx="70.99" cy="152.89" rx="2.65" ry="2.3"/><ellipse class="cls-5" cx="70.99" cy="166.47" rx="2.65" ry="2.3"/><ellipse class="cls-5" cx="70.99" cy="180.04" rx="2.65" ry="2.3"/><ellipse class="cls-5" cx="70.99" cy="193.61" rx="2.65" ry="2.3"/><ellipse class="cls-5" cx="70.99" cy="207.18" rx="2.65" ry="2.3"/><ellipse class="cls-5" cx="70.99" cy="220.75" rx="2.65" ry="2.3"/><ellipse class="cls-5" cx="70.99" cy="234.32" rx="2.65" ry="2.3"/><ellipse class="cls-5" cx="70.99" cy="247.9" rx="2.65" ry="2.3"/><ellipse class="cls-5" cx="70.99" cy="261.47" rx="2.65" ry="2.3"/><ellipse class="cls-5" cx="70.99" cy="275.04" rx="2.65" ry="2.3"/><ellipse class="cls-5" cx="70.99" cy="288.61" rx="2.65" ry="2.3"/><ellipse class="cls-5" cx="70.99" cy="302.18" rx="2.65" ry="2.3"/><ellipse class="cls-5" cx="52.52" cy="139.32" rx="2.65" ry="2.3"/><ellipse class="cls-5" cx="52.52" cy="152.89" rx="2.65" ry="2.3"/><ellipse class="cls-5" cx="52.52" cy="166.47" rx="2.65" ry="2.3"/><ellipse class="cls-5" cx="52.52" cy="180.04" rx="2.65" ry="2.3"/><ellipse class="cls-5" cx="52.52" cy="193.61" rx="2.65" ry="2.3"/><ellipse class="cls-5" cx="52.52" cy="207.18" rx="2.65" ry="2.3"/><ellipse class="cls-5" cx="52.52" cy="220.75" rx="2.65" ry="2.3"/><ellipse class="cls-5" cx="52.52" cy="234.32" rx="2.65" ry="2.3"/><ellipse class="cls-5" cx="52.52" cy="247.9" rx="2.65" ry="2.3"/><ellipse class="cls-5" cx="52.52" cy="261.47" rx="2.65" ry="2.3"/><ellipse class="cls-5" cx="52.52" cy="275.04" rx="2.65" ry="2.3"/><ellipse class="cls-5" cx="52.52" cy="288.61" rx="2.65" ry="2.3"/><ellipse class="cls-5" cx="52.52" cy="302.18" rx="2.65" ry="2.3"/><ellipse class="cls-5" cx="34.04" cy="139.32" rx="2.65" ry="2.3"/><ellipse class="cls-5" cx="218.77" cy="125.75" rx="2.65" ry="2.3"/><ellipse class="cls-5" cx="200.3" cy="125.75" rx="2.65" ry="2.3"/><ellipse class="cls-5" cx="181.83" cy="125.75" rx="2.65" ry="2.3"/><ellipse class="cls-5" cx="163.35" cy="125.75" rx="2.65" ry="2.3"/><ellipse class="cls-5" cx="144.88" cy="125.75" rx="2.65" ry="2.3"/><ellipse class="cls-5" cx="126.41" cy="125.75" rx="2.65" ry="2.3"/><ellipse class="cls-5" cx="107.93" cy="125.75" rx="2.65" ry="2.3"/><ellipse class="cls-5" cx="89.46" cy="125.75" rx="2.65" ry="2.3"/><ellipse class="cls-5" cx="70.99" cy="125.75" rx="2.65" ry="2.3"/><ellipse class="cls-5" cx="52.52" cy="125.75" rx="2.65" ry="2.3"/><ellipse class="cls-5" cx="34.04" cy="125.75" rx="2.65" ry="2.3"/><ellipse class="cls-5" cx="34.04" cy="152.89" rx="2.65" ry="2.3"/><ellipse class="cls-5" cx="34.04" cy="166.47" rx="2.65" ry="2.3"/><ellipse class="cls-5" cx="34.04" cy="180.04" rx="2.65" ry="2.3"/><ellipse class="cls-5" cx="34.04" cy="193.61" rx="2.65" ry="2.3"/><ellipse class="cls-5" cx="34.04" cy="207.18" rx="2.65" ry="2.3"/><ellipse class="cls-5" cx="34.04" cy="220.75" rx="2.65" ry="2.3"/><ellipse class="cls-5" cx="34.04" cy="234.32" rx="2.65" ry="2.3"/><ellipse class="cls-5" cx="34.04" cy="247.9" rx="2.65" ry="2.3"/><ellipse class="cls-5" cx="34.04" cy="261.47" rx="2.65" ry="2.3"/><ellipse class="cls-5" cx="34.04" cy="275.04" rx="2.65" ry="2.3"/><ellipse class="cls-5" cx="34.04" cy="288.61" rx="2.65" ry="2.3"/><ellipse class="cls-5" cx="34.04" cy="302.18" rx="2.65" ry="2.3"/><ellipse class="cls-5" cx="403.85" cy="139.32" rx="2.65" ry="2.3"/><ellipse class="cls-5" cx="403.85" cy="152.89" rx="2.65" ry="2.3"/><ellipse class="cls-5" cx="403.85" cy="166.47" rx="2.65" ry="2.3"/><ellipse class="cls-5" cx="403.85" cy="180.04" rx="2.65" ry="2.3"/><ellipse class="cls-5" cx="403.85" cy="193.61" rx="2.65" ry="2.3"/><ellipse class="cls-5" cx="403.85" cy="207.18" rx="2.65" ry="2.3"/><ellipse class="cls-5" cx="403.85" cy="220.75" rx="2.65" ry="2.3"/><ellipse class="cls-5" cx="403.85" cy="234.32" rx="2.65" ry="2.3"/><ellipse class="cls-5" cx="403.85" cy="247.9" rx="2.65" ry="2.3"/><ellipse class="cls-5" cx="403.85" cy="261.47" rx="2.65" ry="2.3"/><ellipse class="cls-5" cx="403.85" cy="275.04" rx="2.65" ry="2.3"/><ellipse class="cls-5" cx="403.85" cy="288.61" rx="2.65" ry="2.3"/><ellipse class="cls-5" cx="403.85" cy="302.18" rx="2.65" ry="2.3"/><ellipse class="cls-5" cx="385.37" cy="139.32" rx="2.65" ry="2.3"/><ellipse class="cls-5" cx="385.37" cy="152.89" rx="2.65" ry="2.3"/><ellipse class="cls-5" cx="385.37" cy="166.47" rx="2.65" ry="2.3"/><ellipse class="cls-5" cx="385.37" cy="180.04" rx="2.65" ry="2.3"/><ellipse class="cls-5" cx="385.37" cy="193.61" rx="2.65" ry="2.3"/><ellipse class="cls-5" cx="385.37" cy="207.18" rx="2.65" ry="2.3"/><ellipse class="cls-5" cx="385.37" cy="220.75" rx="2.65" ry="2.3"/><ellipse class="cls-5" cx="385.37" cy="234.32" rx="2.65" ry="2.3"/><ellipse class="cls-5" cx="385.37" cy="247.9" rx="2.65" ry="2.3"/><ellipse class="cls-5" cx="385.37" cy="261.47" rx="2.65" ry="2.3"/><ellipse class="cls-5" cx="385.37" cy="275.04" rx="2.65" ry="2.3"/><ellipse class="cls-5" cx="385.37" cy="288.61" rx="2.65" ry="2.3"/><ellipse class="cls-5" cx="385.37" cy="302.18" rx="2.65" ry="2.3"/><ellipse class="cls-5" cx="366.9" cy="139.32" rx="2.65" ry="2.3"/><ellipse class="cls-5" cx="366.9" cy="152.89" rx="2.65" ry="2.3"/><ellipse class="cls-5" cx="366.9" cy="166.47" rx="2.65" ry="2.3"/><ellipse class="cls-5" cx="366.9" cy="180.04" rx="2.65" ry="2.3"/><ellipse class="cls-5" cx="366.9" cy="193.61" rx="2.65" ry="2.3"/><ellipse class="cls-5" cx="366.9" cy="207.18" rx="2.65" ry="2.3"/><ellipse class="cls-5" cx="366.9" cy="220.75" rx="2.65" ry="2.3"/><ellipse class="cls-5" cx="366.9" cy="234.32" rx="2.65" ry="2.3"/><ellipse class="cls-5" cx="366.9" cy="247.9" rx="2.65" ry="2.3"/><ellipse class="cls-5" cx="366.9" cy="261.47" rx="2.65" ry="2.3"/><ellipse class="cls-5" cx="366.9" cy="275.04" rx="2.65" ry="2.3"/><ellipse class="cls-5" cx="366.9" cy="288.61" rx="2.65" ry="2.3"/><ellipse class="cls-5" cx="366.9" cy="302.18" rx="2.65" ry="2.3"/><ellipse class="cls-5" cx="348.43" cy="139.32" rx="2.65" ry="2.3"/><ellipse class="cls-5" cx="348.43" cy="152.89" rx="2.65" ry="2.3"/><ellipse class="cls-5" cx="348.43" cy="166.47" rx="2.65" ry="2.3"/><ellipse class="cls-5" cx="348.43" cy="180.04" rx="2.65" ry="2.3"/><ellipse class="cls-5" cx="348.43" cy="193.61" rx="2.65" ry="2.3"/><ellipse class="cls-5" cx="348.43" cy="207.18" rx="2.65" ry="2.3"/><ellipse class="cls-5" cx="348.43" cy="220.75" rx="2.65" ry="2.3"/><ellipse class="cls-5" cx="348.43" cy="234.32" rx="2.65" ry="2.3"/><ellipse class="cls-5" cx="348.43" cy="247.9" rx="2.65" ry="2.3"/><ellipse class="cls-5" cx="348.43" cy="261.47" rx="2.65" ry="2.3"/><ellipse class="cls-5" cx="348.43" cy="275.04" rx="2.65" ry="2.3"/><ellipse class="cls-5" cx="348.43" cy="288.61" rx="2.65" ry="2.3"/><ellipse class="cls-5" cx="348.43" cy="302.18" rx="2.65" ry="2.3"/><ellipse class="cls-5" cx="329.95" cy="139.32" rx="2.65" ry="2.3"/><ellipse class="cls-5" cx="329.95" cy="152.89" rx="2.65" ry="2.3"/><ellipse class="cls-5" cx="329.95" cy="166.47" rx="2.65" ry="2.3"/><ellipse class="cls-5" cx="329.95" cy="180.04" rx="2.65" ry="2.3"/><ellipse class="cls-5" cx="329.95" cy="193.61" rx="2.65" ry="2.3"/><ellipse class="cls-5" cx="329.95" cy="207.18" rx="2.65" ry="2.3"/><ellipse class="cls-5" cx="329.95" cy="220.75" rx="2.65" ry="2.3"/><ellipse class="cls-5" cx="329.95" cy="234.32" rx="2.65" ry="2.3"/><ellipse class="cls-5" cx="329.95" cy="247.9" rx="2.65" ry="2.3"/><ellipse class="cls-5" cx="329.95" cy="261.47" rx="2.65" ry="2.3"/><ellipse class="cls-5" cx="329.95" cy="275.04" rx="2.65" ry="2.3"/><ellipse class="cls-5" cx="329.95" cy="288.61" rx="2.65" ry="2.3"/><ellipse class="cls-5" cx="329.95" cy="302.18" rx="2.65" ry="2.3"/><ellipse class="cls-5" cx="311.48" cy="139.32" rx="2.65" ry="2.3"/><ellipse class="cls-5" cx="311.48" cy="152.89" rx="2.65" ry="2.3"/><ellipse class="cls-5" cx="311.48" cy="166.47" rx="2.65" ry="2.3"/><ellipse class="cls-5" cx="311.48" cy="180.04" rx="2.65" ry="2.3"/><ellipse class="cls-5" cx="311.48" cy="193.61" rx="2.65" ry="2.3"/><ellipse class="cls-5" cx="311.48" cy="207.18" rx="2.65" ry="2.3"/><ellipse class="cls-5" cx="311.48" cy="220.75" rx="2.65" ry="2.3"/><ellipse class="cls-5" cx="311.48" cy="234.32" rx="2.65" ry="2.3"/><ellipse class="cls-5" cx="311.48" cy="247.9" rx="2.65" ry="2.3"/><ellipse class="cls-5" cx="311.48" cy="261.47" rx="2.65" ry="2.3"/><ellipse class="cls-5" cx="311.48" cy="275.04" rx="2.65" ry="2.3"/><ellipse class="cls-5" cx="311.48" cy="288.61" rx="2.65" ry="2.3"/><ellipse class="cls-5" cx="311.48" cy="302.18" rx="2.65" ry="2.3"/><ellipse class="cls-5" cx="293.01" cy="139.32" rx="2.65" ry="2.3"/><ellipse class="cls-5" cx="293.01" cy="152.89" rx="2.65" ry="2.3"/><ellipse class="cls-5" cx="293.01" cy="166.47" rx="2.65" ry="2.3"/><ellipse class="cls-5" cx="293.01" cy="180.04" rx="2.65" ry="2.3"/><ellipse class="cls-5" cx="293.01" cy="193.61" rx="2.65" ry="2.3"/><ellipse class="cls-5" cx="293.01" cy="207.18" rx="2.65" ry="2.3"/><ellipse class="cls-5" cx="293.01" cy="220.75" rx="2.65" ry="2.3"/><ellipse class="cls-5" cx="293.01" cy="234.32" rx="2.65" ry="2.3"/><ellipse class="cls-5" cx="293.01" cy="247.9" rx="2.65" ry="2.3"/><ellipse class="cls-5" cx="293.01" cy="261.47" rx="2.65" ry="2.3"/><ellipse class="cls-5" cx="293.01" cy="275.04" rx="2.65" ry="2.3"/><ellipse class="cls-5" cx="293.01" cy="288.61" rx="2.65" ry="2.3"/><ellipse class="cls-5" cx="293.01" cy="302.18" rx="2.65" ry="2.3"/><ellipse class="cls-5" cx="274.53" cy="139.32" rx="2.65" ry="2.3"/><ellipse class="cls-5" cx="274.53" cy="152.89" rx="2.65" ry="2.3"/><ellipse class="cls-5" cx="274.53" cy="166.47" rx="2.65" ry="2.3"/><ellipse class="cls-5" cx="274.53" cy="180.04" rx="2.65" ry="2.3"/><ellipse class="cls-5" cx="274.53" cy="193.61" rx="2.65" ry="2.3"/><ellipse class="cls-5" cx="274.54" cy="207.18" rx="2.65" ry="2.3"/><ellipse class="cls-5" cx="274.54" cy="220.75" rx="2.65" ry="2.3"/><ellipse class="cls-5" cx="274.54" cy="234.32" rx="2.65" ry="2.3"/><ellipse class="cls-5" cx="274.54" cy="247.9" rx="2.65" ry="2.3"/><ellipse class="cls-5" cx="274.54" cy="261.47" rx="2.65" ry="2.3"/><ellipse class="cls-5" cx="274.54" cy="275.04" rx="2.65" ry="2.3"/><ellipse class="cls-5" cx="274.54" cy="288.61" rx="2.65" ry="2.3"/><ellipse class="cls-5" cx="274.54" cy="302.18" rx="2.65" ry="2.3"/><ellipse class="cls-5" cx="256.06" cy="139.32" rx="2.65" ry="2.3"/><ellipse class="cls-5" cx="403.85" cy="125.75" rx="2.65" ry="2.3"/><ellipse class="cls-5" cx="385.37" cy="125.75" rx="2.65" ry="2.3"/><ellipse class="cls-5" cx="366.9" cy="125.75" rx="2.65" ry="2.3"/><ellipse class="cls-5" cx="348.43" cy="125.75" rx="2.65" ry="2.3"/><ellipse class="cls-5" cx="329.95" cy="125.75" rx="2.65" ry="2.3"/><ellipse class="cls-5" cx="311.48" cy="125.75" rx="2.65" ry="2.3"/><ellipse class="cls-5" cx="293.01" cy="125.75" rx="2.65" ry="2.3"/><ellipse class="cls-5" cx="274.53" cy="125.75" rx="2.65" ry="2.3"/><ellipse class="cls-5" cx="256.06" cy="125.75" rx="2.65" ry="2.3"/><ellipse class="cls-5" cx="256.06" cy="152.89" rx="2.65" ry="2.3"/><ellipse class="cls-5" cx="256.06" cy="166.47" rx="2.65" ry="2.3"/><ellipse class="cls-5" cx="256.06" cy="180.04" rx="2.65" ry="2.3"/><ellipse class="cls-5" cx="256.06" cy="193.61" rx="2.65" ry="2.3"/><ellipse class="cls-5" cx="256.06" cy="207.18" rx="2.65" ry="2.3"/><ellipse class="cls-5" cx="256.06" cy="220.75" rx="2.65" ry="2.3"/><ellipse class="cls-5" cx="256.06" cy="234.32" rx="2.65" ry="2.3"/><ellipse class="cls-5" cx="256.06" cy="247.9" rx="2.65" ry="2.3"/><ellipse class="cls-5" cx="256.06" cy="261.47" rx="2.65" ry="2.3"/><ellipse class="cls-5" cx="256.06" cy="275.04" rx="2.65" ry="2.3"/><ellipse class="cls-5" cx="256.06" cy="288.61" rx="2.65" ry="2.3"/><ellipse class="cls-5" cx="256.06" cy="302.18" rx="2.65" ry="2.3"/><ellipse class="cls-5" cx="237.24" cy="317.16" rx="2.65" ry="2.3"/><ellipse class="cls-5" cx="237.24" cy="330.73" rx="2.65" ry="2.3"/><ellipse class="cls-5" cx="237.24" cy="344.3" rx="2.65" ry="2.3"/><ellipse class="cls-5" cx="237.24" cy="357.87" rx="2.65" ry="2.3"/><ellipse class="cls-5" cx="237.24" cy="371.45" rx="2.65" ry="2.3"/><ellipse class="cls-5" cx="237.24" cy="385.02" rx="2.65" ry="2.3"/><ellipse class="cls-5" cx="237.24" cy="398.59" rx="2.65" ry="2.3"/><ellipse class="cls-5" cx="237.24" cy="412.16" rx="2.65" ry="2.3"/><ellipse class="cls-5" cx="218.77" cy="330.73" rx="2.65" ry="2.3"/><ellipse class="cls-5" cx="218.77" cy="344.3" rx="2.65" ry="2.3"/><ellipse class="cls-5" cx="218.77" cy="357.87" rx="2.65" ry="2.3"/><ellipse class="cls-5" cx="218.77" cy="371.45" rx="2.65" ry="2.3"/><ellipse class="cls-5" cx="218.77" cy="385.02" rx="2.65" ry="2.3"/><ellipse class="cls-5" cx="218.77" cy="398.59" rx="2.65" ry="2.3"/><ellipse class="cls-5" cx="218.77" cy="412.16" rx="2.65" ry="2.3"/><ellipse class="cls-5" cx="200.3" cy="330.73" rx="2.65" ry="2.3"/><ellipse class="cls-5" cx="200.3" cy="344.3" rx="2.65" ry="2.3"/><ellipse class="cls-5" cx="200.3" cy="357.87" rx="2.65" ry="2.3"/><ellipse class="cls-5" cx="200.3" cy="371.45" rx="2.65" ry="2.3"/><ellipse class="cls-5" cx="200.3" cy="385.02" rx="2.65" ry="2.3"/><ellipse class="cls-5" cx="200.3" cy="398.59" rx="2.65" ry="2.3"/><ellipse class="cls-5" cx="200.3" cy="412.16" rx="2.65" ry="2.3"/><ellipse class="cls-5" cx="181.83" cy="330.73" rx="2.65" ry="2.3"/><ellipse class="cls-5" cx="181.83" cy="344.3" rx="2.65" ry="2.3"/><ellipse class="cls-5" cx="181.83" cy="357.87" rx="2.65" ry="2.3"/><ellipse class="cls-5" cx="181.83" cy="371.45" rx="2.65" ry="2.3"/><ellipse class="cls-5" cx="181.83" cy="385.02" rx="2.65" ry="2.3"/><ellipse class="cls-5" cx="181.83" cy="398.59" rx="2.65" ry="2.3"/><ellipse class="cls-5" cx="181.83" cy="412.16" rx="2.65" ry="2.3"/><ellipse class="cls-5" cx="163.35" cy="330.73" rx="2.65" ry="2.3"/><ellipse class="cls-5" cx="163.35" cy="344.3" rx="2.65" ry="2.3"/><ellipse class="cls-5" cx="163.35" cy="357.87" rx="2.65" ry="2.3"/><ellipse class="cls-5" cx="163.35" cy="371.45" rx="2.65" ry="2.3"/><ellipse class="cls-5" cx="163.35" cy="385.02" rx="2.65" ry="2.3"/><ellipse class="cls-5" cx="163.35" cy="398.59" rx="2.65" ry="2.3"/><ellipse class="cls-5" cx="163.35" cy="412.16" rx="2.65" ry="2.3"/><ellipse class="cls-5" cx="144.88" cy="330.73" rx="2.65" ry="2.3"/><ellipse class="cls-5" cx="144.88" cy="344.3" rx="2.65" ry="2.3"/><ellipse class="cls-5" cx="144.88" cy="357.87" rx="2.65" ry="2.3"/><ellipse class="cls-5" cx="144.88" cy="371.45" rx="2.65" ry="2.3"/><ellipse class="cls-5" cx="144.88" cy="385.02" rx="2.65" ry="2.3"/><ellipse class="cls-5" cx="144.88" cy="398.59" rx="2.65" ry="2.3"/><ellipse class="cls-5" cx="144.88" cy="412.16" rx="2.65" ry="2.3"/><ellipse class="cls-5" cx="126.41" cy="330.73" rx="2.65" ry="2.3"/><ellipse class="cls-5" cx="126.41" cy="344.3" rx="2.65" ry="2.3"/><ellipse class="cls-5" cx="126.41" cy="357.87" rx="2.65" ry="2.3"/><ellipse class="cls-5" cx="126.41" cy="371.45" rx="2.65" ry="2.3"/><ellipse class="cls-5" cx="126.41" cy="385.02" rx="2.65" ry="2.3"/><ellipse class="cls-5" cx="126.41" cy="398.59" rx="2.65" ry="2.3"/><ellipse class="cls-5" cx="126.41" cy="412.16" rx="2.65" ry="2.3"/><ellipse class="cls-5" cx="107.93" cy="330.73" rx="2.65" ry="2.3"/><ellipse class="cls-5" cx="107.93" cy="344.3" rx="2.65" ry="2.3"/><ellipse class="cls-5" cx="107.93" cy="357.87" rx="2.65" ry="2.3"/><ellipse class="cls-5" cx="107.93" cy="371.45" rx="2.65" ry="2.3"/><ellipse class="cls-5" cx="107.93" cy="385.02" rx="2.65" ry="2.3"/><ellipse class="cls-5" cx="107.93" cy="398.59" rx="2.65" ry="2.3"/><ellipse class="cls-5" cx="107.93" cy="412.16" rx="2.65" ry="2.3"/><ellipse class="cls-5" cx="89.46" cy="330.73" rx="2.65" ry="2.3"/><ellipse class="cls-5" cx="89.46" cy="344.3" rx="2.65" ry="2.3"/><ellipse class="cls-5" cx="89.46" cy="357.87" rx="2.65" ry="2.3"/><ellipse class="cls-5" cx="89.46" cy="371.45" rx="2.65" ry="2.3"/><ellipse class="cls-5" cx="89.46" cy="385.02" rx="2.65" ry="2.3"/><ellipse class="cls-5" cx="89.46" cy="398.59" rx="2.65" ry="2.3"/><ellipse class="cls-5" cx="89.46" cy="412.16" rx="2.65" ry="2.3"/><ellipse class="cls-5" cx="70.99" cy="330.73" rx="2.65" ry="2.3"/><ellipse class="cls-5" cx="70.99" cy="344.3" rx="2.65" ry="2.3"/><ellipse class="cls-5" cx="70.99" cy="357.87" rx="2.65" ry="2.3"/><ellipse class="cls-5" cx="70.99" cy="371.45" rx="2.65" ry="2.3"/><ellipse class="cls-5" cx="70.99" cy="385.02" rx="2.65" ry="2.3"/><ellipse class="cls-5" cx="70.99" cy="398.59" rx="2.65" ry="2.3"/><ellipse class="cls-5" cx="70.99" cy="412.16" rx="2.65" ry="2.3"/><ellipse class="cls-5" cx="52.52" cy="330.73" rx="2.65" ry="2.3"/><ellipse class="cls-5" cx="52.52" cy="344.3" rx="2.65" ry="2.3"/><ellipse class="cls-5" cx="52.52" cy="357.87" rx="2.65" ry="2.3"/><ellipse class="cls-5" cx="52.52" cy="371.45" rx="2.65" ry="2.3"/><ellipse class="cls-5" cx="52.52" cy="385.02" rx="2.65" ry="2.3"/><ellipse class="cls-5" cx="52.52" cy="398.59" rx="2.65" ry="2.3"/><ellipse class="cls-5" cx="52.52" cy="412.16" rx="2.65" ry="2.3"/><ellipse class="cls-5" cx="34.04" cy="330.73" rx="2.65" ry="2.3"/><ellipse class="cls-5" cx="218.77" cy="317.16" rx="2.65" ry="2.3"/><ellipse class="cls-5" cx="200.3" cy="317.16" rx="2.65" ry="2.3"/><ellipse class="cls-5" cx="181.83" cy="317.16" rx="2.65" ry="2.3"/><ellipse class="cls-5" cx="163.35" cy="317.16" rx="2.65" ry="2.3"/><ellipse class="cls-5" cx="144.88" cy="317.16" rx="2.65" ry="2.3"/><ellipse class="cls-5" cx="126.41" cy="317.16" rx="2.65" ry="2.3"/><ellipse class="cls-5" cx="107.93" cy="317.16" rx="2.65" ry="2.3"/><ellipse class="cls-5" cx="89.46" cy="317.16" rx="2.65" ry="2.3"/><ellipse class="cls-5" cx="70.99" cy="317.16" rx="2.65" ry="2.3"/><ellipse class="cls-5" cx="52.52" cy="317.16" rx="2.65" ry="2.3"/><ellipse class="cls-5" cx="34.04" cy="317.16" rx="2.65" ry="2.3"/><ellipse class="cls-5" cx="34.04" cy="344.3" rx="2.65" ry="2.3"/><ellipse class="cls-5" cx="34.04" cy="357.87" rx="2.65" ry="2.3"/><ellipse class="cls-5" cx="34.04" cy="371.45" rx="2.65" ry="2.3"/><ellipse class="cls-5" cx="34.04" cy="385.02" rx="2.65" ry="2.3"/><ellipse class="cls-5" cx="34.04" cy="398.59" rx="2.65" ry="2.3"/><ellipse class="cls-5" cx="34.04" cy="412.16" rx="2.65" ry="2.3"/><ellipse class="cls-5" cx="18.04" cy="125.75" rx="2.65" ry="2.3"/><ellipse class="cls-5" cx="18.04" cy="139.32" rx="2.65" ry="2.3"/><ellipse class="cls-5" cx="18.04" cy="152.89" rx="2.65" ry="2.3"/><ellipse class="cls-5" cx="18.04" cy="166.47" rx="2.65" ry="2.3"/><ellipse class="cls-5" cx="18.04" cy="180.04" rx="2.65" ry="2.3"/><ellipse class="cls-5" cx="18.04" cy="193.61" rx="2.65" ry="2.3"/><ellipse class="cls-5" cx="18.04" cy="207.18" rx="2.65" ry="2.3"/><ellipse class="cls-5" cx="18.04" cy="220.75" rx="2.65" ry="2.3"/><ellipse class="cls-5" cx="18.04" cy="234.32" rx="2.65" ry="2.3"/><ellipse class="cls-5" cx="18.04" cy="247.9" rx="2.65" ry="2.3"/><ellipse class="cls-5" cx="18.04" cy="261.47" rx="2.65" ry="2.3"/><ellipse class="cls-5" cx="18.04" cy="275.04" rx="2.65" ry="2.3"/><ellipse class="cls-5" cx="18.04" cy="288.61" rx="2.65" ry="2.3"/><ellipse class="cls-5" cx="18.04" cy="302.18" rx="2.65" ry="2.3"/><ellipse class="cls-5" cx="-0.43" cy="139.32" rx="2.65" ry="2.3"/><ellipse class="cls-5" cx="-0.43" cy="152.89" rx="2.65" ry="2.3"/><ellipse class="cls-5" cx="-0.43" cy="166.47" rx="2.65" ry="2.3"/><ellipse class="cls-5" cx="-0.43" cy="180.04" rx="2.65" ry="2.3"/><ellipse class="cls-5" cx="-0.43" cy="193.61" rx="2.65" ry="2.3"/><ellipse class="cls-5" cx="-0.43" cy="207.18" rx="2.65" ry="2.3"/><ellipse class="cls-5" cx="-0.43" cy="220.75" rx="2.65" ry="2.3"/><ellipse class="cls-5" cx="-0.43" cy="234.32" rx="2.65" ry="2.3"/><ellipse class="cls-5" cx="-0.43" cy="247.9" rx="2.65" ry="2.3"/><ellipse class="cls-5" cx="-0.43" cy="261.47" rx="2.65" ry="2.3"/><ellipse class="cls-5" cx="-0.43" cy="275.04" rx="2.65" ry="2.3"/><ellipse class="cls-5" cx="-0.43" cy="288.61" rx="2.65" ry="2.3"/><ellipse class="cls-5" cx="-0.43" cy="302.18" rx="2.65" ry="2.3"/><ellipse class="cls-5" cx="-0.43" cy="125.75" rx="2.65" ry="2.3"/><ellipse class="cls-5" cx="18.04" cy="317.16" rx="2.65" ry="2.3"/><ellipse class="cls-5" cx="18.04" cy="330.73" rx="2.65" ry="2.3"/><ellipse class="cls-5" cx="18.04" cy="344.3" rx="2.65" ry="2.3"/><ellipse class="cls-5" cx="18.04" cy="357.87" rx="2.65" ry="2.3"/><ellipse class="cls-5" cx="18.04" cy="371.45" rx="2.65" ry="2.3"/><ellipse class="cls-5" cx="18.04" cy="385.02" rx="2.65" ry="2.3"/><ellipse class="cls-5" cx="18.04" cy="398.59" rx="2.65" ry="2.3"/><ellipse class="cls-5" cx="18.04" cy="412.16" rx="2.65" ry="2.3"/><ellipse class="cls-5" cx="-0.43" cy="330.73" rx="2.65" ry="2.3"/><ellipse class="cls-5" cx="-0.43" cy="344.3" rx="2.65" ry="2.3"/><ellipse class="cls-5" cx="-0.43" cy="357.87" rx="2.65" ry="2.3"/><ellipse class="cls-5" cx="-0.43" cy="371.45" rx="2.65" ry="2.3"/><ellipse class="cls-5" cx="-0.43" cy="385.02" rx="2.65" ry="2.3"/><ellipse class="cls-5" cx="-0.43" cy="398.59" rx="2.65" ry="2.3"/><ellipse class="cls-5" cx="-0.43" cy="412.16" rx="2.65" ry="2.3"/><ellipse class="cls-5" cx="-0.43" cy="317.16" rx="2.65" ry="2.3"/><ellipse class="cls-5" cx="403.85" cy="330.73" rx="2.65" ry="2.3"/><ellipse class="cls-5" cx="403.85" cy="344.3" rx="2.65" ry="2.3"/><ellipse class="cls-5" cx="403.85" cy="357.87" rx="2.65" ry="2.3"/><ellipse class="cls-5" cx="403.85" cy="371.45" rx="2.65" ry="2.3"/><ellipse class="cls-5" cx="403.85" cy="385.02" rx="2.65" ry="2.3"/><ellipse class="cls-5" cx="403.85" cy="398.59" rx="2.65" ry="2.3"/><ellipse class="cls-5" cx="403.85" cy="412.16" rx="2.65" ry="2.3"/><ellipse class="cls-5" cx="385.37" cy="330.73" rx="2.65" ry="2.3"/><ellipse class="cls-5" cx="385.37" cy="344.3" rx="2.65" ry="2.3"/><ellipse class="cls-5" cx="385.37" cy="357.87" rx="2.65" ry="2.3"/><ellipse class="cls-5" cx="385.37" cy="371.45" rx="2.65" ry="2.3"/><ellipse class="cls-5" cx="385.37" cy="385.02" rx="2.65" ry="2.3"/><ellipse class="cls-5" cx="385.37" cy="398.59" rx="2.65" ry="2.3"/><ellipse class="cls-5" cx="385.37" cy="412.16" rx="2.65" ry="2.3"/><ellipse class="cls-5" cx="366.9" cy="330.73" rx="2.65" ry="2.3"/><ellipse class="cls-5" cx="366.9" cy="344.3" rx="2.65" ry="2.3"/><ellipse class="cls-5" cx="366.9" cy="357.87" rx="2.65" ry="2.3"/><ellipse class="cls-5" cx="366.9" cy="371.45" rx="2.65" ry="2.3"/><ellipse class="cls-5" cx="366.9" cy="385.02" rx="2.65" ry="2.3"/><ellipse class="cls-5" cx="366.9" cy="398.59" rx="2.65" ry="2.3"/><ellipse class="cls-5" cx="366.9" cy="412.16" rx="2.65" ry="2.3"/><ellipse class="cls-5" cx="348.43" cy="330.73" rx="2.65" ry="2.3"/><ellipse class="cls-5" cx="348.43" cy="344.3" rx="2.65" ry="2.3"/><ellipse class="cls-5" cx="348.43" cy="357.87" rx="2.65" ry="2.3"/><ellipse class="cls-5" cx="348.43" cy="371.45" rx="2.65" ry="2.3"/><ellipse class="cls-5" cx="348.43" cy="385.02" rx="2.65" ry="2.3"/><ellipse class="cls-5" cx="348.43" cy="398.59" rx="2.65" ry="2.3"/><ellipse class="cls-5" cx="348.43" cy="412.16" rx="2.65" ry="2.3"/><ellipse class="cls-5" cx="329.95" cy="330.73" rx="2.65" ry="2.3"/><ellipse class="cls-5" cx="329.95" cy="344.3" rx="2.65" ry="2.3"/><ellipse class="cls-5" cx="329.95" cy="357.87" rx="2.65" ry="2.3"/><ellipse class="cls-5" cx="329.95" cy="371.45" rx="2.65" ry="2.3"/><ellipse class="cls-5" cx="329.95" cy="385.02" rx="2.65" ry="2.3"/><ellipse class="cls-5" cx="329.95" cy="398.59" rx="2.65" ry="2.3"/><ellipse class="cls-5" cx="329.95" cy="412.16" rx="2.65" ry="2.3"/><ellipse class="cls-5" cx="311.48" cy="330.73" rx="2.65" ry="2.3"/><ellipse class="cls-5" cx="311.48" cy="344.3" rx="2.65" ry="2.3"/><ellipse class="cls-5" cx="311.48" cy="357.87" rx="2.65" ry="2.3"/><ellipse class="cls-5" cx="311.48" cy="371.45" rx="2.65" ry="2.3"/><ellipse class="cls-5" cx="311.48" cy="385.02" rx="2.65" ry="2.3"/><ellipse class="cls-5" cx="311.48" cy="398.59" rx="2.65" ry="2.3"/><ellipse class="cls-5" cx="311.48" cy="412.16" rx="2.65" ry="2.3"/><ellipse class="cls-5" cx="293.01" cy="330.73" rx="2.65" ry="2.3"/><ellipse class="cls-5" cx="293.01" cy="344.3" rx="2.65" ry="2.3"/><ellipse class="cls-5" cx="293.01" cy="357.87" rx="2.65" ry="2.3"/><ellipse class="cls-5" cx="293.01" cy="371.45" rx="2.65" ry="2.3"/><ellipse class="cls-5" cx="293.01" cy="385.02" rx="2.65" ry="2.3"/><ellipse class="cls-5" cx="293.01" cy="398.59" rx="2.65" ry="2.3"/><ellipse class="cls-5" cx="293.01" cy="412.16" rx="2.65" ry="2.3"/><ellipse class="cls-5" cx="274.54" cy="330.73" rx="2.65" ry="2.3"/><ellipse class="cls-5" cx="274.54" cy="344.3" rx="2.65" ry="2.3"/><ellipse class="cls-5" cx="274.54" cy="357.87" rx="2.65" ry="2.3"/><ellipse class="cls-5" cx="274.54" cy="371.45" rx="2.65" ry="2.3"/><ellipse class="cls-5" cx="274.54" cy="385.02" rx="2.65" ry="2.3"/><ellipse class="cls-5" cx="274.54" cy="398.59" rx="2.65" ry="2.3"/><ellipse class="cls-5" cx="274.54" cy="412.16" rx="2.65" ry="2.3"/><ellipse class="cls-5" cx="256.06" cy="330.73" rx="2.65" ry="2.3"/><ellipse class="cls-5" cx="403.85" cy="317.16" rx="2.65" ry="2.3"/><ellipse class="cls-5" cx="385.37" cy="317.16" rx="2.65" ry="2.3"/><ellipse class="cls-5" cx="366.9" cy="317.16" rx="2.65" ry="2.3"/><ellipse class="cls-5" cx="348.43" cy="317.16" rx="2.65" ry="2.3"/><ellipse class="cls-5" cx="329.95" cy="317.16" rx="2.65" ry="2.3"/><ellipse class="cls-5" cx="311.48" cy="317.16" rx="2.65" ry="2.3"/><ellipse class="cls-5" cx="293.01" cy="317.16" rx="2.65" ry="2.3"/><ellipse class="cls-5" cx="274.54" cy="317.16" rx="2.65" ry="2.3"/><ellipse class="cls-5" cx="256.06" cy="317.16" rx="2.65" ry="2.3"/><ellipse class="cls-5" cx="256.06" cy="344.3" rx="2.65" ry="2.3"/><ellipse class="cls-5" cx="256.06" cy="357.87" rx="2.65" ry="2.3"/><ellipse class="cls-5" cx="256.06" cy="371.45" rx="2.65" ry="2.3"/><ellipse class="cls-5" cx="256.06" cy="385.02" rx="2.65" ry="2.3"/><ellipse class="cls-5" cx="256.06" cy="398.59" rx="2.65" ry="2.3"/><ellipse class="cls-5" cx="256.06" cy="412.16" rx="2.65" ry="2.3"/></g></g></g></svg>