<svg xmlns="http://www.w3.org/2000/svg" viewBox="0 0 418.92 418.92"><defs><style>.cls-1{fill:#0c9da7;}.cls-2{fill:#04181f;opacity:0.1;}</style></defs><g id="Sentences"><rect class="cls-1" width="418.92" height="418.92"/><path class="cls-2" d="M432.91,232.38l-60,65.14-51.5,55.58-.5-1L229.18,386.4,84.72,265l-.19-3.6L-88,250.37l-88-55.11-12-65.72,51.61,32.32.77,14.22L54.93,188.27,205.64,314.93l1.68,3.19,1.46-.55h0L303,282.38l6.15,5.17,33.54-36.19,14.6-15.76,25.5-27.51-2.33-2,7.85-1.84L312.71,6l-12,2.83L-19.67-72.89l-1.48,8.71-171.41,64,.48.91-9.79,57.78-7.07-38.62,2.88.73,16.68-98.44,168.58-63L265.56-67.71,445.4,63.9c0-8.28.23-16.57.38-24.85L283.86-79.44l.77-4.56L-37.6-166.21l-1.48,8.71-171.41,64,.48.91L-225.19-2.95l-10.15.52,19,103.66-4.8,7.55,8,5,14.78,80.8-4.8,7.55,84.77,53.08.77,14.22L72.86,281.59,223.57,408.25l1.68,3.18,1.46-.54h0l94.2-35.18,6.14,5.17L390.89,312l12.32-6.18-2.73-4.17.22-.23-.82-.69,28.69-32.54Zm-103.25-.9-26.22,28.3-.5-.95-91.69,34.25L66.79,171.68l-.19-3.6-172.54-11-80.9-50.67,15.39-90.85,168.58-63L298.75,29.5,362.3,196.25l-18,19.47Z"/></g></svg>