<svg xmlns="http://www.w3.org/2000/svg" viewBox="0 0 418.92 418.92"><defs><style>.cls-1{fill:#76af80;}.cls-2{opacity:0.15;}.cls-3{fill:none;stroke:#273c2c;stroke-miterlimit:10;}</style></defs><g id="Sentences"><rect class="cls-1" width="418.92" height="418.92"/><g class="cls-2"><line class="cls-3" x1="415.43" y1="137.92" x2="409.54" y2="137.92"/><line class="cls-3" x1="412.48" y1="140.86" x2="412.48" y2="134.98"/><line class="cls-3" x1="415.43" y1="148.69" x2="409.54" y2="148.69"/><line class="cls-3" x1="412.48" y1="151.63" x2="412.48" y2="145.75"/><line class="cls-3" x1="415.43" y1="159.46" x2="409.54" y2="159.46"/><line class="cls-3" x1="412.48" y1="162.4" x2="412.48" y2="156.52"/><line class="cls-3" x1="415.43" y1="170.23" x2="409.54" y2="170.23"/><line class="cls-3" x1="412.48" y1="173.18" x2="412.48" y2="167.29"/><line class="cls-3" x1="415.43" y1="181.01" x2="409.54" y2="181.01"/><line class="cls-3" x1="412.48" y1="183.95" x2="412.48" y2="178.07"/><line class="cls-3" x1="415.43" y1="191.78" x2="409.54" y2="191.78"/><line class="cls-3" x1="412.48" y1="194.72" x2="412.48" y2="188.84"/><line class="cls-3" x1="415.43" y1="202.55" x2="409.54" y2="202.55"/><line class="cls-3" x1="412.48" y1="205.49" x2="412.48" y2="199.61"/><line class="cls-3" x1="415.43" y1="213.32" x2="409.54" y2="213.32"/><line class="cls-3" x1="412.48" y1="216.26" x2="412.48" y2="210.38"/><line class="cls-3" x1="415.43" y1="224.09" x2="409.54" y2="224.09"/><line class="cls-3" x1="412.48" y1="227.03" x2="412.48" y2="221.15"/><line class="cls-3" x1="415.43" y1="234.86" x2="409.54" y2="234.86"/><line class="cls-3" x1="412.48" y1="237.81" x2="412.48" y2="231.92"/><line class="cls-3" x1="415.43" y1="245.64" x2="409.54" y2="245.64"/><line class="cls-3" x1="412.48" y1="248.58" x2="412.48" y2="242.69"/><line class="cls-3" x1="415.43" y1="256.41" x2="409.54" y2="256.41"/><line class="cls-3" x1="412.48" y1="259.35" x2="412.48" y2="253.47"/><line class="cls-3" x1="415.43" y1="267.18" x2="409.54" y2="267.18"/><line class="cls-3" x1="412.48" y1="270.12" x2="412.48" y2="264.24"/><line class="cls-3" x1="415.43" y1="277.95" x2="409.54" y2="277.95"/><line class="cls-3" x1="412.48" y1="280.89" x2="412.48" y2="275.01"/><line class="cls-3" x1="415.43" y1="288.72" x2="409.54" y2="288.72"/><line class="cls-3" x1="412.48" y1="291.66" x2="412.48" y2="285.78"/><line class="cls-3" x1="415.43" y1="299.49" x2="409.54" y2="299.49"/><line class="cls-3" x1="412.48" y1="302.44" x2="412.48" y2="296.55"/><line class="cls-3" x1="415.43" y1="310.27" x2="409.54" y2="310.27"/><line class="cls-3" x1="412.48" y1="313.21" x2="412.48" y2="307.32"/><line class="cls-3" x1="415.43" y1="321.04" x2="409.54" y2="321.04"/><line class="cls-3" x1="412.48" y1="323.98" x2="412.48" y2="318.1"/><line class="cls-3" x1="415.43" y1="331.81" x2="409.54" y2="331.81"/><line class="cls-3" x1="412.48" y1="334.75" x2="412.48" y2="328.87"/><line class="cls-3" x1="415.43" y1="342.58" x2="409.54" y2="342.58"/><line class="cls-3" x1="412.48" y1="345.52" x2="412.48" y2="339.64"/><line class="cls-3" x1="415.43" y1="353.35" x2="409.54" y2="353.35"/><line class="cls-3" x1="412.48" y1="356.29" x2="412.48" y2="350.41"/><line class="cls-3" x1="415.43" y1="364.12" x2="409.54" y2="364.12"/><line class="cls-3" x1="412.48" y1="367.07" x2="412.48" y2="361.18"/><line class="cls-3" x1="415.43" y1="374.9" x2="409.54" y2="374.9"/><line class="cls-3" x1="412.48" y1="377.84" x2="412.48" y2="371.95"/><line class="cls-3" x1="415.43" y1="385.67" x2="409.54" y2="385.67"/><line class="cls-3" x1="412.48" y1="388.61" x2="412.48" y2="382.73"/><line class="cls-3" x1="415.43" y1="396.44" x2="409.54" y2="396.44"/><line class="cls-3" x1="412.48" y1="399.38" x2="412.48" y2="393.5"/><line class="cls-3" x1="415.43" y1="407.21" x2="409.54" y2="407.21"/><line class="cls-3" x1="412.48" y1="410.15" x2="412.48" y2="404.27"/><line class="cls-3" x1="415.43" y1="417.98" x2="409.54" y2="417.98"/><line class="cls-3" x1="412.48" y1="420.92" x2="412.48" y2="415.04"/><line class="cls-3" x1="404.51" y1="137.92" x2="398.63" y2="137.92"/><line class="cls-3" x1="401.57" y1="140.86" x2="401.57" y2="134.98"/><line class="cls-3" x1="404.51" y1="148.69" x2="398.63" y2="148.69"/><line class="cls-3" x1="401.57" y1="151.63" x2="401.57" y2="145.75"/><line class="cls-3" x1="404.51" y1="159.46" x2="398.63" y2="159.46"/><line class="cls-3" x1="401.57" y1="162.4" x2="401.57" y2="156.52"/><line class="cls-3" x1="404.51" y1="170.23" x2="398.63" y2="170.23"/><line class="cls-3" x1="401.57" y1="173.18" x2="401.57" y2="167.29"/><line class="cls-3" x1="404.51" y1="181.01" x2="398.63" y2="181.01"/><line class="cls-3" x1="401.57" y1="183.95" x2="401.57" y2="178.07"/><line class="cls-3" x1="404.51" y1="191.78" x2="398.63" y2="191.78"/><line class="cls-3" x1="401.57" y1="194.72" x2="401.57" y2="188.84"/><line class="cls-3" x1="404.51" y1="202.55" x2="398.63" y2="202.55"/><line class="cls-3" x1="401.57" y1="205.49" x2="401.57" y2="199.61"/><line class="cls-3" x1="404.51" y1="213.32" x2="398.63" y2="213.32"/><line class="cls-3" x1="401.57" y1="216.26" x2="401.57" y2="210.38"/><line class="cls-3" x1="404.51" y1="224.09" x2="398.63" y2="224.09"/><line class="cls-3" x1="401.57" y1="227.03" x2="401.57" y2="221.15"/><line class="cls-3" x1="404.51" y1="234.86" x2="398.63" y2="234.86"/><line class="cls-3" x1="401.57" y1="237.81" x2="401.57" y2="231.92"/><line class="cls-3" x1="404.51" y1="245.64" x2="398.63" y2="245.64"/><line class="cls-3" x1="401.57" y1="248.58" x2="401.57" y2="242.69"/><line class="cls-3" x1="404.51" y1="256.41" x2="398.63" y2="256.41"/><line class="cls-3" x1="401.57" y1="259.35" x2="401.57" y2="253.47"/><line class="cls-3" x1="404.51" y1="267.18" x2="398.63" y2="267.18"/><line class="cls-3" x1="401.57" y1="270.12" x2="401.57" y2="264.24"/><line class="cls-3" x1="404.51" y1="277.95" x2="398.63" y2="277.95"/><line class="cls-3" x1="401.57" y1="280.89" x2="401.57" y2="275.01"/><line class="cls-3" x1="404.51" y1="288.72" x2="398.63" y2="288.72"/><line class="cls-3" x1="401.57" y1="291.66" x2="401.57" y2="285.78"/><line class="cls-3" x1="404.51" y1="299.49" x2="398.63" y2="299.49"/><line class="cls-3" x1="401.57" y1="302.44" x2="401.57" y2="296.55"/><line class="cls-3" x1="404.51" y1="310.27" x2="398.63" y2="310.27"/><line class="cls-3" x1="401.57" y1="313.21" x2="401.57" y2="307.32"/><line class="cls-3" x1="404.51" y1="321.04" x2="398.63" y2="321.04"/><line class="cls-3" x1="401.57" y1="323.98" x2="401.57" y2="318.1"/><line class="cls-3" x1="404.51" y1="331.81" x2="398.63" y2="331.81"/><line class="cls-3" x1="401.57" y1="334.75" x2="401.57" y2="328.87"/><line class="cls-3" x1="404.51" y1="342.58" x2="398.63" y2="342.58"/><line class="cls-3" x1="401.57" y1="345.52" x2="401.57" y2="339.64"/><line class="cls-3" x1="404.51" y1="353.35" x2="398.63" y2="353.35"/><line class="cls-3" x1="401.57" y1="356.29" x2="401.57" y2="350.41"/><line class="cls-3" x1="404.51" y1="364.12" x2="398.63" y2="364.12"/><line class="cls-3" x1="401.57" y1="367.07" x2="401.57" y2="361.18"/><line class="cls-3" x1="404.51" y1="374.9" x2="398.63" y2="374.9"/><line class="cls-3" x1="401.57" y1="377.84" x2="401.57" y2="371.95"/><line class="cls-3" x1="404.51" y1="385.67" x2="398.63" y2="385.67"/><line class="cls-3" x1="401.57" y1="388.61" x2="401.57" y2="382.73"/><line class="cls-3" x1="404.51" y1="396.44" x2="398.63" y2="396.44"/><line class="cls-3" x1="401.57" y1="399.38" x2="401.57" y2="393.5"/><line class="cls-3" x1="404.51" y1="407.21" x2="398.63" y2="407.21"/><line class="cls-3" x1="401.57" y1="410.15" x2="401.57" y2="404.27"/><line class="cls-3" x1="404.51" y1="417.98" x2="398.63" y2="417.98"/><line class="cls-3" x1="401.57" y1="420.92" x2="401.57" y2="415.04"/><line class="cls-3" x1="393.59" y1="137.92" x2="387.71" y2="137.92"/><line class="cls-3" x1="390.65" y1="140.86" x2="390.65" y2="134.98"/><line class="cls-3" x1="393.59" y1="148.69" x2="387.71" y2="148.69"/><line class="cls-3" x1="390.65" y1="151.63" x2="390.65" y2="145.75"/><line class="cls-3" x1="393.59" y1="159.46" x2="387.71" y2="159.46"/><line class="cls-3" x1="390.65" y1="162.4" x2="390.65" y2="156.52"/><line class="cls-3" x1="393.59" y1="170.23" x2="387.71" y2="170.23"/><line class="cls-3" x1="390.65" y1="173.18" x2="390.65" y2="167.29"/><line class="cls-3" x1="393.59" y1="181.01" x2="387.71" y2="181.01"/><line class="cls-3" x1="390.65" y1="183.95" x2="390.65" y2="178.07"/><line class="cls-3" x1="393.59" y1="191.78" x2="387.71" y2="191.78"/><line class="cls-3" x1="390.65" y1="194.72" x2="390.65" y2="188.84"/><line class="cls-3" x1="393.59" y1="202.55" x2="387.71" y2="202.55"/><line class="cls-3" x1="390.65" y1="205.49" x2="390.65" y2="199.61"/><line class="cls-3" x1="393.59" y1="213.32" x2="387.71" y2="213.32"/><line class="cls-3" x1="390.65" y1="216.26" x2="390.65" y2="210.38"/><line class="cls-3" x1="393.59" y1="224.09" x2="387.71" y2="224.09"/><line class="cls-3" x1="390.65" y1="227.03" x2="390.65" y2="221.15"/><line class="cls-3" x1="393.59" y1="234.86" x2="387.71" y2="234.86"/><line class="cls-3" x1="390.65" y1="237.81" x2="390.65" y2="231.92"/><line class="cls-3" x1="393.59" y1="245.64" x2="387.71" y2="245.64"/><line class="cls-3" x1="390.65" y1="248.58" x2="390.65" y2="242.69"/><line class="cls-3" x1="393.59" y1="256.41" x2="387.71" y2="256.41"/><line class="cls-3" x1="390.65" y1="259.35" x2="390.65" y2="253.47"/><line class="cls-3" x1="393.59" y1="267.18" x2="387.71" y2="267.18"/><line class="cls-3" x1="390.65" y1="270.12" x2="390.65" y2="264.24"/><line class="cls-3" x1="393.59" y1="277.95" x2="387.71" y2="277.95"/><line class="cls-3" x1="390.65" y1="280.89" x2="390.65" y2="275.01"/><line class="cls-3" x1="393.59" y1="288.72" x2="387.71" y2="288.72"/><line class="cls-3" x1="390.65" y1="291.66" x2="390.65" y2="285.78"/><line class="cls-3" x1="393.59" y1="299.49" x2="387.71" y2="299.49"/><line class="cls-3" x1="390.65" y1="302.44" x2="390.65" y2="296.55"/><line class="cls-3" x1="393.59" y1="310.27" x2="387.71" y2="310.27"/><line class="cls-3" x1="390.65" y1="313.21" x2="390.65" y2="307.32"/><line class="cls-3" x1="393.59" y1="321.04" x2="387.71" y2="321.04"/><line class="cls-3" x1="390.65" y1="323.98" x2="390.65" y2="318.1"/><line class="cls-3" x1="393.59" y1="331.81" x2="387.71" y2="331.81"/><line class="cls-3" x1="390.65" y1="334.75" x2="390.65" y2="328.87"/><line class="cls-3" x1="393.59" y1="342.58" x2="387.71" y2="342.58"/><line class="cls-3" x1="390.65" y1="345.52" x2="390.65" y2="339.64"/><line class="cls-3" x1="393.59" y1="353.35" x2="387.71" y2="353.35"/><line class="cls-3" x1="390.65" y1="356.29" x2="390.65" y2="350.41"/><line class="cls-3" x1="393.59" y1="364.12" x2="387.71" y2="364.12"/><line class="cls-3" x1="390.65" y1="367.07" x2="390.65" y2="361.18"/><line class="cls-3" x1="393.59" y1="374.9" x2="387.71" y2="374.9"/><line class="cls-3" x1="390.65" y1="377.84" x2="390.65" y2="371.95"/><line class="cls-3" x1="393.59" y1="385.67" x2="387.71" y2="385.67"/><line class="cls-3" x1="390.65" y1="388.61" x2="390.65" y2="382.73"/><line class="cls-3" x1="393.59" y1="396.44" x2="387.71" y2="396.44"/><line class="cls-3" x1="390.65" y1="399.38" x2="390.65" y2="393.5"/><line class="cls-3" x1="393.59" y1="407.21" x2="387.71" y2="407.21"/><line class="cls-3" x1="390.65" y1="410.15" x2="390.65" y2="404.27"/><line class="cls-3" x1="393.59" y1="417.98" x2="387.71" y2="417.98"/><line class="cls-3" x1="390.65" y1="420.92" x2="390.65" y2="415.04"/><line class="cls-3" x1="383.07" y1="159.46" x2="377.18" y2="159.46"/><line class="cls-3" x1="380.12" y1="162.4" x2="380.12" y2="156.52"/><line class="cls-3" x1="383.07" y1="170.23" x2="377.18" y2="170.23"/><line class="cls-3" x1="380.12" y1="173.18" x2="380.12" y2="167.29"/><line class="cls-3" x1="383.07" y1="181.01" x2="377.18" y2="181.01"/><line class="cls-3" x1="380.12" y1="183.95" x2="380.12" y2="178.07"/><line class="cls-3" x1="383.07" y1="191.78" x2="377.18" y2="191.78"/><line class="cls-3" x1="380.12" y1="194.72" x2="380.12" y2="188.84"/><line class="cls-3" x1="383.07" y1="202.55" x2="377.18" y2="202.55"/><line class="cls-3" x1="380.12" y1="205.49" x2="380.12" y2="199.61"/><line class="cls-3" x1="383.07" y1="213.32" x2="377.18" y2="213.32"/><line class="cls-3" x1="380.12" y1="216.26" x2="380.12" y2="210.38"/><line class="cls-3" x1="383.07" y1="224.09" x2="377.18" y2="224.09"/><line class="cls-3" x1="380.12" y1="227.03" x2="380.12" y2="221.15"/><line class="cls-3" x1="383.07" y1="234.86" x2="377.18" y2="234.86"/><line class="cls-3" x1="380.12" y1="237.81" x2="380.12" y2="231.92"/><line class="cls-3" x1="383.07" y1="245.64" x2="377.18" y2="245.64"/><line class="cls-3" x1="380.12" y1="248.58" x2="380.12" y2="242.69"/><line class="cls-3" x1="383.07" y1="256.41" x2="377.18" y2="256.41"/><line class="cls-3" x1="380.12" y1="259.35" x2="380.12" y2="253.47"/><line class="cls-3" x1="383.07" y1="267.18" x2="377.18" y2="267.18"/><line class="cls-3" x1="380.12" y1="270.12" x2="380.12" y2="264.24"/><line class="cls-3" x1="383.07" y1="277.95" x2="377.18" y2="277.95"/><line class="cls-3" x1="380.12" y1="280.89" x2="380.12" y2="275.01"/><line class="cls-3" x1="383.07" y1="288.72" x2="377.18" y2="288.72"/><line class="cls-3" x1="380.12" y1="291.66" x2="380.12" y2="285.78"/><line class="cls-3" x1="383.07" y1="299.49" x2="377.18" y2="299.49"/><line class="cls-3" x1="380.12" y1="302.44" x2="380.12" y2="296.55"/><line class="cls-3" x1="383.07" y1="310.27" x2="377.18" y2="310.27"/><line class="cls-3" x1="380.12" y1="313.21" x2="380.12" y2="307.32"/><line class="cls-3" x1="383.07" y1="321.04" x2="377.18" y2="321.04"/><line class="cls-3" x1="380.12" y1="323.98" x2="380.12" y2="318.1"/><line class="cls-3" x1="383.07" y1="331.81" x2="377.18" y2="331.81"/><line class="cls-3" x1="380.12" y1="334.75" x2="380.12" y2="328.87"/><line class="cls-3" x1="383.07" y1="342.58" x2="377.18" y2="342.58"/><line class="cls-3" x1="380.12" y1="345.52" x2="380.12" y2="339.64"/><line class="cls-3" x1="383.07" y1="353.35" x2="377.18" y2="353.35"/><line class="cls-3" x1="380.12" y1="356.29" x2="380.12" y2="350.41"/><line class="cls-3" x1="383.07" y1="364.12" x2="377.18" y2="364.12"/><line class="cls-3" x1="380.12" y1="367.07" x2="380.12" y2="361.18"/><line class="cls-3" x1="383.07" y1="374.9" x2="377.18" y2="374.9"/><line class="cls-3" x1="380.12" y1="377.84" x2="380.12" y2="371.95"/><line class="cls-3" x1="383.07" y1="385.67" x2="377.18" y2="385.67"/><line class="cls-3" x1="380.12" y1="388.61" x2="380.12" y2="382.73"/><line class="cls-3" x1="383.07" y1="396.44" x2="377.18" y2="396.44"/><line class="cls-3" x1="380.12" y1="399.38" x2="380.12" y2="393.5"/><line class="cls-3" x1="383.07" y1="407.21" x2="377.18" y2="407.21"/><line class="cls-3" x1="380.12" y1="410.15" x2="380.12" y2="404.27"/><line class="cls-3" x1="383.07" y1="417.98" x2="377.18" y2="417.98"/><line class="cls-3" x1="380.12" y1="420.92" x2="380.12" y2="415.04"/><line class="cls-3" x1="372.15" y1="170.23" x2="366.27" y2="170.23"/><line class="cls-3" x1="369.21" y1="173.18" x2="369.21" y2="167.29"/><line class="cls-3" x1="372.15" y1="181.01" x2="366.27" y2="181.01"/><line class="cls-3" x1="369.21" y1="183.95" x2="369.21" y2="178.07"/><line class="cls-3" x1="372.15" y1="191.78" x2="366.27" y2="191.78"/><line class="cls-3" x1="369.21" y1="194.72" x2="369.21" y2="188.84"/><line class="cls-3" x1="372.15" y1="202.55" x2="366.27" y2="202.55"/><line class="cls-3" x1="369.21" y1="205.49" x2="369.21" y2="199.61"/><line class="cls-3" x1="372.15" y1="213.32" x2="366.27" y2="213.32"/><line class="cls-3" x1="369.21" y1="216.26" x2="369.21" y2="210.38"/><line class="cls-3" x1="372.15" y1="224.09" x2="366.27" y2="224.09"/><line class="cls-3" x1="369.21" y1="227.03" x2="369.21" y2="221.15"/><line class="cls-3" x1="372.15" y1="234.86" x2="366.27" y2="234.86"/><line class="cls-3" x1="369.21" y1="237.81" x2="369.21" y2="231.92"/><line class="cls-3" x1="372.15" y1="245.64" x2="366.27" y2="245.64"/><line class="cls-3" x1="369.21" y1="248.58" x2="369.21" y2="242.69"/><line class="cls-3" x1="372.15" y1="256.41" x2="366.27" y2="256.41"/><line class="cls-3" x1="369.21" y1="259.35" x2="369.21" y2="253.47"/><line class="cls-3" x1="372.15" y1="267.18" x2="366.27" y2="267.18"/><line class="cls-3" x1="369.21" y1="270.12" x2="369.21" y2="264.24"/><line class="cls-3" x1="372.15" y1="277.95" x2="366.27" y2="277.95"/><line class="cls-3" x1="369.21" y1="280.89" x2="369.21" y2="275.01"/><line class="cls-3" x1="372.15" y1="288.72" x2="366.27" y2="288.72"/><line class="cls-3" x1="369.21" y1="291.66" x2="369.21" y2="285.78"/><line class="cls-3" x1="372.15" y1="299.49" x2="366.27" y2="299.49"/><line class="cls-3" x1="369.21" y1="302.44" x2="369.21" y2="296.55"/><line class="cls-3" x1="372.15" y1="310.27" x2="366.27" y2="310.27"/><line class="cls-3" x1="369.21" y1="313.21" x2="369.21" y2="307.32"/><line class="cls-3" x1="372.15" y1="321.04" x2="366.27" y2="321.04"/><line class="cls-3" x1="369.21" y1="323.98" x2="369.21" y2="318.1"/><line class="cls-3" x1="372.15" y1="331.81" x2="366.27" y2="331.81"/><line class="cls-3" x1="369.21" y1="334.75" x2="369.21" y2="328.87"/><line class="cls-3" x1="372.15" y1="342.58" x2="366.27" y2="342.58"/><line class="cls-3" x1="369.21" y1="345.52" x2="369.21" y2="339.64"/><line class="cls-3" x1="372.15" y1="353.35" x2="366.27" y2="353.35"/><line class="cls-3" x1="369.21" y1="356.29" x2="369.21" y2="350.41"/><line class="cls-3" x1="372.15" y1="364.12" x2="366.27" y2="364.12"/><line class="cls-3" x1="369.21" y1="367.07" x2="369.21" y2="361.18"/><line class="cls-3" x1="372.15" y1="374.9" x2="366.27" y2="374.9"/><line class="cls-3" x1="369.21" y1="377.84" x2="369.21" y2="371.95"/><line class="cls-3" x1="372.15" y1="385.67" x2="366.27" y2="385.67"/><line class="cls-3" x1="369.21" y1="388.61" x2="369.21" y2="382.73"/><line class="cls-3" x1="372.15" y1="396.44" x2="366.27" y2="396.44"/><line class="cls-3" x1="369.21" y1="399.38" x2="369.21" y2="393.5"/><line class="cls-3" x1="372.15" y1="407.21" x2="366.27" y2="407.21"/><line class="cls-3" x1="369.21" y1="410.15" x2="369.21" y2="404.27"/><line class="cls-3" x1="372.15" y1="417.98" x2="366.27" y2="417.98"/><line class="cls-3" x1="369.21" y1="420.92" x2="369.21" y2="415.04"/><line class="cls-3" x1="361.23" y1="170.23" x2="355.35" y2="170.23"/><line class="cls-3" x1="358.29" y1="173.18" x2="358.29" y2="167.29"/><line class="cls-3" x1="361.23" y1="181.01" x2="355.35" y2="181.01"/><line class="cls-3" x1="358.29" y1="183.95" x2="358.29" y2="178.07"/><line class="cls-3" x1="361.23" y1="191.78" x2="355.35" y2="191.78"/><line class="cls-3" x1="358.29" y1="194.72" x2="358.29" y2="188.84"/><line class="cls-3" x1="361.23" y1="202.55" x2="355.35" y2="202.55"/><line class="cls-3" x1="358.29" y1="205.49" x2="358.29" y2="199.61"/><line class="cls-3" x1="361.23" y1="213.32" x2="355.35" y2="213.32"/><line class="cls-3" x1="358.29" y1="216.26" x2="358.29" y2="210.38"/><line class="cls-3" x1="361.23" y1="224.09" x2="355.35" y2="224.09"/><line class="cls-3" x1="358.29" y1="227.03" x2="358.29" y2="221.15"/><line class="cls-3" x1="361.23" y1="234.86" x2="355.35" y2="234.86"/><line class="cls-3" x1="358.29" y1="237.81" x2="358.29" y2="231.92"/><line class="cls-3" x1="361.23" y1="245.64" x2="355.35" y2="245.64"/><line class="cls-3" x1="358.29" y1="248.58" x2="358.29" y2="242.69"/><line class="cls-3" x1="361.23" y1="256.41" x2="355.35" y2="256.41"/><line class="cls-3" x1="358.29" y1="259.35" x2="358.29" y2="253.47"/><line class="cls-3" x1="361.23" y1="267.18" x2="355.35" y2="267.18"/><line class="cls-3" x1="358.29" y1="270.12" x2="358.29" y2="264.24"/><line class="cls-3" x1="361.23" y1="277.95" x2="355.35" y2="277.95"/><line class="cls-3" x1="358.29" y1="280.89" x2="358.29" y2="275.01"/><line class="cls-3" x1="361.23" y1="288.72" x2="355.35" y2="288.72"/><line class="cls-3" x1="358.29" y1="291.66" x2="358.29" y2="285.78"/><line class="cls-3" x1="361.23" y1="299.49" x2="355.35" y2="299.49"/><line class="cls-3" x1="358.29" y1="302.44" x2="358.29" y2="296.55"/><line class="cls-3" x1="361.23" y1="310.27" x2="355.35" y2="310.27"/><line class="cls-3" x1="358.29" y1="313.21" x2="358.29" y2="307.32"/><line class="cls-3" x1="361.23" y1="321.04" x2="355.35" y2="321.04"/><line class="cls-3" x1="358.29" y1="323.98" x2="358.29" y2="318.1"/><line class="cls-3" x1="361.23" y1="331.81" x2="355.35" y2="331.81"/><line class="cls-3" x1="358.29" y1="334.75" x2="358.29" y2="328.87"/><line class="cls-3" x1="361.23" y1="342.58" x2="355.35" y2="342.58"/><line class="cls-3" x1="358.29" y1="345.52" x2="358.29" y2="339.64"/><line class="cls-3" x1="361.23" y1="353.35" x2="355.35" y2="353.35"/><line class="cls-3" x1="358.29" y1="356.29" x2="358.29" y2="350.41"/><line class="cls-3" x1="361.23" y1="364.12" x2="355.35" y2="364.12"/><line class="cls-3" x1="358.29" y1="367.07" x2="358.29" y2="361.18"/><line class="cls-3" x1="361.23" y1="374.9" x2="355.35" y2="374.9"/><line class="cls-3" x1="358.29" y1="377.84" x2="358.29" y2="371.95"/><line class="cls-3" x1="361.23" y1="385.67" x2="355.35" y2="385.67"/><line class="cls-3" x1="358.29" y1="388.61" x2="358.29" y2="382.73"/><line class="cls-3" x1="361.23" y1="396.44" x2="355.35" y2="396.44"/><line class="cls-3" x1="358.29" y1="399.38" x2="358.29" y2="393.5"/><line class="cls-3" x1="361.23" y1="407.21" x2="355.35" y2="407.21"/><line class="cls-3" x1="358.29" y1="410.15" x2="358.29" y2="404.27"/><line class="cls-3" x1="361.23" y1="417.98" x2="355.35" y2="417.98"/><line class="cls-3" x1="358.29" y1="420.92" x2="358.29" y2="415.04"/><line class="cls-3" x1="349.97" y1="191.78" x2="344.09" y2="191.78"/><line class="cls-3" x1="347.03" y1="194.72" x2="347.03" y2="188.84"/><line class="cls-3" x1="349.97" y1="202.55" x2="344.09" y2="202.55"/><line class="cls-3" x1="347.03" y1="205.49" x2="347.03" y2="199.61"/><line class="cls-3" x1="349.97" y1="213.32" x2="344.09" y2="213.32"/><line class="cls-3" x1="347.03" y1="216.26" x2="347.03" y2="210.38"/><line class="cls-3" x1="349.97" y1="224.09" x2="344.09" y2="224.09"/><line class="cls-3" x1="347.03" y1="227.03" x2="347.03" y2="221.15"/><line class="cls-3" x1="349.97" y1="234.86" x2="344.09" y2="234.86"/><line class="cls-3" x1="347.03" y1="237.81" x2="347.03" y2="231.92"/><line class="cls-3" x1="349.97" y1="245.64" x2="344.09" y2="245.64"/><line class="cls-3" x1="347.03" y1="248.58" x2="347.03" y2="242.69"/><line class="cls-3" x1="349.97" y1="256.41" x2="344.09" y2="256.41"/><line class="cls-3" x1="347.03" y1="259.35" x2="347.03" y2="253.47"/><line class="cls-3" x1="349.97" y1="267.18" x2="344.09" y2="267.18"/><line class="cls-3" x1="347.03" y1="270.12" x2="347.03" y2="264.24"/><line class="cls-3" x1="349.97" y1="277.95" x2="344.09" y2="277.95"/><line class="cls-3" x1="347.03" y1="280.89" x2="347.03" y2="275.01"/><line class="cls-3" x1="349.97" y1="288.72" x2="344.09" y2="288.72"/><line class="cls-3" x1="347.03" y1="291.66" x2="347.03" y2="285.78"/><line class="cls-3" x1="349.97" y1="299.49" x2="344.09" y2="299.49"/><line class="cls-3" x1="347.03" y1="302.44" x2="347.03" y2="296.55"/><line class="cls-3" x1="349.97" y1="310.27" x2="344.09" y2="310.27"/><line class="cls-3" x1="347.03" y1="313.21" x2="347.03" y2="307.32"/><line class="cls-3" x1="349.97" y1="321.04" x2="344.09" y2="321.04"/><line class="cls-3" x1="347.03" y1="323.98" x2="347.03" y2="318.1"/><line class="cls-3" x1="349.97" y1="331.81" x2="344.09" y2="331.81"/><line class="cls-3" x1="347.03" y1="334.75" x2="347.03" y2="328.87"/><line class="cls-3" x1="349.97" y1="342.58" x2="344.09" y2="342.58"/><line class="cls-3" x1="347.03" y1="345.52" x2="347.03" y2="339.64"/><line class="cls-3" x1="349.97" y1="353.35" x2="344.09" y2="353.35"/><line class="cls-3" x1="347.03" y1="356.29" x2="347.03" y2="350.41"/><line class="cls-3" x1="349.97" y1="364.12" x2="344.09" y2="364.12"/><line class="cls-3" x1="347.03" y1="367.07" x2="347.03" y2="361.18"/><line class="cls-3" x1="349.97" y1="374.9" x2="344.09" y2="374.9"/><line class="cls-3" x1="347.03" y1="377.84" x2="347.03" y2="371.95"/><line class="cls-3" x1="349.97" y1="385.67" x2="344.09" y2="385.67"/><line class="cls-3" x1="347.03" y1="388.61" x2="347.03" y2="382.73"/><line class="cls-3" x1="349.97" y1="396.44" x2="344.09" y2="396.44"/><line class="cls-3" x1="347.03" y1="399.38" x2="347.03" y2="393.5"/><line class="cls-3" x1="349.97" y1="407.21" x2="344.09" y2="407.21"/><line class="cls-3" x1="347.03" y1="410.15" x2="347.03" y2="404.27"/><line class="cls-3" x1="349.97" y1="417.98" x2="344.09" y2="417.98"/><line class="cls-3" x1="347.03" y1="420.92" x2="347.03" y2="415.04"/><line class="cls-3" x1="339.44" y1="191.78" x2="333.56" y2="191.78"/><line class="cls-3" x1="336.5" y1="194.72" x2="336.5" y2="188.84"/><line class="cls-3" x1="339.44" y1="202.55" x2="333.56" y2="202.55"/><line class="cls-3" x1="336.5" y1="205.49" x2="336.5" y2="199.61"/><line class="cls-3" x1="339.44" y1="213.32" x2="333.56" y2="213.32"/><line class="cls-3" x1="336.5" y1="216.26" x2="336.5" y2="210.38"/><line class="cls-3" x1="339.44" y1="224.09" x2="333.56" y2="224.09"/><line class="cls-3" x1="336.5" y1="227.03" x2="336.5" y2="221.15"/><line class="cls-3" x1="339.44" y1="234.86" x2="333.56" y2="234.86"/><line class="cls-3" x1="336.5" y1="237.81" x2="336.5" y2="231.92"/><line class="cls-3" x1="339.44" y1="245.64" x2="333.56" y2="245.64"/><line class="cls-3" x1="336.5" y1="248.58" x2="336.5" y2="242.69"/><line class="cls-3" x1="339.44" y1="256.41" x2="333.56" y2="256.41"/><line class="cls-3" x1="336.5" y1="259.35" x2="336.5" y2="253.47"/><line class="cls-3" x1="339.44" y1="267.18" x2="333.56" y2="267.18"/><line class="cls-3" x1="336.5" y1="270.12" x2="336.5" y2="264.24"/><line class="cls-3" x1="339.44" y1="277.95" x2="333.56" y2="277.95"/><line class="cls-3" x1="336.5" y1="280.89" x2="336.5" y2="275.01"/><line class="cls-3" x1="339.44" y1="288.72" x2="333.56" y2="288.72"/><line class="cls-3" x1="336.5" y1="291.66" x2="336.5" y2="285.78"/><line class="cls-3" x1="339.44" y1="299.49" x2="333.56" y2="299.49"/><line class="cls-3" x1="336.5" y1="302.44" x2="336.5" y2="296.55"/><line class="cls-3" x1="339.44" y1="310.27" x2="333.56" y2="310.27"/><line class="cls-3" x1="336.5" y1="313.21" x2="336.5" y2="307.32"/><line class="cls-3" x1="339.44" y1="321.04" x2="333.56" y2="321.04"/><line class="cls-3" x1="336.5" y1="323.98" x2="336.5" y2="318.1"/><line class="cls-3" x1="339.44" y1="331.81" x2="333.56" y2="331.81"/><line class="cls-3" x1="336.5" y1="334.75" x2="336.5" y2="328.87"/><line class="cls-3" x1="339.44" y1="342.58" x2="333.56" y2="342.58"/><line class="cls-3" x1="336.5" y1="345.52" x2="336.5" y2="339.64"/><line class="cls-3" x1="339.44" y1="353.35" x2="333.56" y2="353.35"/><line class="cls-3" x1="336.5" y1="356.29" x2="336.5" y2="350.41"/><line class="cls-3" x1="339.44" y1="364.12" x2="333.56" y2="364.12"/><line class="cls-3" x1="336.5" y1="367.07" x2="336.5" y2="361.18"/><line class="cls-3" x1="339.44" y1="374.9" x2="333.56" y2="374.9"/><line class="cls-3" x1="336.5" y1="377.84" x2="336.5" y2="371.95"/><line class="cls-3" x1="339.44" y1="385.67" x2="333.56" y2="385.67"/><line class="cls-3" x1="336.5" y1="388.61" x2="336.5" y2="382.73"/><line class="cls-3" x1="339.44" y1="396.44" x2="333.56" y2="396.44"/><line class="cls-3" x1="336.5" y1="399.38" x2="336.5" y2="393.5"/><line class="cls-3" x1="339.44" y1="407.21" x2="333.56" y2="407.21"/><line class="cls-3" x1="336.5" y1="410.15" x2="336.5" y2="404.27"/><line class="cls-3" x1="339.44" y1="417.98" x2="333.56" y2="417.98"/><line class="cls-3" x1="336.5" y1="420.92" x2="336.5" y2="415.04"/><line class="cls-3" x1="328.53" y1="234.86" x2="322.64" y2="234.86"/><line class="cls-3" x1="325.58" y1="237.81" x2="325.58" y2="231.92"/><line class="cls-3" x1="328.53" y1="245.64" x2="322.64" y2="245.64"/><line class="cls-3" x1="325.58" y1="248.58" x2="325.58" y2="242.69"/><line class="cls-3" x1="328.53" y1="256.41" x2="322.64" y2="256.41"/><line class="cls-3" x1="325.58" y1="259.35" x2="325.58" y2="253.47"/><line class="cls-3" x1="328.53" y1="267.18" x2="322.64" y2="267.18"/><line class="cls-3" x1="325.58" y1="270.12" x2="325.58" y2="264.24"/><line class="cls-3" x1="328.53" y1="277.95" x2="322.64" y2="277.95"/><line class="cls-3" x1="325.58" y1="280.89" x2="325.58" y2="275.01"/><line class="cls-3" x1="328.53" y1="288.72" x2="322.64" y2="288.72"/><line class="cls-3" x1="325.58" y1="291.66" x2="325.58" y2="285.78"/><line class="cls-3" x1="328.53" y1="299.49" x2="322.64" y2="299.49"/><line class="cls-3" x1="325.58" y1="302.44" x2="325.58" y2="296.55"/><line class="cls-3" x1="328.53" y1="310.27" x2="322.64" y2="310.27"/><line class="cls-3" x1="325.58" y1="313.21" x2="325.58" y2="307.32"/><line class="cls-3" x1="328.53" y1="321.04" x2="322.64" y2="321.04"/><line class="cls-3" x1="325.58" y1="323.98" x2="325.58" y2="318.1"/><line class="cls-3" x1="328.53" y1="331.81" x2="322.64" y2="331.81"/><line class="cls-3" x1="325.58" y1="334.75" x2="325.58" y2="328.87"/><line class="cls-3" x1="328.53" y1="342.58" x2="322.64" y2="342.58"/><line class="cls-3" x1="325.58" y1="345.52" x2="325.58" y2="339.64"/><line class="cls-3" x1="328.53" y1="353.35" x2="322.64" y2="353.35"/><line class="cls-3" x1="325.58" y1="356.29" x2="325.58" y2="350.41"/><line class="cls-3" x1="328.53" y1="364.12" x2="322.64" y2="364.12"/><line class="cls-3" x1="325.58" y1="367.07" x2="325.58" y2="361.18"/><line class="cls-3" x1="328.53" y1="374.9" x2="322.64" y2="374.9"/><line class="cls-3" x1="325.58" y1="377.84" x2="325.58" y2="371.95"/><line class="cls-3" x1="328.53" y1="385.67" x2="322.64" y2="385.67"/><line class="cls-3" x1="325.58" y1="388.61" x2="325.58" y2="382.73"/><line class="cls-3" x1="328.53" y1="396.44" x2="322.64" y2="396.44"/><line class="cls-3" x1="325.58" y1="399.38" x2="325.58" y2="393.5"/><line class="cls-3" x1="328.53" y1="407.21" x2="322.64" y2="407.21"/><line class="cls-3" x1="325.58" y1="410.15" x2="325.58" y2="404.27"/><line class="cls-3" x1="328.53" y1="417.98" x2="322.64" y2="417.98"/><line class="cls-3" x1="325.58" y1="420.92" x2="325.58" y2="415.04"/><line class="cls-3" x1="317.61" y1="234.86" x2="311.73" y2="234.86"/><line class="cls-3" x1="314.67" y1="237.81" x2="314.67" y2="231.92"/><line class="cls-3" x1="317.61" y1="245.64" x2="311.73" y2="245.64"/><line class="cls-3" x1="314.67" y1="248.58" x2="314.67" y2="242.69"/><line class="cls-3" x1="317.61" y1="256.41" x2="311.73" y2="256.41"/><line class="cls-3" x1="314.67" y1="259.35" x2="314.67" y2="253.47"/><line class="cls-3" x1="317.61" y1="267.18" x2="311.73" y2="267.18"/><line class="cls-3" x1="314.67" y1="270.12" x2="314.67" y2="264.24"/><line class="cls-3" x1="317.61" y1="277.95" x2="311.73" y2="277.95"/><line class="cls-3" x1="314.67" y1="280.89" x2="314.67" y2="275.01"/><line class="cls-3" x1="317.61" y1="288.72" x2="311.73" y2="288.72"/><line class="cls-3" x1="314.67" y1="291.66" x2="314.67" y2="285.78"/><line class="cls-3" x1="317.61" y1="299.49" x2="311.73" y2="299.49"/><line class="cls-3" x1="314.67" y1="302.44" x2="314.67" y2="296.55"/><line class="cls-3" x1="317.61" y1="310.27" x2="311.73" y2="310.27"/><line class="cls-3" x1="314.67" y1="313.21" x2="314.67" y2="307.32"/><line class="cls-3" x1="317.61" y1="321.04" x2="311.73" y2="321.04"/><line class="cls-3" x1="314.67" y1="323.98" x2="314.67" y2="318.1"/><line class="cls-3" x1="317.61" y1="331.81" x2="311.73" y2="331.81"/><line class="cls-3" x1="314.67" y1="334.75" x2="314.67" y2="328.87"/><line class="cls-3" x1="317.61" y1="374.9" x2="311.73" y2="374.9"/><line class="cls-3" x1="314.67" y1="377.84" x2="314.67" y2="371.95"/><line class="cls-3" x1="317.61" y1="385.67" x2="311.73" y2="385.67"/><line class="cls-3" x1="314.67" y1="388.61" x2="314.67" y2="382.73"/><line class="cls-3" x1="317.61" y1="396.44" x2="311.73" y2="396.44"/><line class="cls-3" x1="314.67" y1="399.38" x2="314.67" y2="393.5"/><line class="cls-3" x1="317.61" y1="407.21" x2="311.73" y2="407.21"/><line class="cls-3" x1="314.67" y1="410.15" x2="314.67" y2="404.27"/><line class="cls-3" x1="317.61" y1="417.98" x2="311.73" y2="417.98"/><line class="cls-3" x1="314.67" y1="420.92" x2="314.67" y2="415.04"/><line class="cls-3" x1="306.04" y1="374.9" x2="300.16" y2="374.9"/><line class="cls-3" x1="303.1" y1="377.84" x2="303.1" y2="371.95"/><line class="cls-3" x1="306.04" y1="385.67" x2="300.16" y2="385.67"/><line class="cls-3" x1="303.1" y1="388.61" x2="303.1" y2="382.73"/><line class="cls-3" x1="306.04" y1="396.44" x2="300.16" y2="396.44"/><line class="cls-3" x1="303.1" y1="399.38" x2="303.1" y2="393.5"/><line class="cls-3" x1="306.04" y1="407.21" x2="300.16" y2="407.21"/><line class="cls-3" x1="303.1" y1="410.15" x2="303.1" y2="404.27"/><line class="cls-3" x1="306.04" y1="417.98" x2="300.16" y2="417.98"/><line class="cls-3" x1="303.1" y1="420.92" x2="303.1" y2="415.04"/><line class="cls-3" x1="60.1" y1="3.01" x2="54.69" y2="3.01"/><line class="cls-3" x1="57.39" y1="5.72" x2="57.39" y2="0.31"/><line class="cls-3" x1="60.1" y1="12.92" x2="54.69" y2="12.92"/><line class="cls-3" x1="57.39" y1="15.62" x2="57.39" y2="10.21"/><line class="cls-3" x1="60.1" y1="22.82" x2="54.69" y2="22.82"/><line class="cls-3" x1="57.39" y1="25.52" x2="57.39" y2="20.12"/><line class="cls-3" x1="60.1" y1="32.72" x2="54.69" y2="32.72"/><line class="cls-3" x1="57.39" y1="35.43" x2="57.39" y2="30.02"/><line class="cls-3" x1="60.1" y1="42.63" x2="54.69" y2="42.63"/><line class="cls-3" x1="57.39" y1="45.33" x2="57.39" y2="39.92"/><line class="cls-3" x1="60.1" y1="52.53" x2="54.69" y2="52.53"/><line class="cls-3" x1="57.39" y1="55.24" x2="57.39" y2="49.83"/><line class="cls-3" x1="60.1" y1="62.44" x2="54.69" y2="62.44"/><line class="cls-3" x1="57.39" y1="65.14" x2="57.39" y2="59.73"/><line class="cls-3" x1="60.1" y1="72.34" x2="54.69" y2="72.34"/><line class="cls-3" x1="57.39" y1="75.04" x2="57.39" y2="69.63"/><line class="cls-3" x1="60.1" y1="82.24" x2="54.69" y2="82.24"/><line class="cls-3" x1="57.39" y1="84.95" x2="57.39" y2="79.54"/><line class="cls-3" x1="60.1" y1="92.15" x2="54.69" y2="92.15"/><line class="cls-3" x1="57.39" y1="94.85" x2="57.39" y2="89.44"/><line class="cls-3" x1="60.1" y1="102.05" x2="54.69" y2="102.05"/><line class="cls-3" x1="57.39" y1="104.76" x2="57.39" y2="99.35"/><line class="cls-3" x1="50.06" y1="3.01" x2="44.65" y2="3.01"/><line class="cls-3" x1="47.35" y1="5.72" x2="47.35" y2="0.31"/><line class="cls-3" x1="50.06" y1="12.92" x2="44.65" y2="12.92"/><line class="cls-3" x1="47.35" y1="15.62" x2="47.35" y2="10.21"/><line class="cls-3" x1="50.06" y1="22.82" x2="44.65" y2="22.82"/><line class="cls-3" x1="47.35" y1="25.52" x2="47.35" y2="20.12"/><line class="cls-3" x1="50.06" y1="32.72" x2="44.65" y2="32.72"/><line class="cls-3" x1="47.35" y1="35.43" x2="47.35" y2="30.02"/><line class="cls-3" x1="50.06" y1="42.63" x2="44.65" y2="42.63"/><line class="cls-3" x1="47.35" y1="45.33" x2="47.35" y2="39.92"/><line class="cls-3" x1="50.06" y1="52.53" x2="44.65" y2="52.53"/><line class="cls-3" x1="47.35" y1="55.24" x2="47.35" y2="49.83"/><line class="cls-3" x1="50.06" y1="62.44" x2="44.65" y2="62.44"/><line class="cls-3" x1="47.35" y1="65.14" x2="47.35" y2="59.73"/><line class="cls-3" x1="50.06" y1="72.34" x2="44.65" y2="72.34"/><line class="cls-3" x1="47.35" y1="75.04" x2="47.35" y2="69.63"/><line class="cls-3" x1="50.06" y1="82.24" x2="44.65" y2="82.24"/><line class="cls-3" x1="47.35" y1="84.95" x2="47.35" y2="79.54"/><line class="cls-3" x1="50.06" y1="92.15" x2="44.65" y2="92.15"/><line class="cls-3" x1="47.35" y1="94.85" x2="47.35" y2="89.44"/><line class="cls-3" x1="50.06" y1="102.05" x2="44.65" y2="102.05"/><line class="cls-3" x1="47.35" y1="104.76" x2="47.35" y2="99.35"/><line class="cls-3" x1="50.06" y1="111.95" x2="44.65" y2="111.95"/><line class="cls-3" x1="47.35" y1="114.66" x2="47.35" y2="109.25"/><line class="cls-3" x1="50.06" y1="121.86" x2="44.65" y2="121.86"/><line class="cls-3" x1="47.35" y1="124.56" x2="47.35" y2="119.15"/><line class="cls-3" x1="50.06" y1="131.76" x2="44.65" y2="131.76"/><line class="cls-3" x1="47.35" y1="134.47" x2="47.35" y2="129.06"/><line class="cls-3" x1="50.06" y1="141.67" x2="44.65" y2="141.67"/><line class="cls-3" x1="47.35" y1="144.37" x2="47.35" y2="138.96"/><line class="cls-3" x1="50.06" y1="151.57" x2="44.65" y2="151.57"/><line class="cls-3" x1="47.35" y1="154.27" x2="47.35" y2="148.87"/><line class="cls-3" x1="40.02" y1="3.01" x2="34.61" y2="3.01"/><line class="cls-3" x1="37.32" y1="5.72" x2="37.32" y2="0.31"/><line class="cls-3" x1="40.02" y1="12.92" x2="34.61" y2="12.92"/><line class="cls-3" x1="37.32" y1="15.62" x2="37.32" y2="10.21"/><line class="cls-3" x1="40.02" y1="22.82" x2="34.61" y2="22.82"/><line class="cls-3" x1="37.32" y1="25.52" x2="37.32" y2="20.12"/><line class="cls-3" x1="40.02" y1="32.72" x2="34.61" y2="32.72"/><line class="cls-3" x1="37.32" y1="35.43" x2="37.32" y2="30.02"/><line class="cls-3" x1="40.02" y1="42.63" x2="34.61" y2="42.63"/><line class="cls-3" x1="37.32" y1="45.33" x2="37.32" y2="39.92"/><line class="cls-3" x1="40.02" y1="52.53" x2="34.61" y2="52.53"/><line class="cls-3" x1="37.32" y1="55.24" x2="37.32" y2="49.83"/><line class="cls-3" x1="40.02" y1="62.44" x2="34.61" y2="62.44"/><line class="cls-3" x1="37.32" y1="65.14" x2="37.32" y2="59.73"/><line class="cls-3" x1="40.02" y1="72.34" x2="34.61" y2="72.34"/><line class="cls-3" x1="37.32" y1="75.04" x2="37.32" y2="69.63"/><line class="cls-3" x1="40.02" y1="82.24" x2="34.61" y2="82.24"/><line class="cls-3" x1="37.32" y1="84.95" x2="37.32" y2="79.54"/><line class="cls-3" x1="40.02" y1="92.15" x2="34.61" y2="92.15"/><line class="cls-3" x1="37.32" y1="94.85" x2="37.32" y2="89.44"/><line class="cls-3" x1="40.02" y1="102.05" x2="34.61" y2="102.05"/><line class="cls-3" x1="37.32" y1="104.76" x2="37.32" y2="99.35"/><line class="cls-3" x1="40.02" y1="111.95" x2="34.61" y2="111.95"/><line class="cls-3" x1="37.32" y1="114.66" x2="37.32" y2="109.25"/><line class="cls-3" x1="40.02" y1="121.86" x2="34.61" y2="121.86"/><line class="cls-3" x1="37.32" y1="124.56" x2="37.32" y2="119.15"/><line class="cls-3" x1="40.02" y1="131.76" x2="34.61" y2="131.76"/><line class="cls-3" x1="37.32" y1="134.47" x2="37.32" y2="129.06"/><line class="cls-3" x1="40.02" y1="141.67" x2="34.61" y2="141.67"/><line class="cls-3" x1="37.32" y1="144.37" x2="37.32" y2="138.96"/><line class="cls-3" x1="40.02" y1="151.57" x2="34.61" y2="151.57"/><line class="cls-3" x1="37.32" y1="154.27" x2="37.32" y2="148.87"/><line class="cls-3" x1="40.02" y1="161.47" x2="34.61" y2="161.47"/><line class="cls-3" x1="37.32" y1="164.18" x2="37.32" y2="158.77"/><line class="cls-3" x1="40.02" y1="171.38" x2="34.61" y2="171.38"/><line class="cls-3" x1="37.32" y1="174.08" x2="37.32" y2="168.67"/><line class="cls-3" x1="40.02" y1="181.28" x2="34.61" y2="181.28"/><line class="cls-3" x1="37.32" y1="183.99" x2="37.32" y2="178.58"/><line class="cls-3" x1="40.02" y1="191.19" x2="34.61" y2="191.19"/><line class="cls-3" x1="37.32" y1="193.89" x2="37.32" y2="188.48"/><line class="cls-3" x1="40.02" y1="201.09" x2="34.61" y2="201.09"/><line class="cls-3" x1="37.32" y1="203.79" x2="37.32" y2="198.38"/><line class="cls-3" x1="29.67" y1="3.01" x2="24.26" y2="3.01"/><line class="cls-3" x1="26.96" y1="5.72" x2="26.96" y2="0.31"/><line class="cls-3" x1="29.67" y1="12.92" x2="24.26" y2="12.92"/><line class="cls-3" x1="26.96" y1="15.62" x2="26.96" y2="10.21"/><line class="cls-3" x1="29.67" y1="22.82" x2="24.26" y2="22.82"/><line class="cls-3" x1="26.96" y1="25.52" x2="26.96" y2="20.12"/><line class="cls-3" x1="29.67" y1="32.72" x2="24.26" y2="32.72"/><line class="cls-3" x1="26.96" y1="35.43" x2="26.96" y2="30.02"/><line class="cls-3" x1="29.67" y1="42.63" x2="24.26" y2="42.63"/><line class="cls-3" x1="26.96" y1="45.33" x2="26.96" y2="39.92"/><line class="cls-3" x1="29.67" y1="52.53" x2="24.26" y2="52.53"/><line class="cls-3" x1="26.96" y1="55.24" x2="26.96" y2="49.83"/><line class="cls-3" x1="29.67" y1="62.44" x2="24.26" y2="62.44"/><line class="cls-3" x1="26.96" y1="65.14" x2="26.96" y2="59.73"/><line class="cls-3" x1="29.67" y1="72.34" x2="24.26" y2="72.34"/><line class="cls-3" x1="26.96" y1="75.04" x2="26.96" y2="69.63"/><line class="cls-3" x1="29.67" y1="82.24" x2="24.26" y2="82.24"/><line class="cls-3" x1="26.96" y1="84.95" x2="26.96" y2="79.54"/><line class="cls-3" x1="29.67" y1="92.15" x2="24.26" y2="92.15"/><line class="cls-3" x1="26.96" y1="94.85" x2="26.96" y2="89.44"/><line class="cls-3" x1="29.67" y1="102.05" x2="24.26" y2="102.05"/><line class="cls-3" x1="26.96" y1="104.76" x2="26.96" y2="99.35"/><line class="cls-3" x1="29.67" y1="111.95" x2="24.26" y2="111.95"/><line class="cls-3" x1="26.96" y1="114.66" x2="26.96" y2="109.25"/><line class="cls-3" x1="29.67" y1="121.86" x2="24.26" y2="121.86"/><line class="cls-3" x1="26.96" y1="124.56" x2="26.96" y2="119.15"/><line class="cls-3" x1="29.67" y1="131.76" x2="24.26" y2="131.76"/><line class="cls-3" x1="26.96" y1="134.47" x2="26.96" y2="129.06"/><line class="cls-3" x1="29.67" y1="141.67" x2="24.26" y2="141.67"/><line class="cls-3" x1="26.96" y1="144.37" x2="26.96" y2="138.96"/><line class="cls-3" x1="29.67" y1="151.57" x2="24.26" y2="151.57"/><line class="cls-3" x1="26.96" y1="154.27" x2="26.96" y2="148.87"/><line class="cls-3" x1="29.67" y1="161.47" x2="24.26" y2="161.47"/><line class="cls-3" x1="26.96" y1="164.18" x2="26.96" y2="158.77"/><line class="cls-3" x1="29.67" y1="171.38" x2="24.26" y2="171.38"/><line class="cls-3" x1="26.96" y1="174.08" x2="26.96" y2="168.67"/><line class="cls-3" x1="29.67" y1="181.28" x2="24.26" y2="181.28"/><line class="cls-3" x1="26.96" y1="183.99" x2="26.96" y2="178.58"/><line class="cls-3" x1="29.67" y1="191.19" x2="24.26" y2="191.19"/><line class="cls-3" x1="26.96" y1="193.89" x2="26.96" y2="188.48"/><line class="cls-3" x1="29.67" y1="201.09" x2="24.26" y2="201.09"/><line class="cls-3" x1="26.96" y1="203.79" x2="26.96" y2="198.38"/><line class="cls-3" x1="29.67" y1="210.99" x2="24.26" y2="210.99"/><line class="cls-3" x1="26.96" y1="213.7" x2="26.96" y2="208.29"/><line class="cls-3" x1="29.67" y1="220.9" x2="24.26" y2="220.9"/><line class="cls-3" x1="26.96" y1="223.6" x2="26.96" y2="218.19"/><line class="cls-3" x1="29.67" y1="230.8" x2="24.26" y2="230.8"/><line class="cls-3" x1="26.96" y1="233.51" x2="26.96" y2="228.1"/><line class="cls-3" x1="29.67" y1="240.7" x2="24.26" y2="240.7"/><line class="cls-3" x1="26.96" y1="243.41" x2="26.96" y2="238"/><line class="cls-3" x1="29.67" y1="250.61" x2="24.26" y2="250.61"/><line class="cls-3" x1="26.96" y1="253.31" x2="26.96" y2="247.9"/><line class="cls-3" x1="29.67" y1="260.51" x2="24.26" y2="260.51"/><line class="cls-3" x1="26.96" y1="263.22" x2="26.96" y2="257.81"/><line class="cls-3" x1="29.67" y1="270.42" x2="24.26" y2="270.42"/><line class="cls-3" x1="26.96" y1="273.12" x2="26.96" y2="267.71"/><line class="cls-3" x1="29.67" y1="280.32" x2="24.26" y2="280.32"/><line class="cls-3" x1="26.96" y1="283.02" x2="26.96" y2="277.62"/><line class="cls-3" x1="19.99" y1="102.05" x2="14.58" y2="102.05"/><line class="cls-3" x1="17.28" y1="104.76" x2="17.28" y2="99.35"/><line class="cls-3" x1="19.99" y1="111.95" x2="14.58" y2="111.95"/><line class="cls-3" x1="17.28" y1="114.66" x2="17.28" y2="109.25"/><line class="cls-3" x1="19.99" y1="121.86" x2="14.58" y2="121.86"/><line class="cls-3" x1="17.28" y1="124.56" x2="17.28" y2="119.15"/><line class="cls-3" x1="19.99" y1="131.76" x2="14.58" y2="131.76"/><line class="cls-3" x1="17.28" y1="134.47" x2="17.28" y2="129.06"/><line class="cls-3" x1="19.99" y1="141.67" x2="14.58" y2="141.67"/><line class="cls-3" x1="17.28" y1="144.37" x2="17.28" y2="138.96"/><line class="cls-3" x1="19.99" y1="151.57" x2="14.58" y2="151.57"/><line class="cls-3" x1="17.28" y1="154.27" x2="17.28" y2="148.87"/><line class="cls-3" x1="19.99" y1="161.47" x2="14.58" y2="161.47"/><line class="cls-3" x1="17.28" y1="164.18" x2="17.28" y2="158.77"/><line class="cls-3" x1="19.99" y1="171.38" x2="14.58" y2="171.38"/><line class="cls-3" x1="17.28" y1="174.08" x2="17.28" y2="168.67"/><line class="cls-3" x1="19.99" y1="181.28" x2="14.58" y2="181.28"/><line class="cls-3" x1="17.28" y1="183.99" x2="17.28" y2="178.58"/><line class="cls-3" x1="19.99" y1="191.19" x2="14.58" y2="191.19"/><line class="cls-3" x1="17.28" y1="193.89" x2="17.28" y2="188.48"/><line class="cls-3" x1="19.99" y1="201.09" x2="14.58" y2="201.09"/><line class="cls-3" x1="17.28" y1="203.79" x2="17.28" y2="198.38"/><line class="cls-3" x1="19.99" y1="210.99" x2="14.58" y2="210.99"/><line class="cls-3" x1="17.28" y1="213.7" x2="17.28" y2="208.29"/><line class="cls-3" x1="19.99" y1="220.9" x2="14.58" y2="220.9"/><line class="cls-3" x1="17.28" y1="223.6" x2="17.28" y2="218.19"/><line class="cls-3" x1="19.99" y1="230.8" x2="14.58" y2="230.8"/><line class="cls-3" x1="17.28" y1="233.51" x2="17.28" y2="228.1"/><line class="cls-3" x1="19.99" y1="240.7" x2="14.58" y2="240.7"/><line class="cls-3" x1="17.28" y1="243.41" x2="17.28" y2="238"/><line class="cls-3" x1="19.99" y1="250.61" x2="14.58" y2="250.61"/><line class="cls-3" x1="17.28" y1="253.31" x2="17.28" y2="247.9"/><line class="cls-3" x1="19.99" y1="260.51" x2="14.58" y2="260.51"/><line class="cls-3" x1="17.28" y1="263.22" x2="17.28" y2="257.81"/><line class="cls-3" x1="19.99" y1="270.42" x2="14.58" y2="270.42"/><line class="cls-3" x1="17.28" y1="273.12" x2="17.28" y2="267.71"/><line class="cls-3" x1="19.99" y1="280.32" x2="14.58" y2="280.32"/><line class="cls-3" x1="17.28" y1="283.02" x2="17.28" y2="277.62"/><line class="cls-3" x1="19.99" y1="290.22" x2="14.58" y2="290.22"/><line class="cls-3" x1="17.28" y1="292.93" x2="17.28" y2="287.52"/><line class="cls-3" x1="19.99" y1="300.13" x2="14.58" y2="300.13"/><line class="cls-3" x1="17.28" y1="302.83" x2="17.28" y2="297.42"/><line class="cls-3" x1="19.99" y1="310.03" x2="14.58" y2="310.03"/><line class="cls-3" x1="17.28" y1="312.74" x2="17.28" y2="307.33"/><line class="cls-3" x1="9.95" y1="141.67" x2="4.54" y2="141.67"/><line class="cls-3" x1="7.25" y1="144.37" x2="7.25" y2="138.96"/><line class="cls-3" x1="9.95" y1="151.57" x2="4.54" y2="151.57"/><line class="cls-3" x1="7.25" y1="154.27" x2="7.25" y2="148.87"/><line class="cls-3" x1="9.95" y1="161.47" x2="4.54" y2="161.47"/><line class="cls-3" x1="7.25" y1="164.18" x2="7.25" y2="158.77"/><line class="cls-3" x1="9.95" y1="171.38" x2="4.54" y2="171.38"/><line class="cls-3" x1="7.25" y1="174.08" x2="7.25" y2="168.67"/><line class="cls-3" x1="9.95" y1="181.28" x2="4.54" y2="181.28"/><line class="cls-3" x1="7.25" y1="183.99" x2="7.25" y2="178.58"/><line class="cls-3" x1="9.95" y1="191.19" x2="4.54" y2="191.19"/><line class="cls-3" x1="7.25" y1="193.89" x2="7.25" y2="188.48"/><line class="cls-3" x1="9.95" y1="201.09" x2="4.54" y2="201.09"/><line class="cls-3" x1="7.25" y1="203.79" x2="7.25" y2="198.38"/><line class="cls-3" x1="9.95" y1="210.99" x2="4.54" y2="210.99"/><line class="cls-3" x1="7.25" y1="213.7" x2="7.25" y2="208.29"/><line class="cls-3" x1="9.95" y1="220.9" x2="4.54" y2="220.9"/><line class="cls-3" x1="7.25" y1="223.6" x2="7.25" y2="218.19"/><line class="cls-3" x1="9.95" y1="230.8" x2="4.54" y2="230.8"/><line class="cls-3" x1="7.25" y1="233.51" x2="7.25" y2="228.1"/><line class="cls-3" x1="9.95" y1="240.7" x2="4.54" y2="240.7"/><line class="cls-3" x1="7.25" y1="243.41" x2="7.25" y2="238"/><line class="cls-3" x1="9.95" y1="250.61" x2="4.54" y2="250.61"/><line class="cls-3" x1="7.25" y1="253.31" x2="7.25" y2="247.9"/><line class="cls-3" x1="9.95" y1="260.51" x2="4.54" y2="260.51"/><line class="cls-3" x1="7.25" y1="263.22" x2="7.25" y2="257.81"/><line class="cls-3" x1="9.95" y1="270.42" x2="4.54" y2="270.42"/><line class="cls-3" x1="7.25" y1="273.12" x2="7.25" y2="267.71"/><line class="cls-3" x1="9.95" y1="280.32" x2="4.54" y2="280.32"/><line class="cls-3" x1="7.25" y1="283.02" x2="7.25" y2="277.62"/><line class="cls-3" x1="9.95" y1="290.22" x2="4.54" y2="290.22"/><line class="cls-3" x1="7.25" y1="292.93" x2="7.25" y2="287.52"/><line class="cls-3" x1="9.95" y1="300.13" x2="4.54" y2="300.13"/><line class="cls-3" x1="7.25" y1="302.83" x2="7.25" y2="297.42"/><line class="cls-3" x1="9.95" y1="310.03" x2="4.54" y2="310.03"/><line class="cls-3" x1="7.25" y1="312.74" x2="7.25" y2="307.33"/><line class="cls-3" x1="9.95" y1="319.94" x2="4.54" y2="319.94"/><line class="cls-3" x1="7.25" y1="322.64" x2="7.25" y2="317.23"/><line class="cls-3" x1="9.95" y1="329.84" x2="4.54" y2="329.84"/><line class="cls-3" x1="7.25" y1="332.54" x2="7.25" y2="327.13"/><line class="cls-3" x1="9.95" y1="339.74" x2="4.54" y2="339.74"/><line class="cls-3" x1="7.25" y1="342.45" x2="7.25" y2="337.04"/><line class="cls-3" x1="9.95" y1="349.65" x2="4.54" y2="349.65"/><line class="cls-3" x1="7.25" y1="352.35" x2="7.25" y2="346.94"/></g></g></svg>