<svg xmlns="http://www.w3.org/2000/svg" viewBox="0 0 635.94 286.02"><defs><style>.cls-1{fill:#fff;}</style></defs><g id="Calque_2" data-name="Calque 2"><g id="Calque_1-2" data-name="Calque 1"><path class="cls-1" d="M202.35,267.21q-4-4.75-4-13.33a22.62,22.62,0,0,1,1.9-9.6,14.24,14.24,0,0,1,13.49-8.61,12,12,0,0,1,6.6,1.74,11.52,11.52,0,0,1,4.12,4.49h.47V222.35h8.63v48.87h-8v-6.89H225A12.27,12.27,0,0,1,213.29,272,13.62,13.62,0,0,1,202.35,267.21Zm20.15-4.76c1.58-2,2.38-4.88,2.38-8.63s-.8-6.69-2.38-8.67a7.89,7.89,0,0,0-6.53-3,7.45,7.45,0,0,0-6.39,3q-2.25,3-2.25,8.61t2.35,8.6a7.52,7.52,0,0,0,6.29,3A7.86,7.86,0,0,0,222.5,262.45Z"/><path class="cls-1" d="M274,260.91l4.61,5.36a18.77,18.77,0,0,1-6.12,4.15,20.36,20.36,0,0,1-8.13,1.54q-8.17,0-12.83-4.82t-4.65-13.32a20,20,0,0,1,2.14-9.31,16,16,0,0,1,6-6.49,16.5,16.5,0,0,1,8.8-2.35c5.36,0,9.38,1.77,12.09,5.29s4,8.55,4,15.07H255.8a10,10,0,0,0,2.92,6.56,9.09,9.09,0,0,0,6.33,2.2A12.31,12.31,0,0,0,274,260.91Zm-15.4-16.67a11,11,0,0,0-2.68,6H271a10.16,10.16,0,0,0-2.14-6,6.23,6.23,0,0,0-4.95-2.07A7,7,0,0,0,258.62,244.24Z"/><path class="cls-1" d="M290.82,266.34l4-5.36q4.62,4.81,10.17,4.82a7.23,7.23,0,0,0,4.06-1,3.53,3.53,0,0,0,0-5.76,19,19,0,0,0-5.56-1.91q-6.09-1.4-8.77-3.85a8.8,8.8,0,0,1-2.68-6.86,9.59,9.59,0,0,1,3.62-7.83q3.62-2.94,9.91-3a22.45,22.45,0,0,1,6.63,1,18.07,18.07,0,0,1,5.95,3.11l-3.55,5.83A20.48,20.48,0,0,0,310.2,243a12,12,0,0,0-4.52-.83,6.54,6.54,0,0,0-3.88,1,3.28,3.28,0,0,0-1.41,2.64,3.14,3.14,0,0,0,1.54,2.75,19.29,19.29,0,0,0,5.63,1.94c4.1,1,7,2.26,8.7,3.85a8.55,8.55,0,0,1,2.54,6.59,10,10,0,0,1-3.54,8.07q-3.56,3-9.78,3Q296.45,272,290.82,266.34Z"/><path class="cls-1" d="M332.73,230a5.21,5.21,0,0,1-1.54-3.79,5.1,5.1,0,0,1,1.54-3.75,5.67,5.67,0,0,1,7.77,0,5.14,5.14,0,0,1,1.54,3.75,5.47,5.47,0,0,1-9.31,3.79Zm8.1,41.2h-8.57V236.41h8.57Z"/><path class="cls-1" d="M363.76,284.71a20.18,20.18,0,0,1-6.26-3.24l4.22-6.43a18.16,18.16,0,0,0,4.89,2.88,15.7,15.7,0,0,0,5.56.93c2.89,0,5.07-.89,6.52-2.67s2.18-4.33,2.18-7.63v-3.76h-.47a12.45,12.45,0,0,1-4.19,4.79,11.82,11.82,0,0,1-6.66,1.71,13.5,13.5,0,0,1-10.81-4.65q-4-4.67-4-13.09a22.2,22.2,0,0,1,1.87-9.41A14,14,0,0,1,370,235.67a11.62,11.62,0,0,1,6.83,2,12.53,12.53,0,0,1,4.29,5h.47v-6.29h7.9v32.74q0,7.64-4.46,12.25T372.1,286A25.58,25.58,0,0,1,363.76,284.71Zm14.86-22.86q2.25-2.88,2.25-8.37t-2.25-8.37a7.54,7.54,0,0,0-6.32-2.88,7.4,7.4,0,0,0-6.33,2.92q-2.18,2.91-2.17,8.33c0,3.62.75,6.4,2.27,8.34a7.41,7.41,0,0,0,6.16,2.91A7.61,7.61,0,0,0,378.62,261.85Z"/><path class="cls-1" d="M405.5,271.22V236.41h8v7.36h.47a14.41,14.41,0,0,1,4.72-6.12,12.07,12.07,0,0,1,7.06-2q5.76,0,8.84,3.55t3.08,10.11v21.89h-8.57v-19q0-4.76-1.67-7T422.11,243a6.89,6.89,0,0,0-6,2.85q-2,2.84-2,8.33v17.07Z"/><path class="cls-1" d="M285.91,44.46H259.28V0h26.37V7.26H267.88V17.9H284v7.33H267.88v12h18Z"/><path class="cls-1" d="M300.37,44.46V0h13.37A28.6,28.6,0,0,1,326.8,2.74,19,19,0,0,1,335,10.48a23.62,23.62,0,0,1,2.8,11.75A23.29,23.29,0,0,1,335,33.92a19.22,19.22,0,0,1-8.38,7.77,29.77,29.77,0,0,1-13.44,2.77Zm12.86-7.26q7.51,0,11.5-3.85t4-11.18q0-7.26-3.88-11.09T313.68,7.26H309V37.2Z"/><path class="cls-1" d="M359.27,44.46h-8.6V0h26V7.26H359.27V18.47h16.62v7.26H359.27Z"/><rect class="cls-1" y="153.69" width="9.6" height="29.5"/><path class="cls-1" d="M50.63,97.15a25.13,25.13,0,0,1,1.4,8.62q0,12.23-6.89,18.11t-22.38,5.89H9.6V116.39H0v37.3H9.6V138.75H22.76q19.35,0,29.27-8.67t9.91-24.31q0-14.05-9.72-22.34s0,0,0,0c-.59-.5-1.22-1-1.86-1.42q-1,5.27-2.28,10.46A17.82,17.82,0,0,1,50.63,97.15Z"/><path class="cls-1" d="M9.6,84.09h16a42.19,42.19,0,0,1,11.3,1.37q1-4.38,1.72-8.81a52,52,0,0,0-13-1.54H0v28.77H9.6Z"/><path class="cls-1" d="M150.82,132.13v-57h-9.61V142.7q5-3.75,9.61-7.89Z"/><rect class="cls-1" x="205.47" y="75.11" width="9.6" height="49.45"/><path class="cls-1" d="M198.27,167.63c-.39.43-.81.82-1.23,1.22q2.73,3.79,5.69,7.41a34.65,34.65,0,0,0,6.85-8.09q5.49-8.83,5.5-23.23V124.55h-9.61v20.08Q205.47,159.66,198.27,167.63Z"/><path class="cls-1" d="M178.22,175.6q-13.93,0-20.67-8.52a28.48,28.48,0,0,1-3.29-5.3,34.16,34.16,0,0,1-3.07-10.95q-4.26,3.34-8.71,6.4a34.15,34.15,0,0,0,4.31,11.09q5.58,8.84,13.86,12.47a43.3,43.3,0,0,0,17.57,3.64,42.77,42.77,0,0,0,13.35-2.09q-3-3.72-5.69-7.59A33.72,33.72,0,0,1,178.22,175.6Z"/><polygon class="cls-1" points="312.47 121.49 302.87 121.49 302.87 153.98 302.87 161.51 312.47 161.51 312.47 153.98 312.47 121.49"/><polygon class="cls-1" points="302.87 162.96 302.87 183.19 354.43 183.19 354.43 174.21 312.47 174.21 312.47 162.96 312.47 161.51 302.87 161.51 302.87 162.96"/><rect class="cls-1" x="302.87" y="75.11" width="9.6" height="33.87"/><path class="cls-1" d="M444.63,88q6.42-5.36,17.73-5.35a33,33,0,0,1,14.55,3,38.75,38.75,0,0,1,11.62,9.13l6.5-6.66Q482.49,73.88,462.2,73.87a40.46,40.46,0,0,0-17.57,3.64,28.91,28.91,0,0,0-12,10.14,23.83,23.83,0,0,0-1.6,2.81q4.37,2,8.86,3.63A17.28,17.28,0,0,1,444.63,88Z"/><path class="cls-1" d="M483.93,145.88a18.26,18.26,0,0,1,2,8.66q0,10.38-7,15.79t-17.73,5.43a34.85,34.85,0,0,1-16.49-4,50.26,50.26,0,0,1-13.86-10.84l-6.19,6.66a49.86,49.86,0,0,0,16.33,12.7,48.28,48.28,0,0,0,20.67,4.18,41.28,41.28,0,0,0,17.58-3.64,28.54,28.54,0,0,0,12.23-10.46,29.22,29.22,0,0,0,4.41-16.25q0-9.45-4.33-15.33a29.33,29.33,0,0,0-5.32-5.52,30,30,0,0,0-4.55-3c0,4-.18,7.94-.47,11.89A15.12,15.12,0,0,1,483.93,145.88Z"/><path class="cls-1" d="M469,125.09c-1.57-.51-3.2-1-4.93-1.52a110.3,110.3,0,0,1-14.63-5,20.9,20.9,0,0,1-8.29-6.27,13.35,13.35,0,0,1-1.84-3.54c-.2-.55-.36-1.12-.51-1.71q-5.31-1.87-10.47-4.08h0c.07,6,1.46,10.89,4.23,14.66a28.83,28.83,0,0,0,10.76,9,85.76,85.76,0,0,0,16.11,5.65,92,92,0,0,1,9.56,3c.07-1.84.12-3.67.12-5.5C469.1,128.21,469,126.65,469,125.09Z"/><polygon class="cls-1" points="586.7 102.88 586.7 84.09 634.23 84.09 634.23 75.11 577.1 75.11 577.1 102.88 577.1 108.97 586.7 108.97 586.7 102.88"/><polygon class="cls-1" points="577.1 162.96 577.1 183.19 635.93 183.19 635.93 174.21 586.7 174.21 586.7 162.96 586.7 161.51 577.1 161.51 577.1 162.96"/><polygon class="cls-1" points="586.7 132.09 631.6 132.09 631.6 123.11 586.7 123.11 586.7 121.49 577.08 121.49 577.08 148.99 586.7 148.99 586.7 132.09"/><rect class="cls-1" x="302.87" y="108.97" width="9.6" height="12.51"/><polygon class="cls-1" points="586.7 148.99 577.08 148.99 577.08 153.98 577.1 153.98 577.1 161.51 586.7 161.51 586.7 153.98 586.7 148.99"/><polygon class="cls-1" points="586.7 111.86 586.7 108.97 577.1 108.97 577.1 111.86 577.08 111.86 577.08 121.49 586.7 121.49 586.7 111.86"/><polygon class="cls-1" points="9.6 109.54 9.6 103.88 0 103.88 0 109.54 0 116.39 9.6 116.39 9.6 109.54"/><path class="cls-1" d="M38.57,76.65q-.74,4.42-1.72,8.81a25.47,25.47,0,0,1,5.48,2.18,19.25,19.25,0,0,1,2.88,1.87A16.27,16.27,0,0,1,48,92.43q1.3-5.19,2.28-10.46a33.15,33.15,0,0,0-9.15-4.6C40.33,77.09,39.45,76.87,38.57,76.65Z"/><path class="cls-1" d="M151.07,150c-.13-1.28-.2-2.59-.23-3.94,0-.27,0-.53,0-.81V134.81q-4.65,4.14-9.61,7.89v2.09c0,2.11.11,4.11.28,6,.11,1.13.23,2.24.39,3.31s.38,2.09.6,3.1q4.46-3.06,8.71-6.4C151.15,150.55,151.1,150.28,151.07,150Z"/><path class="cls-1" d="M475,127.26q-2.82-1.11-6.05-2.17c.05,1.56.11,3.12.11,4.68,0,1.83-.05,3.66-.12,5.5a52.94,52.94,0,0,1,7,3.18,35.68,35.68,0,0,1,3.22,2,16.2,16.2,0,0,1,2,1.69c.29-3.95.46-7.93.47-11.89-.38-.21-.73-.45-1.13-.64C478.82,128.81,477,128,475,127.26Z"/><path class="cls-1" d="M438.2,102.05a20.17,20.17,0,0,1,.46-4.33,16.52,16.52,0,0,1,1.23-3.63q-4.49-1.68-8.86-3.63c-.07.14-.15.27-.22.42a26.82,26.82,0,0,0-2.52,11.64c0,.14,0,.27,0,.42q5.16,2.2,10.47,4.08A20.22,20.22,0,0,1,438.2,102.05Z"/><path class="cls-1" d="M185.88,174.75q2.73,3.87,5.69,7.59a41.88,41.88,0,0,0,4.23-1.63,28.61,28.61,0,0,0,6.93-4.45q-3-3.62-5.69-7.41A23.55,23.55,0,0,1,185.88,174.75Z"/></g></g></svg>