<svg xmlns="http://www.w3.org/2000/svg" viewBox="0 0 251 150.64"><defs><style>.cls-1,.cls-2{fill:none;}.cls-1,.cls-2,.cls-3,.cls-4{stroke:#dcdcc4;stroke-miterlimit:10;}.cls-1,.cls-2,.cls-4{stroke-linecap:round;}.cls-2{stroke-dasharray:12.28 12.28;}</style></defs><g id="Calque_2" data-name="Calque 2"><g id="Soleil"><path class="cls-1" d="M.5,150.05q0-3,.14-6"/><path class="cls-2" d="M1.82,131.82a125,125,0,0,1,248.1,6.1"/><path class="cls-1" d="M250.36,144.05q.13,3,.14,6"/><circle cx="77.35" cy="35.1" r="35.1"/><circle class="cls-3" cx="77.35" cy="35.1" r="12.5"/><line class="cls-1" x1="94.52" y1="35.1" x2="104.52" y2="35.1"/><line class="cls-1" x1="77.35" y1="52.24" x2="77.35" y2="62.24"/><line class="cls-1" x1="89.85" y1="46.87" x2="96.92" y2="53.94"/><line class="cls-1" x1="84.34" y1="50.74" x2="88.17" y2="59.98"/><line class="cls-1" x1="93.38" y1="41.11" x2="102.62" y2="44.93"/><line class="cls-1" x1="77.35" y1="17.92" x2="77.35" y2="7.92"/><line class="cls-1" x1="94.49" y1="35.1" x2="104.49" y2="35.1"/><line class="cls-1" x1="89.12" y1="22.6" x2="96.19" y2="15.53"/><line class="cls-1" x1="92.99" y1="28.1" x2="102.23" y2="24.28"/><line class="cls-1" x1="83.35" y1="19.06" x2="87.18" y2="9.82"/><line class="cls-1" x1="60.17" y1="35.1" x2="50.17" y2="35.1"/><line class="cls-1" x1="77.35" y1="52.24" x2="77.35" y2="62.24"/><line class="cls-1" x1="64.85" y1="46.87" x2="57.78" y2="53.94"/><line class="cls-1" x1="70.35" y1="50.74" x2="66.52" y2="59.98"/><line class="cls-1" x1="61.31" y1="41.11" x2="52.07" y2="44.93"/><line class="cls-1" x1="77.35" y1="17.92" x2="77.35" y2="7.92"/><line class="cls-1" x1="60.21" y1="35.1" x2="50.21" y2="35.1"/><line class="cls-1" x1="65.57" y1="22.6" x2="58.5" y2="15.53"/><line class="cls-1" x1="61.7" y1="28.1" x2="52.46" y2="24.28"/><line class="cls-1" x1="71.34" y1="19.06" x2="67.51" y2="9.82"/><path d="M235.83,150.57H15.17a110.33,110.33,0,0,1,220.66,0Z"/><path class="cls-4" d="M225.5,150.05H25.5a100,100,0,1,1,200,0Z"/><g id="JOm1Ro"><path class="cls-1" d="M110.91,51.13c3.69.08,3.19,1.84,1.69,5.07-2.2,4.72-4.09,5.27-8.36,2.46a4.31,4.31,0,0,0-.87-.47c-1.77-.63-9.44,1.52-10.82,2.89a16.19,16.19,0,0,1-3.82,3.13A2.94,2.94,0,0,0,87,68c.32,1.36.7,3,2.34,3.31a3.54,3.54,0,0,0,3.87-2c1.84-3.91,6.3-4.55,9.11-7.35,1.37-1.37,3.75,1.42,5.79,2.05,1.35.42.77,1.81.28,2.86-.73,1.54.72,2.39,1.16,3.57.7,1.9,2.5,3.94.61,5.82-1.73,1.71-3.79,3.34-6.7,2.06-.77-.35-2.29-.9-2.47,1-.36,3.6-3.11,4.15-5.74,3.77a9.89,9.89,0,0,0-6.68,1.24c-3.67,2.2-8.32,3.14-10.24,7.78-.93,2.26-3.62,2.78-5.27,4.42-1,1-1.85,1.83-1.27,3.38s-.26,2.59-1,3.67c-1,1.36-2,2.94-3.82,2.82-2-.13-2.72-2-3.47-3.62s-.4-4.33-2.57-4.65c-2.75-.4-5.81-1-8.43.59-4.44,2.76-8.27,9.32-2.77,14.34a3,3,0,0,0,1.31.84c3.11.87,3.9,2.76,2,5.57-1.3,1.91-2,3,.9,4,1.69.6,2.44,2.48,2.43,4.4a4.9,4.9,0,0,0,1.08,3.33c4,4.95,5,4.51,8.37.16,1.27-1.63,2.91-1.73,4.78-1.27,4.23,1,8.9,1.88,12.31,4,5.68,3.59,12.93,4.88,17,10.87a44.07,44.07,0,0,1,2.8,5H56.05c.22-2.68.23-2.19,1.5-4.62,1.7-3.25,1.05-4.88-2.16-6.33a3.29,3.29,0,0,1-2.23-2.28c-.83-5.9-5.09-10.15-7.27-15.39-.43-1.06-1.33-1.38-2.22-1.84-6.26-3.19-6.35-6.7-5.83-13.63a20.19,20.19,0,0,1,1.25-5.41c8.47-15.25,24.4-31.38,43.73-40.72C91.45,55.61,103.38,51.93,110.91,51.13Z"/><path class="cls-1" d="M194.05,150.14c-.92-2.15-8.39-5.17-10.73-4.62-7.28,1.7-14.31,2.2-20.66-3.17-2.76-2.34-3.71-4.93-2.77-8.12a30.15,30.15,0,0,0,1.34-12.14c-.6-5.66.65-11.3,6.56-14.37,1.32-.69,1.72-1.87,2.19-3.15,1-2.77,2.68-4.83,6.06-4.56,1.45.12,2.66-.8,4.07-1.06A21.66,21.66,0,0,1,197,102.67a5.31,5.31,0,0,0,4.42.88,7.91,7.91,0,0,1,6.08.36c1,.51,2.42.3,1.82-1.11-.74-1.78-2.29-4.65-3.33-4.58-2.94.19-5.25-2.51-8.17-1.33-.19.08-.58.1-.63,0-1.83-3.31-4.68-.89-7-1.26-1.71-.27-3.15-.8-2.24-3,.35-.84,0-1.2-.61-1.6C185.74,90,179,91.2,178,92.74a8.27,8.27,0,0,1-13.58.42,4.42,4.42,0,0,1-.43-5.28c1-1.63,2.77-2,4.7-1.66,4.18.76,8.78-3.81,8.33-8-.18-1.65-1.59-2.6-2.39-3.31-2.29-2-3.55-5.66-7.59-5.45-1.86.09-2.72-1.64-3.47-3.11s-1.21-3.25-2.31-4.65a1.86,1.86,0,0,1-.16-2.19c.58-.88,1.28-.42,2.05-.26a48,48,0,0,0,5,.33C190.5,70.9,207.29,87.62,217.67,112a100.28,100.28,0,0,1,7.83,38Z"/><path class="cls-1" d="M139,53.71c1.42,3.47.24,5.55-3.44,6.7a12.4,12.4,0,0,0-6.71,4.39c-1.52,2.14-3.18,3.76-6,2.53-2.46-1.06-3.64-4-2.78-7.06.5-1.78,1.6-3.44,0-5.24-.46-.51-.14-1.54.69-1.36,1.69.38,3.33-.59,4.91-.17,4.11,1.1,8.16.19,12.23-.06Z"/><path class="cls-1" d="M165.23,82.37a2.26,2.26,0,0,1-2.69-2.07c-.24-2-.89-3.08-3.14-2.17a2.11,2.11,0,0,1-2.68-.65c-.7-1-.2-1.92.47-2.69a3.55,3.55,0,0,0,.7-3.86c-.57-1.89.3-2.9,2.56-2,3.9,1.63,6.25,5,8.7,8C171,79.28,168.54,82.46,165.23,82.37Z"/><path class="cls-1" d="M68.72,115.77c.35.28.72.73.84.67,3.12-1.5,6.12.2,9.17.26a3.91,3.91,0,0,1,3.47,1.47,1.22,1.22,0,0,1-.25,1.77,3.36,3.36,0,0,1-3.74.53c-1.38-.77-2.36-1.06-3.83-.17a2.83,2.83,0,0,1-3.41-.4,2,2,0,0,0-2.66-.28,2.43,2.43,0,0,1-3.41-1.08c-.77-1.42.68-1.84,1.65-2.29,1.56-.73,1.13-1.42,0-2s-2.6-1.2-3.92-1.76c-.82-.34-1.87-.57-1.77-1.66.12-1.28,1.31-1.31,2.29-1.44,2.2-.29,7.06,2.09,7.92,4.05C72,115.55,69.54,114.9,68.72,115.77Z"/></g></g></g></svg>